<?xml version="1.0" encoding="utf-8"?>
<!-- Generator: Adobe Illustrator 21.0.2, SVG Export Plug-In . SVG Version: 6.00 Build 0)  -->
<svg version="1.1" id="Слой_1" xmlns="http://www.w3.org/2000/svg" xmlns:xlink="http://www.w3.org/1999/xlink" x="0px" y="0px"
	 viewBox="0 0 512 512" style="enable-background:new 0 0 512 512;" xml:space="preserve">
<style type="text/css">
	.st0{fill:#DE5833;}
	.st1{fill:#F7A441;}
	.st2{fill:#DE5833;}
	.st3{fill:#FFE43D;}
</style>
<g>
	<path class="st0" d="M512,256c0,141.4-114.6,256-256,256c-3.8,0-7.5-0.1-11.2-0.3c-30.3-1.3-59.1-7.8-85.8-18.8
		c-34.3-14-64.9-35.3-89.9-62C52,412.8,37.5,392,26.4,369.2C9.5,335.1,0,296.7,0,256C0,114.6,114.6,0,256,0c3.7,0,7.5,0.1,11.2,0.3
		C297.4,1.5,326.3,8.1,353,19c34.3,14.1,64.9,35.4,89.8,62c17.1,18.3,31.6,39,42.8,61.8C502.5,176.9,512,215.4,512,256z"/>
	<path class="st1" d="M353,19L133,239c-10.8,10.8-16,25.1-15.7,39.3l-58.9,58.9C32.6,288.9,40,227.4,80.7,186.8L267.2,0.3
		C297.4,1.5,326.3,8.1,353,19z"/>
	<path class="st1" d="M379.1,197c10.1,10.1,15.3,23.3,15.7,36.6L261.1,367.2c-24.9,24.9-57.6,37.3-90.2,37.3c-20.7,0-41.5-5-60.2-15
		l58.8-58.8c14.2,0.4,28.5-4.9,39.3-15.7l133.6-133.6C355.8,181.7,369,186.9,379.1,197z"/>
	<path class="st1" d="M497.7,130.7l-44.1,44.1c-5.8-10.8-13.2-20.9-22.3-30c-9.1-9.1-19.2-16.5-30-22.3l44.1-44.1
		c14.4-14.4,37.8-14.4,52.3,0C512.1,92.9,512.1,116.2,497.7,130.7z"/>
	<path class="st2" d="M169.5,330.6l-58.8,58.8c-10.8-5.8-20.9-13.2-30-22.3c-9.1-9.1-16.5-19.2-22.3-30l58.9-58.9
		c0.3,13.3,5.6,26.5,15.7,36.6C143.1,325.1,156.2,330.3,169.5,330.6z"/>
	<path class="st3" d="M80.7,367.2c9.1,9.1,19.2,16.5,30,22.3l-44.1,44.1c-14.4,14.4-37.8,14.4-52.3,0c-14.4-14.4-14.4-37.8,0-52.3
		l44.1-44.1C64.2,348,71.6,358.2,80.7,367.2z"/>
	<path class="st2" d="M453.6,174.8l-58.9,58.9c-0.3-13.3-5.5-26.5-15.7-36.6c-10.1-10.1-23.3-15.3-36.6-15.7l58.9-58.9
		c10.8,5.8,20.9,13.2,30,22.3C440.4,153.9,447.8,164,453.6,174.8z"/>
	<path class="st3" d="M169.5,330.6c-13.3-0.3-26.5-5.6-36.6-15.7c-10.1-10.1-15.4-23.3-15.7-36.6l133.6-133.6
		c40.7-40.7,102.2-48.1,150.5-22.3l-58.9,58.9c-14.2-0.4-28.5,4.9-39.3,15.7L169.5,330.6z"/>
	<path class="st3" d="M431.3,325.2L244.8,511.8c-30.3-1.3-59.1-7.8-85.8-18.8l220-220c10.8-10.8,16-25.1,15.7-39.3l58.9-58.9
		C479.4,223,472,284.6,431.3,325.2z"/>
</g>
</svg>
