<?xml version="1.0" standalone="no"?>
<!DOCTYPE svg PUBLIC "-//W3C//DTD SVG 20010904//EN"
 "http://www.w3.org/TR/2001/REC-SVG-20010904/DTD/svg10.dtd">
<svg version="1.0" xmlns="http://www.w3.org/2000/svg"
 width="359.000000pt" height="359.000000pt" viewBox="0 0 359.000000 359.000000"
 preserveAspectRatio="xMidYMid meet">
<metadata>
Created by potrace 1.11, written by Peter Selinger 2001-2013
</metadata>
<g transform="translate(0.000000,359.000000) scale(0.100000,-0.100000)"
fill="#000000" stroke="none">
<path d="M1715 3578 c-30 -11 -1373 -783 -1388 -798 -7 -7 112 -84 218 -140
64 -34 731 -423 757 -441 15 -10 29 -19 32 -19 2 0 108 -60 235 -134 l230
-134 288 167 c158 92 489 284 736 426 246 143 447 262 447 265 0 3 -26 20 -57
38 -81 45 -144 81 -248 142 -113 66 -149 87 -205 118 -25 14 -57 33 -72 43
-14 11 -29 19 -33 19 -4 0 -34 16 -68 36 -152 90 -560 326 -674 390 -49 28
-153 39 -198 22z"/>
<path d="M190 1755 l0 -807 26 -54 c14 -30 41 -66 62 -82 30 -23 233 -143 422
-249 19 -11 148 -85 285 -165 380 -220 672 -388 677 -388 3 0 4 381 4 847 l-1
847 -460 269 c-253 147 -469 272 -480 278 -11 5 -36 19 -55 30 -68 41 -337
198 -376 219 -21 12 -54 31 -72 42 l-32 20 0 -807z"/>
<path d="M3300 2498 c-47 -27 -128 -75 -180 -105 -52 -30 -102 -59 -110 -64
-16 -9 -372 -216 -645 -374 -88 -51 -225 -130 -305 -176 l-145 -84 -1 -843 c0
-658 3 -842 12 -838 7 3 131 73 276 157 144 84 283 163 308 177 25 14 74 42
109 64 34 21 64 38 66 38 1 0 54 30 116 66 63 37 130 76 149 86 196 111 351
207 377 234 65 69 63 45 61 921 l-3 791 -85 -50z"/>
</g>
</svg>
