<svg height="40" width="40" xmlns="http://www.w3.org/2000/svg"><path d="m37.495 29.7-9.198-11.641 3.268-3.502s-1.408-3.938-4.798-5.32a278.696 278.696 0 0 1 6.015-4.619c4.41 3.668 7.218 9.197 7.218 15.382 0 3.52-.909 6.828-2.505 9.7zm-23.023-21.362s-3.937 1.408-5.319 4.798a280.505 280.505 0 0 1 -4.543-5.911c3.67-4.414 9.202-7.225 15.39-7.225 3.539 0 6.863.919 9.747 2.531l-11.641 9.198zm-5.98 17.106s1.408 3.937 4.798 5.319a281.16 281.16 0 0 1 -6.045 4.642c-4.426-3.668-7.245-9.207-7.245-15.405 0-3.537.918-6.859 2.528-9.742l9.231 11.684zm17.092 6.218s3.938-1.408 5.32-4.798a280.697 280.697 0 0 1 4.515 5.875c-3.669 4.436-9.214 7.261-15.419 7.261-3.525 0-6.838-.912-9.714-2.513l11.665-9.216z" fill="#1d2227" fill-rule="evenodd"/></svg>