<svg height="40" width="44" xmlns="http://www.w3.org/2000/svg"><g fill-rule="evenodd"><path d="m11.603 29.178-5.706 10.255a4.21 4.21 0 0 1 -1.527-1.535l-3.839-6.664a4.16 4.16 0 0 1 -.537-2.056z" fill="#5a52ff"/><path d="m27.529.567-5.533 9.943-5.532-9.943a4.172 4.172 0 0 1 2.1-.567h6.865c.749 0 1.474.202 2.1.567z" fill="#5a86ff"/><path d="m43.999 29.178a4.17 4.17 0 0 1 -.537 2.056l-3.839 6.664a4.205 4.205 0 0 1 -1.528 1.535l-5.705-10.255z" fill="#4c69ff"/><path d="m38.095 39.433a4.168 4.168 0 0 1 -2.099.567h-27.999a4.174 4.174 0 0 1 -2.1-.567l5.706-10.255h20.787z" fill="#696aff"/><path d="m43.999 29.178h-11.609l-10.394-18.668 5.533-9.943a4.21 4.21 0 0 1 1.527 1.535l14.395 24.998a4.22 4.22 0 0 1 .548 2.078z" fill="#678fff"/><path d="m21.996 10.51-10.393 18.668h-11.609c0-.716.184-1.436.548-2.078l14.395-24.998a4.202 4.202 0 0 1 1.527-1.535z" fill="#7489ff"/><path d="m29.226 29.178h3.164l5.705 10.255zm-12.762-28.611 5.532 9.943-1.891 3.397z" fill="#314df3"/></g></svg>