<svg xmlns="http://www.w3.org/2000/svg" width="43" height="40">
    <path fill="#246DD3" fill-rule="evenodd" d="M41.925 21.075a1.075 1.075 0 1 1 0-2.15 1.075 1.075 0 0 1 0 2.15zm-4.3 9.463a1.29 1.29 0 1 1 0-2.58 1.29 1.29 0 0 1 0 2.58zm0-18.71a1.29 1.29 0 1 1 0-2.58 1.29 1.29 0 0 1 0 2.58zm.43 8.172a1.505 1.505 0 1 1-3.01 0 1.505 1.505 0 0 1 3.01 0zm-6.343 7.742a1.827 1.827 0 1 1 0-3.654 1.827 1.827 0 0 1 0 3.654zm0-11.828a1.827 1.827 0 1 1 0-3.654 1.827 1.827 0 0 1 0 3.654zm.108-12.688a1.075 1.075 0 1 1 0-2.15 1.075 1.075 0 0 1 0 2.15zm-2.795 5.161a1.505 1.505 0 1 1 0-3.01 1.505 1.505 0 0 1 0 3.01zm-3.978 8.602a2.903 2.903 0 1 1 .001-5.805 2.903 2.903 0 0 1-.001 5.805zm-3.44-6.882a1.827 1.827 0 1 1 0-3.654 1.827 1.827 0 0 1 0 3.654zM21.5 2.581a1.29 1.29 0 1 1 .002-2.582 1.29 1.29 0 0 1-.002 2.582zm-.43 11.505a2.903 2.903 0 1 1-5.807 0 2.903 2.903 0 0 1 5.807 0zm-7.095-5.699a1.505 1.505 0 1 1 0-3.01 1.505 1.505 0 0 1 0 3.01zM11.18 3.226a1.075 1.075 0 1 1 0-2.15 1.075 1.075 0 0 1 0 2.15zm.322 9.032a1.827 1.827 0 1 1 .001 3.655 1.827 1.827 0 0 1-.001-3.655zM6.45 21.505a1.505 1.505 0 1 1 0-3.01 1.505 1.505 0 0 1 0 3.01zm-.86-9.677a1.29 1.29 0 1 1 0-2.58 1.29 1.29 0 0 1 0 2.58zm-4.515 9.247a1.075 1.075 0 1 1 0-2.15 1.075 1.075 0 0 1 0 2.15zm4.515 6.882a1.29 1.29 0 1 1-.001 2.581 1.29 1.29 0 0 1 .001-2.581zm5.912-3.871a1.827 1.827 0 1 1 .001 3.655 1.827 1.827 0 0 1-.001-3.655zm-.322 12.688a1.075 1.075 0 1 1 0 2.15 1.075 1.075 0 0 1 0-2.15zm2.795-5.161a1.505 1.505 0 1 1 0 3.01 1.505 1.505 0 0 1 0-3.01zm-2.15-11.505a2.903 2.903 0 1 1 5.805-.003 2.903 2.903 0 0 1-5.805.003zm6.342 2.903a2.903 2.903 0 1 1 0 5.807 2.903 2.903 0 0 1 0-5.807zm3.44 6.881a1.828 1.828 0 1 1 0 3.656 1.828 1.828 0 0 1 0-3.656zm-.107 7.527a1.29 1.29 0 1 1-.002 2.582 1.29 1.29 0 0 1 .002-2.582zm.645-11.505a2.903 2.903 0 1 1 5.805-.001 2.903 2.903 0 0 1-5.805.001zm3.44-5.806a2.903 2.903 0 1 1 5.805-.003 2.903 2.903 0 0 1-5.805.003zm3.44 11.505a1.505 1.505 0 1 1 0 3.01 1.505 1.505 0 0 1 0-3.01zm2.795 5.161a1.075 1.075 0 1 1 0 2.15 1.075 1.075 0 0 1 0-2.15z"/>
</svg>
