<svg height="40" width="40" xmlns="http://www.w3.org/2000/svg"><g fill-rule="evenodd"><path d="m37.321 14.884a16.333 16.333 0 0 0 -3.278-6.18l1.557-1.286a18.444 18.444 0 0 1 3.665 6.926zm-32.538 13.512-1.686 1.106a18.465 18.465 0 0 1 -3.097-10.26c0-5.1 2.039-9.866 5.738-13.414l1.402 1.449c-3.295 3.162-5.118 7.414-5.118 11.965 0 3.265.954 6.437 2.761 9.154z" fill="#00bfec"/><path d="m33.264 34.617-1.565-1.835c3.733-3.137 5.875-7.714 5.875-12.556h2.426c0 5.545-2.452 10.791-6.736 14.391zm-13.973-3.019c-6.831 0-12.388-5.511-12.388-12.274 0-6.771 5.557-12.274 12.388-12.274 6.83 0 12.387 5.512 12.387 12.274 0 6.771-5.557 12.274-12.387 12.274zm0-22.148c-5.489 0-9.962 4.432-9.962 9.874 0 5.443 4.464 9.874 9.962 9.874 5.488 0 9.961-4.431 9.961-9.874 0-5.442-4.464-9.874-9.961-9.874zm.237-7.061c-2.821 0-5.608.712-8.052 2.066l-1.178-2.1a19.04 19.04 0 0 1 9.222-2.366c3.518 0 6.959.96 9.944 2.777l-1.264 2.049a16.668 16.668 0 0 0 -8.672-2.426zm-.218 35.199c2.693 0 5.265-.617 7.631-1.834l1.118 2.134a19.167 19.167 0 0 1 -8.749 2.109 19.19 19.19 0 0 1 -12.112-4.312l1.549-1.86a16.713 16.713 0 0 0 10.563 3.763z" fill="#004651"/></g></svg>