<svg height="54" viewBox="0 0 55 54" width="55" xmlns="http://www.w3.org/2000/svg" xmlns:xlink="http://www.w3.org/1999/xlink"><linearGradient id="a"><stop offset=".039" stop-color="#2cf4e1"/><stop offset="1" stop-color="#2cb2e1"/></linearGradient><linearGradient id="b" x1="69.558%" x2="39.93%" xlink:href="#a" y1="-13.269%" y2="82.202%"/><linearGradient id="c" x1="-24.618%" x2="147.594%" xlink:href="#a" y1="3.457%" y2="127.729%"/><linearGradient id="d" x1="21.51%" x2="69.351%" y1="17.32%" y2="84.775%"><stop offset="0" stop-color="#2ce5e1"/><stop offset="1" stop-color="#2cb2e1"/></linearGradient><linearGradient id="e" x1="49.992%" x2="49.992%" y1="99.959%" y2="0%"><stop offset="0"/><stop offset="1" stop-color="#3b3b3b"/></linearGradient><linearGradient id="f" x1="-1.389%" x2="101.329%" xlink:href="#a" y1="50.004%" y2="50.004%"/><g fill="none" transform="translate(0 2)"><ellipse cx="29.242" cy="20.314" fill="url(#b)" rx="15.045" ry="15.536"/><path d="m39.808 15.655c1.0724673 1.4981629 1.6468727 3.2955412 1.642 5.138 0 2.244-.896 4.317-2.422 5.996l.93 3.58h2.819l2.969-3.478.796-5.087.166-3.032-2.936-3.426z" fill="url(#c)"/><path d="m7.13 30.78.515 2.107s6.071 12.863 19.739 17.643c0 0 12.805-5.482 18.329-14.783l-7.995-6.869s-3.65 2.998-9.073 2.998c-5.425 0-12.79-3.34-12.79-10.226s7.63-9.404 7.63-9.404l-3.25-.822h-8.31l-5.275 13.12z" fill="url(#d)"/><path d="m53.061 16.956c-.232-.24-6.967-8.99-25.428-15.55-17.998 6.286-25.694 15.55-25.694 15.55.697 4.197 2.455 8.873 4.047 12.505.133.308 2.256 4.18 3.832 6.286-.929-2.107-1.94-3.94-1.94-7.091 0-8.89 6.667-16.119 15.01-16.427.2 0 .415 0 .614.017l-1.99-2.056s8.012-1.387 18.296 5.036c0 0 .15.326 0 1.285 0 0 4.843 2.158 5.258 6.355s-2.156 6.595-4.23 6.937c0 0 1.078-1.73-.58-2.655-.3582561-.2024357-.7671801-.2975505-1.178-.274-3.168 0-3.533 3.734-3.533 3.734-.033.189-.033.377-.033.566 0 0-.531 5.464 8.89 5.361 0 0 4.778-5.584 6.038-10.603.465-1.85.796-3.237 1.012-4.265.53-1.456 1.045-2.963 1.543-4.522z" fill="url(#e)"/><path d="m35.71 16.888c.133-.069.565-.291 1.062-.822.996.137 1.974.462 1.974.462-1.808-1.13-4.28-1.798-7.016-1.781 0 0 1.045 1.541 3.948 2.175l.033-.034z" fill="#282828"/><path d="m54.202 15.057-.12.706c-.065.55-.496 2.516-1.027 4.4-.9650626 3.4378486-2.242031 6.7803928-3.815 9.986-2.203 4.463-4.88 8.358-7.95 11.562-3.788 3.947-8.17 6.861-13.055 8.677l-.272.1-.518.207-.514-.187-.286-.104c-4.896-1.82-9.291-4.74-13.054-8.678-3.083-3.237-5.755-7.12-7.947-11.561-2.04894091-4.1860904-3.59245981-8.6011319-4.598-13.152-.08602789-.3898997-.16338032-.7816631-.232-1.175l-.125-.726.29-.255.216-.188c4.485-3.924 9.79-7.29 15.52-10.118 3.815-1.884 7.304-3.283 9.94-4.161l.774-.252.527.163.262.09c2.63.877 6.119 2.276 9.935 4.16 5.72 2.824 11.018 6.184 15.498 10.1l.55.406zm-52.1.449c-.001-.005-.002-.005-.001 0zm.24 1.21c.197.92.45 1.951.767 3.075.94003286 3.3572037 2.18418209 6.6217147 3.717 9.753 2.132 4.318 4.725 8.086 7.71 11.22 3.624 3.792 7.85 6.6 12.555 8.349l.331.12.368-.136c4.694-1.744 8.907-4.547 12.558-8.35 2.97-3.1 5.567-6.88 7.71-11.22 1.5349935-3.1289496 2.7811639-6.3914859 3.723-9.747.319-1.13.574-2.167.768-3.078.0741318-.3454357.1421425-.6921567.204-1.04-4.376-3.818-9.565-7.106-15.172-9.875-3.76-1.855-7.194-3.233-9.777-4.094l-.248-.085.21-.65-.191.656-.332-.103.19-.656.2.654-.576.186c-2.577.86-6.011 2.237-9.77 4.092-5.602 2.766-10.786 6.05-15.16 9.863l-.29.254-.429-.524.654-.119.05.292-.654.119.643-.166c.07.376.16.84.24 1.21zm37.276 23.311c2.896-3.024 5.43-6.714 7.527-10.963 1.3612215-2.7731091 2.4920342-5.6534872 3.381-8.612.4429498-1.4468403.8186853-2.91341 1.126-4.395-4.408-3.758-9.61-6.979-15.204-9.676-1.9821125-.95641822-3.9999061-1.83705551-6.049-2.64-.9797061-.38633052-1.9686653-.74877107-2.966-1.087-.784.262-1.78.62-2.972 1.086-2.0489557.80285033-4.0664323 1.68382847-6.048 2.641-5.588 2.696-10.79 5.917-15.199 9.677.30422063 1.4874439.67830141 2.9597405 1.121 4.412.88713837 2.9651714 2.02006607 5.8511767 3.387 8.628 2.09 4.233 4.62 7.911 7.527 10.946 3.532 3.68 7.616 6.393 12.185 8.097 4.554-1.7 8.641-4.422 12.184-8.114zm8.71-10.341c-2.159 4.371-4.771 8.177-7.767 11.305-3.74 3.898-8.073 6.76-12.906 8.523l-.221.08-.221-.08c-4.848-1.768-9.178-4.62-12.907-8.506-3.006-3.138-5.616-6.931-7.766-11.287-1.40126127-2.8463181-2.56262213-5.8045771-3.472-8.844-.595-1.977-.99-3.653-1.233-4.956l-.074-.396.3-.259c4.57-3.955 9.978-7.322 15.79-10.127 2.0117782-.97122595 4.0599396-1.86521168 6.14-2.68 1.0697103-.42218862 2.1507822-.81500254 3.242-1.178l.202-.066.201.067c.867.287 1.921.663 3.233 1.177 2.0799261.81511284 4.1280752 1.70909321 6.14 2.68 5.819 2.806 11.228 6.172 15.798 10.127l.3.26-.075.397c-.242 1.285-.643 2.964-1.239 4.937-.9109919 3.0320491-2.0699011 5.9840066-3.465 8.826z" fill="url(#f)"/></g></svg>