<svg height="36" width="40" xmlns="http://www.w3.org/2000/svg"><g fill-rule="evenodd"><path d="m39.864 13.436c-.008.011-.005.025-.014.036l-19.383 22.254c-.009.011-.022.014-.031.024-.011.01-.015.023-.025.033-.02.018-.045.025-.066.04a.739.739 0 0 1 -.059.038c-.018.009-.033.021-.052.029a.614.614 0 0 1 -.234.05.614.614 0 0 1 -.234-.05c-.019-.008-.034-.02-.052-.029a.739.739 0 0 1 -.059-.038c-.021-.015-.046-.022-.066-.04-.01-.01-.015-.023-.024-.033-.01-.01-.023-.013-.032-.024l-19.383-22.254c-.009-.011-.006-.025-.014-.036a.617.617 0 0 1 -.135-.338c-.001-.015.004-.027.004-.042 0-.12.033-.238.103-.344.005-.008.002-.018.007-.026.004-.004.009-.006.012-.011.003-.003.003-.008.006-.012l6.893-8.64a.633.633 0 0 1 .182-.154l.002-.002 5.079-2.828a.616.616 0 0 1 .3-.078h14.822c.105 0 .208.027.3.078l5.079 2.828.002.002c.068.039.13.089.182.154l6.893 8.64c.003.004.003.009.006.012l.012.011c.005.008.002.018.007.026.07.106.103.224.104.344 0 .015.004.027.003.042a.617.617 0 0 1 -.135.338zm-2.811 1.344-6.815 3.034-6.962 12.785zm-17.053 19.228 9.118-16.744-2.877-8.501h-12.482l-2.877 8.501zm-3.276-3.409-6.962-12.785-6.815-3.034zm-15.113-17.787 8.225 3.661 2.731-8.074-4.921-3.151zm25.641-10.595h-14.503l-4.018 2.238 4.764 3.051h13.01l4.764-3.051zm5.102 3.031-4.921 3.151 2.731 8.074 8.225-3.661zm-9.87 19.299v-.002z" fill="#202020"/><path d="m24.768 18.757a2.245 2.245 0 0 0 -.858-.858c-.25-.146-.611-.28-1.082-.401.44-.152.793-.342 1.061-.573a2.42 2.42 0 0 0 .617-.798c.143-.302.212-.62.212-.956 0-.462-.134-.886-.402-1.273-.27-.387-.655-.683-1.154-.89a3.633 3.633 0 0 0 -.676-.189v-1.795h-1.704v1.673h-1.097v-1.673h-1.705v1.673h-2.602v1.408h.398c.264 0 .443.024.537.073a.427.427 0 0 1 .199.197c.038.083.057.275.057.576v5.675c0 .295-.019.487-.057.572a.4.4 0 0 1 -.199.196c-.094.046-.273.07-.537.07h-.398l-.464 1.407h3.066v1.674h1.705v-1.674h.97l.126-.001v1.675h1.703v-1.817c.288-.055.538-.126.754-.213.588-.237 1.044-.584 1.365-1.038.322-.456.483-.953.483-1.492a2.41 2.41 0 0 0 -.318-1.228zm-4.908-4.416c.725 0 1.227.04 1.508.12s.496.216.645.405c.148.19.223.418.223.686 0 .257-.078.485-.235.682s-.389.344-.7.441c-.31.097-.791.146-1.441.146h-1.24v-2.48zm2.505 6.386c-.174.239-.431.417-.775.533-.344.118-.876.177-1.596.177h-1.374v-2.999h1.373c.804 0 1.36.049 1.671.146s.549.26.714.489c.165.23.247.506.247.829 0 .312-.086.587-.26.825z" fill="#ffb640"/></g></svg>