<svg height="23" width="40" xmlns="http://www.w3.org/2000/svg"><g fill-rule="evenodd"><path d="m31.429 11.5c0-6.351-5.117-11.5-11.429-11.5s-11.429 5.149-11.429 11.5 5.117 11.5 11.429 11.5 11.429-5.149 11.429-11.5z" fill="#f8930f"/><path d="m25.234 23a12.644 12.644 0 0 0 7.337-11.5c0-5.106-3.005-9.505-7.337-11.5h14.766v23zm-10.468 0h-14.766v-23h14.766a12.644 12.644 0 0 0 -7.338 11.5c0 5.106 3.006 9.505 7.338 11.5z" fill="#f8930f"/><path d="m24.543 10.681c-.183.287-.424.53-.722.728-.299.2-.677.344-1.137.439.456.188.799.373 1.03.556.334.256.584.587.747.989.163.403.215.833.156 1.294a2.612 2.612 0 0 1 -.678 1.451c-.381.419-.883.71-1.503.872a4.128 4.128 0 0 1 -.782.114l-.238 1.849-1.704-.232.219-1.705-.126-.015-.97-.133-.22 1.704-1.706-.232.219-1.704-3.067-.417.649-1.369.397.054c.265.036.447.036.547.003a.402.402 0 0 0 .225-.174c.049-.08.094-.273.132-.574l.744-5.774c.04-.307.046-.505.018-.594a.441.441 0 0 0 -.173-.228c-.088-.062-.264-.111-.528-.147l-.398-.054.185-1.433 2.603.354.219-1.703 1.707.233-.22 1.702 1.097.149.22-1.702 1.705.232-.235 1.826c.245.085.468.177.651.285.473.278.819.632 1.038 1.062s.297.881.236 1.35a2.284 2.284 0 0 1 -.337.944zm-6.193 1.551-.393 3.052 1.375.187c.72.098 1.26.111 1.62.037.36-.071.64-.217.845-.437.206-.219.328-.487.369-.804a1.437 1.437 0 0 0 -.139-.877 1.359 1.359 0 0 0 -.65-.595c-.299-.141-.848-.266-1.653-.376zm3.863-3.173c-.124-.213-.321-.38-.592-.5s-.767-.229-1.494-.328l-1.24-.168-.325 2.524 1.241.169c.65.088 1.137.104 1.461.047.323-.056.575-.174.758-.354.183-.179.291-.4.324-.662a1.123 1.123 0 0 0 -.133-.728zm-.798 9.916.001-.002z" fill="#fff"/></g></svg>