<svg height="40" width="40" xmlns="http://www.w3.org/2000/svg"><g fill-rule="evenodd"><path d="m20 0c11.046 0 20 8.954 20 20s-8.954 20-20 20-20-8.954-20-20 8.954-20 20-20z" fill="#303030"/><path d="m29.298 20.944c-.786-.864-1.92-1.404-3.4-1.62v-.031c1.296-.21 2.315-.741 3.007-1.591a4.653 4.653 0 0 0 1.078-3.008c0-1.826-.589-3.066-1.805-4.042-1.217-.976-3.045-1.296-5.521-1.296h-9.353v8.703h-5.371v3.334h14.66c1.153 0 2.02.081 2.592.542s.865 1.058.865 1.939c0 .882-.289 1.633-.865 2.106-.576.472-1.443.783-2.592.783h-5.028v-2.593h-4.259v5.926h9.657c2.455 0 4.333-.64 5.635-1.637 1.302-.996 1.913-2.468 1.913-4.274a4.762 4.762 0 0 0 -1.213-3.241zm-7.241-2.892h-4.492v-5.371h4.492c2.31 0 3.463.902 3.463 2.686 0 1.783-1.153 2.685-3.463 2.685z" fill="#fff"/></g></svg>