<?xml version="1.0" encoding="utf-8"?>
<!-- Generator: Adobe Illustrator 21.1.0, SVG Export Plug-In . SVG Version: 6.00 Build 0)  -->
<svg width="20" height="20" version="1.1"
	 id="Слой_1" xmlns:cc="http://creativecommons.org/ns#" xmlns:dc="http://purl.org/dc/elements/1.1/" xmlns:rdf="http://www.w3.org/1999/02/22-rdf-syntax-ns#"
	 xmlns="http://www.w3.org/2000/svg" xmlns:xlink="http://www.w3.org/1999/xlink" x="0px" y="0px" viewBox="0 0 63.993 64.001"
	 style="enable-background:new 0 0 63.993 64.001;" xml:space="preserve">
<g transform="translate(-289.60744,-317.50471)">
	<path style="fill:#F7931A;" d="M352.643,357.246c-4.274,17.143-21.637,27.576-38.782,23.301
		c-17.138-4.274-27.571-21.638-23.295-38.78c4.272-17.145,21.635-27.579,38.775-23.305
		C346.485,322.736,356.917,340.102,352.643,357.246L352.643,357.246z"/>
	<path style="fill:#FFFFFF;" d="M335.713,344.946c0.637-4.258-2.605-6.547-7.038-8.074l1.438-5.768l-3.511-0.875l-1.4,5.616
		c-0.923-0.23-1.871-0.447-2.813-0.662l1.41-5.653l-3.509-0.875l-1.439,5.766c-0.764-0.174-1.514-0.346-2.242-0.527l0.004-0.018
		l-4.842-1.209l-0.934,3.75c0,0,2.605,0.597,2.55,0.634c1.422,0.355,1.679,1.296,1.636,2.042l-1.638,6.571
		c0.098,0.025,0.225,0.061,0.365,0.117c-0.117-0.029-0.242-0.061-0.371-0.092l-2.296,9.205c-0.174,0.432-0.615,1.08-1.609,0.834
		c0.035,0.051-2.552-0.637-2.552-0.637l-1.743,4.019l4.569,1.139c0.85,0.213,1.683,0.436,2.503,0.646l-1.453,5.834l3.507,0.875
		l1.439-5.772c0.958,0.26,1.888,0.5,2.798,0.726l-1.434,5.745l3.511,0.875l1.453-5.823c5.987,1.133,10.489,0.676,12.384-4.739
		c1.527-4.36-0.076-6.875-3.226-8.515C333.524,349.572,335.252,348.063,335.713,344.946L335.713,344.946z M327.691,356.195
		c-1.085,4.36-8.426,2.003-10.806,1.412l1.928-7.729C321.193,350.472,328.825,351.648,327.691,356.195L327.691,356.195z
		 M328.777,344.883c-0.99,3.966-7.1,1.951-9.082,1.457l1.748-7.01C323.425,339.824,329.808,340.746,328.777,344.883z"/>
</g>
</svg>
