<svg height="40" width="40" xmlns="http://www.w3.org/2000/svg"><g fill-rule="evenodd"><path d="m40 20c0-11.046-8.954-20-20-20s-20 8.954-20 20 8.954 20 20 20 20-8.954 20-20z" fill="#f8930f"/><path d="m28.541 16.935a3.956 3.956 0 0 1 -.591 1.641c-.32.499-.742.922-1.263 1.267-.523.346-1.185.597-1.99.762.797.327 1.399.649 1.802.966a4.037 4.037 0 0 1 1.307 1.721c.286.7.378 1.449.274 2.25a4.53 4.53 0 0 1 -1.188 2.525c-.666.728-1.543 1.234-2.628 1.515a7.147 7.147 0 0 1 -1.37.198l-.417 3.216-2.981-.403.384-2.965-.221-.027-1.698-.23-.384 2.962-2.987-.403.384-2.962-5.368-.726 1.136-2.381.696.094c.462.063.782.062.957.004a.705.705 0 0 0 .393-.301c.086-.14.164-.475.232-.998l1.302-10.043c.069-.533.079-.878.031-1.033a.753.753 0 0 0 -.303-.395c-.153-.109-.462-.194-.925-.257l-.695-.094.323-2.492 4.555.616.384-2.961 2.986.403-.384 2.961 1.92.26.384-2.961 2.984.403-.411 3.177c.429.147.82.307 1.14.495.828.484 1.434 1.099 1.817 1.847a3.95 3.95 0 0 1 .413 2.349zm-11.428 4.339-.688 5.308 2.405.325c1.261.17 2.207.192 2.836.064.629-.125 1.12-.379 1.48-.76.359-.381.573-.847.645-1.398.074-.573-.007-1.081-.243-1.526-.236-.444-.616-.79-1.139-1.035-.523-.246-1.484-.463-2.892-.653zm6.76-5.52c-.218-.37-.563-.66-1.037-.868-.474-.209-1.342-.399-2.613-.571l-2.17-.293-.569 4.39 2.171.294c1.138.153 1.991.181 2.556.081.567-.097 1.007-.302 1.327-.614s.509-.696.568-1.152c.061-.474-.017-.895-.233-1.267zm-1.396 17.245v-.003h.002z" fill="#fff"/></g></svg>