<svg height="40" width="40" xmlns="http://www.w3.org/2000/svg"><g fill-rule="evenodd"><path d="m26.773 21.365a3.19 3.19 0 0 0 -1.22-1.206c-.354-.205-.867-.393-1.536-.564.624-.213 1.126-.479 1.507-.805a3.41 3.41 0 0 0 .876-1.122 3.08 3.08 0 0 0 .301-1.343c0-.649-.19-1.246-.572-1.79-.382-.543-.929-.96-1.638-1.25a5.208 5.208 0 0 0 -.961-.267v-2.522h-2.42v2.351h-1.557v-2.351h-2.422v2.351h-3.695v1.98h.564c.375 0 .63.034.764.102a.606.606 0 0 1 .282.277c.054.116.082.386.082.809v7.977c0 .416-.028.686-.082.804a.568.568 0 0 1 -.282.277c-.134.064-.389.097-.764.097h-.564l-.659 1.979h4.354v2.353h2.422v-2.353h1.377l.179-.002v2.355h2.419v-2.554a5.897 5.897 0 0 0 1.071-.299c.836-.334 1.483-.822 1.939-1.461.457-.64.685-1.339.685-2.096 0-.636-.15-1.211-.45-1.727zm-6.973-6.207c1.031 0 1.743.056 2.143.169.399.113.704.303.915.569.212.267.317.588.317.964 0 .362-.111.682-.334.959-.222.277-.552.484-.993.62-.441.137-1.123.205-2.047.205h-1.76v-3.486zm3.559 8.977c-.247.335-.612.585-1.101.749-.488.166-1.244.249-2.267.249h-1.95v-4.216h1.949c1.142 0 1.931.069 2.373.205.443.136.781.366 1.015.688.234.323.351.71.351 1.165 0 .438-.123.825-.37 1.16z" fill="#072162"/><path d="m20.173 33.477c-7.506 0-13.612-6.106-13.612-13.611 0-7.506 6.106-13.613 13.612-13.613 7.505 0 13.612 6.107 13.612 13.613 0 7.505-6.107 13.611-13.612 13.611zm0-25.329c-6.461 0-11.717 5.257-11.717 11.718s5.256 11.717 11.717 11.717 11.717-5.256 11.717-11.717-5.256-11.718-11.717-11.718z" fill="#072162"/><path d="m20 0c-11.046 0-20 8.954-20 20s8.954 20 20 20 20-8.954 20-20-8.954-20-20-20zm.173 35.129c-8.43 0-15.264-6.834-15.264-15.264s6.834-15.263 15.264-15.263c8.429 0 15.263 6.833 15.263 15.263s-6.834 15.264-15.263 15.264z" fill="#f7b511"/></g></svg>