<svg height="40" width="40" xmlns="http://www.w3.org/2000/svg"><g fill-rule="evenodd"><path d="m11.919 33.317-8.639 3.404 12.223 3.279zm28.081-8.82-6.68 3.584 3.405 8.644zm-36.72-21.222-3.28 12.229 6.68-3.589zm21.217-3.275 3.584 6.681 8.644-3.406z" fill="#777"/><path d="m22.951 24.736 17.049-9.232-13.143 13.139zm9.26-16.952-4.13-1.103 8.644-3.406 3.275 12.229zm-7.475 9.265-9.233-17.049 2.457 2.462 10.682 10.677zm-18.056-5.134-3.4-8.64 12.223-3.275-7.719 7.789zm5.239 21.402-8.639 3.404-3.28-12.224 7.789 7.715zm1.224-21.963 3.906 3.911-10.884 10.884zm2.121 11.597 9.233 17.049-13.139-13.143zm18.056 5.13 3.405 8.644-12.228 3.275 7.714-7.788z" fill="#5b5c5c"/><path d="m33.84 13.848-1.629-6.064 7.789 7.72-17.049 9.232zm-9.343-13.848 3.584 6.681-5.13-5.13zm-10.645 6.165-6.068 1.624 7.719-7.789 9.233 17.049zm-13.852 9.339 6.68-3.589-5.13 5.134zm13.143-4.15-6.978 14.795 1.624 6.063-7.789-7.715 2.461-2.456zm2.36 28.646-3.584-6.683 5.13 5.133zm10.645-6.164 6.063-1.624-7.714 7.788-9.233-17.049zm13.852-9.339-6.68 3.584 5.13-5.13z" fill="#363333"/></g></svg>