<svg height="40" width="26" xmlns="http://www.w3.org/2000/svg"><g fill-rule="evenodd"><path d="m21.634 18.296a12.164 12.164 0 0 0 -7.382-3.011v7.932a4.362 4.362 0 0 1 1.716.667z" fill="#77c5ec"/><path d="m17.873 26.81h8.023a12.395 12.395 0 0 0 -3.04-7.307l-5.668 5.627c.357.499.591 1.076.685 1.68z" fill="#4ea1d3"/><path d="m5.206 36.991 5.667-5.608a4.372 4.372 0 0 0 1.717.667v7.95a12.16 12.16 0 0 1 -7.384-3.009zm-4.25-23.104c0-.379 0-13.887.02-13.887l11.581 10.253v12.964a5.169 5.169 0 0 0 -1.572.635c-1.136-1.104-7.879-7.837-10.029-9.965zm8.023 12.921h-8.023v-10.354l8.706 8.615a4.21 4.21 0 0 0 -.683 1.739zm.683 3.338-5.666 5.668a12.39 12.39 0 0 1 -3.04-7.307h8.023a3.63 3.63 0 0 0 .683 1.639z" fill="#11578a"/><path d="m22.957 35.681-5.665-5.606a4.78 4.78 0 0 0 .578-1.598h8.065a12.206 12.206 0 0 1 -2.978 7.204zm-8.705 4.319v-7.94a4.79 4.79 0 0 0 1.757-.679l5.627 5.568a12.454 12.454 0 0 1 -7.384 3.051z" fill="#247fab"/></g></svg>