<svg height="41" width="40" xmlns="http://www.w3.org/2000/svg" xmlns:xlink="http://www.w3.org/1999/xlink"><linearGradient id="a" x1="0%" x2="0%" y1="0%" y2="100%"><stop offset="0" stop-color="#2f4e81"/><stop offset="1" stop-color="#2484b9"/></linearGradient><path d="m33.624 9.146c-3.347-3.91-8.19-6.152-13.286-6.152v.057c-4.301-.04-8.5 1.49-11.787 4.352a17.766 17.766 0 0 0 -5.963 11.2l-.355-.051c-.711 5.129.795 10.32 4.143 14.23 3.347 3.91 8.19 6.152 13.285 6.152v-.057a17.7 17.7 0 0 0 11.788-4.353 17.765 17.765 0 0 0 5.962-11.199l.356.051c.713-5.129-.796-10.32-4.143-14.23zm-13.636 22.135a10.084 10.084 0 0 1 -1.588-.126c-4.788-.768-8.448-4.951-8.448-9.997a10.345 10.345 0 0 1 .108-1.489c.714-4.885 4.887-8.634 9.928-8.634a10.17 10.17 0 0 1 1.558.121c4.792.753 8.462 4.926 8.478 9.967v.035c0 .373-.02.742-.059 1.105-.546 5.071-4.804 9.018-9.977 9.018z" fill="#7f5444" fill-rule="evenodd"/><path d="m33.624 9.146c-3.347-3.91-8.19-6.152-13.286-6.152v.057c-4.301-.04-8.5 1.49-11.787 4.352a17.766 17.766 0 0 0 -5.963 11.2l-.355-.051c-.711 5.129.795 10.32 4.143 14.23 3.347 3.91 8.19 6.152 13.285 6.152v-.057a17.7 17.7 0 0 0 11.788-4.353 17.765 17.765 0 0 0 5.962-11.199l.356.051c.713-5.129-.796-10.32-4.143-14.23zm-13.636 22.135a10.084 10.084 0 0 1 -1.588-.126c-4.788-.768-8.448-4.951-8.448-9.997a10.345 10.345 0 0 1 .108-1.489c.714-4.885 4.887-8.634 9.928-8.634a10.17 10.17 0 0 1 1.558.121c4.792.753 8.462 4.926 8.478 9.967v.035c0 .373-.02.742-.059 1.105-.546 5.071-4.804 9.018-9.977 9.018z" fill="url(#a)"/><path d="m31.715 27.517c-1.535-4.42-2.56-5.663-3.974-6.614l2.318-.099 7.247-1.046 2.307-.074c-1.557 5.347-6.315 7.578-7.898 7.833zm-11.535-14.118-.097-2.338-1.038-7.31-.073-2.327c5.301 1.57 7.513 6.37 7.766 7.966-4.382 1.549-5.615 2.582-6.558 4.009zm-.252 15.117.097 2.337 1.038 7.31.073 2.327c-5.301-1.569-7.513-6.369-7.766-7.966 4.382-1.549 5.615-2.582 6.558-4.008zm-17.318-6.346-2.307.074c1.556-5.347 6.315-7.578 7.898-7.833 1.535 4.42 2.559 5.663 3.974 6.614l-2.318.098z" fill-rule="evenodd"/><path d="m32.076 27.735c-1.291-4.97-2.439-6.383-4.48-7.552l2.415-.109 7.574-1.097 2.415-.074c-1.633 5.578-6.27 8.564-7.924 8.832zm-12.583-14.251-.108-2.436-1.088-7.64-.073-2.435c5.53 1.646 8.49 6.324 8.756 7.992-4.927 1.302-6.328 2.46-7.487 4.519zm1.014 14.96.108 2.436 1.087 7.639.074 2.436c-5.53-1.647-8.49-6.324-8.756-7.993 4.927-1.301 6.328-2.459 7.487-4.518zm-18.092-5.496-2.415.075c1.63-5.579 6.268-8.564 7.924-8.833 1.291 4.97 2.439 6.383 4.48 7.552l-2.418.112z" fill="#7f5444" fill-rule="evenodd"/><path d="m32.076 27.735c-1.291-4.97-2.439-6.383-4.48-7.552l2.415-.109 7.574-1.097 2.415-.074c-1.633 5.578-6.27 8.564-7.924 8.832zm-12.583-14.251-.108-2.436-1.088-7.64-.073-2.435c5.53 1.646 8.49 6.324 8.756 7.992-4.927 1.302-6.328 2.46-7.487 4.519zm1.014 14.96.108 2.436 1.087 7.639.074 2.436c-5.53-1.647-8.49-6.324-8.756-7.993 4.927-1.301 6.328-2.459 7.487-4.518zm-18.092-5.496-2.415.075c1.63-5.579 6.268-8.564 7.924-8.833 1.291 4.97 2.439 6.383 4.48 7.552l-2.418.112z" fill="url(#a)"/></svg>