<svg height="160" viewBox="0 0 160 160" width="160" xmlns="http://www.w3.org/2000/svg"><path d="m88.229375 86.2274355c6.2301952-3.047938 10.520625-9.4489505 10.520625-16.852373 0-10.355625-8.394375-18.75-18.75-18.75s-18.75 8.394375-18.75 18.75c0 7.40367 4.2907168 13.8048631 10.52125 16.8526787v23.1472588h16.458125zm-8.229375 53.7725645c-33.084375 0-60-26.915625-60-60s26.915625-60 60-60c26.99875 0 49.88625 17.92625 57.394375 42.5h20.680625c-7.981875-35.765-39.904375-62.5-78.075-62.5-44.183125 0-80 35.8175-80 80s35.816875 80 80 80c38.170625 0 70.093125-26.735 78.075-62.5h-20.680625c-7.508125 24.57375-30.395625 42.5-57.394375 42.5z"/></svg>