<svg height="31" width="40" xmlns="http://www.w3.org/2000/svg"><g fill-rule="evenodd"><path d="m22.433 11.766h-9.855c-3.661 0-6.661 2.97-6.661 6.684a6.645 6.645 0 0 0 6.661 6.684h3.155l6.7 5.863h-9.855c-6.894 0-12.504-5.59-12.542-12.469a12.486 12.486 0 0 1 7.829-11.688l-7.791-6.801h8.92z" fill="#356efb"/><path d="m17.603 19.231h9.855c3.661 0 6.661-2.97 6.661-6.684a6.604 6.604 0 0 0 -6.622-6.645h-3.155l-6.739-5.863h9.855c6.894-.039 12.503 5.551 12.503 12.469.039 5.121-3.077 9.733-7.829 11.648l7.79 6.763h-8.881z" fill="#6fd8bb"/></g></svg>