<svg height="40" width="37" xmlns="http://www.w3.org/2000/svg"><path d="m34.403 15.458-7.899 4.54 7.931 4.56a3.998 3.998 0 0 1 1.44 5.45 4.013 4.013 0 0 1 -5.472 1.466l-7.92-4.561v9.103a3.994 3.994 0 0 1 -4 3.984c-2.208 0-4-1.785-4-3.984v-9.109l-7.92 4.551a4.017 4.017 0 0 1 -5.472-1.466 3.983 3.983 0 0 1 1.472-5.45l7.911-4.544-7.911-4.556c-1.92-1.099-2.576-3.538-1.456-5.434s3.552-2.566 5.472-1.466l7.904 4.544v-9.102a3.994 3.994 0 0 1 4-3.984c2.208 0 4 1.785 4 3.984v9.116l7.936-4.558a3.998 3.998 0 0 1 5.456 1.466 3.983 3.983 0 0 1 -1.472 5.45zm-3.344 14.901a2.726 2.726 0 0 0 3.712-.988 2.704 2.704 0 0 0 -.992-3.698l-8.569-4.931-2.727 1.567v3.119zm-9.856-15.041-1.419.816 1.419.816zm-2.711 1.557-2.729 1.568v3.121l2.72 1.564 2.72-1.562v-3.13zm-2.729.085 1.44-.827-1.44-.828zm-1.28 2.218-1.435.825 1.435.825zm1.28 5.513 1.432-.823-1.432-.824zm5.44-1.647-1.433.824 1.433.824zm1.28-2.213 1.443-.829-1.443-.83zm-6.72 15.185a2.712 2.712 0 0 0 2.72 2.709 2.712 2.712 0 0 0 2.72-2.709v-9.84l-2.722-1.567-2.718 1.562zm-12.56-10.359a2.704 2.704 0 0 0 -.992 3.698 2.726 2.726 0 0 0 3.712.988l8.56-4.917v-3.12l-2.719-1.566zm2.72-16.015a2.725 2.725 0 0 0 -3.712.987 2.722 2.722 0 0 0 .992 3.714l8.554 4.918 2.726-1.566v-3.127zm15.28-5.658a2.712 2.712 0 0 0 -2.72-2.709 2.712 2.712 0 0 0 -2.72 2.709v9.838l2.73 1.57 2.71-1.557zm13.568 6.661a2.726 2.726 0 0 0 -3.712-.988l-8.576 4.926v3.103l2.736 1.573 8.56-4.916a2.704 2.704 0 0 0 .992-3.698z" fill="#666" fill-rule="evenodd"/></svg>