<svg xmlns="http://www.w3.org/2000/svg" width="40" height="40">
    <path fill="#002352" fill-rule="evenodd" d="M20 .35C30.852.35 39.649 9.148 39.649 20c0 10.852-8.797 19.65-19.649 19.65S.35 30.852.35 20C.35 9.148 9.148.35 20 .35z"/>
    <path fill="#06C" fill-rule="evenodd" d="M20 40a19.875 19.875 0 0 1-11.183-3.416 20.108 20.108 0 0 1-7.245-8.799A19.875 19.875 0 0 1 0 20 19.875 19.875 0 0 1 3.416 8.818a20.116 20.116 0 0 1 5.401-5.402A19.875 19.875 0 0 1 20 0a19.875 19.875 0 0 1 11.182 3.416 20.116 20.116 0 0 1 5.402 5.402A19.875 19.875 0 0 1 40 20a19.875 19.875 0 0 1-3.416 11.182 20.116 20.116 0 0 1-5.402 5.402A19.875 19.875 0 0 1 20 40zM20 .701C9.358.701.701 9.358.701 20S9.358 39.299 20 39.299 39.299 30.642 39.299 20 30.642.701 20 .701z"/>
    <path fill="#FFF" fill-rule="evenodd" d="M8.989 14.897h13.876s4.789-.044 1.477 6.132c0 0-2.417 4.834-8.415 4.745l3.236-8.253a.657.657 0 0 0-.599-.895l-4.249-.073-5.371 13.07s1.791.179 2.775.09l-.537 1.343h2.538a.343.343 0 0 0 .32-.222l.454-1.211 1.075-.089-.627 1.522h2.471a.447.447 0 0 0 .416-.284l.695-1.775s7.519-1.254 10.921-7.341c0 0 4.566-7.072-.806-9.579a10.412 10.412 0 0 0-3.312-.895l.632-1.545a.307.307 0 0 0-.285-.424h-2.317l-.716 1.88h-.985l.556-1.46a.31.31 0 0 0-.29-.42h-2.328l-.716 1.88h-7.232a1.066 1.066 0 0 0-.947.568l-1.71 3.236z"/>
</svg>
