<svg height="40" width="40" xmlns="http://www.w3.org/2000/svg"><g fill-rule="evenodd"><path d="m19.991 0c-11.046 0-19.992 8.95-19.992 20s8.946 20 19.992 20 19.992-8.95 19.992-20c.017-11.05-8.946-20-19.992-20z" fill="#014655"/><path d="m20.644 8.914h9.528v1.942h-7.411v5.649h5.47v-1.765h-3.882v-1.942h5.999v5.649h-9.704zm-11.116 3.884h7.587v-3.884h2.116v9.533h-9.703zm1.941 3.707h5.47v-1.765h-5.47zm19.762 9.62c0 3.143-2.524 5.737-5.611 5.737h-15.916v-11.474h15.916c3.088 0 5.611 2.595 5.611 5.737zm-6.052-3.265h-12.828v6.531h12.81c1.782 0 3.335-1.482 3.335-3.283-.036-1.819-1.5-3.266-3.317-3.248z" fill="#fff"/><path d="m9.704 9.091h5.999v2.295h-5.999z" fill="#c39145"/></g></svg>