<svg height="40" width="40" xmlns="http://www.w3.org/2000/svg"><g fill-rule="evenodd"><path d="m20 0c11.045 0 20 8.954 20 20s-8.955 20-20 20c-11.046 0-20-8.954-20-20s8.954-20 20-20" fill="#988430"/><path d="m20 .641c10.691 0 19.359 8.667 19.359 19.359 0 10.691-8.668 19.359-19.359 19.359-10.692 0-19.359-8.668-19.359-19.359 0-10.692 8.667-19.359 19.359-19.359" fill="#7a6a2a"/><path d="m38.951 20a18.882 18.882 0 0 1 -5.837 13.681l-.048.046a19.046 19.046 0 0 1 -5.041 3.446 18.877 18.877 0 0 1 -8.025 1.778 18.89 18.89 0 0 1 -13.472-5.622 18.892 18.892 0 0 1 -5.48-13.329c0-10.467 8.485-18.952 18.952-18.952 10.466 0 18.951 8.485 18.951 18.952" fill="#ba9f33"/><path d="m12.288 9.718.038-.311.489-.783.512-1.375v-1.88l-.039-1.088.08-.712.062-.226.065-.087.418.217.575.783.055 1.511-.559 2.385-1.599 1.744z" fill="#dfc068"/><path d="m27.75 15.644a8.62 8.62 0 0 0 -.612.034c-.297.022-.609.043-.747.031-.255-.024-.582-.065-1.071-.071-.489 0-.705-.153-.705-.153s-.12.049-.327.055c-.208 0-.392-.055-.761-.055-.207 0-.352.12-.472.217a2.731 2.731 0 0 0 -.179.156c.046.001.158.001.299-.023l-.076.023.079-.007c-.111.018-.225.106-.338.237l.008-.001a2.924 2.924 0 0 0 -.245.332l-.024.04h-.001l-.093.146a2.332 2.332 0 0 1 -.456.57c-.214.194-.518.281-.871.401-.479.161-1.129.689-1.848.689-.297 0-.478-.165-.728-.159l-.223.056-.003-.008-.214.117c-.32.192-.505.473-.543.544.016-.201-.059-.559-.065-.592l-.072-.016a10.775 10.775 0 0 0 -.096-.631l-.023.136c-.039-.227-.142-.522-.142-.522h.006v-.902l.527-.593 2.525-.934.133-.134-.968-.346s-.143-.217.032-.407c.175-.191.424-.272.521-.392l-.071-.048s.087-.175.282-.266l-.185-.087c-.158 0-.255.097-.402.097-.142 0-.158-.072-.158-.072s.24-.022.217-.128c-.023-.114-.065-.114-.065-.114s.463-.191.544-.295c.081-.103.071-.223.087-.271.055 0 .375-.169.505-.098s.039.266.039.266.392-.295.592-.582c.175.015.256-.12.385-.12.159 0 .408.216.457.679.014.119.032.216.043.329l.62-.62 1.696-1.201 2.848 2.488.433 1.26.01.019.359 1.039s-.207-.107-.463-.113zm-10.207 4.696c-.048.103-.174.19-.168.265l.071.129s-.43.712.418 1.431c-.201.081-.456.19-.593.256.098.022.305.064.392.141l.168.153.114.142a.536.536 0 0 0 -.209-.076c-.03 0-.053.01-.063.037l-.029.002a1.641 1.641 0 0 0 -.551-.073h-.032c-.496.011-1.043.2-1.475.342.005-.046-.001-.133-.094-.215-.159-.143-.353.006-.56-.152-.272-.207-.282-.448-.369-.538.087-.055.265-.135.689-.191l-.039-.217c.039-.113.201-.184.153-.32.07-.017.103-.017.281-.239.168-.224.272-.273.401-.288.13-.017.207 0 .447-.224.168-.158.113-.294.113-.294s.11-.036.071-.259l.194-.057.285-.085.136.096s.098.207.249.234zm-.893 3.161c.217-.065.392-.08.57-.119.231-.054.434-.123.582-.234.04.068.06.159.039.283-.042.226-.216.41-.369.552a4.76 4.76 0 0 1 -.239.24s.246 0 .175.174c-.056.143-.104.12-.24.137-.136.016-.175.087-.223.136l-.153-.023c.06.071.05.09.013.09a.32.32 0 0 1 -.067-.01l-.099-.001.002.018-.043-.001c-.208 0-.224.068-.239.105a.357.357 0 0 0 -.13-.022c-.174 0-.478.091-1.223.381-.42.164-.711.216-.913.216-.291 0-.398-.107-.44-.135-.077 0-.191.032-.294.055-.113.032-.217.054-.304.088a.795.795 0 0 0 -.207.113s-.007-.017-.12-.056a.215.215 0 0 0 -.058-.007c-.025 0-.053.003-.081.006-.029.002-.058.005-.088.005a.277.277 0 0 1 -.204-.075c-.056-.054-.103-.073-.14-.073-.058 0-.096.044-.115.073a.553.553 0 0 0 -.064-.064v-1.058c.119-.1.222-.208.368-.279.142-.072.295-.097.43-.129a2.46 2.46 0 0 1 .474-.051c.084 0 .158.006.216.018.233.048.783.217 1.087.217.12 0 .402-.016.706-.097.463-.136 1.022-.369 1.391-.473z" fill="#d7bc6b"/><path d="m22.01 11.298-1.93-1.159-1.825.191-1.656 2.294-1.316 2.063-.022-.029.312-.891v-.855l-.256.049-1.919.815-1.165 1.207-.109.232-.901-1.109-.105-.518.008-.012.006-.12.003-.033.072-.054.489-.278.983-.674s.08-.082.183-.196l.685 1.455.776-.592s.294-.296.572-.627l.801.151.595-1.408.767-3.006-1.544-.608-1.255.631s-.304.239-1.081.935a3.263 3.263 0 0 0 -.276.277l-.031-.109s-.327.081-.936.402a7.879 7.879 0 0 1 -.363.175l-.048.037-.108.081-.046.035-.039.03c-.513.402-1 .847-1.445 1.324a9.43 9.43 0 0 0 -.325.366l-.154.191-.021.026-.022.028-.079.106c-.196.262-.378.535-.55.814-.178.29-.344.586-.503.887-.078.15-.155.3-.224.453l-.054.122-.015.033-.014.035-.088.219c-.23.595-.406 1.21-.605 1.815-.029.152-.024.215-.041.439.064-.537.563-1.135.857-1.559.146-.211.227-.386.233-.418.026-.097-.054-.249.033-.402.064-.113.304-.081.504-.288.266-.271.457-.815.713-.879.365-.094.663.042.734.369.071.342-.43.543-.559.734-.127.19-.095.327-.088.88.007.554.158 1.169.223 1.272l.094-.139c.105.025.188.064.188.064l-.104.007.13.064.096-.038.082.097-.104.113.081.087.048.01-.32.039c-.055.039.282.12.385.158.104.039.327.218.385.36.055.136 2.023.928 2.023.928l.285-.013-.36 1.503-.304 1.488.609 1.473 1.236.488h1.353l.327-1.592 1-1.281-.071-.382c.127-.033.252-.071.252-.071l.071.048.152-.065s-.142-.055-.039-.401c.098-.304.185-.288.191-.311.007-.022.072-.343.072-.473.048-.167.087-.679.087-.679l-.104-1.129-.256-.155.075-.231c.081-.271.152-.232.184-.598.033-.369.386-.994.386-.994l.074-.167c.195.015.363-.072.363-.072l.847-.456.816-.431.417-.825-.12-.372.522.119z" fill="#e3c571"/><path d="m9.327 21.207-.146-.195.304-.155.625-2.462 1.326-.833-.75-.84-.266.185.104-.522-.617-.366.461-1.346-.385.032.57-.314-.217-.984-.735-.2-1.038.473s-.331.627-.406 1.179l-.685 1.124-.576 1.745-.408 2.023.023 1.65.101.441-.017.08.055.712.265.977.256.641.249.783.217.527.175.402.152.903.735.776.391.175.285-.145-.424-.592s-.113-.282-.048-.528c.064-.249.055-.265.022-.359-.032-.094-.304-.418-.288-.696.016-.281-.022-.375.185-.599.216-.216.152-.591.152-.591l.281.174.065-.097s.104.081.104.207c.022-.175-.071-.984.142-1.168.217-.185.592.864.592.864l-.233-1.521z" fill="#ecd592"/><path d="m33.243 29.501-.129 4.18-.001.021-.047.025-2.484 1.297-.827 1.227a18.877 18.877 0 0 1 -9.755 2.7 18.89 18.89 0 0 1 -13.472-5.622c.013-.122.025-.245.036-.367.031-.323.056-.648.084-.972.103-1.217.241-2.444.717-3.573l-.084-.119-.175-.25s.641-.44.657-2.196l.001-.098.038.016.292.828.035.101.224.272.365.681.492.917 1.104 1.072 1.631 1.096 1.022 1.114.104 2.967-.196.254c.624-.227.785-.713.785-.713l1.848-1.679 2.113-1.946 2.57-.903.199-.048-.206-.142-.121-.051-1.261.533-2.689.793-4.537-1.152-2.261-2.06-.066-.061-.221-.455v-.001l-.042-.086-.075-.156h-.001l-.525-1.085.239-1.505.777-1.216.236.235.046-.008.093-.004.253.083 1.855.611.252.083.022.001 4.162.119.571-.817.163-.231.052-.075-.023-.048-.048-.097-.055-.114-.06-.122-.458-.94.242-1.01.169-.71.143-.6.549-1.099.119-.236.371-.743 3.21-.505 2.36-2.249 3.981.301.342.026.77.058 1 5.447-1.925 6.857-.582 1.88c1.111-.451 4.303-1.426 4.303-1.426l1.489.096.24 1.599" fill="#dfc677"/><path d="m23.851 27.232c-.447.104-.832.451-1.359.761-.376.224-.839.399-1.343.631-.696.327-1.208.56-2.071.768-.674.158-1.321.2-1.849.255-.974.107-1.76.434-2.902.417-.424-.007-.897-.093-1.37-.207a10.507 10.507 0 0 1 -1.684-.542c-.159-.259-.342-.597-.438-.758-.143-.24-.343-.37-.832-.745-.485-.375-1.055-.735-1.055-.735s.09.295.113.561c-.11-.311-.327-.522-.478-.697a1.471 1.471 0 0 1 -.175-.223c-.026-.048-.026-.249-.13-.272-.103-.022-.184.13-.184.152 0 .023.081.272.375 1.055.298.783.728 1.551 1.097 1.952s.848.401 1.288.728c.2.152.366.223.647.489.114.104.217.249.386.424.237.247.389.434.486.568l-.16.034c.136.081.201.281.24.384l-.184-.129.064.191h-.191c.026.049.075.305.097.401a1.6 1.6 0 0 0 .152.305h-.184l.129.327-.032.168-.033.143.25.254-.13.175c.104.127.25.305.272.648.023.382-.362.566-.401.583l.097.096.032.072c0 .026-.152.184-.401.521a1.035 1.035 0 0 0 -.209.602c.01-.073.076-.21.387-.347.466-.2.544-.294.608-.358.016.109.016.446.023.598.686-.602.809-1.346.816-1.418l.048.033c.039-.087.217-.392.441-.431.223-.038.384.152.471.25.024-.162.143-.376.224-.593.058-.145.091-.271.097-.303l.249.174.13.08c.081-.2.158-.249.424-.559.262-.314.119-.586.087-.658l.207-.015c.224-.032.382-.088.512-.12.152-.038.239-.055.239-.055s-.032-.016-.087-.113l-.055-.224-.055-.113.776-.582c-.058-.13-.184-.347-.201-.386l.121-.016c.097-.022.161-.064.2-.087l.065-.023-.016-.015c.126-.014.511-.007.511-.007l-.048-.097s.097.038.391-.049c.207-.058.408-.168.56-.217.194-.054.304-.032.369-.032.304-.162.728-.217.728-.217s-.01-.006-.129 0c.336-.343.543-.485 1.055-.767.21-.11.53-.246.825-.43.456-.288.903-.722 1.239-.977.547-.414.858-.599.858-.599s-.32.016-.554.022c.441-.281.499-.553.554-.706" fill="#c2a44d"/><path d="m18.342 16.463c-.165-.006-.342-.039-.462-.136a.391.391 0 0 1 -.142-.271c-.074.13-.148.153-.191.173a.354.354 0 0 0 -.044-.274.423.423 0 0 0 -.076-.095c-.081-.077-.224-.142-.233-.294-.01-.152.087-.152.24-.207.151-.055.232-.184.336-.327.104-.145.223-.266.223-.266h.325a.259.259 0 0 1 .016-.018l.003.653c-.053.13-.085.262-.092.392a.615.615 0 0 0 .095.367zm-4.53-3.04-.046.086-.016.035-.086.119c-.064.094-.15.229-.208.359l.034.025a1.563 1.563 0 0 1 -.117.114l-.118.185-.174.174c-.097.094-.185.214-.289.328-.168.187-.525.475-.814.502v-.213c.104-.053.203-.123.287-.189.075-.056.143-.109.193-.151a.689.689 0 0 0 .416-.322l.009-.004-.008.003c.02-.034.039-.071.057-.112.136-.337.249-.766-.023-1.2-.265-.431-.734-.447-.825-.447a.996.996 0 0 0 -.295.057c.017-.01.069-.041.155-.076l-.009-.001c.288-.119.304-.168.68-.439.369-.273.634-.667.793-.825a.336.336 0 0 1 .234-.091.26.26 0 0 1 .245.145.92.92 0 0 1 .07.353 4.655 4.655 0 0 1 -.144 1.584z" fill="#d7bc6b"/><path d="m9.271 18.761s-.064.08-.103.271-.023.168-.055.304c-.033.137-.43 1.489-.281 1.945.148.456.407.625.569.993l.081.201c.055.24.006.424.071.664a.738.738 0 0 0 .169.272c.191.2.504.392.64.527.191.201.463.609.809.648.185.022.447-.056.664-.185.191-.12.31-.288.511-.385.142-.072.295-.097.43-.129.282-.056.538-.065.69-.033.233.048.783.217 1.087.217.12 0 .402-.016.706-.097.463-.136 1.022-.369 1.391-.473.217-.065.392-.08.57-.119.304-.072.56-.168.705-.353-.097-.113-.216-.288-.864-.282-.734.017-1.582.424-2 .489-.417.065-.599.119-1.064-.049-.457-.167-.473-.281-.473-.281s-.479-.337-.68-1.191c-.2-.858 0-1.479.522-2.072.135-.151.103-.288.103-.288s.343-.463.249-.896c-.103-.43-.767-.343-.767-.343z" fill="#8e7f5a"/><path d="m16.142 23.459a4.67 4.67 0 0 1 -1.288.017 3.925 3.925 0 0 1 -.728-.13c-.191-.055-.583-.201-1.064-.321-.337-.087-.713-.151-1.143-.232-1.062-.194-2.213-.418-2.625-.635h.072c.048-.006.553-.19 1.08-.158.233.016.648.049 1.169.19.663.175 1.488.522 2.022.719.143.055.282.152.385.192.408.158.424.158.664.2.281.039.569-.055.871-.12.368-.08 1-.12 1.553-.201.288-.039.527-.12.527-.12s-.44.441-1.495.599zm-3.673-3.602c-.446.544-.835.907-1.576.88-.035-.001-.065-.018-.099-.021.018.154.059.642-.121.931 0 0-.175-.176-.12-.983-.579-.159-1.042-.633-1.243-1.263-.239-.754.056-1.233.12-1.352l-.071.064c.103-.314.272-.515.663-.706.402-.175 1.175-.207 2.033.049s1.44.512 1.44 1.081c0 .278-.207.359-.473.647-.177.185-.378.456-.553.673z" fill="#252211"/><path d="m34.082 32.683c-.311.344-.634.677-.968.998l-.001.021-.047.025a19.046 19.046 0 0 1 -5.041 3.446l-.064-.037c.103-.017.181-.072.408-.259.216-.185.336-.185.407-.201l-.207-.158c.153-.017.246-.104.311-.24.061-.145.181-.369.43-.521.25-.161.473-.288.521-.369l-.151-.048c.093-.023.277-.049.43-.136a.61.61 0 0 0 .288-.344c.081-.249.201-.271.265-.288-.023-.103-.006-.232.065-.304.071-.071.327-.054.511-.342.143-.224.479-.616.479-.616l.023.159c.016-.178.184-.45.401-.689.11-.13.136-.194.24-.337.288-.408.175-.886.175-.886l-.159-.04c.11-.071.142-.167.175-.336.042-.184.025-.543.064-.728s.159-.559.152-.641l-.129-.223.158-.217c.026-.032.026-.042.097-.401l.003-.011a.959.959 0 0 0 -.109-.533.636.636 0 0 0 -.68-.311c-.184.039-.553.098-.673.201-.113.104-.392.424-.647.57-.321.19-.842.207-1.12.271-.281.066-.592.256-.919.48a5.649 5.649 0 0 1 -.809.426s.505-.672.679-1.006l.026-.16-1.281 1.037s-.272.152-.625.294c-.304.13-.663.24-.929.343.072-.19.185-.358.343-.52.169-.158.673-.706.751-.961.071-.266.088-.424-.006-.648-.087.023-.288.033-.424.072s-.282.184-.282.184.104-.593.327-1.152a4.943 4.943 0 0 0 -.456.055s.401-.673 1.087-1.143a3.601 3.601 0 0 0 -.614.191c-.402.168-.842.417-1.169.554.185-.256 1.479-2.103 2.249-3.825.767-1.719 1.055-2.159 1.224-3.081.085-.445.066-1.095.085-1.688-.047.238-.096.468-.137.636-.479-1.751-.392-2.398-.408-2.599s-.256-.679-.488-.967l-.016-.022c-.105-.148-.186-.399-.291-.694-.115-.325-.259-.704-.493-1.062-.456-.695-1-1.048-1.479-1.217a.783.783 0 0 0 -.279-.051c-.218.01-.244.19-.248.317a5.362 5.362 0 0 0 -.44-.929 3.2 3.2 0 0 0 -.181-.258l-.004.001c-.07.028-.176.075-.33.154-.327.168-.554.223-.68.473-.129.249-.136.446-.136.446s.224-.097.353-.129c.136-.033.288-.024.272.032l-.065.104s.256-.007.249.119a.643.643 0 0 1 -.097.327l-.272.233c-.054.152.023.159-.006.282-.023.12-.129.352-.479.76-.359.408-.511.696-.511.696s-.175-.328-.266-.609l-.407.224-.767-2.67-.029-.104.014-.169.002-.015s.071-.088.087-.249c-.12-.039-.136-.071-.294-.224-.159-.152-.289-.336-.554-.463-.039-.071-.087-.168-.281-.207a5.971 5.971 0 0 1 -.311-.071l.152-.119c-.12.015-.217.054-.479.048-.265-.006-.295-.016-.44.006-.146.023-.32.087-.385-.135-.072-.056-.223-.007-.353.184-.129.191-.175.343-.424.417a.859.859 0 0 1 -.114.311c-.07.12-.184.24-.336.418-.202.237-.206.602-.43.922l.139-.035s-.13.113-.184.232c-.056.12-.153.369-.392.521-.24.153-.544.249-.871.609-.326.352-.663.8-.831.961.087-.152.207-.456.239-.657s-.006-.44.049-.705c.032-.156.045-.286.104-.458l-.03-.139a3.505 3.505 0 0 1 -.294.257c-.153.103-.207.223-.463.233l.087-.049s-.265-.032-.408.097c-.142.13-.446.528-.598.647l-.217.141-.104.066s.203-.317.099-.431l-.034-.025c.058-.13.144-.265.208-.359l.086-.119.016-.035.046-.086c.078-.134.234-.367.515-.63.44-.418.712-.69.783-.968.071-.281.071-.554.071-.554l.152.104c.059.027.303.225.354.613.023-.17.046-.356.122-.609.136-.457.472-1.108.576-1.554.055-.201.168-1.042-.233-1.537-.297-.371-1.008-.322-1.394-.271-.277.162-.659.437-1.117.857-.46.428-.828.646-.987.729l-.085.038-.048-.049.016-.065.017-.052.015.069.174-.185c.22-.266.421-.632.593-.886.072-.108.171-.249.289-.392.118-.309.365-.991.495-1.615.032-.168.097-.337.113-.473.081-.793.103-1.119 0-1.553-.081-.321-.392-.609-.553-.832-.12-.176-.192-.268-.206-.324l.005-.045a.359.359 0 0 1 .281-.12.972.972 0 0 1 .594.228c.105.048.236.128.377.261.256.24.256.326.295.375l.083.078c.137.128.396.386.525.641.127.252.345.925.476 1.313v.001c.042.124.075.219.093.262.023.07.071.14.185.295.153.147.324.275.507.384.724.432 1.577.544 2.406.573.747.027 1.496-.006 2.24.067.551-.067 1.031-.115 1.303-.115.576 0 .473.142.842.142.424 0 .673-.104.673-.104h.002c.349-.38.662-.627.943-.938.32-.353.696-.695.984-1 .129-.142.233-.272.233-.272l-.036.198c.17-.152.343-.303.45-.431.191-.229.256-.463.256-.463l.016-.038.012-.003-.009-.004c.049-.081.266-.537 1.097-.544.832-.006 1.087.457 1.175.625.087.168.479.897.624 2.281.137 1.386.143 1.49.121 1.968-.017.266-.104.881-.256 1.537-.035.14-.071.285-.109.426.082.208.29.732.452 1.158.2.542.391 1.022.44 1.071.038.047.343.582.479 1.456s.184 1.679.265 2.217c.039.256.071.527.152.798.088.295.223.599.402 1.066.152.391.265.718.326 1 .072.359.072.631.114.808.039.153.097.457.233.897s.336 1.007.472 1.359c.265.705.385 1.295.424 1.609.032.286.128 1.192.128 1.632l-.005.148-.001-.004.001.014s.055.19.071.358c.007.169-.022.266-.022.295 0 .032.055.369.032.625-.024.187-.03.344-.11.487.083.365.25 1.573.265 1.875.016.311-.023.848.033 1.375.025.249.05.921.069 1.577" fill="#a57e28"/><path d="m29.392 7.55c-.211-.835-.826-1.217-.946-1.266.016.208-.071.45-.152.473-.106.152-.337.142-.553.239-.11.049-.288.169-.447.256a5.015 5.015 0 0 1 -.337.159l-.112.119c-.244.305-.402.408-.402.408-.016.016 0 .033-.071.129-.065.091-.217.137-.336.234-.175.136-.295.359-.295.359s.032-.088.081-.185l-.159.24c-.006.094-.022.191-.039.295l.077-.076-.048.072.033.023c.015-.007.125-.065.253-.142l2.116-.409-.217 1.376-1.016 1.816s-.211.256-.249.401c-.039.146-.03.304-.023.353l.184-.097a.63.63 0 0 0 -.119.553c.129-.087.2-.185.282-.256.109-.097.216-.168.239-.185l.055.039-.159.192c.071.022.35.039.447.055-.087.12-.136.12-.217.159l.158-.033c.69-.09.706-.385.706-.385l-.048.007-.072-.017c-.042 0-.081.049-.184.071-.104.023-.104-.026-.159-.064-.055-.039-.311-.153-.327-.36-.016-.278.392-.664.528-.815.158-.185.806-.561 1.007-.825.158-.201.174-.528.287-.968s.385-1.353.234-1.945" fill="#806031"/><path d="m26.728 11.919s-.087.087-.169.304a1.044 1.044 0 0 1 -.158-.217c-.12-.2-.305-.456-.735-.311-.006-.136-.016-.207 0-.304.072-.016.289-.191.505-.447.152-.174.295-.375.392-.631.064-.048.175-.129.32-.222.207-.143.457-.337.495-.554-.097.039-.304.136-.615.12.12-.056.305-.113.282-.353l.087-.055-.113-.017-.071-.038-.071.038-.152.039-.266.192.055-.098s-.158.017-.272.066c-.206.07-.446.2-.689.326l.049-.072.055-.022-.007-.087c.007-.023.142-.288.256-.44a.865.865 0 0 0 .136-.369l.495-.249 1.392-.321.902.055-.113.625-.534 1.091-.456.993-.521.608z" fill="#543e26"/><path d="m21.385 15.831c-.489.576-.975.768-1.104.8-.12.032-.32.087-.896.087-1.21 0-1.505-.391-1.505-.391l.298-.107 2.463-1.049.831-.113.256.039s.097.214-.343.734zm-9.479-.66a.68.68 0 0 1 -.265.055c-.37-.016-.544-.342-.625-.462-.078-.121-.214-.498-.143-.81.072-.304.208-.385.208-.385l.126-.042.352.395.978.793c.016.01-.113.113-.272.233a1.645 1.645 0 0 1 -.359.223z" fill="#585136"/><path d="m19.158 16.537c-.569-.017-.935-.327-.913-.744.023-.473.392-.99.849-1.24.456-.249.656-.065.656-.065l.017 1.735.2.25a2.88 2.88 0 0 1 -.809.064zm-7.122-2.951-.234.19-.013.01c-.014.086-.039.19-.087.243-.039.038-.039.152-.032.255.009.162.026.321.064.386.065.119.305.152.305.184 0 .026-.233.129-.402.129-.271 0-.482-.255-.521-.424-.038-.158-.087-.657-.071-.815l.097-.233.078-.129.488-.305h.408l-.038.07.028.196c.088-.016.24.071.224.168l-.152.097z" fill="#e6d89c"/><path d="m21.271 15.346c-.378.304-.728 1.088-1.248 1.055-.68-.039-.865-.56-.865-.886 0-.321.13-.522.13-.522l.544-.54-.353-.113s-.722.184-.945.2c.472-.641 1.343-.586 2.119-.168.787.414 1.081.734 1.081.734s-.174.007-.463.24zm-8.396-.872-.001.001a.689.689 0 0 1 -.416.322.352.352 0 0 1 -.08.012h-.023a.565.565 0 0 1 -.377-.131v-.663h-.324v-.006c.011-.053.024-.106.041-.155l.107-.078.234-.19.142.022.152-.097c.015-.089-.113-.17-.202-.17-.007 0-.015 0-.022.002l-.032-.224-.032.008a.34.34 0 0 0 -.113-.015.942.942 0 0 0 -.298.056c-.194.065-.401.278-.517.411-.057.065-.092.11-.092.11.01-.033.019-.065.03-.096.174-.526.497-.736.737-.821a.996.996 0 0 1 .295-.057c.091 0 .56.016.825.447.272.434.159.863.023 1.2a1.062 1.062 0 0 1 -.057.112zm-.098-1.18h-.011c-.151.016-.168.13-.174.14l-.033.113c0 .049.072.217.207.217.169 0 .247-.208.224-.311-.022-.09-.127-.159-.213-.159z" fill="#252211"/><g fill="#fff"><path d="m19.722 14.922c-.211.165-.347.268-.483.207-.12-.055-.006-.392.113-.495a.847.847 0 0 1 .538-.24c.097-.006.19.055.174.121-.022.119-.19.288-.342.407zm-6.956-1.158c-.135 0-.207-.168-.207-.217l.033-.113c.006-.01.023-.124.174-.14.088-.006.201.065.224.159.023.103-.055.311-.224.311z"/><path d="m19.101 26.012-.054-11.867h2.977s1.38.295 2.344 3.096c0 0 1.278 4.01-.72 7.194 0 0-1.066 1.577-2.226 1.577zm4.86-17.227h-13.976l.054 5.347h2.784v11.939h-2.838v5.336h13.59c3.275 0 5.901-3.376 5.901-3.376 4.204-6.12 1.366-13.024 1.366-13.024-1.982-5.25-6.881-6.222-6.881-6.222" opacity=".8"/></g></g></svg>