<svg height="40" width="38" xmlns="http://www.w3.org/2000/svg"><g fill-rule="evenodd"><path d="m36.374 23.343-1.998 1.177c.653-1.625 1.76-5.505-.769-8.917l-.253-.466.371.293c1.471-8.029-3.062-9.184-3.062-9.184-.412-.578-.882-.232-.882-.232-1.531-1.789-2.885-.75-2.885-.75.765.579.589 1.617.589 1.617-.707.808 0 1.617 0 1.617-.174.375-.468.745-.682.99a2.408 2.408 0 0 0 -.791-.008s-.412-1.617-2.12-.924c0 0-.294-.867-1.354-.578 0 0-.066-1.459-3.776-.441-.051-.92.183-2.192 1.305-3.66 0 0 1.058-.519.706-1.501 0 0 .177-.578 1.413-.867 0 0-.706-1.502-2.767-.982 0 0-.529-.808-1.589-.058 0 0-9.95-2.079-14.188 9.358 0 0 2.194-.736 3.998-.843-1.717.859-3.15 2.18-3.823 4.193 0 0-.034.106.012.203-.547.217-3.494 1.474-3.013 3.205 0 0 .112.627 1.263.458l.001-.002c-.117.51-.097 1.112.207 1.795 0 0-.069.17-.139.422-.008.001-.014-.006-.022-.005 0 0-2.929 2.814-1.588 4.411 0 0 .382.551 1.419-.097l.016-.085c.078.327.243.672.55 1.014 0 0-.46.936.045 1.794l-.002-.001s-1.532 1.788-.183 3.737a.342.342 0 0 0 .389.131c.28-.092.766-.323 1.305-.896.088.049.162.105.271.145 0 0-.012.99.613 1.795-.118.66-.202 1.974.813 2.751a.253.253 0 0 0 .239.038c.199-.069.596-.265 1.025-.749.14.067.296.124.489.151 0 0-.589 1.619 1.53 2.195 0 0 1.001 1.963 2.473.981 0 0 .942 1.271 3.12.982 0 0 1.354 1.155 3.532.578 0 0 1.472.693 3.356-.347 0 0 1.119.52 2.12-.346 0 0 1.707.058 2.295-.578 0 0 1.001.347 1.825-.231 0 0 1.884-.404 2.414.404 0 0 .707 1.329-.648 2.773 0 0 3.297.693 3.533-3.35 0 0 .155-2.015-2.169-2.69a14.016 14.016 0 0 0 1.581-1.641l.942-.289 1.295 2.484s.471-3.523 3.12-4.621c0 0-2.943-2.83-1.472-6.353zm-34.109-1.575.05-.378c.032.053.051.109.09.161 0 0-.062.08-.14.217zm1.081-6.571s-.034.023-.091.067c.037-.06.071-.12.107-.181-.004.039-.014.075-.016.114z" fill="#1797e5"/><path d="m32.608 13.572a2.6 2.6 0 0 1 -.071.378l-.01-.01c-.02-.04-.091-.179-.243-.149l-.111.02-.05-.1c-.011-.01-.567-.923-1.285-1.349.02-.09.05-.189.081-.308.182-.774.283-2.134-.627-3.593 0 0 .536 0 .829-.397 0 0 2.185 1.698 1.487 5.508zm-2.225-1.855c-.021.129-.041.258-.071.397l-.01-.01c-.01-.01-.718-1.052-1.983-1.132-.03-.01-.05-.01-.081-.01l-.111-.009-.02-.08c.01-.01.02-.02.04-.03.061-.049.132-.119.213-.198.333-.338.688-.903.688-1.767 0 0 .526.169.819-.119 0 0 .738 1.38.516 2.958zm-15.409-1.977c.002 0 1.178-4.159 3.533-5.834 0 0-2.002 2.542 0 5.603 0 0-1.59-1.386-3.533.231zm-3.944-.231s2.06-4.563 6.535-6.585l.529.52s-3.118 3.235-3.826 6.238c0 0-1.236-.866-3.238-.173zm-.648-.463s-.706-2.08-5.063-.404c0 .001 1.766-7.22 11.981-7.364 0 0-.148.78.147 1.241 0 0-4.003 1.328-7.065 6.527z" fill="#bad0d8"/><path d="m22.361 14.972-.061.397-.465 3.295-.04.258-.021.149-.364 2.322-.03.159-.142.913-.101.645c-.01.01-.01.01-.01.02a2.274 2.274 0 0 0 -.232.526 3.9 3.9 0 0 0 -.142.575.148.148 0 0 1 -.132.129l-.394.07-.496.099-.465-.059h-.01l-.091-.01-.476-.06h-.01a1.08 1.08 0 0 0 -.243-.119l-.101-.03v-.149c0-.069 0-.138-.01-.208-.01-.844-.111-1.37-.232-1.697a4.489 4.489 0 0 0 -.112-.268.94.94 0 0 0 -.131-.169.167.167 0 0 0 -.061-.059c-.121-.09-.212-.07-.212-.07l-.112.02-.06-.089c-.142-.278-.112-.754-.091-1.013-.617.139-1.184.993-1.285 1.162-.01.019-.02.029-.02.029l-.071.11-.04.059-.061-.069-.061-.09a.23.23 0 0 1 -.051-.079c-.182-.288-.182-.685-.131-1.022.02-.129.051-.248.071-.348.01-.049.02-.079.03-.119-.02 0-.03 0-.05.01-.263.04-.536.199-.769.377a5.156 5.156 0 0 0 -.809.874c-.01.01-.01.019-.01.019l-.071.1-.101-.06a.466.466 0 0 1 -.132-.109c-.121-.159-.142-.417-.131-.576-.324.01-.648.219-.911.437-.051.05-.101.089-.152.129l-.131.129c-.162.169-.253.298-.253.298l-.061.069-.081-.019c-.081.009-.263.357-.364.764-.04.129-.071.258-.071.377-.01.069-.02.139-.02.198-.01.07 0 .129.01.179 0 .049 0 .099.01.149l-.293-.03-3.126-.387.466-3.275.02-.149.334-2.332.02-.149.041-.278.586-3.573 3.864.486v.01l.253.03c.091.04.212.099.344.189.182.149.384.367.496.684.02.06.04.13.05.209.01.03.02.059.02.089.021-.02.031-.049.061-.079.02-.05.061-.119.091-.189.081-.149.172-.337.284-.585.02-.04.03-.089.06-.139l.253.03.293.039.425.05c.041.05.091.109.132.169.111.168.202.397.263.674.01.04.01.09.02.13a.931.931 0 0 0 .243-.09c.081-.04.182-.099.293-.188.02-.1.051-.249.111-.407 0-.05.021-.099.041-.149l.263.04.799.099.283.039c.02.05.041.1.061.159.03.109.061.229.081.358.071-.02.212-.08.495-.288.051-.03.112-.08.172-.129l.334.039z" fill="#c91111"/><path d="m22.857 20.023-.02.1-.041.208-.273 1.419-.061.318c-.101.03-.202.069-.313.109a.841.841 0 0 1 -.142.069c-.04.03-.091.05-.131.09a1.825 1.825 0 0 0 -.536.476 2.222 2.222 0 0 0 -.203.298c-.01.01-.01.01-.01.02l.101-.655.142-.923.02-.159.354-2.332.02-.149.536-3.543.962.982.161.149zm-10.601 5.27c-.01.03-.01.06-.01.09l-.283-.02-2.357-.218s-1.518-.229-1.325-2.015l3.024.367.293.04c0 .049.011.099.021.149.131.823.607 1.468.617 1.478l.03.05-.01.06z" fill="#d8dbea"/><path d="m23.737 21.393c-.01.01-.02.02-.03.02h-.031c-.01 0-.04.01-.091.03-.111.049-.273.168-.364.446-.03.07-.081.109-.162.1-.02 0-.273-.01-.597.079-.101.03-.202.069-.313.109a.841.841 0 0 1 -.142.069l-.121-.267-.172-.368-.334-.059h-.01l-3.257-.596-.081.596-.051.377a.94.94 0 0 0 -.131-.169.167.167 0 0 0 -.061-.059c-.121-.09-.212-.07-.212-.07l-.112.02-.06-.089c-.142-.278-.112-.754-.091-1.013-.617.139-1.184.993-1.285 1.162-.01.019-.02.029-.02.029l-.071.11-.101-.01-.061-.09a.23.23 0 0 1 -.051-.079c-.182-.288-.182-.685-.131-1.022.02-.129.051-.248.071-.348.01-.049.02-.079.03-.119-.02 0-.03 0-.05.01-.263.04-.536.199-.769.377a5.156 5.156 0 0 0 -.809.874c-.01.01-.01.019-.01.019l-.071.1-.101-.06a.466.466 0 0 1 -.132-.109c-.121-.159-.142-.417-.131-.576-.324.01-.648.219-.911.437-.051.05-.101.089-.152.129l-.333-.05-.516-.069.141-1.062-3.206-.367-.324-.04.04.993s-.212-3.077.081-3.653l.577.07 3.176.387.162-1.241 6.292.814-.172 1.211 3.287.536.031.01.212.03.83 1.171.708 1.002z" fill="#f7ae2d"/><path d="m35.698 24.814s-.418 2.223 1.469 4.535l-.204.52s-1.531.809-2.355 3.582l-.942-1.791s-.118-.173-.471-.058l-.648.231.059-.231.707-.288s.412-.116.588.23l.648 1.329s.412-1.964 2.237-3.234c0 0-1.476-2.279-1.382-4.14-.347.573-1.005 1.156-2.268 1.367 0 0 1.413-.809 2.179-2.599l.471-.116s.012.283-.09.666zm-1.702-.733c.435-1.232.554-3.338.554-3.338.461-1.985-.804-4.076-1.38-4.896a8.76 8.76 0 0 1 -.469-.748 10.403 10.403 0 0 0 -.859-1.287c-1-1.386-1.766-1.502-1.766-1.502l-.235-.173a2.518 2.518 0 0 0 -1.707-.982c-.589-.057-.354.809-.354.809-.353-.404-.059-.982-.059-.982-.235-1.213-2.001-.982-2.001-.982-1.354-2.311-1.708 0-1.708 0-.824-1.675-2.001-1.502-2.001-1.502l.116-.231c-1.884-.982-3.12 0-3.12 0l-.221-.427c.311-.139 1.397-.322 1.397-.322 2.708-.347 2.001.866 2.001.866.649-.116 1.708.462 1.708.462 1.707-.693 1.883.924 1.883.924 1.768-.404 2.18.982 2.18.982l.058.231c1.414.057 2.061 1.038 2.061 1.038v.116c1.121.289 1.886 1.502 1.886 1.502l.353.173 1.001 1.848c1.825 2.253 1.59 5.083 1.59 5.083-.113 1.397-.582 2.626-.908 3.338zm-2.567-16.507c2.649 1.906 1.648 6.18 1.65 6.18.293-4.389-1.65-6.18-1.65-6.18zm-1.006-1.245.443.195c-.077.749-.371 1.05-.371 1.05.193-.729-.072-1.245-.072-1.245zm-2.048 1.568s1.245.102 1.982-.73c0 0-.481 1.334-1.982.73zm-.95-.552.06-.174c.413.578 1.471.347 1.471.347-1.06.52-1.531-.173-1.531-.173zm-9.124-6.067s.412 1.039.824 1.502c0 0-1.06-.346-.824-1.502zm.47 7.971s-2.097-2.691.325-5.223c-.219.259-1.69 2.167-.325 5.223zm-14.129-.289c1.178-3.696 4.063-5.833 4.062-5.833 3.297-2.773 8.772-2.138 8.772-2.138-3.238-.115-6.475 1.213-6.475 1.213-4.18 1.502-6.359 6.758-6.359 6.758zm3.238.174h.822c-4.415 2.311-3.944 4.563-3.944 4.563-1.058.925-.529 2.311-.529 2.311l-.589.058c-1.531.231-.589 2.772-.589 2.772l-.059.231c-.941 1.213.177 2.484.177 2.484l-.412.173c-.648 1.964.589 2.542.589 2.542-1.06 1.732.942 2.599.942 2.599-1.354 2.253 1.53 2.253 1.53 2.253-2.002 1.443 1.059 2.368 1.059 2.368 0 2.021 1.178.808 1.178.808.353.289 0 .867 0 .867.178 1.848 1.649 1.675 1.649 1.675.708 1.964 2.18.577 2.18.577.588 1.906 3.002 1.387 3.002 1.387 1.766 1.443 3.238.519 3.238.519 2.178.462 3.132-.306 3.132-.306 1.072.621 1.46.132 1.46.132l.706.115c-.883.75-1.884.231-1.884.231-1.884 1.039-3.356.346-3.356.346-1.883.578-3.237-.404-3.237-.404l-.295-.173c-2.237.347-3.061-1.039-3.061-1.039-1.413 1.155-2.355-.866-2.355-.866-2.06-.52-1.413-1.906-1.413-1.906l-.117-.289c-1.295-.173-1.236-1.329-1.236-1.329-2.061-.461-1.826-2.599-1.826-2.599-1.707-.52-.824-2.252-.824-2.252-2-.982-.942-2.542-.942-2.542-1.413-1.328-.176-2.888-.176-2.888-.825-1.213-.118-2.715-.118-2.715-.823-1.749.235-2.888.75-3.234a.703.703 0 0 0 .287-.484c.172-1.128.67-1.422.67-1.422l-.235-.288c.765-2.946 3.826-4.275 3.826-4.275zm7.3 19.349-.765.059s-2.532-1.1-2.06-3.351c0 0-1.354-1.444-.236-3.35l.059.115s-.824 1.56.412 3.235c0 0-.412 2.484 2.59 3.292zm.37 4.126c1.739-2.303 5.34.437 5.34.437-3.687-1.784-5.031-.764-5.34-.437zm11.286-9.844s-1.294 1.097-2.413-.115c0 0 .765.346 2.413.115zm2.12 1.329s.825.404 2.473.173c0-.001-1.59 1.039-2.473-.173zm3.886 6.99s-4.769 8.143-14.836 5.024c0 0-4.556-1.319-4.358-5.439a.575.575 0 0 1 .016-.108c.104-.402.858-2.728 4.461-2.886 0 0 3.178-.289 4.296 1.097l.119.231a.727.727 0 0 0 -.178-.116s-4.834-2.517-7.685.693a2.312 2.312 0 0 0 -.452 2.31c.517 1.46 1.974 3.74 6.077 4.392 0 0 6.888 1.444 11.657-4.39z" fill="#5dc5f9"/><path d="m9.764 19.415 1.943.173-.059.174zm2.119-1.271-1.766-.346 1.766.173zm-3.237 3.408c1.295.289 1.53 1.56 1.53 1.56l-1.707-.232zm.941-6.18.295-1.733 1.354.173c-.177 1.502-1.649 1.56-1.649 1.56zm12.187 1.675c-1.648-.52-1.178-2.022-1.178-2.022l1.472.173zm2.054 4.207c-.01.02-.02.03-.02.05a.129.129 0 0 1 -.071.089c-.01.01-.02.02-.03.02h-.031c-.01 0-.04.01-.091.03l-.182-.258-.475-.675-.132-.179-.05-.079-.82-1.152-.01-.01-.142-.019-.03-.01-.121-.02-.283-.05-.253-.039-2.782-.447.172-1.211-5.988-.774-.162 1.241-2.307-.278-.313-.04-.557-.069-.151-.02-.152-.01-.303-.04c-.112.387-.122 1.39-.091 2.352l.06.01.152.02.152.01.506.06.293.039 2.407.278-.141 1.062.475.069.354.05c-.051.05-.101.089-.152.129l-.131.129-.334-.04-.556-.079.131-1.052-2.104-.248-.212 1.171c1.295.347 1.355 1.618 1.355 1.618l.607.079.283.04c-.01.069-.02.139-.02.198l-.273-.039-.829-.11s-.061-1.33-1.416-1.687l.212-1.31-.496-.049-.415 2.927-.01.05.294.04 2.65.327.293.03c0 .049 0 .099.01.149v.01c0 .049.011.099.021.149l-.304-.04-2.984-.367c-.101 1.508 1.244 1.766 1.305 1.776l2.327.209.293.029c-.01.03-.01.06-.01.09-.01.039-.01.079-.01.119l-.273-.02-2.357-.218c-.02 0-1.609-.308-1.487-2.005l-.122-.02.354-2.451-.151.01c-.021-.318-.203-3.137.101-3.732l.05-.099.536.069.021-.129.607-3.731 4.056.516.283.039-.091.149c.091.04.212.099.344.189l-.617-.07-3.712-.476-.567 3.434-.02.109.566.069.243-1.478s1.214-.11 1.649-1.32l2.65.377.304.039c.02.06.04.13.05.209l-.283-.04-2.488-.357c-.405 1.151-1.588 1.33-1.588 1.33l-.172 1.032-.041.248 1.973.248.161-1.24 6.616.843-.172 1.221 2.468.407.172-1.26c-1.527-.517-1.285-1.678-1.285-1.678l-3.095-.436-.617-.09-1.315-.188-.253-.03c.02-.05.061-.119.091-.189l.263.04 1.184.169.263.029c.01.04.01.09.02.13a.931.931 0 0 0 .243-.09l.374.06 3.065.426s-.243 1.132 1.366 1.678l-.223 1.469.283.049.021-.099.434-3.077.041-.258.03-.208-2.62-.338-.344-.039c.051-.03.112-.08.172-.129l.172-.139 1.902.238 1.072.139-.07.526.728.843c.061-.148.111-.188.192-.168.121.02.243.059-.394 4.049l.627.893zm-.546-4.744c-.01 0-.01.01-.01.01a.155.155 0 0 1 -.112-.04l-.738-.833-.435 3.037-.02.109.131.02.718 1.012c.314-1.975.435-2.888.466-3.315zm-8.75 1.925c.172-.635.819-.575.819-.575.769.109.648.863.648.863a.627.627 0 0 1 -.526.576l.121.625.051.268c-.263.04-.536.199-.769.377l-.364-.03-.274-.029.648-1.271c-.475-.228-.354-.804-.354-.804zm.707-1.099 2.885.288-.412 3.293-.236.115.412-3.292zm3.12 3.119 1.708.346-1.708-.173zm2.002-1.329-1.766-.116.059-.23zm-2.38 1.652 2.782.506.223.039.273.05.131.02h.02l.152.03.263.049.202.437.122.268a.841.841 0 0 1 -.142.069c-.04.03-.091.05-.131.09l-.132-.278-.141-.318-.092-.02-.09.576-.081.516a2.222 2.222 0 0 0 -.203.298c-.01.01-.01.01-.01.02a2.274 2.274 0 0 0 -.232.526l.151-.973.162-1.012-.273-.05-.223 1.489s-1.153-.238-1.588 1.102l-.263-.03-.01-.01-.516-.07c0-.069 0-.138-.01-.208l.294.04.323.039c.415-1.27 1.598-1.091 1.598-1.091l.183-1.3-2.479-.447-.081.576-.07.486a4.489 4.489 0 0 0 -.112-.268.94.94 0 0 0 -.131-.169l.04-.317zm1.052 3.513.192.02c.445-1.022 1.073-.973 1.073-.973l.172.695.07.288-.677.069.364.04-.496.099-.283.05a.21.21 0 0 0 -.03.049s0 .01-.01.01l-.324-.039-.122-.02c-.101-.07-.192-.139-.273-.179h-.01a1.08 1.08 0 0 0 -.243-.119l-.101-.03v-.049l.688.079z" fill="#4f1a00"/><path d="m31.925 22.905s-1.913.536-2.798-.536c0 0 1.501-2.075 2.848-1.564 0 0-.529 1.34-.05 2.1zm-4.265-15.966c.218-.741-.529-1.56-.529-1.56 1.12-.909 2.532.751 2.531.751-.352 1.155-2.002.809-2.002.809zm-.755 14.846s-1.721.494-2.482-.697c0-.001 1.385-2.4 2.894-1.794 0 0-.686 1.279-.412 2.491zm-5.072 6.294s-1.178-.578-2.767-.578l.237-1.444 2.648.693s.47.694-.118 1.329zm-1.237-25.53s-1.648-.519-1.295-1.906c.002 0 2.119-.52 2.65.809 0 0-1.178.346-1.355 1.097zm-3.107 13.268c-.415-.87.164-1.889.164-1.889.834.101.918 1.097.918 1.097-.725.158-1.082.792-1.082.792zm.048 5.966s-.779.541-1.413 0c-.002 0 .352-1.04 1.288-1.319 0 0-.242.685.125 1.319zm-2.062-7.855c.765.115.912 1.299.912 1.299-.724.158-1.017.59-1.017.59-.484-.85.104-1.889.105-1.889zm-1.972 2.108c-.415-.87.12-1.926.119-1.926.834.101.939 1.175.939 1.175-.723.158-1.058.751-1.058.751zm.088 6.026s-.778.336-1.345-.275c0 .001.521-.986 1.463-.928 0 0-.407.532-.118 1.203zm2.033-1.786s-.32.653-.031 1.324c0 0-.836.45-1.404-.158 0 0 .472-.994 1.435-1.166zm13.784 7.667c-.259 1.033-1.142 1.374-1.801 1.481a2.803 2.803 0 0 1 -1.587-.198c-1.374-.608-1.077-1.858-1.077-1.858z" fill="#f3f5f7"/><path d="m37.909 29.839c-2.539 1.052-3.025 4.466-3.025 4.496a.15.15 0 0 1 -.131.129c-.071.009-.132-.02-.162-.08l-1.234-2.372-.779.238a13.576 13.576 0 0 1 -1.376 1.439c2.165.775 2.033 2.75 2.033 2.779-.081 1.37-.526 2.372-1.305 2.958-.637.476-1.355.575-1.841.575-.333 0-.556-.049-.576-.049l-.263-.06.182-.188c1.264-1.35.627-2.591.627-2.601-.374-.565-1.699-.436-2.215-.337-.739.496-1.568.337-1.851.268-.607.546-1.973.546-2.276.556-.911.744-1.892.466-2.165.357-1.73.923-3.095.457-3.379.337-1.982.507-3.287-.357-3.57-.575-1.841.218-2.812-.625-3.106-.943-.374.218-.758.288-1.133.189-.778-.199-1.284-1.013-1.416-1.241-.718-.208-1.203-.556-1.456-1.032a1.707 1.707 0 0 1 -.154-1.162l-.009-.013a.843.843 0 0 1 -.232-.076c-.425.467-.819.655-1.022.725a.406.406 0 0 1 -.151.03.519.519 0 0 1 -.263-.09c-1.062-.813-1.002-2.193-.89-2.878-.486-.665-.567-1.429-.577-1.707a.165.165 0 0 1 -.071-.04c-.516.527-.991.755-1.295.854-.05.02-.111.02-.161.02a.538.538 0 0 1 -.435-.218c-1.255-1.817-.132-3.514.141-3.881-.354-.724-.131-1.469-.03-1.717a2.693 2.693 0 0 1 -.435-.734c-.354.198-.627.268-.85.268-.455 0-.657-.278-.667-.298-1.427-1.687 1.487-4.516 1.608-4.635l.04-.03v-.01c.031-.109.061-.198.081-.248-.253-.595-.303-1.131-.232-1.607-.061.01-.122.01-.182.01-.931 0-1.052-.606-1.062-.636-.486-1.756 2.194-3.007 2.994-3.334 0-.089.03-.149.03-.159.597-1.796 1.801-3.047 3.267-3.91-1.578.208-3.227.754-3.247.764l-.303.099.111-.297c4.056-10.927 13.403-9.617 14.303-9.469.374-.248.739-.347 1.083-.287.303.059.495.228.596.337 2.094-.476 2.843 1.072 2.853 1.092l.071.168-.182.04c-.931.219-1.214.606-1.285.735.263.823-.364 1.399-.769 1.607-1.011 1.34-1.274 2.492-1.264 3.355 1.638-.437 2.771-.447 3.388-.01.213.149.314.328.365.456.789-.148 1.173.318 1.315.566.515-.179.971-.179 1.355.01.486.238.708.715.799.943.233-.03.445-.02.627 0a4.15 4.15 0 0 0 .557-.794c-.263-.347-.516-1.052.03-1.707.02-.179.061-.973-.536-1.429l-.162-.119.162-.119c.01-.02 1.436-1.072 3.014.674a.74.74 0 0 1 .405-.049c.202.03.384.149.536.347.526.169 4.511 1.757 3.126 9.339l-.041.218c2.226 3.137 1.467 6.67.83 8.486l1.618-.953a.171.171 0 0 1 .182.02c.051.04.071.109.041.169-1.406 3.394 1.416 6.163 1.446 6.193.03.029.051.079.041.139a.148.148 0 0 1 -.091.109zm-11.906 6.877c.01 0 .941.308 1.689-.218l.051-.02c.08-.02 2.002-.417 2.579.467.04.069.678 1.32-.475 2.739.414.03 1.224.01 1.891-.496.708-.536 1.113-1.459 1.184-2.74.01-.089.121-1.865-1.973-2.52a13.503 13.503 0 0 1 -4.997 2.769zm-20.12-2.908c.021.02.051.02.071.02.162-.059.465-.198.819-.555-.505-.338-.647-.864-.688-1.092a2.833 2.833 0 0 1 -.677-.337c-.01 0-.01-.01-.02-.01a3.611 3.611 0 0 1 -.294-.239c-.071.695.02 1.628.789 2.213zm-3.348-3.88c.04.06.111.079.182.06.213-.07.617-.248 1.082-.705a1.36 1.36 0 0 1 -.495-.595c-.273-.586-.111-1.251-.03-1.519a2.788 2.788 0 0 1 -.425-.308 1.974 1.974 0 0 1 -.162-.149c-.041-.049-.081-.089-.112-.138-.323.466-1.082 1.845-.04 3.354zm-.647-9.26a1.888 1.888 0 0 1 -.041-.416c0-.169.01-.328.031-.477-.719.804-2.135 2.66-1.204 3.782.02.019.303.387 1.123-.1 0-.02.01-.03.01-.049-.142-.705.111-1.33.293-1.668.01-.109.02-.218.041-.327a1.902 1.902 0 0 1 -.253-.745zm1.901-7.086c-.728.308-3.227 1.469-2.812 2.958.01.03.122.446.982.347.242-.843.829-1.429 1.122-1.677.051-.079.101-.159.132-.228.071-.506.273-.993.586-1.4zm18.157-12.167c-.242-.357-.96-1.121-2.488-.744l-.044.011c0 .39.162 1.143 1.202 1.721l-.005-.025.01-.05c.011-.02.203-.595 1.325-.913zm1.006 6.681c.321.08.583.267.795.494-.037-.073-.239-.486-.795-.494zm4.204-2.81c.554.552.511 1.336.491 1.557 1.437.372 1.894-.505 1.991-.76-1.121-1.275-2.101-.994-2.482-.797zm3.469 1.111-.06-.02-.03-.039a.83.83 0 0 0 -.171-.184c-.074.905-1.054 1.191-1.054 1.191.773-.449.843-1.029.834-1.271-.054-.004-.098.01-.14.022-.631 1.484-2.372 1.055-2.496 1.022a.995.995 0 0 0 -.07 1.022l-.013-.681s.177 1.038 1.296.924c0 0-.492.284-1.073.131l-.027.047c-.131.297-.344.585-.526.823.83.258 1.164.963 1.265 1.261.01.01.01.01.01.02 1.042.079 1.719.714 2.013 1.052.071.069.111.129.141.168.142.04.273.1.395.169.708.387 1.254 1.171 1.416 1.429.111 0 .202.04.273.089.101.07.172.169.203.239l.667 1.22.142.12c1.284-7.553-2.954-8.744-2.995-8.754zm4.391 14.391c-.526.109-1.548 1.131-1.69 1.27.769-1.648 1.416-1.687 1.7-1.588 0-.308-.021-.625-.061-.943-.172-.456-.364-.694-.496-.804a.37.37 0 0 0 -.435-.019c-.303.188-.586.635-.657.744.465-1.429 1.123-1.082 1.457-.774a7.668 7.668 0 0 0 -1.315-2.918c-1.407-.496-1.589 1.667-1.589 1.667-.192-2.104.911-2.124 1.376-2.044l-.081-.149-.364-.685-.324-.595-.01-.01c0-.01-.01-.02-.02-.04-1.275.02-1.194 1.181-1.194 1.181-.374-1.042.385-1.399.729-1.499-.182-.268-.648-.893-1.204-1.22a1.57 1.57 0 0 0 -.445-.189l-.051-.02c-.212.139-.435.487-.06 1.36.05.109.01.228-.081.298a.253.253 0 0 1 -.324-.04c-.121-.139-.374-.417-.607-.576a.188.188 0 0 0 -.263.05l-.03.06c-.051.228-.051.704.151 1.716 0 0-.768-1.131-.435-1.945a.538.538 0 0 1 .769-.258c.101.07.182.149.263.239 0 0-.313-1.172.476-1.092-.253-.288-.901-.933-1.882-.993-.03-.01-.05-.01-.081-.01l-.091-.009c-.354.128-.708.396-.374.992.02.03.05.06.081.089l.232.209a.237.237 0 0 1 .021.268.25.25 0 0 1 -.253.109c-.293-.06-.961-.308-1.356.307a.368.368 0 0 0 -.04.308.962.962 0 0 0 .303.397c-.141-.079-.859-.516-.222-1.151 0 0 .243-.288.89-.288 0 0-.819-1.399.627-1.469-.091-.268-.384-.913-1.193-1.082a2.26 2.26 0 0 0 -.375-.039c-.141-.01-.293 0-.455.03l-.141.019-.031-.139s-.162-.615-.678-.863c-.333-.169-.748-.149-1.234.05l-.081.029c.405.516.557 1.152.557 1.152 1.112.694 1.295 1.677 1.295 1.677-.648-1.032-1.002-1.211-1.002-1.211-.769-.695-1.477.347-1.477.347.648.695.597 1.152.597 1.152-1.001-.983-1.123-1.668-1.123-1.668l.233.229c.354-.635 1.062-.576 1.062-.576l-.142-.427c-.03-.069-.06-.139-.101-.208-1.001-1.568-2.346-.298-2.346-.298.252-.526.647-.724.971-.794l-.011-.119c0-.01-.02-.228-.283-.407-.384-.258-1.254-.447-3.176.07.04.555.202.952.303 1.171.152-.139.314-.189.466-.139.425.129.516.992.526 1.25l-.304.02c-.03-.427-.172-.933-.313-.982-.041-.01-.152.029-.294.208l-.141.159-.111-.179c-.031-.04-.355-.556-.435-1.419-.021-.099-.021-.199-.021-.308-.03-.933.233-2.193 1.346-3.642l.05-.05c.02 0 .132-.069.273-.178-.404-.01-.981-.129-1.173-.705.051.089.384.536 1.204.159-.385-.079-.88-.278-1.052-.754 0 0 .688.694 1.436.486 0-.03-.015-.065-.019-.097l-.013.019s-1.696-.508-1.418-2.117a.786.786 0 0 0 -.33-.207c-.112.199-.233.645.05 1.509 0 0-.435-.655-.384-1.42a2.04 2.04 0 0 0 -.587.755c-.02-.288-.01-.486.02-.635-.03.019-.05.019-.08.039l-.051.04-.071-.01c-.101-.02-9.701-1.886-13.898 8.962.667-.209 2.296-.665 3.722-.754.263-.01.526-.01.769 0 .395.029.748.099 1.032.228.02.01.688.298.596 1.379.79-.347 3.126-1.161 4.471.546.466-.446 2.023-1.836 3.217-1.419.03.02.597.278.911 1.072l-.284.109c-.273-.675-.728-.883-.748-.893-1.153-.417-2.984 1.449-3.004 1.469l-.132.139-.101-.159c-1.437-2.055-4.33-.536-4.451-.476l-.293.158.06-.317c.213-1.062-.354-1.32-.374-1.33-.384-.189-.941-.238-1.558-.209-1.689.834-3.085 2.114-3.752 4.06.032.009.056.029.082.046l.048-.171s.413 1.213 2.238-.577c0 0-1.767 2.541-.118 2.657 0 0-1.472.231-.824-1.444 0 0-.608.558-1.328.041a2.58 2.58 0 0 0 -.578 1.422l.14-.135s-.118 1.271 1.412.751c0 0-1.324 1.222-1.951-.171-.311.297-.743.815-.882 1.53v.01c-.084.382-.06.837.107 1.335.24.346.882.963 1.49-1.144 0 0 .114 2.325-1.493 1.856a3.337 3.337 0 0 0 -.104.444c-.06.308-.091.675-.009 1.043.03.248.121.496.283.724.006.013.016.025.026.038l.002-.004c1.178.519 1.65-1.56 1.65-1.56 0 2.466-1.488 2.145-1.819 2.044-.19.353-.43.997-.183 1.715.091.248.233.506.465.764l.071.07-.04.089c-.021.049-.395.834 0 1.588.151.288.414.575.87.814l.121.069-.051.119c0 .01-.303.784-.02 1.419.091.199.233.368.435.487.087.075.194.13.308.17l.014-.085c.002-.008.01-.014.018-.013l.005.001c.111.052.678.278 1.1-.241 0 0-.062.637-.962.593-.001.2.045.815.407 1.391.041.079.091.159.162.238l.01.01.071.02c0 .02-.01.039-.01.059.253.298.617.566 1.133.715l.101.04.01.099c0 .04.041.655.587.992.051.034.123.053.186.078.309.04 1.239.045 1.189-1.404 0 0 .685 1.352-.704 1.835-.041.189-.092.594.118.99.222.417.667.715 1.335.893l.061.02.03.06c.01.009.496.952 1.254 1.141.324.079.658.01 1.002-.218l.121-.08.091.119c.03.049.882 1.136 2.854.93.092-.425.281-1.616-.393-1.994 0 0 1.204.596.81 2.14.4.262 1.51.827 3.099.444.051-.338.015-1.064-1.142-1.371 0 0 1.602-.027 1.76 1.481.539.126 1.583.221 2.814-.459l.071-.039.071.029c.04.02 1.041.467 1.952-.317l.05-.04h.061c.02 0 1.639.05 2.175-.526l.04-.04c-1.638.487-2.923.526-3.328.526h-.141c-3.601-.129-6.201-1.071-7.739-2.808-1.608-1.807-1.426-3.801-1.416-3.891a3.895 3.895 0 0 1 1.042-1.717c-.93-.426-2.478-1.409-2.336-3.344-.011-.04 0-.079 0-.119 0-.03.01-.05.01-.08 0 0-.01-.009-.01-.019a3.948 3.948 0 0 1 -.648-1.618c0-.05-.01-.099-.01-.149s-.01-.099-.01-.149c0-.059 0-.119.01-.188-.01-.06 0-.129.01-.199.01-.129.041-.268.081-.407.071-.288.273-.913.597-.963.02-.029.061-.069.101-.119.041-.039.081-.089.132-.139l.131-.129c.344-.337.9-.734 1.426-.655l.132.02-.01.129c-.01.159 0 .338.03.457.122-.149.324-.387.577-.616.303-.287.687-.545 1.082-.615.101-.02.212-.02.314-.01l.172.02-.061.169c-.091.238-.263.883-.121 1.3.263-.377.89-1.141 1.577-1.141h.162l-.02.158c-.03.179-.071.655.01.933.071 0 .162.02.263.09.02.01.031.019.051.029.03.02.06.05.091.08.05.039.101.099.131.159.294.407.435 1.151.456 2.223v.129c.06.02.141.059.232.109l.01.01c.051.03.112.059.162.099l.01.01c.051.04.112.079.162.119a.213.213 0 0 1 .041-.059c.03-.03.06-.05.101-.06l1.123-.208c0-.02.01-.04.01-.05.121-.586.323-1.022.576-1.35a2.05 2.05 0 0 1 .182-.208c0-.01.01-.01.01-.01.061-.07.122-.119.183-.169.101-.099.212-.169.323-.238.051-.03.091-.06.142-.079a.971.971 0 0 1 .141-.07c.183-.079.354-.129.496-.159.192-.039.344-.059.435-.059.121-.258.293-.417.445-.506.051-.02.091-.04.132-.05l.01-.01a.353.353 0 0 1 .081-.149.59.59 0 0 1 .242-.228.856.856 0 0 1 .547-.06c1.153-1.756 2.842-1.548 2.913-1.538.05.01.091.03.111.07a.19.19 0 0 1 .02.129c-.445 1.33-.465 1.826-.445 1.994.506.03.749.576.83.784l.485.159a.69.69 0 0 1 .314-.337.748.748 0 0 1 .495-.05c1.619-1.766 2.833-1.201 2.894-1.171.07.03.101.109.07.179-.313.903-.151 1.508-.081 1.687.263.109.375.357.415.506.486.159.9 1.211 1.083 1.747l.738-.437c.314-.804.718-2.104.759-3.622zm-15.942 5.398-.031-.059c-.02-.04-.03-.079-.05-.119-.01-.03-.02-.06-.031-.099-.182-.506-.05-.963.092-1.251-.031-.03-.061-.05-.092-.079-.101-.07-.192-.139-.273-.179h-.01a1.08 1.08 0 0 0 -.243-.119l-.101-.03v-.149c0-.069 0-.138-.01-.208-.007-.615-.067-1.036-.144-1.359-.004.004-.238.287-.823.23 0 0 .568-.06.754-.503l-.019-.065a4.489 4.489 0 0 0 -.112-.268.94.94 0 0 0 -.131-.169.167.167 0 0 0 -.061-.059c-.121-.09-.212-.07-.212-.07l-.112.02-.06-.089c-.142-.278-.112-.754-.091-1.013-.617.139-1.184.993-1.285 1.162-.01.019-.02.029-.02.029l-.028.043h.024l-.003.007.063-.123s.824.52 1.531 0l.208.154c.008-.015.018-.021.026-.037l.176.288a1.264 1.264 0 0 1 -.882.231s.379-.02.627-.406c-.222.148-.919.517-1.784.011l-.02.066c.097.107.336.304.882.387 0 0-.531.044-.937-.15-.12.909.348 2.171.348 2.171-.856-1.261-.638-2.17-.522-2.477a.835.835 0 0 1 -.479.051s.369-.092.481-.297l-.01-.023c-.218.096-1.024.395-1.53-.201l.058-.172s.537.461 1.399.21c-.087-.258-.083-.558-.043-.824.02-.129.051-.248.071-.348.01-.049.02-.079.03-.119-.02 0-.03 0-.05.01-.263.04-.536.199-.769.377a5.216 5.216 0 0 0 -.809.873c.014.021.037.032.052.052h.001v.002c.176.228.421.398.707.46 0 0-.441-.014-.75-.246-.08.435-.214 1.443.103 2.152 0 0-.384-.563-.458-1.365a.975.975 0 0 1 -.661-.021s.414.024.613-.215c-1.112.234-1.673-.305-1.673-.305l.068-.088-.036-.008c-.081.009-.263.357-.364.764-.04.129-.071.258-.071.377-.01.069-.02.139-.02.198-.01.07 0 .129.01.179 0 .049 0 .099.01.149v.01c0 .049.011.099.021.149.131.823.607 1.468.617 1.478l.03.05-.01.06v.019c-.01.03-.01.06-.01.09-.01.039-.01.079-.01.119-.152 1.856 1.416 2.769 2.276 3.126 1.497-1.29 3.702-1.409 4.501-1.399l.02-.129c-.071-.378 0-.765.041-.914zm-5.535-4.974.17.07a1.042 1.042 0 0 1 -.087-.465c-.324.01-.648.219-.911.437-.051.05-.101.089-.152.129l-.131.129a2.788 2.788 0 0 0 -.21.242c.524.42 1.195.26 1.195.26-.061-.405.126-.802.126-.802zm13.556-1.774c-.232 0-.637.04-1.092.248-.455.199-.961.576-1.386 1.251-.026.043-.067.061-.112.068.247.263.967.829 2.29.602-.004-.003-.009-.002-.013-.006-.182-.178-.071-.942.313-2.163zm4.663 1.518c-.323-.079-1.244-.139-2.447 1.221a.17.17 0 0 1 -.074.039c.275.288 1.053.861 2.464.398-.082-.262-.195-.84.057-1.658zm4.008 2.923.224.138c.028-.107.052-.213.088-.322zm.184.285c-.912 1.868-2.814 2.702-2.814 2.702 1.482-.794 2.105-2.186 2.318-2.804l-.964.566-.445.258-.537.318a.125.125 0 0 1 -.131.01.118.118 0 0 1 -.091-.089c-.246-.759-.637-1.559-.89-1.714-.425 2.525-2.557 1.376-2.557 1.376 1.844.51 2.206-1.026 2.278-1.652-.005-.013-.008-.025-.015-.039-.242.876-1.615.651-1.615.651.91-.037 1.28-.408 1.43-.669-.57.197-2.167.578-3.198-.803-.02.019-.044.031-.06.054-.009.112.015.576.886 1.129 0 0-.55-.058-.958-.747-.148.251-.447.872-.22 1.498 0 0-.582-.329-.114-1.626l-.581-.188c-.025-.01-.033-.036-.051-.054-.3 1.411-1.491 1.002-1.491 1.002.782-.077 1.041-.759 1.129-1.212-.194.165-.573.323-1.332.23 0 0 1.073.039 1.257-.616-.388.172-1.903.705-3.12-.744-.018.006-.037.006-.054.015-.006.003-.009.01-.015.013.121.249.533.967 1.311 1.064 0 0-.792.04-1.477-.841l-.001.002c-.01.02-.02.03-.02.05-.003.011-.016.016-.021.026-.093.238-.189.697.089 1.319 0 0-.461-.42-.638-.797-.006.013-.012.023-.017.037-.03.07-.081.109-.162.1-.02 0-.273-.01-.597.079-.101.03-.202.069-.313.109a.841.841 0 0 1 -.142.069c-.04.03-.091.05-.131.09a1.825 1.825 0 0 0 -.536.476 2.222 2.222 0 0 0 -.203.298c-.01.01-.01.01-.01.02a2.274 2.274 0 0 0 -.232.526 3.9 3.9 0 0 0 -.142.575.148.148 0 0 1 -.132.129l-.394.07-.496.099-.283.05a.21.21 0 0 0 -.03.049s0 .01-.01.01c-.031.06-.081.149-.122.268a1.356 1.356 0 0 0 0 1.003l2.903.764a.393.393 0 0 0 .455-.209c.182-.416.102-1.141.092-1.151 0-.049.04-.089.09-.099h.011c.04 0 .081.03.091.079 0 .03.091.784-.112 1.241a.551.551 0 0 1 -.516.327c-.05 0-.101 0-.151-.019l-.051-.01c.112.248.273.804-.192 1.31-.01.01-.02.01-.03.01.354.208.597.436.657.496l-1.072-.625a7.224 7.224 0 0 0 -2.397-.427c-.031 0-.051-.01-.071-.04-.01 0 0-.02-.01-.03-.749 0-2.752.11-4.148 1.221a4.29 4.29 0 0 0 -.242.198c-.456.417-.82.963-1.032 1.658.01 0-.172 1.935 1.345 3.642 1.477 1.658 4.016 2.571 7.526 2.69.041 0 4.299.158 8.153-3.107.091-.069.192-.158.283-.238.288-.255.569-.536.847-.833h-.168s1.471-1.733 1.589-2.253c0 0-.208.72-.556 1.428l.807-.247c.071-.02.142.01.182.079l1.082 2.084c.209-.91.857-2.946 2.579-3.994-.613-.03-2.227-.22-3.446-1.371 0 0 1.454 1.105 3.531.838-.686-.863-1.909-2.814-1.365-5.157zm-15.349 3.164a.291.291 0 0 0 .294-.288.289.289 0 0 0 -.223-.278c.051-.089.091-.169.131-.218l-1.406-.367c0 .009 0 .029-.01.039 0 0-.02.07-.04.159v.02c-.03.149-.051.377-.02.595.01.119.05.229.111.318.02.04.01.079 0 .119.435.02.839.08 1.183.159a.531.531 0 0 1 -.111-.268c.03.01.061.01.091.01zm16.894 2.209v.158c.032-.017.057-.039.09-.055a4.15 4.15 0 0 1 -.09-.103zm-7.487-1.425-.536-.07c-.293 1.013-1.163 1.36-1.851 1.469a2.912 2.912 0 0 1 -1.638-.198c-1.204-.536-1.184-1.558-1.144-1.866l-.455-.06a.438.438 0 0 1 -.384-.416c-.03-.665.991-1.152 1.032-1.172.04-.019.101 0 .121.05.02.04 0 .099-.04.119-.011 0-.951.457-.931 1.003.01.119.101.218.223.238l.546.069 4.471.576.607.079c.05.01.081.05.081.099-.011.05-.051.08-.091.08zm-1.992.605a.291.291 0 0 0 -.415-.258c-.03-.258.071-.516.132-.635l-2.711-.357c-.041.278-.071 1.191 1.041 1.677a2.693 2.693 0 0 0 1.528.189c.192-.03.394-.09.597-.169a1.45 1.45 0 0 1 -.334-.189.285.285 0 0 0 .162-.258zm-5.8 1.851a.094.094 0 0 1 -.092-.075c-.063-.324-.181-.518-.351-.575-.242-.082-.569.132-.673.223a.096.096 0 0 1 -.132-.009.092.092 0 0 1 .009-.129c.019-.016.466-.391.856-.258.239.08.398.321.475.714a.093.093 0 0 1 -.092.109zm-6.659 1.688c1.901-2.463 5.275.501 5.274.501-3.535-1.932-4.944-.849-5.274-.501zm3.459-2.809a.093.093 0 0 1 -.089-.066c-.088-.288-.211-.452-.369-.489-.269-.058-.584.259-.588.263a.096.096 0 0 1 -.131.004.09.09 0 0 1 -.005-.13c.016-.016.395-.401.766-.315.228.053.398.26.505.615a.091.091 0 0 1 -.062.114c-.009.002-.018.004-.027.004zm2.455-14.753-.02.03-1.608-.179c-.041.03-.071.06-.112.089-.061.05-.111.1-.162.129-.667.536-.859.507-.93.497-.061-.01-.101-.05-.132-.09l-.01-.039a2.023 2.023 0 0 0 -.131-.516c-.01-.06-.041-.11-.061-.159-.041-.07-.071-.129-.111-.179-.193-.258-.405-.298-.486-.308-.05.03-.101.12-.141.229a.415.415 0 0 0 -.061.159.564.564 0 0 0 -.051.138 4.01 4.01 0 0 0 -.121.467l-.01.05-.031.019c-.04.03-.081.07-.121.09a3.43 3.43 0 0 1 -.253.159c-.313.158-.465.139-.506.129l-.091-.02v-.09c0-.039-.01-.069-.02-.109 0-.069-.02-.139-.03-.198a1.635 1.635 0 0 0 -.354-.685 1.174 1.174 0 0 0 -.203-.179c-.101-.069-.192-.109-.253-.139-.01.03-.03.07-.04.1l-.06.149c-.092.198-.183.406-.274.585-.03.06-.06.119-.101.179-.152.278-.303.466-.425.466h-.131v-.129c0-.159-.02-.298-.061-.417a.5.5 0 0 0 -.071-.208c-.222-.506-.688-.625-.708-.635l-.101-.03v-.089c0-.03.01-.07.02-.11v-.01c.021-.049.041-.109.061-.148.03-.05.051-.08.061-.09.657-1.349 2.114-1.459 2.387-1.468 2.498-1.777 4.714.754 4.795.843 1.001 1.112.718 1.628.687 1.677zm-.85-1.548v-.01c-.091-.099-2.134-2.481-4.481-.784l-.04.03h-.041-.01c-.141 0-1.558.029-2.195 1.339v.01l-.091.149c.091.04.212.099.344.189.182.149.384.367.496.684.02.06.04.13.05.209.01.03.02.059.02.089.021-.02.031-.049.061-.079.02-.05.061-.119.091-.189.081-.149.172-.337.284-.585.02-.04.03-.089.06-.139.02-.05.041-.099.061-.159.01-.03.03-.069.04-.099l.041-.1.019.004c.289-1.271 2.558-1.221 2.558-1.221-1.691.142-2.201.981-2.332 1.281a1.445 1.445 0 0 1 .584.413c.041.05.091.109.132.169.111.168.202.397.263.674.01.04.01.09.02.13a.931.931 0 0 0 .243-.09c.081-.04.182-.099.293-.188.02-.1.051-.249.111-.407 0-.05.021-.099.041-.149.01-.05.03-.099.061-.149.044-.115.1-.215.163-.296-.066-1.58 2.011-1.156 2.011-1.156-1.629-.054-1.754.865-1.764 1.009.099.006.508.06.793.592.031.05.061.109.081.178.02.05.041.1.061.159.03.109.061.229.081.358.01-.003.036-.017.05-.022.068-.464-.126-.773-.126-.773.246.12.331.452.361.645.064-.04.119-.071.21-.138.051-.03.112-.08.172-.129l.172-.139c.051-.04.101-.08.152-.129l.041-.04 1.537.169c.02-.149-.01-.576-.678-1.31zm-13.094 4.594c-.648.346-1.001-.289-1.001-.289-.294.751-.942.578-.942.578.766 0 .942-1.098.944-1.098 0 .519.353.693.353.693.646.405 1.058-.519 1.058-.519-.176.519-.412.635-.412.635z" fill="#122a44"/></g></svg>