<svg height="39" width="41" xmlns="http://www.w3.org/2000/svg"><path d="m32.438 27.82c-4.671 0-8.458-3.731-8.458-8.333s3.787-8.333 8.458-8.333 8.457 3.731 8.457 8.333-3.786 8.333-8.457 8.333zm-10.688-19.793c-2.252 0-4.078-1.799-4.078-4.018s1.826-4.017 4.078-4.017 4.078 1.798 4.078 4.017-1.826 4.018-4.078 4.018zm-1.989 5.107c.121-.06.262-.099.382-.119h.02a2.535 2.535 0 0 1 2.331.673c1.004.97 1.004 2.553 0 3.543-.985.989-2.592.989-3.596 0a2.717 2.717 0 0 1 -.462-.614s-1.989-4.117-8.799-1.464a8.55 8.55 0 0 1 -1.085.455h-.02a6.164 6.164 0 0 1 -6.208-1.485c-2.41-2.355-2.39-6.195 0-8.55 2.391-2.355 6.268-2.355 8.679.02a5.981 5.981 0 0 1 1.607 2.79s1.647 6.255 7.151 4.751zm-13.057 9.738c1.165 0 2.23.316 3.154.851 0 0 5.645 3.266 8.457-1.623a1.1 1.1 0 0 1 .181-.337v-.019a2.567 2.567 0 0 1 2.149-1.148c1.407 0 2.552 1.128 2.552 2.513 0 1.386-1.145 2.514-2.552 2.514-.261 0-.522-.04-.763-.119 0 0-4.359-1.504-7.292 5.126a6.285 6.285 0 0 1 -.442 1.069v.02c-1.005 1.94-3.074 3.266-5.444 3.266-3.395 0-6.147-2.712-6.147-6.057s2.752-6.056 6.147-6.056zm15.046 8.095c2.252 0 4.078 1.799 4.078 4.018s-1.826 4.018-4.078 4.018-4.078-1.799-4.078-4.018 1.826-4.018 4.078-4.018z" fill="#2b5eba" fill-rule="evenodd"/></svg>