<svg height="40" width="28" xmlns="http://www.w3.org/2000/svg"><path d="m23.789 13.437 3.734 15.762-5.667-9.665zm-8.798-5.626v-7.811l8.279 11.497-2.148 6.783zm1.781 24.238h-4.641l-3.918-12.387 6.239-10.64 6.239 10.64zm-11.139-20.552 8.279-11.497v7.811l-6.131 10.469zm-4.253 17.702 3.735-15.762 1.932 6.097zm9.618 2.85h-10.039l6.52-11.133zm2.515 7.951-11.55-6.879h9.369zm2.925-6.879-1.986 6.279-1.987-6.279zm4.987-12.205 6.519 11.133h-10.038zm5.515 12.205-11.549 6.879 2.18-6.879z" fill-rule="evenodd"/></svg>