<svg xmlns="http://www.w3.org/2000/svg" width="28" height="40">
    <path fill-rule="evenodd" d="M23.789 13.437l3.734 15.762-5.667-9.665 1.933-6.097zm-8.798-5.626V0l8.279 11.497-2.148 6.783-6.131-10.469zm1.781 24.238h-4.641L8.213 19.662l6.239-10.64 6.239 10.64-3.919 12.387zM5.633 11.497L13.912 0v7.811L7.781 18.28l-2.148-6.783zM1.38 29.199l3.735-15.762 1.932 6.097-5.667 9.665zm9.618 2.85H.959l6.52-11.133 3.519 11.133zM13.513 40l-11.55-6.879h9.369L13.513 40zm2.925-6.879L14.452 39.4l-1.987-6.279h3.973zm4.987-12.205l6.519 11.133H17.906l3.519-11.133zm5.515 12.205L15.391 40l2.18-6.879h9.369z"/>
</svg>
