<svg height="40" width="40" xmlns="http://www.w3.org/2000/svg"><g fill-rule="evenodd"><path d="m20.334 39.99a19.578 19.578 0 0 1 -11.179-3.499l1.657-.855a17.907 17.907 0 0 0 9.522 2.731c9.949 0 18.048-8.124 18.048-18.105a18.06 18.06 0 0 0 -4.311-11.72l1.124-1.186a19.676 19.676 0 0 1 4.805 12.906c0 10.875-8.825 19.728-19.666 19.728zm.252-2.922c-2.8 0-5.541-.71-7.992-2.061l14.725-7.619 2.402-1.244-2.218-1.545-1.589-1.098 4.631-2.371 2.305-1.176-2.063-1.565-3.265-2.478 5.793-6.123a16.562 16.562 0 0 1 3.846 10.652c0 9.183-7.421 16.628-16.575 16.628zm-.921-35.449c-9.948 0-18.047 8.125-18.047 18.105a18.04 18.04 0 0 0 4.708 12.177l-1.124 1.176a19.69 19.69 0 0 1 -5.202-13.353c0-10.874 8.825-19.728 19.665-19.728a19.49 19.49 0 0 1 11.868 4.014l-1.608.836a17.866 17.866 0 0 0 -10.26-3.227zm-6.692 23.753-5.386 5.695a16.614 16.614 0 0 1 -4.243-11.108c0-9.184 7.42-16.628 16.575-16.628 3.1-.01 6.142.865 8.767 2.517l-15.51 8.028-2.402 1.243 2.218 1.546 1.589 1.107-4.631 2.372-2.305 1.176 2.063 1.564z" fill="#091b26"/><path d="m10.799 21.674 4.708 3.577-10.637 11.244 21.148-10.943-3.817-2.653 7.043-3.615-4.708-3.577 10.636-11.234-21.147 10.943 3.817 2.653z" fill="#23bee2"/></g></svg>