<svg height="41" width="40" xmlns="http://www.w3.org/2000/svg"><g fill-rule="evenodd"><path d="m39.825 20.333c-.568 2.313-3.335 5.276-7.167 8.239-.567.434-.922-.144-.851-.578.071-.361.355-.578.426-.65 3.973-2.964 6.811-6.071 7.379-8.456.071-.434.142-.868.071-1.301l.213 1.084v.65c0 .362 0 .578-.071 1.012zm-25.046 1.301c-7.129 3.121-12.629 3.542-14.051 1.488-.067-.499-.069-1.065-.069-1.633 5.605 6.072 30.935-9.684 31.219-16.334.071-1.228-.568-1.662-.922-1.879l.638.434.852.578c.638.578.922 1.446.638 2.602-1.064 4.264-9.365 10.914-18.305 14.744zm-14.085 1.432.034.056.002.03c-.016-.025-.02-.06-.036-.086zm16.426-15.02c-.567.29-1.206-.505-.993-.867 0-.072.071-.072.071-.072 2.625-1.807 4.541-3.758 4.966-5.204.309-1.194-.511-1.785-1.988-1.825.433-.02.906-.054 1.279-.054 1.774 0 2.625.65 2.27 2.024-.425 1.662-2.696 3.975-5.605 5.998zm1.348-7.95c.251-.019.486-.024.708-.018-.144.007-.3.018-.424.018zm-12.345 12.504c-.994.144-2.413.072-3.122-.651.284-.506.497-.939.851-1.445.639.867 2.767.867 5.605-.073.355-.144.355.651.355.651 0 .434-.071 1.012-3.689 1.518zm-3.335-2.024.114-.175c.027-.092.062-.185.099-.259.071-.289.213-.506.425-.722-.019.06-.066.133-.103.201.035-.042.073-.082.103-.129.085-.13.171-.273.258-.419-.087.145-.173.289-.258.419.028-.112.076-.219.125-.323-.07.099-.139.193-.195.251.142-.217.283-.506.496-.651.073-.093.127-.175.188-.261.021-.031.042-.064.065-.095a7.5 7.5 0 0 0 -.466 1.007c-.004.008-.012.018-.017.026-.045.414-.019.723.23.913-.354.651-.638 1.084-.851 1.59-.284-.361-.284-.65-.284-1.012 0-.072 0-.144.071-.361zm1.628-2.572c.066-.08.132-.161.217-.247l-.284.362a2.517 2.517 0 0 0 -.218.263l-.026.031c.128-.224.27-.434.457-.656zm15.542 26.206c.923-.289 1.277.361 1.277.361.071.072.071.434-.425.651-5.818 2.312-10.359 2.818-12.204 1.517a18.581 18.581 0 0 0 -1.419-1.084c1.774 1.518 6.527 1.012 12.771-1.445z" fill="#d37d41"/><path d="m37.27 10.576c0-.276-.025-.507-.09-.72l.374.72.284.434c.284.65.284.65.284 1.011v.073c-.284-.073-.781-1.084-.852-1.518zm1.207 17.346c-2.909 6.143-16.532 13.009-21.924 12.142-.568-.072-1.349-.289-1.845-.434 1.915.579 5.534-.072 9.933-1.951 7.095-3.108 13.552-8.239 14.545-11.564-.213.578-.426 1.301-.709 1.807zm-20.222 1.012c-8.079 3.429-14.232 3.794-15.325 1.228-.071-.072-.071-.144-.142-.289l-.426-.867c1.632 2.168 7.45 1.735 15.042-1.662 5.747-2.458 11.21-5.999 14.9-9.324.638-.289.851.217.993.506.142.506 0 .868-.142 1.084-3.689 3.397-9.153 6.866-14.9 9.324zm-4.824-10.914a48.233 48.233 0 0 1 -4.399 1.663c-.781.072-.852-.94-.497-1.446.071-.144.142-.144.284-.289 1.277-.361 2.625-.867 4.044-1.445 7.663-3.325 14.616-8.962 15.538-12.576.355-1.301-.141-2.169-1.277-2.602.497.217 1.207.506 1.703.723.993.506 1.419 1.373 1.064 2.674-.993 3.903-8.372 9.757-16.46 13.298zm-11.991 1.879c-.719-.366-1.062-.904-1.073-1.709.022.277.109.517.224.735a1.943 1.943 0 0 1 -.144-1.049l.141-1.084.142-.651c-.134.617-.069 1.226.24 1.597.017-.075.026-.148.044-.224.142.29.426.434.781.579.212.433 0 1.301 0 1.301-.071.289-.142.578-.355.505z" fill="#e8b521"/><path d="m24.286 30.018c-.851.361-1.348-.289-1.206-.867a.775.775 0 0 1 .426-.506c7.733-4.12 14.19-9.757 15.254-13.588.142-.65.142-1.301 0-1.807.213.651.497 1.301.568 1.879.071.434.071.94-.071 1.518-.993 3.758-7.308 9.324-14.971 13.371zm-7.946-4.698c-7.671 3.358-13.549 3.763-14.894 1.415a1.476 1.476 0 0 1 -.219-.403c-.142-.506-.355-1.301-.497-1.807.071.289.142.506.355.795.142.578.284 1.084.497 1.59-.142-.506-.355-1.012-.426-1.662 1.49 2.168 7.237 1.662 14.545-1.518 9.366-4.047 17.809-10.913 19.015-15.322.284-1.084.071-1.879-.497-2.458.426.434.852.94 1.207 1.374.496.578.567 1.373.354 2.385-1.135 4.553-9.791 11.491-19.44 15.611zm-3.974-10.986c-5.432 2.3-9.596 2.738-10.759 1.108-.007.041-.02.08-.025.121-.284-.361-.355-.795-.284-1.301 0-.144 0-.289.071-.434.142-.505.355-.939.568-1.445-.142.578-.071 1.084.141 1.518-.112.46-.311.875-.425 1.317.137-.388.304-.812.425-1.245.994 1.445 4.896 1.084 9.863-1.012 6.243-2.819 12.061-7.444 12.842-10.335.284-1.084-.071-1.807-.994-2.168.143-.073.143-.073.639.072.355.072.568.144.781.144 1.064.434 1.49 1.229 1.206 2.386-.852 3.252-7.166 8.311-14.049 11.274zm5.464-10.985c-.426.144-1.348 0-1.49-.145a4.5 4.5 0 0 0 .78-1.301c.275-1.118-.946-1.405-2.922-.913.268-.095.381-.143.576-.241-.373.117-.755.24-1.152.393l.092-.034 1.063-.361.144-.073c2.554-.65 4.115-.289 3.831 1.157-.071.506-.426 1.012-.922 1.518zm-3.632-2.359c-.135.048-.306.106-.554.19-.16.047-.282.087-.396.128-.176.073-.35.135-.527.234-.966.399-1.905.888-2.79 1.411.012-.011.028-.022.042-.033l-.374.212c-.279.142-.289.149-.83.562a22.24 22.24 0 0 1 1.162-.741c-.059.05-.112.1-.19.179-.567.361-.567.361-.851.578-.517.316-.693.401-.834.508.226-.169.443-.34.686-.505a2.44 2.44 0 0 0 -.232.103c1.063-.795 2.384-1.572 3.785-2.202.436-.175.846-.317 1.239-.439l.088-.033c-.016.007-.033.016-.05.022.216-.066.425-.124.626-.174zm-3.55 1.511c.19-.08.303-.141.598-.328-.19.079-.302.141-.598.328zm1.011-.541c.141-.059.266-.114.534-.236-.153.037-.272.09-.534.236zm-3.623 2.273a1.661 1.661 0 0 0 -.14.127l-.612.499c-.224.223-.43.444-.594.658-.233.237-.432.423-.624.617.202-.182.401-.363.624-.545-.213.361-.426.723-.496 1.012-.071.289-.071.506.07.65-.425.506-.78.94-1.135 1.446-.071-.289-.142-.434-.071-.795 0-.072 0-.145.071-.289a4.16 4.16 0 0 1 .444-.469 6.175 6.175 0 0 0 -.586.613c0-.072.071-.289.071-.361a7.41 7.41 0 0 1 .639-.94c.079-.064.148-.129.222-.194.258-.349.555-.669.913-1.034.639-.578.639-.578.993-.868.406-.361.522-.462.685-.544-.33.246-.638.493-.911.74.135-.11.294-.215.437-.323zm-6.738 9.668c0-.073.071-.289.071-.362.142-.506.497-1.301.638-1.807 0 .289-.07.434-.141.651-.213.506-.355 1.012-.568 1.518zm4.044 19.875c-.355-.433-.78-.867-.993-1.301.355.434.851 1.012 1.206 1.446-.071-.073-.142-.145-.213-.145zm5.534-.289c.639 0 1.065.578 1.136.723.071.144.141.506-.142.578-3.051.506-5.18.289-6.244-.867-.355-.434-.851-1.012-1.206-1.446.922 1.229 3.193 1.518 6.456 1.012zm29.091-11.708-.071.361c-.071.506-.142 1.084-.142 1.518 0 .072 0 .144-.071.289-1.064 3.686-8.16 9.396-15.964 12.792-5.109 2.241-9.224 2.819-11.282 2.024-.496-.289-1.206-.506-1.632-.795 6.883 2.891 28.168-8.89 29.162-16.189zm-6.031 12.142c.071 0 .071-.073.142-.073 0 0 0 .073.07.073.071 0 .071.144-.07.217 0 .072-.142.361-.497.578-1.845 1.517-4.399 3.107-6.953 4.192-2.2.939-4.116 1.445-5.535 1.517h-2.128c1.703.073 4.115-.505 7.095-1.734 2.909-1.301 5.818-2.963 7.876-4.77z" fill="#417ba4"/></g></svg>