<svg xmlns="http://www.w3.org/2000/svg" width="40" height="40">
    <path fill="#D72966" fill-rule="evenodd" d="M26.335 38.989l-6.164-8.165c5.91-.051 10.684-4.879 10.684-10.825 0-.767-.08-1.514-.231-2.235l-6.615 5.039-5.376-7.12 7.349-5.599L18.422.07C18.966.024 19.519 0 20.077 0c10.995 0 19.91 8.952 19.91 19.999a19.995 19.995 0 0 1-13.652 18.99zM21.091 1.375l5.96 7.894.811 1.074-1.069.815-6.28 4.784 3.755 4.973 5.545-4.225 1.689-1.287.435 2.084c.172.824.26 1.669.26 2.512 0 5.801-4.096 10.695-9.535 11.893l4.148 5.495c7.117-2.773 11.835-9.644 11.835-17.388 0-9.943-7.785-18.093-17.554-18.624zm-10.98 18.626c0 .767.08 1.514.23 2.235l6.615-5.039 5.376 7.12-7.349 5.599 7.561 10.014c-.545.046-1.098.07-1.656.07C9.893 40 .978 31.048.978 20.001A19.996 19.996 0 0 1 14.63 1.011l6.164 8.165c-5.909.051-10.683 4.879-10.683 10.825z"/>
</svg>
