<svg height="40" width="40" xmlns="http://www.w3.org/2000/svg"><g fill-rule="evenodd"><path d="m20 0c11.046 0 20 8.954 20 20s-8.954 20-20 20-20-8.954-20-20 8.954-20 20-20z" fill="#002d64"/><path d="m23.736 17a5.16 5.16 0 0 0 1.524-3.688 5.221 5.221 0 0 0 -1.212-3.344l3.032-3.032-.676-.656-3.032 3.032a5.166 5.166 0 0 0 -3.324-1.212 5.216 5.216 0 0 0 -3.688 8.9 5.158 5.158 0 0 0 3.204 1.508v3.844a5.065 5.065 0 0 0 -3.204 1.508 5.224 5.224 0 0 0 0 7.376 5.16 5.16 0 0 0 3.688 1.524 5.186 5.186 0 0 0 3.688-1.524 5.16 5.16 0 0 0 1.524-3.688c0-1.4-.536-2.7-1.524-3.688a5.158 5.158 0 0 0 -3.204-1.508v-3.844a5.052 5.052 0 0 0 3.204-1.508m-.676 7.532a4.277 4.277 0 0 1 1.248 3.012 4.24 4.24 0 0 1 -1.248 3.012 4.183 4.183 0 0 1 -3.012 1.248 4.24 4.24 0 0 1 -3.012-1.248 4.277 4.277 0 0 1 -1.248-3.012 4.24 4.24 0 0 1 1.248-3.012 4.183 4.183 0 0 1 3.012-1.248c1.144.004 2.216.436 3.012 1.248m-3.012-6.944a4.24 4.24 0 0 1 -3.012-1.248 4.277 4.277 0 0 1 -1.248-3.012 4.249 4.249 0 0 1 1.248-3.012 4.183 4.183 0 0 1 3.012-1.248 4.24 4.24 0 0 1 3.012 1.248 4.183 4.183 0 0 1 1.248 3.012 4.24 4.24 0 0 1 -1.248 3.012c-.796.816-1.868 1.248-3.012 1.248" fill="#fff"/></g></svg>