<svg xmlns="http://www.w3.org/2000/svg" width="41" height="40">
    <path fill="#6798FF" fill-rule="evenodd" d="M38.321 11.723L30.108 20l8.213 8.277c2.654 2.675 2.654 7.032-.009 9.715A6.734 6.734 0 0 1 33.497 40a6.736 6.736 0 0 1-4.817-2.006l-8.213-8.278-8.213 8.278A6.736 6.736 0 0 1 7.437 40a6.743 6.743 0 0 1-4.822-2.014c-2.656-2.677-2.656-7.034-.002-9.709l7.215-7.271 2.764 2.787-7.214 7.271a2.95 2.95 0 0 0 .002 4.135l.006.007a2.878 2.878 0 0 0 2.053.852 2.871 2.871 0 0 0 2.05-.851l8.213-8.277-6.28-6.329-.596-.601-8.213-8.277c-2.654-2.675-2.654-7.032.009-9.715A6.734 6.734 0 0 1 7.437 0c1.825 0 3.534.713 4.817 2.006l8.213 8.278 8.213-8.278A6.736 6.736 0 0 1 33.497 0c1.821 0 3.531.713 4.822 2.014 2.656 2.677 2.656 7.034.002 9.709zM9.489 4.793a2.867 2.867 0 0 0-2.05-.851 2.878 2.878 0 0 0-2.053.852l-.006.007a2.95 2.95 0 0 0-.002 4.135l8.213 8.278 4.111-4.144-8.213-8.277zm26.065.008l-.006-.007a2.878 2.878 0 0 0-2.053-.852 2.871 2.871 0 0 0-2.05.851l-6.094 6.141-6.818 6.871L16.356 20l4.111 4.144 3.08-3.105 2.765 2.787-3.08 3.104 8.213 8.277a2.871 2.871 0 0 0 2.05.851 2.878 2.878 0 0 0 2.053-.852l.006-.007a2.95 2.95 0 0 0 .002-4.135l-8.213-8.278-.003.004-2.765-2.787.003-.003-3.085-3.109 2.765-2.787 3.085 3.11 8.213-8.278a2.95 2.95 0 0 0-.002-4.135z"/>
</svg>
