<svg height="31" width="40" xmlns="http://www.w3.org/2000/svg"><path d="m32.841 13.018c-.289-1.246-.861-2.39-1.494-3.485-.452 0-1.343.006-1.789.006l.001-4.157h5.361c1.47 2.336 2.482 5.031 4.603 6.9.043.138.12.419.163.557-2.265.294-4.56.066-6.845.179zm-3.806 8.87c.783 0 1.572 0 2.361.006a26.32 26.32 0 0 0 1.5-3.486c2.368.06 4.748-.066 7.104.246-2.332 1.988-3.549 4.815-5.067 7.39-6.025.012-12.05-.018-18.081.018-.283 2.174 1.072 3.671 2.645 4.923h-10.177c.886-1.156 2.669-1.898 2.482-3.593.06-5.774 0-11.554.018-17.333h5.164v3.558h6.851v-4.078h-14.304l-3.555 6.174c1.181 2.06 2.368 4.119 3.561 6.175h1.76v4.156h-5.38c-1.965-3.45-4.001-6.857-5.917-10.331v-.006c1.922-3.467 3.964-6.875 5.917-10.325 2.006 0 4.012 0 6.019-.018.012-1.767-.476-3.456-1.483-4.923h7.917c-.952 1.491-1.536 3.138-1.5 4.923 2.356.024 4.718.024 7.074 0 .03-1.773-.452-3.468-1.483-4.923h7.971c-.548 1.138-1.482 2.192-1.391 3.528-.037 5.971.012 11.948-.006 17.919zm-5.2-4.079h-6.85v4.079h6.85zm4.947 8.75c-.037 2.001 1.38 3.24 2.771 4.426h-10.249c1.314-1.233 2.85-2.401 2.718-4.42 1.584.006 3.175 0 4.76-.006z" fill="#56428e" fill-rule="evenodd"/></svg>