<svg xmlns="http://www.w3.org/2000/svg" width="40" height="40">
    <path fill="#0CE" fill-rule="evenodd" d="M32.887 22.424h-.924a1.66 1.66 0 0 1-1.66-1.66v-.924c0-.917.743-1.66 1.66-1.66h.924c.917 0 1.66.743 1.66 1.66v.924a1.66 1.66 0 0 1-1.66 1.66zm.018-15.329a.607.607 0 1 1 .86-.857.607.607 0 0 1-.86.857zm-12.14 27.45h-.923a1.66 1.66 0 0 1-1.661-1.659v-.925a1.66 1.66 0 0 1 1.661-1.659h.923c.916 0 1.66.743 1.66 1.659v.925a1.66 1.66 0 0 1-1.66 1.659zm0-24.241v-.001h-.923a1.66 1.66 0 0 1-1.661-1.66V7.72c0-.917.744-1.66 1.661-1.66h.923c.916 0 1.66.743 1.66 1.66v.924a1.66 1.66 0 0 1-1.66 1.66zM8.644 22.424H7.72a1.66 1.66 0 0 1-1.66-1.66v-.924c0-.917.743-1.66 1.66-1.66h.924c.917 0 1.66.743 1.66 1.66v.924a1.66 1.66 0 0 1-1.66 1.66zM5.632 7.096v-.001a.607.607 0 0 1 .857-.857.605.605 0 1 1-.857.858zm.857 26.415c.237.237.237.62.001.857h-.001a.607.607 0 0 1-.857-.857.605.605 0 0 1 .857 0zm27.274 0a.607.607 0 1 1-.86.857.607.607 0 0 1 .86-.857z"/>
    <path fill="#005FFF" fill-rule="evenodd" d="M35.615 15.06a1.212 1.212 0 1 1-.928-2.238 1.212 1.212 0 0 1 .928 2.238zm-6.971-.515H26.06v-2.583c0-.917.744-1.66 1.661-1.66h.923a1.66 1.66 0 0 1 1.661 1.66v.924a1.661 1.661 0 0 1-1.661 1.659zM27.18 35.294a1.212 1.212 0 1 1-2.241.925 1.212 1.212 0 0 1 2.241-.925zM13.798 5.968a1.212 1.212 0 1 1-.928-2.239 1.212 1.212 0 0 1 .928 2.239zm.142 5.994v2.583h-2.584a1.66 1.66 0 0 1-1.66-1.659v-.924a1.66 1.66 0 0 1 1.658-1.66h.926c.917 0 1.66.743 1.66 1.66zM5.312 27.787a1.213 1.213 0 1 1-.926-2.242 1.213 1.213 0 0 1 .926 2.242zm6.044-1.727h2.584v2.583a1.66 1.66 0 0 1-1.66 1.66h-.924a1.66 1.66 0 0 1-1.66-1.66v-.923c0-.917.743-1.66 1.66-1.66zm14.704 2.583V26.06h2.583a1.66 1.66 0 0 1 1.661 1.66v.924a1.66 1.66 0 0 1-1.661 1.66l.001-.001h-.923a1.66 1.66 0 0 1-1.661-1.66z"/>
    <path fill="#003EC5" fill-rule="evenodd" d="M39.394 20.606a.606.606 0 1 1 0-1.212.606.606 0 0 1 0 1.212zm-4.706 7.181a1.213 1.213 0 0 1 .928-2.24 1.212 1.212 0 0 1-.928 2.24zM27.181 5.312a1.212 1.212 0 1 1-2.24-.928 1.212 1.212 0 0 1 2.24.928zM26.06 16.869c0 .613-.497 1.11-1.111 1.111h-.904A2.021 2.021 0 0 0 22.024 20h-.004c0 1.116.905 2.021 2.02 2.021h.918c.608 0 1.102.493 1.102 1.102v2.938h-2.937a1.104 1.104 0 0 1-1.103-1.103v-.914a2.02 2.02 0 0 0-2.02-2.02v-.004a2.02 2.02 0 0 0-2.02 2.02v.926c0 .604-.49 1.094-1.094 1.094H13.94V13.94h2.968c.592 0 1.072.479 1.072 1.071v.949a2.02 2.02 0 0 0 4.04 0v-.909c0-.614.498-1.111 1.112-1.111h2.928v2.929zM20 1.212A.606.606 0 1 1 20 0a.606.606 0 0 1 0 1.212zm-5.546 35.009l-.001.001a1.212 1.212 0 1 1 .001-.001zM4.385 15.061v-.001a1.211 1.211 0 1 1 .926-2.24 1.211 1.211 0 0 1-.926 2.241zM.606 20.606A.606.606 0 0 1 0 20.018v-.036a.607.607 0 0 1 .588-.588h.036c.321.01.579.268.588.588v.035a.605.605 0 0 1-.606.589zM20 38.788a.606.606 0 1 1 0 1.211.606.606 0 0 1 0-1.211z"/>
</svg>
