<svg height="40" width="40" xmlns="http://www.w3.org/2000/svg"><g fill-rule="evenodd"><path d="m20.011 0c-4.474 1.85-8.97 3.744-13.444 5.616l-1.013 1.014 6.082 5 8.375-3.458z" fill="#fbbb31"/><path d="m34.468 6.63-1.013-1.036c-4.496-1.85-8.97-3.722-13.444-5.594v8.15l8.375 3.458z" fill="#faaa00"/><path d="m6.567 34.384-1.013-1.014-5.554-13.37 5.554-13.37 6.082 5.022-3.46 8.37 3.46 8.37 8.375 3.459v8.15c-4.496-1.851-8.97-3.745-13.444-5.617zm5.069-14.384 2.447-5.903 5.928-2.467v16.74l-5.928-2.445z" fill="#598282"/><path d="m34.446 33.37-1.014 1.014c-4.473 1.872-8.947 3.766-13.421 5.617h-.022v-8.172l8.375-3.459 3.46-8.37-3.46-8.37 6.082-5 5.554 13.37zm-8.507-7.445-5.928 2.445v-16.74l5.928 2.467 2.447 5.903z" fill="#326464"/></g></svg>