<svg height="40" width="22" xmlns="http://www.w3.org/2000/svg"><g fill-rule="evenodd"><path d="m9.077.966 11.548 9.234-11.548 6.277z" fill="#edf6f1"/><path d="m9.077 16.92 11.548-6.276-.332 18.871z" fill="#bddbd5"/><path d="m9.077 17.222 11.216 12.594-10.895 9.602z" fill="#25968f"/><path d="m.901 10.2 7.801-9.234v15.511l.321 22.196-6.306-9.602z" fill="#6bb8a0"/><path d="m21.138 11.514a.814.814 0 0 1 -.319-.068l-.305 17.091c.011 0 .02-.007.032-.007.483 0 .86.41.86.921s-.382.92-.86.92a.821.821 0 0 1 -.566-.235l-9.909 8.717c.019.074.044.145.044.225 0 .51-.383.92-.861.92s-.861-.404-.861-.92c0-.197.07-.368.166-.517l-5.403-8.374a.826.826 0 0 1 -.646.327c-.478 0-.861-.404-.861-.92 0-.511.383-.921.861-.921.037 0 .069.018.105.023l-1.705-17.187c-.018.001-.033.011-.051.011-.478 0-.86-.404-.86-.921 0-.516.382-.926.86-.926.136 0 .26.04.374.099l7.081-8.374a.953.953 0 0 1 -.139-.476c0-.511.383-.92.861-.92s.86.409.86.92a.936.936 0 0 1 -.159.506l10.743 8.591a.827.827 0 0 1 .658-.346c.484 0 .861.41.861.92 0 .511-.382.921-.861.921zm-20.279-1.574c-.343 0-.613.291-.613.659s.27.659.613.659c.009 0 .017-.005.025-.005l-.094-.956.266-.315a.56.56 0 0 0 -.197-.042zm18.843 19.418.002-.008-10.179-11.434c-.045.034-.086.074-.137.098l.292 20.158zm-10.946-12.654-.002-.103a.665.665 0 0 0 -.331.576c0 .265.142.486.348.591l-.01-.711-.214-.241zm.803.309.075.084a.62.62 0 0 0 -.021-.114zm-.305 22.724c.343 0 .613-.291.613-.659 0-.014-.006-.026-.007-.039l-.633.557-.52-.806a.684.684 0 0 0 -.066.288c0 .368.27.659.613.659zm-6.744-10.796c-.332 0-.613.302-.613.659 0 .368.27.659.613.659a.591.591 0 0 0 .501-.297l-.32-.497-.049-.496c-.044-.011-.085-.028-.132-.028zm-.835-18.582c.02.079.045.155.045.24a.942.942 0 0 1 -.179.538l1.751 18.084.013.025 5.759 8.779-.289-19.982a.897.897 0 0 1 -.6-.866c0-.403.242-.734.578-.859v-14.336zm7.361-10.096c-.343 0-.613.291-.613.659 0 .1.023.192.059.277l.391-.462.287.229h.206v.166l.177.141a.668.668 0 0 0 .106-.351c0-.368-.27-.659-.613-.659zm.33 1.705v14.359c.015.007.027.019.041.026l10.734-5.774zm.472 14.895a.977.977 0 0 1 .058.314c0 .063-.022.118-.033.177l10.039 11.257.299-17.319zm10.655 12.822-.322.283c.104.088.23.148.375.148.343 0 .613-.291.613-.659s-.27-.659-.613-.659c-.013 0-.024.007-.037.008zm.645-19.745a.588.588 0 0 0 -.462.235l.16.128v.172l-.005.314.062.131-.065.035-.004.199a.567.567 0 0 0 .314.104c.343 0 .613-.291.613-.659s-.27-.659-.613-.659z" fill="#fff"/><path d="m21.144 11.395c-.405 0-.736-.356-.736-.789 0-.434.331-.79.736-.79s.737.356.737.79c0 .433-.332.789-.737.789zm.144 18.068c0 .434-.331.79-.736.79s-.737-.356-.737-.79c0-.433.332-.79.737-.79s.736.357.736.79zm-12.028 10.417c-.405 0-.737-.357-.737-.79 0-.434.332-.79.737-.79s.737.356.737.79c0 .433-.332.79-.737.79zm-.218-21.906c-.405 0-.737-.357-.737-.79 0-.434.332-.79.737-.79s.737.356.737.79c0 .433-.332.79-.737.79zm0-16.25c-.405 0-.737-.362-.737-.796 0-.433.332-.789.737-.789s.737.362.737.795c0 .434-.332.79-.737.79zm-6.526 28.672c-.405 0-.737-.356-.737-.79 0-.433.332-.79.737-.79s.737.357.737.79c0 .434-.332.79-.737.79zm-1.651-19.001c-.405 0-.737-.356-.737-.789 0-.434.332-.79.737-.79s.737.356.737.79c0 .433-.332.789-.737.789z"/></g></svg>