<svg height="40" width="36" xmlns="http://www.w3.org/2000/svg"><g fill-rule="evenodd"><path d="m34.915 29.566-16.44 9.305-16.4-9.365-.04-18.821 16.4-9.526 16.4 9.416z" fill="#fff"/><path d="m35.699 30.325-16.963 9.606a.488.488 0 0 1 -.261.07.488.488 0 0 1 -.261-.07l-16.932-9.666a.525.525 0 0 1 -.262-.45l-.04-19.43c0-.19.101-.36.261-.46l16.933-9.835c.16-.09.361-.09.532 0l16.922 9.725c.161.09.262.27.272.45l.07 19.6c0 .19-.1.37-.271.46zm-.864-19.75-16.4-9.416-16.4 9.526.04 18.821 16.4 9.365 16.44-9.305zm-10.429 14.311.514-.288-.009-.935c-.005-.596.211-1.279.608-1.922.396-.64.927-1.169 1.495-1.486l.554-.311c.618-.346 1.222-.401 1.657-.15.393.226.612.672.618 1.256l.007.788.514-.288c.571-.32 1.044-.103 1.05.501l.039 4.13c.006.595-.45 1.341-1.03 1.666l-5.957 3.336c-.571.32-1.045.103-1.05-.501l-.039-4.13c-.006-.604.45-1.341 1.029-1.666zm.782-.438 4.394-2.46-.008-.936c-.005-.485-.177-.85-.484-1.027a.958.958 0 0 0 -.483-.119c-.274 0-.586.091-.907.271l-.554.311c-1.095.613-1.976 2.036-1.966 3.172zm-7.956 4.354-13.657-7.782a.385.385 0 0 1 -.172-.304v-.456c0-.096.076-.153.172-.096l13.657 7.782c.096.057.172.19.172.304v.457c0 .114-.076.152-.172.095zm0-1.351-13.657-7.781a.387.387 0 0 1 -.172-.305v-.456c0-.096.076-.134.172-.096l13.657 7.782c.096.057.172.19.172.304v.457c0 .114-.076.152-.172.095zm-3.921-3.634-9.736-5.555a.386.386 0 0 1 -.172-.305v-.456c0-.114.076-.153.172-.095l9.736 5.555c.095.057.172.19.172.304v.457c0 .114-.077.152-.172.095zm-9.736-2.302 5.91 3.368c.096.057.172.19.172.304v.457c0 .114-.076.152-.172.095l-5.91-3.368a.385.385 0 0 1 -.172-.304v-.457c0-.114.076-.152.172-.095zm0 1.332 11.591 6.602c.096.057.172.19.172.304v.457c0 .114-.076.152-.172.095l-11.591-6.602a.385.385 0 0 1 -.172-.304v-.457c0-.095.076-.133.172-.095zm0 1.351 2.123 1.198a.387.387 0 0 1 .172.305v.456c0 .115-.076.153-.172.096l-2.123-1.199a.386.386 0 0 1 -.172-.305v-.456c0-.095.076-.152.172-.095z" fill="#3fa0f1"/><path d="m27.11 12.315-1.934 1.212-.441-.267 1.916-1.2c.072-.046.126-.08.146-.112.02-.033.058-.077.061-.119.022-.054.009-.106-.054-.167a1.161 1.161 0 0 0 -.242-.191c-.261-.159-.477-.245-.613-.26-.136-.016-.311.034-.474.136l-1.916 1.2-.441-.267 2.657-1.665.441.267-.326.204c.303-.129.69-.05 1.164.238.31.188.467.372.455.52-.012.149-.128.302-.399.471zm-2.108-2.726.524-.328.441.267-.524.329zm-3.109 1.948 2.657-1.664.441.267-2.657 1.665zm1.077-1.641-1.861 1.166-.425-.257.254-.159c-.232.105-.585.024-1.026-.243-.327-.198-.502-.37-.524-.518-.022-.147.147-.333.491-.549.289-.181.571-.277.794-.276s.506.106.849.314l.718.436.416-.261c.145-.091.204-.188.159-.26-.028-.084-.157-.184-.386-.323a6.644 6.644 0 0 0 -.889-.45l.362-.226c.363.175.675.342.936.501.409.247.616.439.622.577.005.137-.146.312-.49.528zm-1.723-.31c-.212-.128-.363-.175-.482-.181-.103.005-.281.075-.48.2-.18.113-.292.224-.315.299-.024.075.071.177.234.276l.294.178c.065.039.149.068.232.096a.788.788 0 0 0 .254.042c.085.007.154.004.226-.041l.723-.453zm-.955-2.361c.31.188.466.372.454.52-.012.149-.127.302-.398.472l-1.934 1.212.033.02-.458-.278 1.916-1.2c.072-.046.126-.08.146-.112.02-.033.058-.077.061-.119.022-.054.009-.106-.054-.167a1.161 1.161 0 0 0 -.242-.191c-.278-.168-.494-.254-.629-.27a.83.83 0 0 0 -.474.136l-1.916 1.201-.441-.268 3.849-2.412.441.267-1.518.952c.302-.129.69-.05 1.164.237zm-2.153-1.973c-.131-.08-.247-.128-.363-.176a1.324 1.324 0 0 0 -.368-.111.891.891 0 0 0 -.411-.005c-.14.027-.281.076-.425.166l-1.663 1.042c-.416.261-.304.573.317.95.261.158.591.314.992.445l-.396.228a5.662 5.662 0 0 1 -1.007-.477c-.898-.544-1.03-1.025-.398-1.422l1.699-1.064c.687-.431 1.488-.369 2.386.176.294.178.552.379.774.602l-.398.25a3.27 3.27 0 0 0 -.739-.604zm-6.517 5.05-.362.227-2.058-1.247 3.56-2.232.474.287-3.199 2.005zm-5.14 6.813.742.008-.742-.839v-.553l1.222 1.428v.46l-1.222.039zm1.084 12.752-1.335.039v-.598l.812.008-.812-.912v-.603l1.335 1.562zm-1.512-13.115-1.082-.617c-.068-.039-.123-.149-.123-.248v-.247c0-.099.058-.145.123-.108l1.082.617c.068.039.123.149.123.248v.247c0 .099-.055.147-.123.108zm-2.65 10.237 1.335-.039v.603l-.811-.013.811.917v.598l-1.335-1.561zm0-12.281 1.222-.035v.553l-.742-.008.742.839v.543l-1.222-1.433zm11.444-5.28-2.657 1.665-.441-.267 2.657-1.665zm.011-.55.524-.329.441.268-.524.328zm1.214 1.293-.325.204c.302-.129.69-.05 1.163.237.311.188.467.372.455.521-.012.148-.128.301-.399.471l-1.933 1.212-.442-.267 1.916-1.201c.072-.045.127-.079.146-.112.02-.032.058-.076.062-.119.021-.053.008-.106-.055-.167a1.196 1.196 0 0 0 -.242-.191c-.261-.158-.477-.244-.613-.26-.136-.015-.311.034-.474.136l-1.916 1.201-.441-.267 2.657-1.665zm4.019.965-2.314 1.45 2.202-.091.552.379-2.256.125-.319 1.589-.555-.337.293-1.27-.585.024-.868.544-.441-.268 3.85-2.412z"/><path d="m28.177 23.995c-.355-.058-.972.587-1.379 1.439s-.45 1.589-.095 1.646a.476.476 0 0 0 .302-.078l.005.462c.001.124.096.169.215.103l.469-.263a.43.43 0 0 0 .211-.341l-.01-.971c.066-.112.128-.229.187-.351.407-.852.449-1.589.095-1.646z" fill="#2c6cea"/></g></svg>