<svg height="40" width="40" xmlns="http://www.w3.org/2000/svg"><g fill-rule="evenodd"><path d="m40 20c0-11.046-8.954-20-20-20s-20 8.954-20 20 8.954 20 20 20 20-8.954 20-20z" fill="#307dfb"/><path d="m29.93 18.419-9.493 7.514c-.015.011-.032.016-.047.026-.028.019-.053.041-.083.056-.017.008-.035.011-.053.018a.714.714 0 0 1 -.254.052.708.708 0 0 1 -.255-.052c-.017-.007-.035-.01-.052-.018-.031-.015-.055-.037-.083-.056-.015-.01-.033-.015-.047-.026l-9.493-7.514a.706.706 0 0 1 -.144-.951l9.493-13.854c.002-.004.006-.006.008-.009.025-.035.058-.064.09-.094.022-.021.041-.047.066-.065.026-.02.058-.031.088-.047.036-.02.071-.042.11-.054.004-.002.007-.005.011-.006.028-.009.057-.007.086-.012.041-.007.081-.017.123-.017.041 0 .08.01.12.017.029.005.058.003.087.012l.011.005c.041.014.077.037.115.057.028.016.058.026.083.045.026.019.046.045.069.068.031.03.063.057.087.091.002.004.006.005.008.009l9.493 13.854a.706.706 0 0 1 -.144.951zm-10.634-12.133-7.836 11.436 7.836 6.202zm1.408 0v17.638l7.836-6.202zm-7.037 27.897h2.406v1.067h-3.617v-5.69h1.211zm7.825-2.789c0 1.006-.631 1.544-1.245 1.689l1.279 2.167h-1.39l-1.117-2.022h-.888v2.022h-1.211v-5.69h2.661c1.186 0 1.911.776 1.911 1.834zm-3.361-.768v1.535h1.271c.486 0 .854-.29.854-.767 0-.478-.368-.768-.854-.768zm7.032-1.16c1.255 0 1.98.682 2.381 1.39l-1.041.512c-.239-.46-.75-.827-1.34-.827-1.032 0-1.782.793-1.782 1.868s.75 1.868 1.782 1.868c.59 0 1.101-.358 1.34-.827l1.041.503c-.41.708-1.126 1.399-2.381 1.399-1.706 0-3.027-1.194-3.027-2.943s1.321-2.943 3.027-2.943z"/></g></svg>