<svg xmlns="http://www.w3.org/2000/svg" width="40" height="40">
    <path fill="#3D3E3C" fill-rule="evenodd" d="M40 20C40 8.954 31.046 0 20 0S0 8.954 0 20s8.954 20 20 20 20-8.954 20-20z"/>
    <path fill="#F9FAFB" fill-rule="evenodd" d="M36.5 20c0-9.113-7.387-16.5-16.5-16.5S3.5 10.887 3.5 20 10.887 36.5 20 36.5 36.5 29.113 36.5 20z"/>
    <path fill="#B6B7BA" fill-rule="evenodd" d="M7.177 23.364l24.76-9.1c.43.89.77 1.84.98 2.83l-24.65 9.07c-.46-.88-.83-1.82-1.09-2.8zm-.43-3.36c0-1.11.14-2.18.4-3.21l20.57-7.56c.92.66 1.74 1.43 2.47 2.29l-23.44 8.61v-.13zm13.25-13.25c1.31 0 2.58.19 3.78.55l-14.87 5.46a13.22 13.22 0 0 1 11.09-6.01zm12.71 17l-19.96 7.34a13.62 13.62 0 0 1-2.61-2.24l23.1-8.49c-.03 1.17-.21 2.31-.53 3.39zm-12.71 9.5c-1.03 0-2.03-.12-2.99-.34l13.63-5.01a13.242 13.242 0 0 1-10.64 5.35z"/>
    <path fill="#FFF" fill-rule="evenodd" d="M11.701 28.478l1.457-5.486-2.187.809.961-3.734 2.222-.82 2.62-9.861h6.904l-1.9 7.044 2.479-.916-.975 3.735-2.515.93-.988 3.665h9.268l-1.207 4.634H11.701z"/>
    <path fill="#3D3E3C" fill-rule="evenodd" d="M23.025 9.886l-1.982 7.349 2.488-.919-.667 2.554-2.512.929-1.226 4.545H28.4l-.947 3.634H12.351l1.538-5.789-2.195.812.657-2.555 2.219-.82 2.588-9.74h5.867m1.305-1h-7.941l-.197.743-2.455 9.239-1.732.64-.492.181-.13.508-.658 2.554-.476 1.85 1.792-.662.387-.144-1.043 3.926-.334 1.257h17.175l.195-.748.946-3.634.326-1.252h-9.261l.751-2.786 2.028-.75.489-.181.132-.504.667-2.555.484-1.855-1.798.665-.672.248 1.477-5.48.34-1.26z"/>
</svg>
