<?xml version="1.0" encoding="UTF-8"?>
<svg width="80px" height="80px" viewBox="0 0 80 80" version="1.1" xmlns="http://www.w3.org/2000/svg" xmlns:xlink="http://www.w3.org/1999/xlink">
    <!-- Generator: Sketch 46.2 (44496) - http://www.bohemiancoding.com/sketch -->
    <title>App Icon Blue</title>
    <desc>Created with Sketch.</desc>
    <defs>
        <rect id="path-1" x="0" y="0" width="80" height="80" rx="20"></rect>
        <linearGradient x1="0%" y1="0%" x2="100%" y2="96.8403519%" id="linearGradient-3">
            <stop stop-color="#0B2645" offset="0%"></stop>
            <stop stop-color="#114F7E" offset="100%"></stop>
        </linearGradient>
    </defs>
    <g id="Page-1" stroke="none" stroke-width="1" fill="none" fill-rule="evenodd">
        <g id="Hifi---Marketing-Site---Home" transform="translate(-600.000000, -6129.000000)">
            <g id="Footer" transform="translate(0.000000, 6049.000000)">
                <g id="App-Icon-Blue" transform="translate(600.000000, 80.000000)">
                    <mask id="mask-2" fill="white">
                        <use xlink:href="#path-1"></use>
                    </mask>
                    <use id="Rectangle-2" fill="#000000" xlink:href="#path-1"></use>
                    <path d="M75.7393258,79.8382022 L4.0988764,79.8382022 C1.83370787,79.8382022 0,77.9865169 0,75.7393258 L0,4.0988764 C0,1.83370787 1.85168539,0 4.0988764,0 L75.7393258,0 C78.0044944,0 79.8382022,1.85168539 79.8382022,4.0988764 L79.8382022,75.7393258 C79.8382022,77.9865169 77.9865169,79.8382022 75.7393258,79.8382022 Z" id="Shape" fill="url(#linearGradient-3)" fill-rule="nonzero" mask="url(#mask-2)"></path>
                    <path d="M68.3505618,56.5213483 L68.3505618,24.4134831 L40.4494382,8.35955056 L12.7280899,24.4134831 L12.7280899,56.5213483 L40.4494382,72.5752809 L68.3505618,56.5213483 Z M15.047191,55.047191 L15.047191,25.7438202 L40.4494382,11.1101124 L65.7977528,25.7438202 L65.7977528,55.047191 L40.4494382,69.6988764 L15.047191,55.047191 Z" id="Shape" fill="#F2EBEE" fill-rule="nonzero" mask="url(#mask-2)"></path>
                    <polygon id="Shape" fill="#F2EBEE" fill-rule="nonzero" mask="url(#mask-2)" points="51.3438202 22.2741573 29.447191 22.2741573 26.9303371 33.4202247 53.9865169 33.4382022"></polygon>
                    <polygon id="Shape" fill="#F2EBEE" fill-rule="nonzero" mask="url(#mask-2)" points="33.3303371 41.3662921 26.8404494 37.2314607 19.505618 42.6966292 29.5191011 60.0988764 33.5101124 60.0988764 38.2382022 55.6764045 38.2382022 53.4831461 33.3303371 48.7730337"></polygon>
                    <polygon id="Shape" fill="#F2EBEE" fill-rule="nonzero" mask="url(#mask-2)" points="53.9865169 37.1775281 47.5685393 41.3662921 47.5685393 48.7730337 42.6786517 53.4651685 42.6966292 55.694382 47.4247191 60.0449438 51.3617978 60.0449438 61.3033708 42.6966292"></polygon>
                    <polygon id="Shape" fill="#F2EBEE" fill-rule="nonzero" mask="url(#mask-2)" points="33.3483146 35.1280899 35.7393258 41.3662921 35.0022472 48.3235955 45.8966292 48.305618 45.2134831 41.3662921 47.5505618 35.1280899"></polygon>
                </g>
            </g>
        </g>
    </g>
</svg>