<svg height="39" width="40" xmlns="http://www.w3.org/2000/svg"><path d="m38.321 18.408a1.674 1.674 0 0 1 -1.679-1.67c0-.922.751-1.67 1.679-1.67.927 0 1.679.748 1.679 1.67s-.752 1.67-1.679 1.67zm-3.474-6.439a1.946 1.946 0 0 1 -1.951-1.94c0-1.072.874-1.94 1.951-1.94 1.078 0 1.951.868 1.951 1.94 0 1.071-.873 1.94-1.951 1.94zm-.629 1.539c.921 0 1.668.743 1.668 1.659 0 .917-.747 1.66-1.668 1.66a1.664 1.664 0 0 1 -1.669-1.66c0-.916.747-1.659 1.669-1.659zm-.094 5.792c0 .782-.637 1.415-1.422 1.415a1.419 1.419 0 0 1 -1.423-1.415 1.42 1.42 0 0 1 1.423-1.415c.785 0 1.422.634 1.422 1.415zm-4.404-8.055a1.95 1.95 0 0 1 -1.956-1.945 1.95 1.95 0 0 1 1.956-1.944c1.08 0 1.955.87 1.955 1.944a1.95 1.95 0 0 1 -1.955 1.945zm-.631-5.673a2.304 2.304 0 0 1 -2.31-2.297 2.303 2.303 0 0 1 2.31-2.297 2.303 2.303 0 0 1 2.309 2.297 2.304 2.304 0 0 1 -2.309 2.297zm-.086 13.03a1.43 1.43 0 0 1 -1.433 1.426 1.43 1.43 0 0 1 -1.434-1.426 1.43 1.43 0 0 1 1.434-1.425 1.43 1.43 0 0 1 1.433 1.425zm-2.252 3.127c0 .673-.549 1.219-1.226 1.219a1.223 1.223 0 0 1 -1.226-1.219c0-.673.549-1.219 1.226-1.219s1.226.546 1.226 1.219zm-2.095-10.908a.762.762 0 0 1 -.764-.76c0-.42.342-.761.764-.761s.765.341.765.761-.343.76-.765.76zm-1.729-1.371a.927.927 0 0 1 -.929-.924c0-.51.416-.924.929-.924.514 0 .93.414.93.924s-.416.924-.93.924zm-1.681 3.13a1.045 1.045 0 0 1 -1.048-1.042c0-.575.469-1.041 1.048-1.041.578 0 1.047.466 1.047 1.041 0 .576-.469 1.042-1.047 1.042zm-.685-4.328a1.036 1.036 0 0 1 -1.039-1.033c0-.571.465-1.033 1.039-1.033s1.039.462 1.039 1.033-.465 1.033-1.039 1.033zm-2.379 3.633a1.22 1.22 0 0 1 -1.224-1.218 1.22 1.22 0 0 1 1.224-1.217 1.22 1.22 0 0 1 1.224 1.217 1.22 1.22 0 0 1 -1.224 1.218zm-.699-4.313a1.23 1.23 0 0 1 -1.234-1.228 1.23 1.23 0 0 1 1.234-1.227 1.23 1.23 0 0 1 1.234 1.227 1.23 1.23 0 0 1 -1.234 1.228zm-3.046 4.335c-.79 0-1.43-.637-1.43-1.423 0-.785.64-1.422 1.43-1.422s1.431.637 1.431 1.422c0 .786-.641 1.423-1.431 1.423zm-.71-4.335c-.79 0-1.431-.638-1.431-1.424s.641-1.424 1.431-1.424c.791 0 1.432.638 1.432 1.424s-.641 1.424-1.432 1.424zm-.017 8.44c0 .922-.752 1.669-1.679 1.669a1.674 1.674 0 0 1 -1.679-1.669c0-.922.752-1.67 1.679-1.67s1.679.748 1.679 1.67zm-3.634-3.103a1.669 1.669 0 0 1 -1.673-1.664c0-.919.749-1.664 1.673-1.664s1.673.745 1.673 1.664-.749 1.664-1.673 1.664zm-.69-4.383a1.618 1.618 0 0 1 -1.622-1.614c0-.891.726-1.613 1.622-1.613s1.623.722 1.623 1.613-.727 1.614-1.623 1.614zm-4.085 6.675a1.947 1.947 0 0 1 -1.952-1.941c0-1.072.874-1.941 1.952-1.941s1.952.869 1.952 1.941a1.947 1.947 0 0 1 -1.952 1.941zm-.72 6.42a2.284 2.284 0 0 1 -2.29 2.278 2.284 2.284 0 0 1 -2.291-2.278 2.284 2.284 0 0 1 2.291-2.278c1.265 0 2.29 1.02 2.29 2.278zm2.662-5.534c1.083 0 1.962.874 1.962 1.951a1.957 1.957 0 0 1 -1.962 1.952 1.957 1.957 0 0 1 -1.962-1.952c0-1.077.878-1.951 1.962-1.951zm2.725 9.843c.584 0 1.057.47 1.057 1.051 0 .58-.473 1.051-1.057 1.051a1.054 1.054 0 0 1 -1.057-1.051c0-.581.473-1.051 1.057-1.051zm.869-1.647a.904.904 0 0 1 -.907.901.904.904 0 0 1 -.907-.901c0-.498.406-.902.907-.902s.907.404.907.902zm-.439-3.002a.77.77 0 0 1 .771.767.77.77 0 0 1 -.771.768.77.77 0 0 1 -.772-.768.77.77 0 0 1 .772-.767zm.36 7.562c.675 0 1.221.543 1.221 1.214s-.546 1.214-1.221 1.214a1.217 1.217 0 0 1 -1.221-1.214c0-.671.547-1.214 1.221-1.214zm1.686 3.132c.784 0 1.419.631 1.419 1.411 0 .779-.635 1.411-1.419 1.411a1.415 1.415 0 0 1 -1.418-1.411c0-.78.635-1.411 1.418-1.411zm2.863 3.118a1.66 1.66 0 0 1 1.664 1.655 1.66 1.66 0 0 1 -1.664 1.656 1.66 1.66 0 0 1 -1.665-1.656 1.66 1.66 0 0 1 1.665-1.655zm3.418-2.766c.922 0 1.67.744 1.67 1.661s-.748 1.661-1.67 1.661-1.67-.744-1.67-1.661.748-1.661 1.67-1.661zm1.408-18.11c.679 0 1.23.548 1.23 1.224s-.551 1.224-1.23 1.224c-.68 0-1.231-.548-1.231-1.224s.551-1.224 1.231-1.224zm.363 12.344c0 .782-.637 1.415-1.423 1.415a1.419 1.419 0 0 1 -1.423-1.415 1.42 1.42 0 0 1 1.423-1.415 1.42 1.42 0 0 1 1.423 1.415zm-1.924-3.332c0 .667-.544 1.208-1.216 1.208a1.212 1.212 0 0 1 -1.215-1.208c0-.668.544-1.209 1.215-1.209.672 0 1.216.541 1.216 1.209zm-2.196-9.403c.789 0 1.429.637 1.429 1.422s-.64 1.421-1.429 1.421c-.79 0-1.43-.636-1.43-1.421s.64-1.422 1.43-1.422zm.205 5.266c.59 0 1.068.476 1.068 1.062 0 .587-.478 1.063-1.068 1.063s-1.068-.476-1.068-1.063c0-.586.478-1.062 1.068-1.062zm.714 11.527c0 .78-.636 1.413-1.421 1.413a1.418 1.418 0 0 1 -1.422-1.413c0-.781.637-1.414 1.422-1.414s1.421.633 1.421 1.414zm-1.893-3.326c0 .677-.551 1.225-1.231 1.225s-1.232-.548-1.232-1.225c0-.676.552-1.224 1.232-1.224s1.231.548 1.231 1.224zm-2.052-4.857a.915.915 0 0 1 -.917-.912c0-.503.411-.912.917-.912s.917.409.917.912a.915.915 0 0 1 -.917.912zm.043 2.844a1.056 1.056 0 0 1 -1.059-1.053c0-.582.474-1.053 1.059-1.053s1.059.471 1.059 1.053-.474 1.053-1.059 1.053zm8.513 2.983a1.67 1.67 0 0 1 1.674 1.665c0 .92-.749 1.665-1.674 1.665a1.67 1.67 0 0 1 -1.674-1.665c0-.919.75-1.665 1.674-1.665zm.968 6.881c1.068 0 1.933.861 1.933 1.923a1.928 1.928 0 0 1 -1.933 1.922 1.928 1.928 0 0 1 -1.933-1.922c0-1.062.866-1.923 1.933-1.923zm.359-10.142a1.063 1.063 0 0 1 -1.066-1.06c0-.586.477-1.06 1.066-1.06s1.066.474 1.066 1.06c0 .585-.477 1.06-1.066 1.06zm1.036-8.687c0 .569-.464 1.031-1.036 1.031a1.034 1.034 0 0 1 -1.037-1.031c0-.569.464-1.031 1.037-1.031.572 0 1.036.462 1.036 1.031zm-.639-4.373c.5 0 .904.403.904.9a.901.901 0 0 1 -.904.899.902.902 0 0 1 -.904-.899c0-.497.405-.9.904-.9zm1.497 14.127c0-.504.411-.912.917-.912s.917.408.917.912a.915.915 0 0 1 -.917.912.915.915 0 0 1 -.917-.912zm-.987 7.014c0-1.053.859-1.907 1.917-1.907 1.059 0 1.917.854 1.917 1.907a1.912 1.912 0 0 1 -1.917 1.906 1.912 1.912 0 0 1 -1.917-1.906zm3.045-4.777a.77.77 0 0 1 .772-.768.77.77 0 0 1 .773.768.77.77 0 0 1 -.773.768.77.77 0 0 1 -.772-.768zm.115-3.666c0-.587.479-1.063 1.069-1.063s1.068.476 1.068 1.063-.478 1.062-1.068 1.062-1.069-.475-1.069-1.062zm2.857 2.113c.469 0 .849.378.849.845 0 .466-.38.845-.849.845a.848.848 0 0 1 -.85-.845c0-.467.38-.845.85-.845zm1.492 6.465a2.292 2.292 0 0 1 2.298 2.285 2.292 2.292 0 0 1 -2.298 2.285 2.292 2.292 0 0 1 -2.298-2.285 2.292 2.292 0 0 1 2.298-2.285zm1.91-7.008c0 .592-.483 1.072-1.078 1.072s-1.078-.48-1.078-1.072.483-1.072 1.078-1.072 1.078.48 1.078 1.072zm-4.499-10.044a1.704 1.704 0 0 1 -1.709-1.7c0-.939.765-1.7 1.709-1.7s1.71.761 1.71 1.7-.766 1.7-1.71 1.7zm2.831 6.27c0 .68-.554 1.231-1.237 1.231a1.234 1.234 0 0 1 -1.237-1.231c0-.68.554-1.231 1.237-1.231s1.237.551 1.237 1.231zm1.664 1.576c0-.665.542-1.205 1.211-1.205s1.211.54 1.211 1.205-.542 1.204-1.211 1.204a1.207 1.207 0 0 1 -1.211-1.204zm1.807-3.15c0-.788.643-1.427 1.436-1.427s1.436.639 1.436 1.427c0 .789-.643 1.428-1.436 1.428a1.432 1.432 0 0 1 -1.436-1.428z" fill-rule="evenodd"/></svg>