<svg xmlns="http://www.w3.org/2000/svg" width="40" height="28">
    <path fill="#1BBC9A" fill-rule="evenodd" d="M.504.109a.91.91 0 0 1 .959.086l16.006 12.158a.942.942 0 0 1 .369.74v13.902c0 .51-.412.927-.916.927a.924.924 0 0 1-.916-.927V13.559L1.832 2.788v24.207c0 .51-.412.927-.916.927a.914.914 0 0 1-.916-.92V.935C0 .583.199.26.504.109z"/>
    <path fill="#54697A" fill-rule="evenodd" d="M39.496.109A.926.926 0 0 1 40 .935v26.067c0 .51-.412.927-.916.927a.924.924 0 0 1-.916-.927V2.788L24.001 13.559v13.443c0 .51-.412.927-.916.927a.924.924 0 0 1-.916-.927V13.1c0-.295.135-.568.369-.74L38.53.195a.921.921 0 0 1 .966-.086z"/>
</svg>
