<svg height="40" width="40" xmlns="http://www.w3.org/2000/svg" xmlns:xlink="http://www.w3.org/1999/xlink"><linearGradient id="a" x1="0%" x2="0%" y1="0%" y2="100%"><stop offset="0" stop-color="#dad4ba"/><stop offset="1" stop-color="#ab9669"/></linearGradient><linearGradient id="b" x1="0%" x2="0%" y1="0%" y2="100%"><stop offset="0" stop-color="#fffbe3"/><stop offset="1" stop-color="#edc89c"/></linearGradient><path d="m40 20c0-11.046-8.954-20-20-20s-20 8.954-20 20 8.954 20 20 20 20-8.954 20-20z" fill="#2484b9" fill-rule="evenodd"/><path d="m40 20c0-11.046-8.954-20-20-20s-20 8.954-20 20 8.954 20 20 20 20-8.954 20-20z" fill="url(#a)"/><g fill-rule="evenodd"><path d="m20 39.207c-10.591 0-19.207-8.616-19.207-19.207s8.616-19.207 19.207-19.207c10.59 0 19.207 8.616 19.207 19.207s-8.617 19.207-19.207 19.207zm0-37.914c-10.315 0-18.707 8.392-18.707 18.707s8.392 18.707 18.707 18.707 18.707-8.392 18.707-18.707-8.392-18.707-18.707-18.707zm0 31.898c-7.274 0-13.191-5.918-13.191-13.191 0-7.274 5.917-13.191 13.191-13.191 7.273 0 13.191 5.917 13.191 13.191 0 7.273-5.918 13.191-13.191 13.191zm0-25.882c-6.998 0-12.691 5.693-12.691 12.691 0 6.997 5.693 12.691 12.691 12.691 6.997 0 12.691-5.694 12.691-12.691 0-6.998-5.694-12.691-12.691-12.691z" fill="#fff"/><path d="m28.315 17.975-1.9-6.875-2.782 4.367a14.137 14.137 0 0 0 -3.633-.467 14.22 14.22 0 0 0 -3.276.378l-2.776-4.278-1.526 6.245c-1.708 1.306-2.753 3.052-2.753 4.972 0 4.04 4.625 7.316 10.331 7.316s10.331-3.276 10.331-7.316c0-1.626-.749-3.127-2.016-4.342zm-13.957 3.327h-.8l1.05-1.317h1.117zm5.65 4.867-2.816-4.867.616-.417.698 1.25h3.105l.714-1.25.567.417zm5.633-4.867-1.366-1.317h1.117l1.05 1.317z" fill="#836f4c"/><path d="m28.315 17.608-1.9-6.875-2.782 4.367a14.137 14.137 0 0 0 -3.633-.467 14.22 14.22 0 0 0 -3.276.378l-2.776-4.278-1.526 6.246c-1.708 1.305-2.753 3.051-2.753 4.971 0 4.041 4.625 7.317 10.331 7.317s10.331-3.276 10.331-7.317c0-1.626-.749-3.127-2.016-4.342zm-13.957 3.327h-.8l1.05-1.316h1.117zm5.65 4.867-2.816-4.867.616-.416.698 1.25h3.105l.714-1.25.567.416zm5.633-4.867-1.366-1.316h1.117l1.05 1.316z" fill="#2484b9"/></g><path d="m28.315 17.608-1.9-6.875-2.782 4.367a14.137 14.137 0 0 0 -3.633-.467 14.22 14.22 0 0 0 -3.276.378l-2.776-4.278-1.526 6.246c-1.708 1.305-2.753 3.051-2.753 4.971 0 4.041 4.625 7.317 10.331 7.317s10.331-3.276 10.331-7.317c0-1.626-.749-3.127-2.016-4.342zm-13.957 3.327h-.8l1.05-1.316h1.117zm5.65 4.867-2.816-4.867.616-.416.698 1.25h3.105l.714-1.25.567.416zm5.633-4.867-1.366-1.316h1.117l1.05 1.316z" fill="url(#b)"/><path d="m33.94 19.859-.047-.687 3.988-.262.047.687zm.519-6.332c-.999.642-2.196.416-2.853-.57-.656-.986-.385-2.152.614-2.794 1.001-.641 2.197-.416 2.853.57.657.987.386 2.153-.614 2.794zm.092-2.459c-.443-.665-1.243-.758-1.936-.313-.689.442-.929 1.201-.486 1.867.44.661 1.248.755 1.936.313.694-.445.926-1.206.486-1.867zm-7.595-6.326c-.731-.301-1.508.023-1.833.784-.326.76-.019 1.533.711 1.834.398.165.848.088 1.155-.143l.435.505c-.468.318-1.085.512-1.832.203-1.09-.45-1.61-1.56-1.133-2.673.477-1.114 1.649-1.525 2.739-1.075.746.309 1.043.879 1.134 1.427l-.673.049a1.168 1.168 0 0 0 -.703-.911zm-4.777 30.526-.454.616-.382-.294.804-1.061.498-.069.463 3.198-.572.08zm-3.852 2.63c-.919-.082-1.234-.971-1.158-1.782.075-.811.547-1.625 1.466-1.543s1.234.967 1.159 1.778c-.075.81-.547 1.629-1.467 1.547zm.262-2.823c-.536-.048-.779.48-.835 1.093-.057.613.084 1.18.62 1.228.535.048.778-.485.835-1.098s-.085-1.175-.62-1.223zm-.449-29.073-1.806.325-.151.793-.785.141.827-4.143.862-.154 2.266 3.587-.786.141zm-1.357-2.277-.365 1.97 1.416-.254zm-1.231 31.326c-.216.557-.93.859-1.992 1.161l1.364.511-.181.466-2.225-.833.161-.417c1.538-.44 2.156-.659 2.325-1.093.123-.317-.097-.565-.378-.67a1.158 1.158 0 0 0 -.97.051l-.178-.466c.396-.219.893-.22 1.321-.059.595.222.987.747.753 1.349zm-8.085-25.827 1.98 2.016-.505.478-2.775-2.825.518-.491 3.398.569-1.927-1.962.505-.478 2.776 2.826-.488.461zm-1.223 8.524c-.234 1.156-1.259 1.803-2.43 1.574-1.172-.228-1.866-1.211-1.632-2.367.235-1.156 1.259-1.803 2.431-1.574 1.171.228 1.866 1.211 1.631 2.367zm-1.772-1.674c-.812-.159-1.521.226-1.678 1.001-.158.78.348 1.395 1.16 1.554.807.158 1.519-.22 1.678-1.001.157-.774-.354-1.396-1.16-1.554zm2.123 8.864-2.7 1.213 3.212-.115.125.267-2.191 2.306 2.7-1.213.292.627-3.638 1.635-.412-.884 1.943-2.046-2.85.101-.411-.883 3.638-1.635zm19.505 8.454.745 1.862.409-.158.185.465-.408.157.272.681-.538.207-.272-.68-1.46.562-.17-.424.498-2.387zm.207 2.069-.555-1.389-.377 1.748zm9.356-8.929-2.59-1.188.297-.625 3.629 1.665-.305.641-3.386.666 2.519 1.156-.298.625-3.628-1.666.287-.603z" fill="#413928" fill-rule="evenodd"/></svg>