<svg height="23" width="40" xmlns="http://www.w3.org/2000/svg"><path d="m39.83 21.795-5.238-8.06-7.723-13.35a.771.771 0 0 0 -.686-.381.761.761 0 0 0 -.656.43l-5.332 10.951-5.404-7.044a.759.759 0 0 0 -1.237.045l-7.075 10.75-6.218 6.549a.771.771 0 0 0 -.15.832c.12.283.396.466.701.466h38.381a.761.761 0 0 0 .67-.402.774.774 0 0 0 -.033-.786zm-13.274-.347-5.465-2.819 4.909-5.748 5.957 8.567zm-15.646 0 4.999-6.472 3.692 3.838-2.179 2.634zm2.161-9.964-3.86 2.28 4.239-6.442zm-5.137 4.221 5.532-3.268 1.729 1.797-5.377 6.961-2.057-5.228zm12.48 3.726 3.912 2.017h-5.581zm6.838-6.533 6.011 1.59.022.037.021.034.072.111-.632 6.129zm5.288.34-5.985-1.583.129-8.541zm-11.515-.069 4.634-9.521-.123 8.207-4.73 5.539.037-3.987a.763.763 0 0 0 .182-.238zm-1.287.131a.739.739 0 0 0 .089.096l-.039 4.141-5.707-5.932.461-5.078zm-12.739 3.51 1.825 4.638h-6.229zm26.702 4.638.558-5.421 3.524 5.421z" fill="#003777" fill-rule="evenodd"/></svg>