<svg height="20" viewBox="0 0 25 20" width="25" xmlns="http://www.w3.org/2000/svg"><g fill="#1f1f1f" transform="translate(-1)"><path d="m24.293.35c.872 0 1.58.707 1.58 1.58v15.89c.0205572.5775249-.2758216 1.1201992-.7728275 1.4150596-.497006.2948605-1.115339.2948605-1.612345 0-.4970059-.2948604-.7933847-.8375347-.7728275-1.4150596l-.001-15.89c0-.873.707-1.58 1.579-1.58zm-21.713 0c.87182875.00110358 1.5780007.70817055 1.578 1.58v15.89c.02055717.5775249-.27582158 1.1201992-.77282754 1.4150596-.49700595.2948605-1.11533897.2948605-1.61234492 0-.49700596-.2948604-.79338471-.8375347-.77282754-1.4150596v-15.89c0-.874.707-1.58 1.58-1.58z"/><rect height="12.446" rx="1.579" width="3.158" x="8.304" y="3.998"/><rect height="7.082" rx="1.579" width="3.158" x="15.41" y="7"/></g></svg>