<svg xmlns="http://www.w3.org/2000/svg" width="40" height="40">
    <path fill="#222" fill-rule="evenodd" d="M14.055 24.824c1.933 3.92 3.798 7.699 5.718 11.6 1-2.951 1.957-5.791 2.939-8.68a8303.32 8303.32 0 0 1-8.657-2.92zm-10.46-5.036c2.951 1 5.785 1.963 8.663 2.939.975-2.883 1.938-5.717 2.938-8.674-3.92 1.945-7.705 3.809-11.601 5.735zm10.963 3.681c.135.073.191.116.258.141 2.791.951 5.583 1.902 8.38 2.828.227.073.552.012.773-.098 3.203-1.565 6.393-3.141 9.589-4.717.908-.448 1.816-.902 2.804-1.399-.215-.086-.331-.135-.448-.172-2.705-.914-5.405-1.84-8.123-2.736a1.234 1.234 0 0 0-.865.056c-3.404 1.656-6.791 3.336-10.19 5.011-.699.35-1.405.705-2.178 1.086zm11.816-7.392c-2.055-4.171-4.086-8.281-6.165-12.495-2.123 6.275-4.197 12.397-6.319 18.666 4.227-2.092 8.331-4.116 12.484-6.171zM0 20.003c1.988-.988 3.865-1.92 5.749-2.846 3.196-1.576 6.392-3.153 9.595-4.723.343-.166.54-.387.662-.755C17.258 7.95 18.528 4.22 19.791.497c.05-.135.105-.27.191-.497.129.245.221.423.306.601 2.448 4.963 4.89 9.925 7.356 14.881.117.24.436.442.706.534 3.699 1.276 7.411 2.527 11.116 3.791.141.049.276.098.534.19-.344.172-.595.307-.853.429-4.779 2.356-9.552 4.724-14.337 7.061-.473.233-.73.527-.896 1.024-1.233 3.699-2.497 7.385-3.754 11.078-.037.098-.08.196-.16.411a154.85 154.85 0 0 1-.871-1.748c-2.227-4.515-4.454-9.023-6.663-13.544-.184-.374-.417-.601-.822-.736A2308.098 2308.098 0 0 1 .522 20.199c-.148-.049-.283-.104-.522-.196z"/>
</svg>
