<svg height="40" width="40" xmlns="http://www.w3.org/2000/svg"><g fill-rule="evenodd"><path d="m40 20c0-11.046-8.954-20-20-20s-20 8.954-20 20 8.954 20 20 20 20-8.954 20-20z" fill="#051d29"/><path d="m35.842 23.726a.617.617 0 0 0 -.502.969l-3.597 6.486a.615.615 0 0 0 -.287.016h-.002l-2.387-2.338-.356-.348-.068-.066v.008c0 .2-.163.364-.363.364l.066.066.356.349 2.361 2.311a.647.647 0 0 0 -.049.198l-6.629 2.077a.59.59 0 0 0 -.231-.158l-.309-4.383-.028-.389-.014-.198a.366.366 0 0 1 -.52.033l.005.083h.002l.035.508.304 4.332-5.888-4.855-.414-.341-.043-.036.001.039a.364.364 0 0 1 -.699.146l-.107.289-.101.263-2.196 5.815-1.945-5.795-.096-.283-.094-.278a.36.36 0 0 1 -.457.181l-.037-.014a.364.364 0 0 1 .187-.685l-.404-.435-.05-.054-5.776-6.204a.614.614 0 0 0 -.182-.658l3.077-9.803a.615.615 0 0 0 .355-.175l2.077.744.449.161.109.038a.365.365 0 0 1 .174-.49l-.089-.033-.467-.167-2.078-.744a.595.595 0 0 0 -.088-.264l2.785-4.228a.618.618 0 0 0 .589-.25l5.845 1.072a.604.604 0 0 0 .13.251l-1.665 3.816-.195.443-.042.097a.364.364 0 0 1 .477.211l.021-.047.217-.496 1.667-3.814a.586.586 0 0 0 .146-.023l3.432 4.032.245.287.139.163a.363.363 0 0 1 .362-.339c.012 0 .024 0 .035.002l-.061-.073-.322-.377-3.434-4.034h.002l8.795-.102c.056.116.15.212.263.275l-.212 3.816-.025.422-.008.167a.364.364 0 0 1 .521.028l.005-.094.028-.496.205-3.68 5.731 7.303-5.371-2.654-.445-.219-.085-.042a.367.367 0 0 1 -.229.467l.321.159.209.102 5.899 2.916v.012a.615.615 0 1 0 .615-.616c-.012 0-.024 0-.035.002l-3.106-5.77a.617.617 0 0 0 -.487-.991.603.603 0 0 0 -.332.099l-2.295-1.406a.616.616 0 0 0 -.967-.57l-4.702-2.693c.003-.016.003-.033.003-.051a.616.616 0 0 0 -1.21-.153l-10.087 1.881a.612.612 0 0 0 -.499-.257.617.617 0 0 0 -.575.834l-6.888 7.111a.615.615 0 0 0 -.487 1.127l-.441 9.172a.614.614 0 0 0 -.381.568c0 .339.275.614.614.616l2.842 6.133a.617.617 0 0 0 .772.922l6.387 4.587a.617.617 0 0 0 1.142.416l8.479.641a.617.617 0 0 0 1.191-.219c0-.019 0-.036-.004-.055l6.954-4.087a.617.617 0 0 0 .844-.83l3.623-6.538a.617.617 0 1 0 .05-1.228zm-17.182-17.011a.268.268 0 0 1 -.267-.268c0-.1.057-.191.14-.232l.009-.006a.237.237 0 0 1 .108-.027c.003-.002.007-.002.01-.002a.266.266 0 0 1 .209.433l-.005.005a.262.262 0 0 1 -.204.097zm17.045 8.366a.268.268 0 1 1 -.099-.207.265.265 0 0 1 .099.207zm-3.778-6.999a.264.264 0 0 1 .149.24.267.267 0 1 1 -.267-.268c.04 0 .078.009.113.024zm-.728.165a.616.616 0 0 0 .61.69c.007 0 .015 0 .022-.002l1.937 3.597-4.098-5.22zm-2.443-2.109.003.003a.27.27 0 0 1 .079.19c0 .148-.12.268-.268.268a.26.26 0 0 1 -.172-.065.26.26 0 0 1 -.096-.203c0-.148.12-.268.268-.268a.22.22 0 0 1 .078.013.264.264 0 0 1 .108.062zm-1.148-.057-8.19.097 3.208-2.542a.618.618 0 0 0 .629-.047zm-4.707-3.263a.267.267 0 0 1 .267.267.26.26 0 0 1 -.14.233l-.009.005a.235.235 0 0 1 -.118.03.268.268 0 0 1 -.268-.268c0-.062.021-.12.059-.165l.004-.005a.23.23 0 0 1 .095-.073.253.253 0 0 1 .11-.024zm-.988.717-2.978 2.361a.615.615 0 0 0 -.777.195l-5.005-.921zm-10.193 1.369c.004 0 .007 0 .011.002a.265.265 0 0 1 .175.458.259.259 0 0 1 -.179.075h-.007a.268.268 0 0 1 0-.535zm19.828 26.628a.21.21 0 0 1 .08-.014.268.268 0 1 1 -.247.166v-.002a.27.27 0 0 1 .167-.15zm-7.639 2.436h.002c.007-.002.014-.002.022-.002.044 0 .085.011.122.03a.262.262 0 0 1 .136.167l.003.052v.021a.28.28 0 0 1 -.069.174.246.246 0 0 1 -.115.073.133.133 0 0 1 -.03.006.067.067 0 0 1 -.028.006h-.019a.262.262 0 0 1 -.26-.242l-.002-.021v-.002l-.002-.027v-.002a.263.263 0 0 1 .24-.233zm-7.043-4.633.171-.449.37.306 5.911 4.873-8.637 1.332a.599.599 0 0 0 -.071-.087zm-5.912-1.323.321.346-.434.182-3.549 1.494a.609.609 0 0 0 -.285-.141l-1.636-7.877zm-4.334 2.484c0-.148.12-.268.267-.268.066 0 .126.025.172.065h.002a.269.269 0 0 1 -.174.471.214.214 0 0 1 -.08-.014.154.154 0 0 1 -.033-.01.269.269 0 0 1 -.154-.244zm-2.747-8.127.283-5.923.456 4.231a.612.612 0 0 0 -.216.842zm1.314-1.224a.269.269 0 0 1 -.261.328.267.267 0 0 1 -.26-.328.267.267 0 0 1 .521 0zm3.136-11.083c.054 0 .106.016.148.045h.002a.272.272 0 0 1 .101.318.27.27 0 0 1 -.251.172.268.268 0 0 1 -.267-.267l.001-.025a.261.261 0 0 1 .075-.163l.004-.002.001-.003a.27.27 0 0 1 .186-.075zm1.65-2.712-1.561 2.371a.617.617 0 0 0 -.697.69l-1.888 1.219zm-2.114 3.59-2.807 8.941-.677-6.273a.61.61 0 0 0 .291-.61zm-4.07 2.142c0-.094.049-.178.124-.225a.268.268 0 0 1 .412.225c0 .008 0 .019-.004.028a.262.262 0 0 1 -.264.239.269.269 0 0 1 -.268-.267zm-.438 10.448-.003-.007a.25.25 0 0 1 -.042-.222.265.265 0 0 1 .257-.2.268.268 0 0 1 .268.267.23.23 0 0 1 -.017.091.266.266 0 1 1 -.463.071zm.727-.501.727-1.18 1.343 6.476-2.114-4.56a.617.617 0 0 0 .044-.736zm3.413 7.594v-.002a.742.742 0 0 0 .012-.109l3.539-1.49.459-.193.061-.026.011.028.01.034h.002l.158.472 1.921 5.719zm6.719 5.382a.27.27 0 0 1 -.245-.09l-.002-.003a.25.25 0 0 1 -.059-.139l.017.05a.26.26 0 0 1 .004-.174l.021-.057.001-.002a.267.267 0 0 1 .449.012l.002.002a.269.269 0 0 1 -.125.384l-.004.002a.24.24 0 0 1 -.054.015zm9.212-1.428a.63.63 0 0 0 .207.191l-.087 1.121a.617.617 0 0 0 -.318.273l-6.768-.511zm.515 2.087a.268.268 0 0 1 -.25.058l-.004-.002a.266.266 0 0 1 -.181-.329l.002-.001a.263.263 0 0 1 .255-.193c.138 0 .251.102.265.236v.007c.003.009.003.016.003.024 0 .079-.034.15-.088.199zm.17-.707c-.014-.009-.029-.019-.043-.026l.087-1.122a.616.616 0 0 0 .391-.492l5.052-1.583zm11.914-11.417a.268.268 0 1 1 .066-.306l.007.023a.218.218 0 0 1 .016.085.268.268 0 0 1 -.089.198z" fill="#209adb"/><path d="m28.714 27.682v-15.364a.906.906 0 0 0 .209-.165.86.86 0 0 0 .229-.467.884.884 0 0 0 -1.644-.574h-3.736a.889.889 0 0 0 -1.12-.377.862.862 0 0 0 -.398.337.88.88 0 0 0 .202 1.17v5.966l-5.219-6.296a.883.883 0 0 0 -.807-1.25.89.89 0 0 0 -.772.45h-3.166a.889.889 0 0 0 -.772-.45.879.879 0 0 0 -.707.354.871.871 0 0 0 -.176.491c-.002.013-.002.026-.002.04 0 .33.183.618.451.771v15.364a.884.884 0 0 0 -.445.858.882.882 0 0 0 .879.798l.023-.001a.878.878 0 0 0 .749-.449h3.658a.873.873 0 0 0 .228.263.86.86 0 0 0 .544.187.897.897 0 0 0 .819-.547.884.884 0 0 0 -.411-1.122l.034-5.935 5.338 6.393a.884.884 0 0 0 1.143 1.151.888.888 0 0 0 .453-.39h3.21a.889.889 0 0 0 1.194.344.895.895 0 0 0 .463-.779.89.89 0 0 0 -.451-.771zm-.071.771c0 .2-.164.364-.363.364h-.002a.365.365 0 0 1 -.362-.364c0-.199.164-.363.364-.363.196 0 .358.158.363.355zm0-16.906a.367.367 0 0 1 -.363.363.365.365 0 0 1 -.247-.631.364.364 0 0 1 .61.268zm-5.643.363a.365.365 0 0 1 -.364-.363c0-.009 0-.018.002-.025a.364.364 0 0 1 .362-.339c.012 0 .024 0 .034.002h.002a.366.366 0 0 1 .329.362.365.365 0 0 1 -.365.363zm-.099 7.102a.363.363 0 0 1 0 .726.363.363 0 1 1 0-.726zm-6.834-7.465a.366.366 0 0 1 .363-.364.364.364 0 0 1 0 .727.364.364 0 0 1 -.363-.363zm-4.347.363a.363.363 0 1 1 .002-.726.363.363 0 0 1 -.002.726zm-.167 16.867a.364.364 0 0 1 .167-.687c.007 0 .012 0 .019.002a.363.363 0 0 1 .345.361.366.366 0 0 1 -.037.157.36.36 0 0 1 -.457.181zm5.369-.687c.186 0 .341.143.362.324l.001.039a.364.364 0 0 1 -.728 0c0-.199.163-.363.365-.363zm0-7.196a.364.364 0 1 1 -.001-.729.364.364 0 0 1 .001.729zm.828-.053a.887.887 0 1 0 -1.715-.312c0 .336.188.628.463.778l-.037 6.392a.892.892 0 0 0 -.311.32h-3.658a.894.894 0 0 0 -.337-.337v-15.364a.894.894 0 0 0 .337-.337h3.166a.89.89 0 0 0 .876.444l5.527 6.67a.885.885 0 1 0 1.264-.497v-6.229a.889.889 0 0 0 .447-.388h3.736c.08.141.196.257.337.337v15.364a.894.894 0 0 0 -.337.337h-3.21a.888.888 0 0 0 -.918-.438zm5.777 7.249a.364.364 0 0 1 .276.598v.002a.366.366 0 0 1 -.642-.237c0-.199.164-.363.366-.363z" fill="#fff"/></g></svg>