<svg height="40" width="40" xmlns="http://www.w3.org/2000/svg"><g fill-rule="evenodd"><path d="m20.545 29.61 8.836-4.731v-.094l-8.836-4.731z" fill="#214688"/><path d="m39.1 29.986a5.972 5.972 0 0 1 -2.265 2.102l-6.59 3.529v-9.407l.833-.446v-.073zm-18.55 9.993v-8.639l.057.031.748-.4 8.784 4.703-6.611 3.54a6.546 6.546 0 0 1 -2.978.765z" fill="#4488be"/><path d="m17.345 39.214-6.497-3.479 8.955-4.795.747.4v8.639a6.556 6.556 0 0 1 -3.205-.765zm-15.512-9.138 8.205-4.393.001.029.703.377v9.588l-6.704-3.589a5.982 5.982 0 0 1 -2.205-2.012z" fill="#54a4cb"/><path d="m39.1 29.987-8.022-4.296v-.788l8.849-4.738v6.957a5.416 5.416 0 0 1 -.827 2.865zm-17.745.983 8.89-4.76v9.407l-.106.056zm-10.613 4.707v-9.588l9.061 4.851-8.955 4.794zm-9.795-8.554v-7.057l.02-.011 9.055 4.848v.385l.016.395-8.205 4.393a5.416 5.416 0 0 1 -.886-2.953zm0-7.08v-7.17a5.413 5.413 0 0 1 .83-2.87l8.245 4.415v.788l-9.055 4.848z" fill="#3b9cc7"/><path d="m31.078 15.206v-.788l8.072-4.323c.5.837.777 1.789.777 2.778v7.071zm-1.697.118v9.461l-8.836-4.731z" fill="#504ca1"/><path d="m20.607 8.738.747.4 8.891-4.76-6.717-3.597a6.538 6.538 0 0 0 -2.978-.764v8.751z" fill="#7f6fb3"/><path d="m31.078 14.417v-.072l-.833-.446v-9.521l6.59 3.528a5.962 5.962 0 0 1 2.315 2.189zm-20.337-10.081.018-.009 9.043 4.842-9.061 4.851z" fill="#50479e"/><path d="m31.078 24.903v-9.697l8.849 4.738v.221zm-.833-20.525v9.521l-8.89-4.76zm-19.486-.051 6.981-3.738a6.577 6.577 0 0 1 2.81-.572v8.752l-.747.4zm-.737 10.081v.01l-8.245-4.415a5.926 5.926 0 0 1 1.883-1.875l7.081-3.792v9.684l-.335.18zm0 10.494-9.055-4.848 9.055-4.848z" fill="#5057a6"/></g></svg>