<svg height="40" width="40" xmlns="http://www.w3.org/2000/svg" xmlns:xlink="http://www.w3.org/1999/xlink"><linearGradient id="a" x1="93.969%" x2="0%" y1="0%" y2="34.202%"><stop offset="0" stop-color="#61b6e1"/><stop offset="1" stop-color="#1c76a0"/></linearGradient><path d="m39.72 21.665c-.508 4.295-2.228 8.51-5.169 11.686-2.756 2.963-6.418 5.036-10.363 5.849-3.768.796-7.777.501-11.347-.994 6.115-1.33 11.726-4.44 16.587-8.36 2.458-1.974 4.748-4.205 6.545-6.822 1.223-1.736 2.102-3.683 2.991-5.607.126-.251.272-.491.438-.717.536 1.593.442 3.313.318 4.965zm-10.736-12.085c-6.115 1.203-11.787 4.193-16.599 8.151-.713.539-1.325 1.206-2.068 1.7-.305.227-.658-.068-.976-.123-.992-.378-2.124.421-2.297 1.438-.138.572.245 1.094.248 1.657-.099.325-.323.586-.528.846-1.339 1.623-2.627 3.342-3.393 5.327a6.948 6.948 0 0 1 -.568 1.122c-1.23-2.364-2.09-4.943-2.435-7.596-.45-3.471.128-7.058 1.606-10.221 1.192-2.565 2.812-4.964 4.871-6.895 2.995-2.84 6.998-4.538 11.089-4.799.435-.039.866-.119 1.298-.187h1.887c.474.08.949.166 1.43.204 1.62.094 3.19.574 4.709 1.122 2.496.975 4.8 2.468 6.68 4.399 1.353 1.344 2.524 2.92 3.316 4.669-1.155-.336-2.276-.838-3.475-1.006-1.592-.252-3.219-.114-4.795.192zm-21.933 13.812c.19-.263.374-.584.708-.673.444.049.871.277 1.325.212.857-.077 1.574-.854 1.618-1.718.037-.418-.132-.808-.262-1.194 2.933-2.438 6.285-4.444 9.947-5.529 2.155-.608 4.478-1.073 6.681-.425 1.048.312 1.99 1.09 2.33 2.166.445 1.382.056 2.868-.464 4.171-.646 1.555-1.664 2.913-2.75 4.18-3.128 3.688-7.24 6.493-11.771 8.099-1.34.461-2.695.913-4.109 1.062-.787.092-1.584.245-2.373.089-1.258-.165-2.596-.608-3.353-1.703-.812-1.14-.728-2.674-.314-3.952.561-1.79 1.774-3.247 2.787-4.785z" fill="#e6c14f" fill-rule="evenodd"/><path d="m39.72 21.665c-.508 4.295-2.228 8.51-5.169 11.686-2.756 2.963-6.418 5.036-10.363 5.849-3.768.796-7.777.501-11.347-.994 6.115-1.33 11.726-4.44 16.587-8.36 2.458-1.974 4.748-4.205 6.545-6.822 1.223-1.736 2.102-3.683 2.991-5.607.126-.251.272-.491.438-.717.536 1.593.442 3.313.318 4.965zm-10.736-12.085c-6.115 1.203-11.787 4.193-16.599 8.151-.713.539-1.325 1.206-2.068 1.7-.305.227-.658-.068-.976-.123-.992-.378-2.124.421-2.297 1.438-.138.572.245 1.094.248 1.657-.099.325-.323.586-.528.846-1.339 1.623-2.627 3.342-3.393 5.327a6.948 6.948 0 0 1 -.568 1.122c-1.23-2.364-2.09-4.943-2.435-7.596-.45-3.471.128-7.058 1.606-10.221 1.192-2.565 2.812-4.964 4.871-6.895 2.995-2.84 6.998-4.538 11.089-4.799.435-.039.866-.119 1.298-.187h1.887c.474.08.949.166 1.43.204 1.62.094 3.19.574 4.709 1.122 2.496.975 4.8 2.468 6.68 4.399 1.353 1.344 2.524 2.92 3.316 4.669-1.155-.336-2.276-.838-3.475-1.006-1.592-.252-3.219-.114-4.795.192zm-21.933 13.812c.19-.263.374-.584.708-.673.444.049.871.277 1.325.212.857-.077 1.574-.854 1.618-1.718.037-.418-.132-.808-.262-1.194 2.933-2.438 6.285-4.444 9.947-5.529 2.155-.608 4.478-1.073 6.681-.425 1.048.312 1.99 1.09 2.33 2.166.445 1.382.056 2.868-.464 4.171-.646 1.555-1.664 2.913-2.75 4.18-3.128 3.688-7.24 6.493-11.771 8.099-1.34.461-2.695.913-4.109 1.062-.787.092-1.584.245-2.373.089-1.258-.165-2.596-.608-3.353-1.703-.812-1.14-.728-2.674-.314-3.952.561-1.79 1.774-3.247 2.787-4.785z" fill="url(#a)"/></svg>