<svg height="40" width="41" xmlns="http://www.w3.org/2000/svg" xmlns:xlink="http://www.w3.org/1999/xlink"><linearGradient id="a" x1="0%" x2="75.471%" y1="0%" y2="65.606%"><stop offset="0" stop-color="#f6df6f"/><stop offset=".5" stop-color="#dbae3b"/><stop offset="1" stop-color="#e6c14f"/></linearGradient><path d="m8.294 14.441c0 1.809 1.479 3.278 3.301 3.278h5.314l18.366 12.022a3.305 3.305 0 0 0 1.816.538h1.003a20.139 20.139 0 0 1 -17.277 9.721c-9.559 0-17.56-6.608-19.626-15.47l7.955 5.211a3.287 3.287 0 0 0 1.815.538h6.384c1.822 0 3.301-1.469 3.301-3.278s-1.479-3.278-3.301-3.278h-5.393l-10.979-7.184c1.651-9.394 9.903-16.539 19.844-16.539a20.142 20.142 0 0 1 18.069 11.163h-2.812c-1.822 0-3.301 1.469-3.301 3.278s1.479 3.278 3.301 3.278h4.753c.086.747.132 1.507.132 2.281 0 1.272-.119 2.517-.356 3.723h-2.522l-18.366-12.022a3.287 3.287 0 0 0 -1.815-.538h-6.305c-1.822 0-3.301 1.469-3.301 3.278z" fill="#edc89c" fill-rule="evenodd"/><path d="m8.294 14.441c0 1.809 1.479 3.278 3.301 3.278h5.314l18.366 12.022a3.305 3.305 0 0 0 1.816.538h1.003a20.139 20.139 0 0 1 -17.277 9.721c-9.559 0-17.56-6.608-19.626-15.47l7.955 5.211a3.287 3.287 0 0 0 1.815.538h6.384c1.822 0 3.301-1.469 3.301-3.278s-1.479-3.278-3.301-3.278h-5.393l-10.979-7.184c1.651-9.394 9.903-16.539 19.844-16.539a20.142 20.142 0 0 1 18.069 11.163h-2.812c-1.822 0-3.301 1.469-3.301 3.278s1.479 3.278 3.301 3.278h4.753c.086.747.132 1.507.132 2.281 0 1.272-.119 2.517-.356 3.723h-2.522l-18.366-12.022a3.287 3.287 0 0 0 -1.815-.538h-6.305c-1.822 0-3.301 1.469-3.301 3.278z" fill="url(#a)"/></svg>