<svg height="40" width="40" xmlns="http://www.w3.org/2000/svg"><g fill-rule="evenodd"><path d="m20 0c11.046 0 20 8.954 20 20s-8.954 20-20 20-20-8.954-20-20 8.954-20 20-20z" fill="#1a53f0"/><path d="m12.455 20.472c-3.904 0-7.069 3.174-7.069 7.09 0 3.915 3.165 7.089 7.07 7.089 3.904 0 7.069-3.174 7.069-7.089 0-3.916-3.165-7.09-7.069-7.09zm0 12.035c-2.721 0-4.928-2.213-4.928-4.943s2.207-4.943 4.928-4.943a4.936 4.936 0 0 1 4.929 4.943c-.005 2.728-2.209 4.94-4.929 4.943zm15.098-27.158c-3.904 0-7.069 3.174-7.069 7.09 0 3.915 3.165 7.089 7.069 7.089s7.07-3.174 7.07-7.089c0-3.916-3.165-7.09-7.07-7.09zm0 12.035c-2.721 0-4.928-2.213-4.928-4.943a4.935 4.935 0 0 1 4.928-4.943 4.935 4.935 0 0 1 4.929 4.943 4.944 4.944 0 0 1 -4.929 4.942zm-15.098-12.035a7.078 7.078 0 0 0 -6.936 5.683 7.1 7.1 0 0 0 4.179 7.944 7.088 7.088 0 0 0 7.82-11.483h2.005v-2.144zm4.929 7.089c0 2.73-2.206 4.943-4.928 4.943a4.936 4.936 0 0 1 -4.929-4.943 4.936 4.936 0 0 1 4.928-4.942c2.722 0 4.927 2.214 4.932 4.943h-.003z" fill="#fff"/></g></svg>