<svg xmlns="http://www.w3.org/2000/svg" width="40" height="40">
    <path fill="#03E8B0" fill-rule="evenodd" d="M18.978.539c1.28-.559 2.192.625 2.981 1.416a51.075 51.075 0 0 1 4.019 3.822c.729.797.434 2.255-.557 2.699-.762.416-1.692.102-2.276-.478-1.532-1.472-2.999-3.019-4.592-4.426-.987-.809-.785-2.567.425-3.034M32.936 4.62c.867-.468 2.255-.087 2.496.948.368.921-.223 1.833-.87 2.446a211.237 211.237 0 0 0-4.176 4.29c-.503.61-1.388.773-2.099.444-1.026-.426-1.303-1.972-.529-2.754 1.74-1.775 3.276-3.765 5.178-5.374M5.22 4.907c.904-.546 2.021-.184 2.689.559 1.504 1.521 3.054 2.992 4.574 4.489 1.005.933.304 2.907-1.099 2.914-1.174.181-1.798-.985-2.584-1.622-1.377-1.144-2.639-2.417-3.889-3.701-.707-.731-.496-2.071.31-2.639m1.166 8.994c1.514-.586 2.992 1.328 2.048 2.648-1.117 1.461-2.572 2.635-3.79 4.015-.72.743-1.391 1.884-2.589 1.739-1.403-.054-2.108-2.01-1.087-2.959 1.842-1.769 3.306-4.006 5.419-5.443m30.706 4.232c1.042-.682 2.614.094 2.647 1.354.153 1.183-1.018 1.808-1.662 2.602-1.135 1.371-2.381 2.648-3.667 3.877-.94.89-2.695.265-2.864-1.024-.22-1.331 1.027-2.159 1.813-3.01 1.3-1.211 2.399-2.638 3.733-3.798m-26.757 9.362c1.012-.607 2.547.114 2.571 1.346.187 1.189-.985 1.821-1.626 2.615-1.132 1.372-2.394 2.632-3.667 3.876-.828.839-2.592.435-2.827-.77-.401-1.162.584-2.101 1.333-2.831 1.455-1.364 2.719-2.925 4.216-4.235m17.981-.047c.56-.193 1.27-.208 1.743.197 1.752 1.669 3.616 3.221 5.263 5.002.509.517.554 1.383.217 2.005-.476 1.117-2.108 1.144-2.9.353-1.598-1.512-3.135-3.101-4.742-4.607-.972-.758-.744-2.512.419-2.95m-13.492 4.269c.833-.453 1.813-.024 2.412.613 1.511 1.503 3.022 3.007 4.591 4.45 1.032.984.335 2.98-1.12 2.995-1.174.139-1.786-1.03-2.574-1.669-1.369-1.139-2.641-2.392-3.869-3.681-.741-.795-.44-2.271.56-2.709M12.145 2.057c0 .954-.77 1.726-1.721 1.727a1.724 1.724 0 0 1-1.722-1.727c0-.953.771-1.726 1.722-1.726s1.721.773 1.721 1.726m5.018 4.591c0 .953-.771 1.726-1.721 1.726a1.724 1.724 0 0 1-1.722-1.726c0-.953.771-1.726 1.721-1.726.951 0 1.722.773 1.722 1.726m-13.44 4.218c0 .953-.771 1.726-1.721 1.726A1.723 1.723 0 0 1 .28 10.866 1.723 1.723 0 0 1 2.001 9.14c.951 0 1.722.772 1.722 1.726M31.049 1.92c0 .953-.771 1.726-1.721 1.726a1.724 1.724 0 0 1-1.722-1.726c0-.953.771-1.726 1.722-1.726h.001c.95 0 1.721.773 1.721 1.726m8.914 8.513c0 .953-.771 1.726-1.722 1.726-.95 0-1.721-.773-1.721-1.726 0-.954.771-1.726 1.721-1.726.951 0 1.722.772 1.722 1.726m-4.705 4.959c0 .954-.77 1.727-1.721 1.727a1.723 1.723 0 0 1-1.721-1.726c0-.953.77-1.726 1.721-1.727.95 0 1.721.773 1.721 1.726m4.697 13.941c0 .953-.771 1.726-1.721 1.726a1.724 1.724 0 0 1-1.722-1.726c0-.953.771-1.726 1.721-1.726.951 0 1.722.773 1.722 1.726m-13.425 4.21c0 .953-.771 1.726-1.722 1.726-.95 0-1.721-.772-1.721-1.726 0-.953.77-1.726 1.721-1.726.951 0 1.722.772 1.722 1.726m4.952 4.721a1.723 1.723 0 0 1-1.721 1.726 1.724 1.724 0 0 1-1.722-1.726c0-.953.771-1.726 1.721-1.726h.001a1.723 1.723 0 0 1 1.721 1.726m-18.851 0c0 .953-.771 1.726-1.721 1.726a1.724 1.724 0 0 1-1.722-1.726c0-.953.77-1.726 1.721-1.727h.001c.95 0 1.721.773 1.721 1.727m-4.199-13.52a1.723 1.723 0 0 1-1.721 1.727 1.725 1.725 0 0 1-1.722-1.726c0-.954.771-1.727 1.722-1.727s1.721.773 1.721 1.726m-4.71 5.017c0 .953-.771 1.726-1.722 1.726-.95 0-1.721-.772-1.721-1.726a1.723 1.723 0 0 1 1.721-1.726c.951 0 1.722.772 1.722 1.726"/>
</svg>
