<svg height="40" width="33" xmlns="http://www.w3.org/2000/svg"><g fill-rule="evenodd"><path d="m16.734 39.881-.268.101v-2.094c4.464-1.759 15.181-7.035 15.181-12.027v-21.641l-15.098-2.428h-.067v-1.792l16.486 2.836v23.025c0 7.135-15.566 13.769-16.234 14.02zm13.558-34.203v19.614c0 .754-.268 1.508-.719 2.245-5.467-.251-9.747-1.541-13.074-3.451a21.693 21.693 0 0 1 -2.842-1.926v-.988h5.266c3.828 0 6.57-2.563 6.57-6.533 0-3.936-2.758-6.432-6.57-6.432h-7.724v1.91l5.283-.017h2.208c2.809 0 4.665 1.675 4.665 4.556 0 2.914-1.856 4.64-4.698 4.64h-7.09v.938c-4.397-4.674-5.985-10.62-6.52-14.925l11.452-1.842zm-20.464 9.866h8.024v-1.676h-8.024z" fill="#5e4778"/><path d="m26.982 30.334c-.218.185-.469.369-.703.553-3.16 2.412-7.44 4.422-9.797 5.344-4.046-1.592-13.793-6.399-13.793-10.939v-19.614l2.358-.369c.534 4.288 2.106 10.235 6.503 14.925v9.329h2.09v-7.403c.895.716 1.845 1.36 2.842 1.926v.001c3.344 1.892 7.607 3.182 13.074 3.467-.585.955-1.488 1.893-2.574 2.78zm-25.665-26.114v21.873c0 .033-.017.033 0 .084a.594.594 0 0 1 .034.15c0 .034.016.051.016.101 0 .051.017.101.017.134a.255.255 0 0 0 .017.102c.017.05.017.083.033.134.017.05.017.083.034.117.019.037.03.076.033.117 0 .033.034.084.034.134a.245.245 0 0 0 .034.118.935.935 0 0 1 .05.117c.016.05.033.067.05.117.014.046.03.091.05.134.02.032.037.066.05.102.017.05.05.084.067.134l.05.101.067.134.067.101c.033.033.05.084.083.134l.05.084.101.151.05.083.101.151.067.084.117.15.067.084.117.151.067.067.15.134.05.067.151.167.05.067.15.168.05.067.168.167.05.05.184.168.05.05.184.184.05.05.184.185.05.033.201.184.033.034.217.184.034.032.234.185.033.017.251.184.034.017.267.201.017.016.267.201.017.017.268.201.016.017.285.201.301.235.301.201c2.541 1.725 5.433 3.182 7.64 4.17h.017l.251.102h.033l.217.101.034.016.2.084.05.017.184.084.05.017.151.066.084.034.15.05.084.034h-.001l.218.084v2.094l-.268-.101a70.946 70.946 0 0 1 -9.095-5.042c-3.711-2.462-7.139-5.628-7.139-8.978v-23.043l16.485-2.836v1.792h-.067z" fill="#3d3144"/></g></svg>