<svg height="40" width="40" xmlns="http://www.w3.org/2000/svg"><path d="m39.578 19.551c.378.378.418.577 0 .975-1.154 1.094-2.268 2.248-3.402 3.342a.796.796 0 0 0 -.238.935c.437 1.572.835 3.163 1.273 4.715.139.477 0 .656-.458.756-1.551.378-3.063.815-4.615 1.193-.438.1-.656.279-.756.736-.378 1.532-.855 3.064-1.233 4.596-.12.457-.299.537-.736.417-1.532-.437-3.064-.815-4.596-1.273a.92.92 0 0 0 -1.074.299c-1.114 1.153-2.268 2.248-3.362 3.401-.358.358-.557.338-.895-.02-1.094-1.133-2.208-2.228-3.302-3.362a.996.996 0 0 0 -1.134-.318c-1.532.438-3.083.796-4.615 1.234-.398.119-.537.019-.637-.378-.398-1.572-.835-3.104-1.233-4.675-.099-.418-.279-.657-.736-.756-1.552-.378-3.064-.836-4.615-1.214-.577-.139-.657-.358-.498-.895.458-1.532.836-3.063 1.274-4.595a.777.777 0 0 0 -.259-.915c-1.154-1.134-2.268-2.288-3.422-3.422-.298-.298-.318-.477 0-.776 1.174-1.133 2.308-2.307 3.482-3.441a.795.795 0 0 0 .238-.935c-.437-1.552-.795-3.123-1.253-4.655-.159-.537-.02-.716.497-.835 1.572-.378 3.104-.816 4.675-1.214a.737.737 0 0 0 .617-.636c.398-1.552.855-3.104 1.253-4.655.12-.458.299-.538.736-.418 1.552.437 3.104.835 4.655 1.273a.81.81 0 0 0 .935-.239 304.863 304.863 0 0 1 3.561-3.541.269.269 0 0 0 .139-.258c.137.03.278.043.418.04 1.233 1.372 2.566 2.625 3.839 3.938.239.239.478.179.736.1 1.552-.398 3.124-.796 4.675-1.234.458-.139.597-.039.716.418.378 1.552.816 3.064 1.214 4.615.099.418.278.657.736.756 1.611.398 3.183.875 4.774 1.273.418.1.478.259.358.637-.437 1.552-.835 3.103-1.293 4.655a.905.905 0 0 0 .279 1.074c1.114 1.074 2.168 2.208 3.282 3.282zm-29.561 9.959c0-1.031-.02-2.024 0-2.996 0-.418-.119-.458-.457-.259-.597.358-1.214.697-1.85 1.055.753.714 1.487 1.427 2.307 2.2zm-2.904-16.105a.906.906 0 0 0 -.159.079c-.557.557-1.114 1.094-1.671 1.651-.796.816-.796.816-.339 1.99.458-.319 1.154-.398 1.353-.896.358-.875.537-1.83.816-2.824zm-.418 2.705a121.263 121.263 0 0 0 3.163-1.77c-.756-.438-1.412-.836-2.089-1.234-.099-.06-.238-.099-.278.08-.259.935-.517 1.87-.796 2.924zm.227 10.861a10.718 10.718 0 0 1 -.816-.835c-.278-.338-.418-.219-.616.08-.685.994-1.361 1.969-2.03 2.964.022.036.049.07.08.099 1.134-.636 2.288-1.293 3.422-1.929.258-.16.059-.259-.04-.379zm.191-.318c-.179-.676-.338-1.313-.517-1.949-.816.915-.776 1.034.517 1.949zm-1.385-1.412c.02 0 .04-.02.06-.02.259-.358.529-.676.656-1.015 0-.457-.895-1.293-1.392-1.273-.438.02-.279.537-.418.816-.02.04-.02.079-.04.119-.039.219.935 1.413 1.134 1.373zm.458-2.129c-.226-.811-.424-1.563-.621-2.314-.693 1.994-.888 1.58.621 2.314zm-.943-3.561c-.1-.218.059-.756-.458-.636-1.054.258-2.069.557-3.083.815 0 .04.02.1.02.14h3.242c.239 0 .378-.1.279-.319zm-3.302-.238a93.53 93.53 0 0 0 2.267-.557c.856-.219.876-.279.418-1.134l-2.745 1.611zm3.202-1.253c.04.139.04.358.259.358a.415.415 0 0 0 .446-.358c.091-.359.199-.737.31-1.194-1.194.497-1.233.537-1.015 1.194zm.597 1.452c-.06.278.02.378.299.378.537-.02 1.054-.02 1.571-.02h1.234a1.222 1.222 0 0 0 1.233-1.21v-.004c0-.238-.02-.497 0-.736.04-.358-.1-.398-.438-.318-.955.278-1.89.617-2.864.756-.756.119-.896.577-1.035 1.154zm.358.636c-.159 0-.437-.079-.338.239.239.955.497 1.91.776 2.865.079.278.318.417.537.079.716-1.014 1.412-2.049 2.188-3.183zm.876 3.979c-.16.099-.14.298-.1.457.179.717.398 1.433.577 2.149.06.238.119.298.358.159.676-.418 1.373-.796 2.129-1.214-.935-.517-1.751-.994-2.567-1.452-.119-.059-.238-.199-.397-.099zm1.818 7.639c.358 1.333.696 2.626 1.054 3.919.04 0 .08-.02.119-.02v-2.706c0-.994 0-.994-.954-1.213-.048-.02-.088 0-.227.02zm-.426-1.512c.119.895.597 1.333 1.472 1.392 0 0 .02-.02.159-.039-.159-.577.239-1.194-.179-1.691-.577-.697-1.253-1.293-1.89-1.93.08.796.319 1.512.438 2.268zm-.04.994a627.152 627.152 0 0 1 -.935-3.501c-.059-.199-.139-.219-.298-.119a630.76 630.76 0 0 0 -3.919 2.228c1.77.457 3.382.895 5.152 1.392zm-5.013-2.705.1.08c.437-.617.895-1.234 1.333-1.87.815-1.174.815-1.174-.219-2.169-.02-.019-.08-.019-.14-.039zm.876-4.754c.377-.756.437-1.114.179-1.254-.935-.517-1.811-1.153-2.825-1.531l-.02.019c.835.975 1.75 1.851 2.666 2.766zm-3.183-3.541c.716.398 1.412.835 2.128 1.213.498.259 1.074.915 1.492.696.358-.179.338-1.034.537-1.571.139-.398 0-.458-.338-.458-1.273.02-2.526.02-3.799.02a1.105 1.105 0 0 1 -.02.1zm.596-1.254c.756-.417 1.453-.795 2.129-1.193.915-.517.915-.517.637-1.532 0-.02-.06-.04-.12-.099-.875.915-1.731 1.83-2.646 2.824zm1.572-8.514c.06 0 .099.02.159.02-.04.04-.071.1-.119.139.417 1.592.815 3.163 1.233 4.755.069.041.142.074.219.099.796-.855 1.591-1.71 2.407-2.546.199-.219.02-.259-.099-.338-1.234-.696-2.447-1.413-3.641-2.109-.06 0-.099-.02-.159-.02zm2.884 1.253c1.413.836 1.393.836 1.751-.795.06-.279 0-.378-.278-.398-1.214-.06-2.447-.279-3.78-.159.815.477 1.571.915 2.307 1.352zm-2.029-1.869a.165.165 0 0 1 -.02.099c1.174.1 2.348.179 3.502.279.218.019.457.079.537-.239.099-.398.199-.776.318-1.253-1.492.378-2.916.755-4.337 1.114zm3.84 2.088c.417-.378.875-.775 1.333-1.193-1.035-.319-1.134-.219-1.333 1.193zm2.188-7.619c-.04-.02-.1-.02-.139-.039a596.86 596.86 0 0 0 -1.075 3.938c1.214-.159 1.214-.159 1.214-1.253zm-.637 4.118c-.338.139-.736.08-.815.597-.06.358-.179.716-.259 1.074-.02.12.06.159.179.199.995.358 1.532-.04 1.532-1.114v-.239c.06-.497-.06-.756-.637-.517zm.577 2.308a.348.348 0 0 0 -.437.119 61.317 61.317 0 0 1 -1.572 1.572c-.219.218-.159.338.06.457.636.378 1.293.776 2.029 1.194v-2.964c0-.14.079-.319-.08-.378zm.1 3.819c-.856.478-1.572.995-2.368 1.313-1.054.418-1.452 1.174-1.531 2.328 1.273-.339 2.486-.657 3.7-.975a.25.25 0 0 0 .199-.279zm-.159 5.59a.417.417 0 0 0 -.458.239c-.676 1.014-1.373 2.009-2.069 3.004-.179.258-.179.397.12.557.696.358 1.372.756 2.048 1.153.378.239.438.08.438-.278l.06-2.785c0-.497.02-.995 0-1.492 0-.139.139-.358-.139-.398zm19.833-8.972c.139-1.094-.497-1.651-1.253-2.267-.339 1.273-.657 2.486-.995 3.68a.27.27 0 0 0 .137.357l.002.001c.665.358 1.313.756 2.089 1.193 0-1.074-.099-2.029.02-2.964zm-.637-3.063c-.139-.02-.318-.139-.417.099a.427.427 0 0 0 .079.498c.279.298.525.616.856 1.014.278-1.293.218-1.472-.518-1.611zm-5.152-1.373c-.338-.079-.497.08-.318.458.517 1.094 1.034 2.228 1.631 3.441.577-.974 1.094-1.87 1.611-2.765.08-.139.199-.318-.059-.378-.955-.258-1.91-.537-2.865-.756zm2.805.418c-1.671-1.77-1.114-1.571-2.546-.696.835.238 1.611.457 2.546.696zm-9.509 0c-.875-.676-1.671-.418-2.626-.04.935.935 1.83 1.81 2.706 2.706.159.159.278.099.437 0 .637-.378 1.273-.736 1.99-1.154-.896-.517-1.771-.935-2.507-1.512zm2.626 1.214v-2.368c0-.278-.119-.298-.338-.239-.915.239-1.811.478-2.825.756 1.094.637 2.089 1.234 3.163 1.851zm-9.549 1.213c.637-.617 1.194-1.174 1.751-1.711a.199.199 0 0 1 .079-.099.425.425 0 0 0 -.159 0c-.437.119-.875.238-1.313.318a.398.398 0 0 0 -.358.477c.02.319 0 .637 0 1.015zm.14.378c-.16.159-.319.438.059.477 1.273.14 2.566.219 3.979.319-.637-1.075-1.174-2.029-1.791-3.104-.795.816-1.531 1.552-2.247 2.308zm1.679 21.882c.338.458.576.498.875-.079.354-.725.759-1.423 1.213-2.089.378-.517.259-.955-.04-1.393-.298-.437-.795-.557-1.213-.815-.119-.08-.179.02-.199.119-.346 1.214-.664 2.427-.995 3.64-.059.319.219.418.359.617zm-.744.836c-.279.935-.518 1.89-.776 2.824.238.02.258-.139.338-.258.438-.736.855-1.452 1.273-2.188.08-.14.358-.398-.04-.458-.238-.02-.636-.497-.795.08zm4.635.616c.318.08.517-.059.318-.457-.517-1.114-1.054-2.228-1.631-3.442-.557.975-1.094 1.87-1.612 2.765-.079.14-.218.299.06.378.955.259 1.91.538 2.865.756zm-2.746-.417c1.154 1.531 1.194 1.551 2.507.676-.856-.239-1.651-.438-2.507-.676zm2.686-9.589c.079-.159.259-.099.398-.079.418.079.437-.06.318-.418-.438-1.015-.816-2.089-1.213-3.183a2.403 2.403 0 0 0 -.975 1.512c-.338 1.452-.756 2.864-1.154 4.297-.139.497-.438 1.034-.338 1.472.099.477.796.537 1.213.835.16.1.299.219.458.319.258.199.418.159.577-.14.358-.656.736-1.293 1.114-1.929.239-.418.616-.816.656-1.234.04-.497-.597-.716-.875-1.094-.08-.119-.259-.199-.179-.358zm-1.353-11.339c-.994.597-1.969 1.194-3.023 1.711-.896.418-1.512.915-1.174 1.85 0 .458.02.756 0 1.035-.06.457.099.497.517.377 1.89-.517 3.78-1.034 5.67-1.511.397-.1.457-.199.238-.557a45.176 45.176 0 0 1 -1.532-2.686c-.179-.338-.318-.458-.696-.219zm.179-.656c-.059-.239-.231-.239-.429-.259-.876-.06-1.771-.159-2.646-.219-1.373-.099-1.373-.099-1.373 1.313l-.008.199c0 .398.02.776 0 1.174-.02.338.02.517.418.278l3.76-2.148c.119-.08.338-.099.278-.338zm1.413 4.535c-1.532.438-3.064.836-4.596 1.234-1.173.318-1.173.318-1.193 1.571 0 .259-.04.537-.06.796-.04.298.06.438.418.438 1.134-.02 2.268 0 3.402.02a.415.415 0 0 0 .475-.342l.002-.017c.034-.203.088-.403.159-.596.1-.259.02-.697.318-.736.339-.04.219.477.498.676a156.58 156.58 0 0 1 2.447-2.984c-.657-.318-1.254-.239-1.87-.06zm-1.134 13.01c-.179.159-.12.319-.02.498a122.323 122.323 0 0 1 1.571 3.282c.16.378.339.318.597.139a160.35 160.35 0 0 1 2.387-1.412c-1.432-.836-2.785-1.651-4.157-2.447-.12-.06-.239-.199-.378-.06zm-.716-8.315c.099-.338-.06-.378-.339-.378-1.074 0-2.148.02-3.222-.02-.438-.02-.498.14-.498.517.02 1.055.02 2.109-.019 3.163-.04 1.671-.04 1.671 1.432 2.507.278.159.577.318.935.537.577-2.148 1.134-4.237 1.711-6.326zm.198-10.265a1.15 1.15 0 0 0 1.492.518c.397-.205.782-.431 1.154-.677-.815-.795-1.551-1.532-2.307-2.268s-.756-.756-1.89-.298c.517.915 1.034 1.81 1.551 2.725zm-.409-4.476c.059-.099.199-.139.179-.318-.844-.418-1.62-1.054-2.547-1.412-.019.04-.039.099-.059.139.537.537 1.094 1.054 1.591 1.611.338.378.577.358.836-.02zm.111.358c-.099.1-.318.18-.179.398a.414.414 0 0 0 .517.219c.378-.139.796-.219 1.254-.338-1.095-.796-1.114-.796-1.592-.279zm3.191 4.337c-.398-.079-.776.398-1.194.577-.179.08-.358.179-.557.259-.338.139-.358.298-.179.616.478.776.915 1.572 1.353 2.368.517.895.497.875 1.492.636.239-.059.557-.318.756-.079.219.278-.239.417-.298.656-.02.04 0 .08 0 .119 1.245.239 2.506.438 3.791.657a2.292 2.292 0 0 0 -.736-1.512c-1.134-1.074-2.228-2.208-3.334-3.322-.358-.338-.637-.875-1.094-.975zm4.945 6.107a226.194 226.194 0 0 1 -3.6-.636.48.48 0 0 0 -.537.199 105.7 105.7 0 0 1 -2.388 2.844.516.516 0 0 0 -.099.617c.418 1.134.836 2.288 1.253 3.422.08.199.159.358.418.397 1.273.219 2.526.438 3.839.657.219.099.319-.099.458-.259.776-.915 1.532-1.85 2.307-2.745a.608.608 0 0 0 .12-.716c-.418-1.094-.816-2.208-1.214-3.302a.638.638 0 0 0 -.557-.478zm.06 16.094c.875.676 1.77.756 2.745.318 0 0 .02-.02.139-.119-.915-.915-1.81-1.791-2.685-2.666a.277.277 0 0 0 -.378-.04c-.676.398-1.333.776-2.049 1.174.776.457 1.552.835 2.228 1.333zm-2.347-1.035v2.387c0 .239.079.299.298.239.915-.239 1.83-.497 2.865-.756a275.17 275.17 0 0 0 -3.163-1.87zm9.449-7.141h.008c0-.478-.02-.796 0-1.094.04-.378-.08-.438-.458-.339a267.354 267.354 0 0 1 -5.809 1.532c-.298.08-.417.179-.218.497.557.916 1.094 1.85 1.591 2.805.199.358.358.339.676.16.995-.577 1.99-1.194 3.024-1.711.915-.418 1.524-.915 1.186-1.85zm-.398-4.357c-.935.02-1.87 0-2.785 0s-.915 0-1.174.895c-.079.279-.02.736-.358.796s-.199-.477-.477-.656l-2.467 2.944c.656.378 1.293.238 1.93.059a390.91 390.91 0 0 1 4.476-1.213c1.233-.338 1.233-.318 1.253-1.572 0-.238.04-.497.06-.736.039-.358-.06-.517-.458-.517zm.477 6.386c.04-.418-.079-.517-.457-.299a227.71 227.71 0 0 1 -3.72 2.109c-.139.08-.358.099-.299.338.06.239.219.259.418.279.796.059 1.612.139 2.407.199 1.651.139 1.651.139 1.651-1.512 0-.378-.019-.736 0-1.114zm-5.152 2.665c-.557-.119-.895.279-1.333.478-.358.159-.378.278-.099.557.696.676 1.412 1.333 2.049 2.069.457.537.915.597 1.512.358.298-.12.318-.219.179-.478a56.7 56.7 0 0 1 -1.373-2.407c-.219-.417-.457-.696-.935-.577zm1.413 4.277a.438.438 0 0 0 -.538-.198c-.378.119-.775.198-1.233.318 1.094.795 1.094.795 1.572.278.099-.119.318-.199.199-.398zm-2.328-4.456c.22-.118.445-.224.676-.318.358-.139.398-.318.199-.656-.477-.796-.974-1.592-1.372-2.427-.319-.637-.677-.896-1.373-.577-.259.119-.637.358-.855.099-.219-.258.318-.418.318-.756-1.253-.219-2.507-.437-3.78-.656 0 .776.418 1.213.856 1.651 1.134 1.114 2.248 2.248 3.382 3.382.855.855.855.855 1.949.258zm-.358-12.174c.438 1.174.855 2.347 1.313 3.581.477-.378.776-.736.915-1.293.378-1.552.835-3.104 1.233-4.655.12-.458.398-.955.299-1.373-.1-.418-.756-.497-1.114-.776a3.963 3.963 0 0 1 -.358-.258c-.358-.279-.597-.319-.836.159-.398.795-.875 1.531-1.333 2.307-.477.836-.477.816.179 1.492.199.199.597.378.498.637-.092.338-.518-.02-.796.179zm1.731-5.689c.159-.18.059-.359-.02-.518-.517-1.094-1.055-2.188-1.572-3.282-.099-.219-.199-.318-.457-.159-.796.477-1.632.955-2.527 1.472 1.413.835 2.746 1.631 4.098 2.407.139.08.279.298.478.08zm.636-.538a.78.78 0 0 0 -.02.697c.259.776.995.935 1.592 1.332.298-1.113.557-2.228.895-3.322.199-.577.04-.954-.398-1.332-.259-.219-.378-.279-.577.059a83.717 83.717 0 0 1 -1.492 2.566zm3.768 3.76a34.969 34.969 0 0 0 -2.01-1.19c-.577 2.148-1.153 4.255-1.73 6.362-.079.319.06.339.318.339 1.055 0 2.109-.04 3.163.019.498.02.597-.179.577-.596 0-1.433 0-2.845.02-4.277a.656.656 0 0 0 -.338-.657zm.052 15.218c-1.254-.119-2.527-.199-3.919-.318.636 1.074 1.173 2.049 1.83 3.203.776-.836 1.492-1.612 2.188-2.367.179-.199.338-.478-.099-.518zm.258 1.094c-.477.478-1.014.995-1.512 1.472 1.433-.019 1.572-.159 1.512-1.472zm-.099 5.67c.04-.02.06-.02.099-.04v-4.177c-.636.159-1.233.338-1.83.477-.298.06-.318.179-.179.418.645 1.114 1.273 2.228 1.91 3.322zm-1.015-1.154-1.134-1.969c-.079-.14-.179-.498-.398-.159-.159.199-.696.298-.318.736a59.138 59.138 0 0 0 1.93 1.969.516.516 0 0 0 -.08-.577zm-.529.358c-.457-.477-.955-.915-1.392-1.412-.299-.319-.498-.358-.756 0-.068.099-.187.159-.358.298.994.577 1.87 1.114 2.765 1.651.099-.298-.12-.398-.259-.537zm.092.995a.683.683 0 0 1 .079-.179l-2.148-1.253c-.796-.478-1.035-.398-1.452.497 1.173.318 2.347.616 3.521.935zm-3.183-1.93a.381.381 0 0 0 -.04-.159c-.517-.239-.895-.796-1.532-.656-.827.179-1.671.437-2.486.656a.345.345 0 0 1 -.02.139c.974.259 1.969.537 2.944.796.258.06 1.094-.517 1.134-.776zm-4.814 4.675.179.119c1.074-1.133 2.168-2.248 3.242-3.381.14-.14.378-.299-.04-.398-1.014-.259-2.029-.557-3.043-.836-.219-.059-.358-.04-.358.239.02 1.432.02 2.845.02 4.257zm.107-8.335c.597-.338 1.174-.696 1.771-1.015.238-.139.218-.218.039-.397-1.559-1.532-3.083-3.064-4.675-4.655-.656 1.114-1.253 2.168-1.889 3.222-.159.259-.08.378.159.517a248.89 248.89 0 0 1 3.899 2.288.632.632 0 0 0 .696.04zm-.386 1.114c.02-.318-.02-.497-.398-.259-.736.458-1.492.876-2.228 1.313-.099.06-.238.1-.219.259.02.159.14.239.299.278.398.1.796.219 1.193.319 1.353.358 1.353.358 1.353-1.055zm-2.506 1.89c.358 1.094.596 1.154 1.889.497-.636-.159-1.213-.318-1.889-.497zm2.327 5.013c.04 0 .06-.02.1-.02v-1.353c0-.457.019-.895.019-1.353 0-1.591 0-1.571-1.511-1.133-.339.099-.378.198-.239.497.557 1.114 1.094 2.248 1.631 3.362zm-3.322-2.924c.935.875 1.89 1.77 2.845 2.705-.378-.816-.776-1.631-1.154-2.447-.478-1.014-.478-.995-1.572-.696-.378.099-.398.199-.119.438zm.895-.955c.1-.02.199-.12.119-.239-.278-.398-.238-1.054-.895-1.134-.179-.02-1.432.577-1.512.736a.13.13 0 0 0 -.019.119c0 .14.815.836 1.014.856.418-.1.856-.219 1.293-.338zm-1.75.457c-.518-.278-.637-.975-1.154-.736-.955.497-1.93.995-2.785 1.691 1.293-.159 2.486-.617 3.939-.955zm-4.787.955-.002-.003c1.231-.596 2.363-1.351 3.595-2.046-.537-.557-.995-1.114-1.611-1.611-.677 1.213-1.353 2.427-2.029 3.62l.004.004c-.019.021-.037.057-.056.076zm-.485-.875c.02 0 .04.02.06.02.218-.836.457-1.691.676-2.527.219-.835.239-.855-.637-1.034-.019 0-.059.04-.119.059.02 1.154.02 2.308.02 3.482zm.696-3.74c.12.02.319.219.398-.06.06-.179.119-.338-.06-.497-.298-.279-.596-.577-.915-.895-.258 1.134-.179 1.293.577 1.452zm.597-.756c.338-1.273.637-2.427.955-3.581.06-.179.119-.338-.1-.477-.656-.378-1.313-.756-2.088-1.214 0 1.174.079 2.228-.02 3.263-.1 1.034.676 1.372 1.253 2.009zm-1.074-27.492a.285.285 0 0 1 -.12.04c0 .835-.019 1.651.02 2.486.02.557-.278 1.353.159 1.592.378.199 1.075-.219 1.632-.358.02 0 .039-.02.059-.02.259-.04.299-.159.159-.378-.636-1.134-1.273-2.248-1.909-3.362zm.736.676c.497.876.994 1.731 1.492 2.606.119.219.258.199.358.02.119-.219.676-.298.338-.696-.637-.716-1.333-1.393-2.009-2.069-.06.04-.119.099-.179.139zm.517-.855c.676.557 1.492.935 2.228 1.392.855.518.915.498 1.512-.477-1.245-.239-2.439-.756-3.74-.915zm3.362 1.949c0 .04.02.14.06.16.517.238.915.815 1.591.656.816-.239 1.631-.458 2.427-.676v-.14c-.995-.278-2.009-.537-3.004-.795-.219-.06-1.054.577-1.074.795zm4.834-4.714c-.06-.04-.1-.08-.159-.12a898.623 898.623 0 0 1 -3.354 3.462c-.06.074-.113.154-.159.238 1.134.319 2.228.617 3.302.916.259.079.378 0 .378-.299zm-.111 8.355c-.645.398-1.301.756-2.097 1.213h.008c1.611 1.572 3.143 3.064 4.675 4.576.278.278.378.159.517-.1.537-.935 1.054-1.87 1.631-2.785.179-.298.159-.437-.159-.617a151.448 151.448 0 0 1 -3.839-2.267.625.625 0 0 0 -.736-.02zm.389-.617c.955-.557 1.811-1.074 2.686-1.571.099-.06.179-.12.159-.239-.04-.199-.199-.239-.358-.279a40.895 40.895 0 0 1 -2.089-.577c-.298-.099-.417-.02-.398.299zm2.447-2.467c-.219-1.014-.716-1.153-1.75-.417.596.139 1.134.397 1.75.417zm-2.407-4.893v2.705c0 1.631.08 1.671 1.631 1.054.259-.099.239-.218.14-.417a267.937 267.937 0 0 1 -1.612-3.362c-.059 0-.099.02-.159.02zm.716.358c.339.736.657 1.392.975 2.069.597 1.253.617 1.253 1.93.795a.055.055 0 0 1 .02-.039c-.319-.557-2.427-2.626-2.925-2.825zm3.183 3.123c-.457.119-.875.219-1.293.338-.059.02-.159.08-.159.139-.099.358.716 1.353 1.054 1.234a8.694 8.694 0 0 0 1.333-.736.164.164 0 0 0 .04-.159c-.318-.259-.537-.677-.975-.816zm4.305-1.094c-1.074.278-2.128.537-3.183.835-.159.04-.597-.02-.437.299.159.318.417.835.815.636.967-.497 1.91-1.114 2.857-1.651h.008zm-2.614 2.049c.517.537.995 1.054 1.532 1.611.477-.835.975-1.671 1.452-2.506.199-.358.517-.677.537-1.134-1.233.597-2.387 1.372-3.521 2.029zm3.402-.995c-.497.856-.995 1.691-1.492 2.546-.08.14-.199.359.079.359.279 0 .637.437.776-.02.319-.935.545-1.91.796-2.845a.46.46 0 0 0 -.159-.04zm.505-.06c-.259.995-.537 1.97-.796 2.965-.139.557.378.358.597.457.358.179.279-.159.279-.338.012-1.035.012-2.049.012-3.084zm9.282 15.278c-1.114-.636-2.228-1.253-3.342-1.909-.239-.14-.318-.06-.378.179a20.71 20.71 0 0 1 -.398 1.492c-.119.358.04.378.319.378h3.74c.023-.045.043-.092.059-.14zm-9.031 2.348c-.06.378.119.437.457.338.955-.279 1.91-.577 2.865-.756.676-.119.855-.497.975-1.054.059-.299 0-.418-.319-.418-.835.02-1.643 0-2.407 0-.795-.259-1.193.159-1.472.736-.199.378-.04.776-.099 1.154zm4.555-2.666c.677-1.85.677-1.85-.676-2.546.239.875.438 1.631.676 2.546zm-.298 2.467c-.1.398-.299.795-.279 1.253 1.055-.358 1.174-.517.935-1.194-.039-.139-.039-.338-.278-.318-.179.02-.338.08-.378.259zm.597-1.413c.079.239-.06.756.437.637 1.074-.259 2.129-.557 3.183-.836a.15.15 0 0 1 -.04-.079h-3.202c-.179 0-.498-.06-.378.278zm.485.975c-.358.119-.08.458-.06.676.02.14.08.299.279.179.867-.477 1.722-.974 2.597-1.451-.991.041-1.904.318-2.816.596zm-.147 1.611a.257.257 0 0 0 -.139-.079c-.279-.02-1.313.776-1.393 1.094-.219.756-.438 1.532-.656 2.347.238.06.338-.099.457-.199.557-.537 1.114-1.094 1.671-1.651.318-.318.358-1.173.06-1.512zm-1.81.856a223.48 223.48 0 0 0 -3.163 1.79c.736.438 1.352.816 1.989 1.174.119.079.298.239.378-.04.258-.935.517-1.87.796-2.924zm-1.532.497c.457-.259.895-.517 1.353-.756a.675.675 0 0 0 .377-.457c.1-.438.219-.856.359-1.373-.637.159-1.194.279-1.751.458-.736.238-1.79.119-2.129.736l-.019 2.407c.636-.358 1.233-.677 1.81-1.015zm2.108-4.535c.179 0 .418.039.319-.279a74.714 74.714 0 0 0 -.756-2.805c-.1-.318-.318-.457-.577-.099a82.915 82.915 0 0 1 -2.149 3.183zm-.855-3.939a.4.4 0 0 0 .1-.458c-.18-.716-.398-1.432-.577-2.148-.06-.239-.12-.319-.358-.179-.677.398-1.353.776-2.109 1.213.895.517 1.731.995 2.566 1.452.119.06.219.219.378.12zm.139-1.433c.1.259.08.577.299.816.616-.796.616-.796-.06-1.472-.119-.119-.259-.219-.378-.318a.259.259 0 0 0 -.06.079c.048.303.114.602.199.895zm.864-.517c.199.179.278.179.417-.04.669-.994 1.365-2.009 2.121-3.103h.008c-.179 0-.219-.02-.259 0-.696.398-1.392.776-2.088 1.174-1.472.835-1.453.815-.199 1.969zm-.008 1.094c-.1.179-.219.338-.338.518a.596.596 0 0 0 .119.875 7.73 7.73 0 0 0 1.114.656c.139.08.239.04.278-.099.1-.358.179-.677.279-1.055-.219-.338-.597-.596-.875-.935-.219-.258-.398-.338-.577.04zm4.396 6.068-.079-.06c-.697.378-1.413.756-2.109 1.134-.915.497-.895.497-.597 1.472a.33.33 0 0 0 .06.079c.915-.875 1.81-1.75 2.725-2.625zm-1.512 8.554a563.68 563.68 0 0 1 -1.333-5.013c-.915.875-1.77 1.75-2.665 2.645 1.253.736 2.566 1.512 3.998 2.368zm-2.944-1.393c-1.353-.796-1.333-.796-1.731.716-.099.398.04.478.358.498 1.214.079 2.447.179 3.76.278zm2.029 1.85c-.02-.02-.02-.059-.04-.079-1.153-.1-2.287-.179-3.441-.259-.219-.02-.478-.099-.557.219-.1.398-.199.815-.318 1.293a375.5 375.5 0 0 1 4.356-1.174zm-3.839-2.288c-.498.518-.975.896-1.353 1.433 1.114.199.995.418 1.353-1.433zm-.498 2.03c-.159-.398-.616-.199-.935-.219-.616-.06-.775.219-.775 1.154.02.974-.16.935.895.676.358-.1.975-1.214.815-1.611zm-1.71 5.808c.039 0 .099.02.139.02.358-1.293.696-2.606 1.074-3.978a5.096 5.096 0 0 1 -.656.159c-.478.04-.597.278-.577.736.04 1.014.02 2.049.02 3.063zm.099-6.405a.474.474 0 0 0 .438-.179 53.976 53.976 0 0 1 1.532-1.532c.198-.199.179-.318-.06-.458-.657-.377-1.285-.775-2.049-1.213v2.964c0 .139-.1.338.139.418zm-.119-11.439v1.552c0 .139-.12.338.099.418.219.079.378-.04.498-.239.676-1.015 1.372-2.009 2.068-3.004.16-.239.16-.378-.119-.517a35.694 35.694 0 0 1 -2.089-1.194c-.338-.199-.417-.079-.417.259zm.059-4.237c0 .318.12.338.378.199.637-.358 1.274-.716 1.93-1.094-.756-.736-1.492-1.432-2.308-2.228zm1.142-5.649c-.326-1.234-.644-2.467-.982-3.701h-.112c0 .995.06 1.99-.02 2.984-.059.677.219.896.796.995.298.06.398.02.318-.278zm.331 1.253c-.12-.458-.796-.895-1.254-.796a.166.166 0 0 0 -.139.08c-.119.159-.04 1.452.099 1.611.637.617 1.274 1.253 1.91 1.89a.482.482 0 0 0 .1-.06c-.239-.915-.478-1.83-.716-2.725zm.218-.438c.339 1.293.657 2.507.995 3.74 1.373-.776 2.705-1.532 4.158-2.347-1.791-.478-3.422-.935-5.153-1.393zm4.993 2.785c-.059-.02-.119-.059-.179-.079-.437.616-.855 1.233-1.293 1.85-.795 1.153-.795 1.153.259 2.108.02.02.08.02.139.04.378-1.313.716-2.626 1.074-3.919zm-.954 4.755c0 .378-.537.835-.1 1.153.856.577 1.791 1.035 2.706 1.552.02-.02.02-.06.039-.08-.875-.875-1.75-1.75-2.645-2.625zm-25.081 20.135.004-.004.037.037-.006.003z" fill="#05bca9" fill-rule="evenodd"/></svg>