<svg height="40" width="40" xmlns="http://www.w3.org/2000/svg"><g fill-rule="evenodd"><path d="m40 20c0 11.042-8.958 20-20 20s-20-8.958-20-20 8.958-20 20-20 20 8.958 20 20z" fill="#152743"/><path d="m21.108 11.133c-1.641 0-2.975-1.3-2.975-2.9s1.334-2.9 2.975-2.9c1.642 0 2.975 1.3 2.975 2.9s-1.333 2.9-2.975 2.9zm-7.108 5.534c0-1.95 1.625-3.534 3.617-3.534v15.134h-3.617z" fill="#c6b458"/><path d="m24.667 13.142h-5.434v3.275h.009v8.566h-.009v3.275h.009v6.317h3.616v-6.317h1.809c2.575 0 4.658-2.033 4.658-4.541v-6.05c0-2.492-2.083-4.525-4.658-4.525zm1.291 10.583c0 .7-.575 1.258-1.291 1.258h-1.809v-8.566h1.809c.716 0 1.291.566 1.291 1.258z" fill="#fff"/></g></svg>