<svg height="40" width="40" xmlns="http://www.w3.org/2000/svg"><path d="m20 40c-11.043 0-20-8.957-20-20s8.957-20 20-20 20 8.957 20 20-8.957 20-20 20zm18.884-17.663-1.617-.073-.033.68 1.617.072zm-.765 3.722-1.532-.534-.224.64 1.531.535zm-1.954 3.901.396-.548-1.307-.95-.396.548zm-2.132 2.733.469-.488-1.162-1.123-.469.489zm-2.601 2.541.535-.422-1.003-1.274-.535.422zm-3.062 1.875.64-.231-.555-1.525-.64.231zm-3.439 1.188.666-.119-.283-1.597-.667.119zm-3.631.759h.02l.673-.059-.145-1.611h-.02l-.673.06zm-3.689-.145.679-.007-.013-1.617-.68.007zm-2.925-.548.265-1.597-.667-.113-.264 1.598zm-3.353-1.287.753-1.433-.601-.316-.752 1.432zm-3.023-2.02.938-1.32-.555-.396-.937 1.32zm-2.594-2.304 1.116-1.174-.495-.469-1.116 1.175zm-2.29-2.884 1.406-.805-.337-.588-1.406.805zm-1.618-3.452 1.578-.37-.152-.66-1.577.37zm-.818-3.433 1.611-.165-.066-.673-1.611.165zm-.218-3.802 1.617.014.007-.68-1.617-.013zm.416-3.498 1.604.225.093-.667-1.604-.225zm1.38-4.257-.278.614 1.472.673.278-.614zm2.019-3.083-.448.508 1.214 1.07.449-.508zm2.37-2.528-.515.442 1.056 1.228.515-.442zm-3.795 14.185c0 9.28 7.557 16.838 16.838 16.838 9.287 0 16.838-7.558 16.838-16.838 0-9.287-7.558-16.838-16.838-16.838-9.281 0-16.838 7.557-16.838 16.838zm6.627-16.475-.568.369.878 1.36.568-.37zm3.214-1.591-.653.178.409 1.558.654-.172zm3.538-.865-.673.06.132 1.617.673-.06zm3.69-.429h-.68v1.617h.68zm2.977.429-.132 1.617.673.06.132-1.617zm3.538.865-.409 1.564.653.172.409-1.564zm3.221 1.591-.885 1.359.568.37.885-1.36zm2.825 2.29-1.056 1.228.515.442 1.056-1.228zm2.37 2.528-1.215 1.07.449.508 1.214-1.07zm2.026 3.083-1.472.68.277.613 1.472-.673zm1.287 3.584-1.604.224.093.674 1.604-.225zm-1.115 3.505.006.68 1.618-.014-.007-.679zm-16.657-7.939c.369 0 2.072.04 2.429.126 3.122.745 4.257 2.851 4.25 7.485l.007 1.874c0 .198-.02 2.7-.013 2.898.112 2.508-.607 3.597-1.743 4.68l.977.99.502.508c.27.291.277.733.02 1.004-.265.264-.707.25-.997-.027l-.502-.508-1.148-1.162a4.994 4.994 0 0 1 -2.39.489h-3.162c-2.864.099-5.505-1.327-5.293-5.974.006-.198-.013-2.7-.013-2.898l.006-1.874c-.006-4.64 1.129-6.74 4.251-7.485.35-.079 2.284-.126 2.654-.126zm-4.859 2.957c-.501.806-.732 2.594-.732 4.647 0 .106-.007-.165-.007.608v1.841c.013 2.258.013 2.264.007 2.389-.086 1.803.323 2.548 1.168 3.433.786.825 1.762.997 2.442.997h3.558c.356 0 .72-.053 1.096-.152l-.647-.654-.502-.508c-.27-.29-.284-.733-.013-.997.264-.264.706-.257.997.02l.501.508.905.918c.046-.04.086-.086.132-.132.845-.891 1.247-1.63 1.168-3.433-.007-.125-.007-.131.007-2.389v-1.841c-.007-.773-.007-.502-.007-.608 0-2.053-.231-3.841-.733-4.647-.297-.481-.812-1.016-2.363-1.392-.303-.047-1.643-.093-2.112-.093h-.165c-.469 0-2.033.046-2.337.093-1.551.376-2.066.917-2.363 1.392z" fill="#1347e8" fill-rule="evenodd"/></svg>