<svg height="36" width="40" xmlns="http://www.w3.org/2000/svg"><path d="m23.372.318c.621-.317 1.467-.082 1.809.544.261.372.243.852.126 1.27 2.124 1.541 4.24 3.092 6.373 4.633.288-.2.63-.363.99-.317.801.009 1.459.825 1.324 1.614-.045.417-.324.761-.649 1.006.802 2.503 1.621 4.996 2.413 7.49.522.009 1.053.236 1.314.707.378.58.216 1.397-.306 1.823-.279.245-.648.308-1.008.335-.918 2.875-1.845 5.731-2.764 8.596l3.601 3.11c.441-.317.981-.535 1.539-.453 1.008.082 1.855 1.034 1.828 2.049.018.934-.693 1.814-1.594 2.004-.864.209-1.818-.208-2.232-.997-.405-.626-.324-1.442.009-2.077-1.197-1.024-2.376-2.058-3.574-3.083-2.421 1.759-4.843 3.528-7.264 5.287.117.417.144.888-.117 1.26-.333.617-1.161.861-1.782.571-.396-.181-.667-.553-.81-.952h-7.706c-.135.372-.369.726-.729.907-.63.354-1.521.109-1.872-.544-.252-.363-.216-.834-.109-1.242-2.133-1.542-4.257-3.083-6.382-4.616-.342.227-.756.372-1.17.281-.72-.127-1.269-.888-1.125-1.614.054-.417.324-.752.639-.997-.81-2.512-1.62-5.014-2.43-7.526-.514 0-1.045-.236-1.297-.707-.441-.662-.135-1.632.559-1.986.234-.127.503-.154.765-.172.801-2.476 1.602-4.96 2.403-7.445-.351-.263-.621-.644-.648-1.088-.099-.789.585-1.56 1.377-1.541.342-.028.657.136.945.317 2.125-1.541 4.24-3.092 6.364-4.633-.099-.4-.143-.844.082-1.206.279-.554.945-.853 1.539-.717.531.091.918.544 1.089 1.043h7.706c.143-.39.387-.753.774-.934zm-8.48 1.623c-.09.2-.189.39-.288.571 1.197 1.66 2.403 3.31 3.601 4.969.342-.09.702-.09 1.053-.009 1.206-1.659 2.421-3.309 3.628-4.969a6.196 6.196 0 0 1 -.288-.562zm-8.669 5.377c.063.254.09.517.081.78.775.335 1.549.68 2.323 1.016.189-.173.378-.354.612-.445.243-.1.513-.1.774-.1.873-1.967 1.774-3.935 2.638-5.912-2.152 1.542-4.285 3.111-6.428 4.661zm18.625-4.652c.864 1.977 1.755 3.936 2.637 5.903.261 0 .541 0 .793.109.225.091.405.263.585.436.774-.345 1.548-.681 2.322-1.016 0-.263.027-.517.081-.78-2.142-1.55-4.267-3.119-6.418-4.652zm-11.594.345c-.873 1.95-1.747 3.899-2.611 5.858.171.181.324.371.45.589l6.229-.816c.081-.254.18-.499.325-.725-1.207-1.66-2.395-3.328-3.601-4.978a3.872 3.872 0 0 1 -.792.072zm10.19-.072c-1.207 1.659-2.395 3.318-3.592 4.978.135.226.243.471.306.725 2.079.272 4.159.544 6.247.807.126-.209.279-.408.45-.589l-2.619-5.849c-.27 0-.531-.027-.792-.072zm-18.103 6.274c.171 2.485.315 4.978.522 7.463.216-.327.379-.671.558-1.007.802-1.541 1.594-3.083 2.395-4.615-.333-.354-.54-.816-.459-1.306-.774-.335-1.549-.671-2.314-1.006-.207.19-.45.353-.702.471zm23.801.526c0 .236.018.472-.063.689-.081.236-.243.426-.396.617.918 1.75 1.836 3.491 2.754 5.232.063.127.153.245.234.362.045-.326.063-.652.081-.988.135-2.14.279-4.289.405-6.429a2.708 2.708 0 0 1 -.711-.489c-.765.335-1.539.68-2.304 1.006zm-17.968.417c-.063.363-.261.671-.513.934.855 1.832 1.711 3.663 2.566 5.486.225.009.45.018.675.036 1.278-2.248 2.565-4.506 3.853-6.764a10.01 10.01 0 0 1 -.342-.508c-2.08.263-4.159.544-6.239.816zm8.894-.789a4.717 4.717 0 0 1 -.351.49c1.287 2.258 2.583 4.507 3.871 6.764.225-.027.45-.045.675-.045.855-1.832 1.719-3.654 2.565-5.486-.243-.263-.45-.58-.513-.943-2.079-.254-4.168-.517-6.247-.78zm-17.67 7.381c.279.245.531.535.63.898h1.179c.162-.453.495-.834.945-1.007-.153-2.321-.315-4.651-.477-6.972-.756 2.366-1.521 4.724-2.277 7.081zm29.984-.145c.207.109.432.2.585.381.18.181.279.426.378.662h1.126c.117-.354.351-.635.639-.861-.756-2.367-1.521-4.725-2.287-7.091-.153 2.303-.297 4.606-.441 6.909zm-17.886.363c.162.208.297.435.396.68h7.706c.099-.245.234-.472.396-.68-1.288-2.258-2.584-4.507-3.88-6.764a3.372 3.372 0 0 1 -.738 0c-1.296 2.248-2.584 4.506-3.88 6.764zm-5.068-5.586-2.89 5.55c.19.208.343.453.442.716h5.14c.108-.281.279-.535.486-.753-.847-1.831-1.711-3.663-2.566-5.485zm18.03.028c-.846 1.831-1.701 3.672-2.547 5.503.198.218.351.463.459.735h5.176a2.68 2.68 0 0 1 .432-.744c-.963-1.84-1.935-3.681-2.899-5.531-.207.018-.414.027-.621.037zm-25.087 7.77a1658.9 1658.9 0 0 1 2.304 7.146l.486-6.973c-.459-.173-.792-.553-.954-1.007-.396 0-.801-.009-1.197 0-.126.336-.369.608-.639.834zm4.618-.834a2.624 2.624 0 0 1 -.451.726c.964 1.849 1.927 3.69 2.881 5.54.207-.009.414-.009.612-.009.864-1.832 1.719-3.663 2.575-5.495a2.441 2.441 0 0 1 -.486-.762c-1.711-.009-3.421 0-5.131 0zm7.903 0a2.839 2.839 0 0 1 -.396.68c1.287 2.24 2.574 4.489 3.853 6.728.261-.036.531-.036.792 0 1.287-2.239 2.565-4.479 3.853-6.728a2.839 2.839 0 0 1 -.396-.68c-2.566 0-5.131-.009-7.706 0zm10.478 0a2.304 2.304 0 0 1 -.486.753c.855 1.841 1.719 3.672 2.574 5.504.207 0 .414 0 .621.018.973-1.868 1.954-3.727 2.935-5.586a2.415 2.415 0 0 1 -.441-.689c-1.737 0-3.466-.009-5.203 0zm7.948 0a1.592 1.592 0 0 1 -.945.97c.144 2.331.297 4.661.45 6.982.756-2.366 1.522-4.724 2.287-7.09-.279-.227-.522-.508-.639-.862zm-27.545 2.122c-.144 2.104-.297 4.207-.432 6.311.252.118.486.272.693.462.774-.326 1.549-.662 2.323-1.006-.081-.481.135-.943.459-1.288-.99-1.868-1.926-3.772-2.944-5.622-.063.381-.072.762-.099 1.143zm7.454-1.061-2.566 5.495c.252.263.45.58.522.943 2.08.254 4.15.517 6.23.771.108-.173.225-.345.342-.517-1.288-2.24-2.566-4.479-3.853-6.719-.225.018-.45.027-.675.027zm10.361-.027c-1.288 2.24-2.566 4.479-3.853 6.719.126.172.234.344.342.526 2.079-.272 4.159-.526 6.238-.78.072-.363.27-.68.522-.934-.864-1.841-1.719-3.672-2.574-5.504-.225 0-.45-.009-.675-.027zm7.426 1.133c-.774 1.478-1.557 2.956-2.331 4.434.333.354.531.816.459 1.306 1.026.435 2.043.889 3.069 1.333-.18-2.766-.333-5.522-.54-8.288-.243.39-.441.807-.657 1.215zm-19.921 6.021a3.661 3.661 0 0 1 -.45.608c.864 1.949 1.738 3.89 2.611 5.839a3.32 3.32 0 0 1 .792.073c1.206-1.669 2.412-3.328 3.61-5.006a2.452 2.452 0 0 1 -.324-.743c-2.08-.254-4.159-.517-6.239-.771zm9.065.771a2.63 2.63 0 0 1 -.324.752c1.206 1.66 2.403 3.328 3.61 4.997.261-.055.522-.073.792-.073.864-1.958 1.737-3.908 2.592-5.876a3.43 3.43 0 0 1 -.432-.58c-2.079.263-4.159.526-6.238.78zm-13.854.589c.009.272-.018.535-.09.798 2.143 1.542 4.276 3.11 6.437 4.643-.864-1.977-1.765-3.936-2.638-5.912-.243 0-.495.018-.729-.073-.261-.1-.459-.281-.657-.462zm22.55-.997c-.351.39-.855.598-1.369.526-.882 1.967-1.773 3.935-2.637 5.912 2.358-1.696 4.699-3.419 7.048-5.123a174.243 174.243 0 0 0 -3.042-1.315zm-10.649 1.578c-1.198 1.668-2.404 3.327-3.61 5.005.108.181.207.372.297.571h7.706a6.73 6.73 0 0 1 .296-.58c-1.197-1.669-2.412-3.319-3.6-4.996-.36.081-.729.09-1.089 0z" fill="#2ea7de" fill-rule="evenodd"/></svg>