<svg height="40" width="40" xmlns="http://www.w3.org/2000/svg"><g fill-rule="evenodd"><path d="m20 0c11.046 0 20 8.954 20 20s-8.954 20-20 20-20-8.954-20-20 8.954-20 20-20z" fill="#f47f22"/><path d="m35.129 6.928a20.054 20.054 0 0 0 -7.095-5.244l-4.772 8.964zm-11.871 3.731 1.681 16.655 14.333-12.659a19.956 19.956 0 0 0 -4.142-7.727l-11.867 3.72z" fill="#f47f22"/><path d="m23.262 10.648 4.772-8.964a19.869 19.869 0 0 0 -5.842-1.562l1.064 10.528z" fill="#35a9e1"/><path d="m24.939 27.314 1.184 11.727c8.05-2.585 13.877-10.132 13.877-19.041 0-1.852-.257-3.643-.728-5.345z" fill="#fccb32"/><path d="m23.257 10.65-17 5.33 6.728 13.978 10.273-19.299z" fill="#cf3627"/><path d="m12.985 29.958 2.672 5.553 9.282-8.197-1.681-16.655z" fill="#ee3f26"/><path d="m15.657 35.511 2.099 4.36a19.99 19.99 0 0 0 8.367-.829l-1.184-11.727z" fill="#f05048"/><path d="m12.312 38.466a19.912 19.912 0 0 0 5.444 1.406l-2.099-4.36z" fill="#7cc245"/><path d="m12.985 29.958-3.69 6.932a19.83 19.83 0 0 0 3.016 1.576l3.346-2.955z" fill="#51b34b"/><path d="m6.257 15.98-6.147 1.927a20.318 20.318 0 0 0 -.109 2.093c0 7.106 3.709 13.342 9.294 16.89l3.69-6.932z" fill="#4caa4c"/><path d="m3.07 9.359a19.863 19.863 0 0 0 -2.96 8.548l6.147-1.927z" fill="#0161ad"/><path d="m23.257 10.65-1.063-10.528a20.11 20.11 0 0 0 -2.194-.122c-7.133 0-13.39 3.738-16.93 9.359l3.187 6.621z" fill="#1e85ca"/><path d="m23.678 4.398-.478 1.402c4.167 2.257 8.205 6.27 10.398 9.768l1.435-.433c-2.346-3.823-6.778-8.26-11.355-10.737z" fill="#444344"/><path d="m30.627 1.148a7.189 7.189 0 0 0 -6.254 3.645 7.192 7.192 0 0 0 -.429.883c-.031.078-.056.159-.083.24-.025.072-.053.144-.076.217 3.752 2.184 7.329 5.712 9.472 8.914.032-.013.065-.022.097-.035a6.58 6.58 0 0 0 .692-.335 7.186 7.186 0 0 0 3.781-6.328 7.2 7.2 0 0 0 -7.2-7.201z" fill="#ee3f26"/><path d="m23.861 5.916c-.025.072-.053.144-.076.217 3.752 2.184 7.329 5.712 9.472 8.914.032-.013.065-.022.097-.035a6.58 6.58 0 0 0 .692-.335c-2.277-3.185-6.176-6.708-10.185-8.761z" fill="#c03225"/></g></svg>