<svg xmlns="http://www.w3.org/2000/svg" width="34" height="40">
    <path fill="#5F2652" fill-rule="evenodd" d="M33.506 28.484L18.235.8a1.492 1.492 0 0 0-1.333-.8c-.563 0-1.063.295-1.334.8L.297 28.484c-.395.716-.166 1.642.542 2.064l15.292 9.241c.25.148.521.211.791.211.271 0 .542-.063.792-.211l15.271-9.221c.688-.442.937-1.368.521-2.084zM19.193 17.368c.333.148.667.316.959.506.02 0 .041.021.041.021.083.042.146.105.229.168a.357.357 0 0 1 .105.085c.062.041.145.105.208.168.041.042.083.063.125.105.062.063.125.105.187.168l.125.127.167.168.125.126c.042.064.104.127.146.169.042.042.083.105.125.148l.125.189c.041.063.083.105.104.168l.125.19c.042.063.063.126.104.168.042.063.062.127.104.189.042.064.063.127.104.19.021.063.063.126.084.189.042.085.062.169.104.232.167.421.292.863.354 1.347l.188.737c.083.316.833 3.011 2.583 3.916 2 1.053 4.646 2.358 5.687 2.863L17.672 38v-5.684c0-.906 1.771-1.958 2.584-2.316l.041-.021c.167-.084.334-.169.5-.274l.063-.042c.354-.21.687-.463 1-.736.021-.022.062-.043.083-.085.042-.021.063-.063.104-.084.105-.084.188-.189.292-.274l.042-.042c.104-.105.208-.211.291-.337.021-.042.063-.063.084-.105.083-.084.146-.19.229-.295.021-.021.042-.063.062-.084l.25-.379c0-.021.021-.021.021-.042.104-.169.208-.358.313-.526-.417-.505-.729-1.053-.98-1.558-.104.315-.25.631-.396.905-.062.126-.145.253-.208.379-.021.021-.021.042-.041.042-.063.106-.146.211-.208.295-.021.021-.042.063-.063.084-.063.105-.146.189-.229.274-.021.021-.021.042-.042.042a5.81 5.81 0 0 1-1.792 1.389l-.125.063c-.354.148-3.416 1.558-3.416 3.685v5.684l-13.75-8.274c.895-.547 3.479-2.105 5.604-2.779.833-.274 2.604.864 3.604 1.684l.062.063c.126.127.272.253.417.358l.042.042c.312.253.645.506 1.021.695l.25.127c.021 0 .041.021.041.021.229.126.459.231.709.336.041.021.062.021.104.043.021 0 .042.021.083.021.354.126.709.232 1.063.315.27-.526.666-.989 1.083-1.389a5.776 5.776 0 0 1-1.708-.379c-.021-.021-.063-.021-.084-.042-.062-.021-.125-.042-.187-.084-.021-.021-.063-.021-.084-.042-.062-.022-.124-.064-.166-.085a5.877 5.877 0 0 1-1.146-.736l-.542-.506a10.137 10.137 0 0 0-1.625-1.178c-1.354-.78-2.5-1.032-3.375-.759-1.812.59-3.875 1.706-5.124 2.443L16.152 2.927v10.926c0 .378-.563 1.389-2.459 2.252l-.125.063c-.187.084-.354.19-.541.295l-.042.021a8.459 8.459 0 0 0-1.021.737 4.63 4.63 0 0 0-.562.547l-.021.021c-.188.19-.354.379-.5.59l-.021.021c-.084.105-.146.21-.229.316 0 .021-.021.021-.021.042-.063.105-.125.189-.188.294 0 .022-.021.022-.021.043l-.187.315c-.021.021-.021.043-.042.085-.062.105-.104.21-.146.294 0 .021-.02.042-.02.042-.042.106-.084.19-.125.295-.021.042-.021.063-.042.105l-.125.316c-.021.042-.021.063-.042.105a1.01 1.01 0 0 1-.083.232c-.021.043-.021.084-.041.126-.021.106-.063.211-.084.295-.021.042-.021.105-.042.147-.02.064-.02.148-.041.211s-.021.126-.042.189c-.021.085-.021.169-.042.253 0 .063-.021.105-.021.169 0 .084-.02.147-.02.231 0 .084 0 .148-.021.232v.315c0 .379.021.779.083 1.137.542.127 1.104.358 1.709.653a6.567 6.567 0 0 1-.271-1.705v-.106c0-.147 0-.273.02-.421v-.105c0-.126.021-.231.042-.357v-.043c.021-.126.042-.253.063-.4 0-.042.02-.063.02-.105.021-.105.063-.211.084-.316 0-.021.021-.042.021-.063l.125-.379c.021-.021.021-.063.041-.084.042-.106.084-.211.125-.295.021-.021.021-.042.042-.084.063-.127.104-.232.188-.337.02-.021.02-.042.041-.063.063-.105.104-.19.167-.295.021-.021.021-.042.042-.063.062-.105.146-.211.229-.316 0 0 0-.021.02-.021.084-.105.146-.189.23-.295.021-.021.021-.042.041-.063a6.424 6.424 0 0 1 1.271-1.095l.646-.315c.354-.148 3.396-1.6 3.396-3.727V2.927l13.854 25.136a299.484 299.484 0 0 1-5.104-2.589c-.979-.506-1.625-2.295-1.813-2.948l-.187-.758c0-.4-.104-.8-.229-1.2a7.668 7.668 0 0 0-2.167-3.242l-.375-.316-.021-.021c-.125-.105-.25-.189-.375-.273l-.021-.021a6.507 6.507 0 0 0-.396-.253c-.02 0-.02-.021-.041-.021-.125-.084-.271-.147-.396-.211-.021 0-.021-.021-.042-.021A8.053 8.053 0 0 0 19.88 16c-.02 0-.02-.021-.041-.021-.125-.042-.25-.105-.375-.148a5.903 5.903 0 0 0-1.042-.294c-.27.526-.645.99-1.062 1.389a5.863 5.863 0 0 1 1.833.442z"/>
</svg>
