<svg height="40" width="27" xmlns="http://www.w3.org/2000/svg" xmlns:xlink="http://www.w3.org/1999/xlink"><linearGradient id="a" x1="0%" x2="76.604%" y1="0%" y2="64.279%"><stop offset="0" stop-color="#6cfacd"/><stop offset="1" stop-color="#5b8ff7"/></linearGradient><path d="m.341 0h13.154c1.329.208 2.693.022 4.013.3 2.939.532 5.6 2.354 7.145 4.872 1.827 2.916 2.066 6.717.676 9.851-1.259 2.884-3.891 5.142-6.967 5.96-1.952.556-4.003.348-6.008.386a7126.368 7126.368 0 0 1 10.283 16.835c-.895.616-1.991.988-2.732 1.796h-.116c-4.449-7.332-8.943-14.637-13.409-21.959 3.171-.016 6.343.024 9.512-.02 3.658-.098 6.857-3.284 6.934-6.888.24-3.113-1.811-6.217-4.809-7.241-1.242-.478-2.596-.456-3.909-.442-4.59 0-9.179 0-13.769-.002" fill="#63727c" fill-rule="evenodd"/><path d="m.341 0h13.154c1.329.208 2.693.022 4.013.3 2.939.532 5.6 2.354 7.145 4.872 1.827 2.916 2.066 6.717.676 9.851-1.259 2.884-3.891 5.142-6.967 5.96-1.952.556-4.003.348-6.008.386a7126.368 7126.368 0 0 1 10.283 16.835c-.895.616-1.991.988-2.732 1.796h-.116c-4.449-7.332-8.943-14.637-13.409-21.959 3.171-.016 6.343.024 9.512-.02 3.658-.098 6.857-3.284 6.934-6.888.24-3.113-1.811-6.217-4.809-7.241-1.242-.478-2.596-.456-3.909-.442-4.59 0-9.179 0-13.769-.002" fill="url(#a)"/></svg>