<svg height="40" width="40" xmlns="http://www.w3.org/2000/svg"><g fill-rule="evenodd"><path d="m19.861 23.38a4.32 4.32 0 0 0 -4.321 4.325c0 .455-.088.896-.264 1.312a3.373 3.373 0 0 1 -1.231 1.488 3.312 3.312 0 0 1 -.876.423c-.6.189-1.237.202-1.842.05a3.38 3.38 0 0 1 -2.271-4.584 3.365 3.365 0 0 1 1.23-1.488 3.333 3.333 0 0 1 1.886-.574 4.32 4.32 0 0 0 4.321-4.326 4.325 4.325 0 0 0 -4.321-4.326 12.05 12.05 0 0 0 -6.636 1.993 12.03 12.03 0 0 0 -5.191 12.214 12.003 12.003 0 0 0 3.173 6.161 12.04 12.04 0 0 0 6.15 3.418c2.346.498 4.788.29 7.008-.611a12.064 12.064 0 0 0 5.469-4.427 12.063 12.063 0 0 0 2.056-6.729c-.019-2.384-1.955-4.319-4.34-4.319z" fill="#00cfab"/><path d="m20.021 16.456a4.325 4.325 0 0 1 -4.321-4.326 3.288 3.288 0 0 0 -.574-1.886 3.42 3.42 0 0 0 -1.489-1.23 3.38 3.38 0 0 0 -2.624 0 3.446 3.446 0 0 0 -1.072.726c-.019.019-.042.031-.061.049-.018.019-.03.041-.048.06a3.375 3.375 0 0 0 1.072 5.505 3.35 3.35 0 0 0 1.312.265 4.32 4.32 0 0 1 .006 8.639 12.027 12.027 0 0 1 -11.12-7.422 12.02 12.02 0 0 1 -.682-6.949 12.04 12.04 0 0 1 3.299-6.155c.019-.019.042-.032.061-.05.018-.019.03-.041.049-.059a11.986 11.986 0 0 1 5.002-2.996 12.025 12.025 0 0 1 11.089 2.163 12.012 12.012 0 0 1 3.495 4.654c.624 1.482.946 3.071.927 4.686a4.325 4.325 0 0 1 -4.321 4.326z" fill="#00ffba"/><path d="m38.445 6.637a12.042 12.042 0 0 0 -3.52-4.156l-.006-.006a12.044 12.044 0 0 0 -6.132-2.333 12.038 12.038 0 0 0 -11.284 5.669 12.067 12.067 0 0 0 -1.786 6.312 4.325 4.325 0 0 0 4.321 4.326 4.324 4.324 0 0 0 4.321-4.326c0-.454.089-.895.265-1.311a3.38 3.38 0 0 1 2.107-1.911 3.388 3.388 0 0 1 1.571-.107 3.345 3.345 0 0 1 1.444.618c.417.309.757.712.997 1.173a3.405 3.405 0 0 1 .107 2.85 3.376 3.376 0 0 1 -1.23 1.488 3.318 3.318 0 0 1 -1.886.574 4.32 4.32 0 0 0 -4.321 4.326 4.325 4.325 0 0 0 4.321 4.326c2.063 0 4.088-.53 5.885-1.539a11.998 11.998 0 0 0 4.378-4.218 12.052 12.052 0 0 0 1.754-5.821 11.9 11.9 0 0 0 -1.306-5.934z" fill="#00cfab"/><path d="m38.76 22.894a12.036 12.036 0 0 0 -4.428-5.341 11.968 11.968 0 0 0 -6.648-1.999 4.32 4.32 0 0 0 -4.321 4.326 4.324 4.324 0 0 0 4.321 4.326 3.353 3.353 0 0 1 2.8 1.494c.309.461.505.997.555 1.551a3.333 3.333 0 0 1 -.239 1.627 3.326 3.326 0 0 1 -.701 1.06 3.386 3.386 0 0 1 -1.084.75 3.406 3.406 0 0 1 -2.65.007 3.418 3.418 0 0 1 -1.488-1.23 3.348 3.348 0 0 1 -.574-1.886 4.325 4.325 0 0 0 -4.321-4.326 4.324 4.324 0 0 0 -4.321 4.326c0 2.397.713 4.736 2.043 6.723a12.026 12.026 0 0 0 5.457 4.426 12.012 12.012 0 0 0 13.145-2.768 12.025 12.025 0 0 0 3.192-6.161 12.08 12.08 0 0 0 -.738-6.905z" fill="#00ffba"/></g></svg>