<svg xmlns="http://www.w3.org/2000/svg" width="40" height="41">
    <path fill="#CC1E46" fill-rule="evenodd" d="M37.769 28.98a20.065 20.065 0 0 1-4.825 6.601 19.549 19.549 0 0 1-10.681 4.917 19.497 19.497 0 0 1-10.688-1.692 19.577 19.577 0 0 1-6.491-4.902C2.039 30.476.238 25.952.06 21.34a20.44 20.44 0 0 1 2.356-10.457A20.04 20.04 0 0 1 7.305 4.84 19.608 19.608 0 0 1 17.815.381a19.494 19.494 0 0 1 11.329 2.281c2.071 1.118 3.936 2.636 5.494 4.423 2.64 3.021 4.348 6.884 4.825 10.9a20.602 20.602 0 0 1-1.694 10.995zm-3.159-9.506c.021-.334-.285-.509-.577-.479-6.155-.015-12.304.007-18.452-.008-.036-1.242.057-2.491-.078-3.733-.015-.174-.057-.406.128-.508 1.885-1.314 4.056-2.266 6.333-2.527.249-.007.363-.291.342-.508 0-.705.014-1.417-.007-2.121.007-.298-.278-.465-.541-.414-2.562.203-5.053 1.191-7.109 2.767-.869-1.177-2.206-2.019-3.665-2.084-1.523-.095-3.025.646-4.021 1.801-.754.886-1.117 2.062-1.124 3.231-.007 2.223-.007 4.452 0 6.682-.029.297.235.501.505.472 6.17.014 12.347-.022 18.516.022a49.72 49.72 0 0 0 .093 4.124c-1.758 1.308-3.821 2.23-5.978 2.571-.277.066-.754-.014-.818.385-.029.741 0 1.482-.014 2.222-.043.262.156.523.427.523a13.657 13.657 0 0 0 7.223-2.796c.768 1.024 1.871 1.83 3.145 2.027 1.8.326 3.686-.56 4.768-2.034.683-.937.918-2.128.918-3.275-.007-2.114.021-4.227-.014-6.34zm-3.786 8.604c-.954.378-2.121.007-2.704-.85a2.338 2.338 0 0 1-.42-1.387c0-1.242-.007-2.483 0-3.725 1.523 0 3.046-.008 4.569.007.014 1.242.007 2.484.007 3.733.007.944-.57 1.888-1.452 2.222zM8.728 19.274V15.36c.028-1.191 1.096-2.237 2.263-2.186 1.195-.022 2.277 1.053 2.305 2.273.029 1.271.008 2.542.008 3.813-1.523.036-3.046.014-4.576.014z"/>
</svg>
