<svg height="42" width="42" xmlns="http://www.w3.org/2000/svg"><g fill-rule="evenodd"><path d="m20.933 31.013c-.174.006-.348 0-.523 0l-.058-.001c-5.548-.181-9.898-4.813-9.717-10.346s4.825-9.873 10.373-9.692l.002-.002c5.54.042 9.971 4.621 9.971 10.146v9.895zm6.026-10.015c0-3.32-2.699-6.012-6.028-6.012s-6.028 2.692-6.028 6.012c0 3.321 2.699 6.013 6.028 6.013h6.028zm-21.514-12.611a2 2 0 0 1 -.001-2.834l.001-.001a2.013 2.013 0 0 1 2.841.001 2 2 0 0 1 -.001 2.834 2.012 2.012 0 0 1 -2.84 0z" fill="#20ee82"/><path d="m35.138 6.826c-6.875-6.857-17.491-7.705-25.294-2.547.226.249.42.525.577.823 7.406-4.875 17.494-4.064 24.007 2.433 7.442 7.423 7.442 19.502 0 26.925s-19.553 7.423-26.995 0c-6.512-6.496-7.326-16.557-2.441-23.943a4.035 4.035 0 0 1 -.825-.577c-5.174 7.782-4.32 18.372 2.555 25.229 7.847 7.827 20.568 7.827 28.415 0s7.847-20.516 0-28.343" fill="#7f8c8d"/></g></svg>