<svg height="31" width="40" xmlns="http://www.w3.org/2000/svg"><path d="m34.595 11.397-8.75 18.81h-3.495l9.209-19.801c1.081.172 2.1.506 3.036.991m-15.309-11.05-13.461 28.941c-3.433-1.575-5.825-5.027-5.825-9.046 0-5.505 4.476-9.964 9.999-9.964 0-5.266 4.1-9.564 9.287-9.931m10.715 9.931-9.27 19.929h-3.787l11.64-25.023a9.853 9.853 0 0 1 1.417 5.094m3.445 19.311 5.938-12.759a9.892 9.892 0 0 1 .616 3.418c0 4.286-2.728 7.938-6.554 9.341m2.622-17.257a9.9 9.9 0 0 1 2.156 2.249l-7.248 15.576c-.319.033-.65.05-.975.05h-2.246zm-16.032-12.019a9.915 9.915 0 0 1 3.983.846l-13.511 29.048h-.509a9.917 9.917 0 0 1 -3.557-.663zm7.758 3.724-12.172 26.17h-4.083l13.32-28.636a10.075 10.075 0 0 1 2.935 2.466" fill="#0072ff" fill-rule="evenodd"/></svg>