<svg height="40" width="40" xmlns="http://www.w3.org/2000/svg"><g fill-rule="evenodd"><path d="m20 0c11.046 0 20 8.954 20 20s-8.954 20-20 20-20-8.954-20-20 8.954-20 20-20z" fill="#5b6dee"/><path d="m16.625 18.776a11.428 11.428 0 0 0 -2.08.179c.565-5.226 4.92-9.183 10.105-9.182 3.175 0 5.35 1.554 5.35 4.773 0 3.218-2.611 4.772-6.42 4.772-2.812 0-4.143-.542-6.955-.542m-.205 1.906c-3.809 0-6.42 1.554-6.42 4.773 0 3.218 2.175 4.772 5.35 4.772 5.185 0 9.54-3.956 10.105-9.182-.687.123-1.383.183-2.08.179-2.812 0-4.143-.542-6.955-.542" fill="#fff"/></g></svg>