<svg height="40" width="38" xmlns="http://www.w3.org/2000/svg"><g fill-rule="evenodd"><path d="m4.992 4.602c-1.718 1.443-3.492 3.222-4.213 5.392-.832 2.557.331 5.17 1.442 7.447 1.108 2.333 2.326 4.613 3.379 7.002.831 1.889 1.994 4.111 1.718 6.225-.221 1.502-.721 2.946-.997 4.447-.221 1.001.721 0 1.052-.277 1.94-1.668 4.045-3.557 4.822-6.115.386-1.277.165-2.446-.277-3.668-.442-1.166-.942-2.277-1.442-3.447a379.035 379.035 0 0 0 -3.271-7.004 38.317 38.317 0 0 1 -1.274-2.613 9.112 9.112 0 0 1 -.666-3.001c-.055-.834-.055-1.612.055-2.446.056-.613.221-1.167.277-1.779.058-.329-.218-.443-.605-.163zm25.382 0c-1.718 1.446-3.492 3.225-4.213 5.392-.832 2.557.331 5.17 1.442 7.447 1.108 2.336 2.329 4.613 3.382 7.005.831 1.889 1.995 4.111 1.718 6.225-.221 1.502-.721 2.946-.997 4.447-.221 1.001.721 0 1.053-.276 1.939-1.668 4.044-3.558 4.821-6.115.386-1.278.165-2.447-.276-3.669-.442-1.166-.943-2.277-1.443-3.447a372.611 372.611 0 0 0 -3.271-7.004 38.317 38.317 0 0 1 -1.274-2.613 9.162 9.162 0 0 1 -.666-3.001c-.055-.834-.055-1.612.056-2.446.055-.613.22-1.167.276-1.779.058-.332-.218-.446-.608-.166z" fill="#165098"/><path d="m17.295.376c-1.94 1.613-4.045 3.558-5.211 5.835-.832 1.613-.942 3.281-.5 4.946.555 2 1.329 4.001 2.16 5.946 1.608 3.724 3.714 7.226 5.266 11.005.556 1.333 1.163 2.834 1.274 4.336.11 1.834-.5 3.779-.997 5.503-.111.501-.442 1.166-.387 1.668.055.388.276.221.5.055a28.007 28.007 0 0 0 2.716-2.391c2.271-2.167 4.876-5.059 4.655-8.448-.11-1.391-.776-2.723-1.328-4.001-.611-1.498-1.274-2.942-1.94-4.388a213.467 213.467 0 0 0 -3.824-8.06c-.442-.945-.997-1.834-1.328-2.779-.501-1.277-.722-2.613-.777-3.946-.055-1 0-2.055.111-3.056.055-.667.276-1.277.276-1.945.166-.612-.166-.667-.666-.28z" fill="#5c9dd5"/></g></svg>