<svg height="40" width="40" xmlns="http://www.w3.org/2000/svg" xmlns:xlink="http://www.w3.org/1999/xlink"><radialGradient id="a"><stop offset="0" stop-color="#080d19"/><stop offset="1" stop-color="#00256e"/></radialGradient><path d="m20 40c-11.046 0-20-8.955-20-20 0-11.046 8.954-20 20-20 11.045 0 20 8.954 20 20 0 11.045-8.955 20-20 20z" fill="#3a0c4c" fill-rule="evenodd"/><path d="m20 40c-11.046 0-20-8.955-20-20 0-11.046 8.954-20 20-20 11.045 0 20 8.954 20 20 0 11.045-8.955 20-20 20z" fill="url(#a)"/><path d="m30.671 3.463-18.819 12.711s-.618.511 0 .913 9.114 5.664 9.114 5.664.376.107.014.35l-12.739 12.322 21.074-14.404s.335-.254 0-.577l-9.315-5.839s-.269-.147 0-.254z" fill="#ffb740" fill-rule="evenodd"/></svg>