<svg xmlns="http://www.w3.org/2000/svg" width="37" height="40">
    <path fill="#2683FF" fill-rule="evenodd" d="M34.594 14.68c-.161.07-.321.157-.482.21v10.152c.142.054.279.118.41.193 1.569.947 2.104 2.945 1.213 4.576-.927 1.631-3.032 2.21-4.689 1.298-.161-.088-.303-.193-.446-.298l-8.878 5.032c.021.162.033.326.036.491 0 .193 0 .368-.036.561-.303 1.841-2.068 3.103-3.94 2.805-1.872-.298-3.156-2.034-2.853-3.875l-8.931-5.067a6.15 6.15 0 0 1-.428.281c-.143.069-.285.157-.446.21-1.765.701-3.762-.141-4.475-1.876-.713-1.736.143-3.7 1.908-4.401V14.837a2.172 2.172 0 0 1-.463-.21 7.014 7.014 0 0 1-.454-.31 3.353 3.353 0 0 1-.588-4.758c1.174-1.474 3.34-1.732 4.839-.578l9.02-5.137c-.017-.158-.035-.298-.035-.456 0-1.859 1.587-3.402 3.476-3.402 1.89 0 3.44 1.508 3.441 3.384 0 .158-.018.298-.036.456l9.092 5.172c.125-.087.25-.175.392-.245 1.659-.912 3.763-.316 4.69 1.315.926 1.631.32 3.7-1.337 4.612zm.998-3.559c-.321-1.403-1.747-2.262-3.173-1.947a2.598 2.598 0 0 0-1.979 3.121l-6.24 3.489c-1.212-1.42-5.063-2.367-5.063-2.367V5.685a2.421 2.421 0 0 0 1.64-1.613 2.41 2.41 0 0 0-1.64-3.016c-1.302-.386-2.675.315-3.068 1.595a2.41 2.41 0 0 0 1.641 3.016v7.89s-2.102.684-2.923 1.35a5.611 5.611 0 0 0-2.496.649l-5.865-3.314a2.537 2.537 0 0 0-.642-2.349 2.636 2.636 0 0 0-3.708-.123l-.013.012a2.555 2.555 0 0 0-.112 3.653 2.636 2.636 0 0 0 3.708.122l5.296 2.981a5.416 5.416 0 0 0-.606 7.049l-4.653 2.647a2.682 2.682 0 0 0-2.426-.631c-1.422.335-2.299 1.739-1.959 3.137.339 1.399 1.767 2.263 3.19 1.929 1.422-.334 2.3-1.739 1.96-3.138l4.974-2.822a5.607 5.607 0 0 0 4.564 1.104c.498.226 1.01.42 1.534.579v7.364a2.81 2.81 0 0 0-1.658 1.385 2.695 2.695 0 0 0 1.23 3.647c.107.053.214.106.339.141.018 0 .036.017.054.017 1.462.437 3.014-.351 3.458-1.789a2.707 2.707 0 0 0-1.819-3.401v-7.224s1.337-.123 1.961-.316a4.708 4.708 0 0 0 5.045-1.034l4.172 2.402c-.268 1.105.232 2.244 1.23 2.823 1.248.719 2.87.298 3.601-.929h.001a2.563 2.563 0 0 0-.91-3.542 2.642 2.642 0 0 0-3.102.333l-4.083-2.332c1.017-2.051.339-4.506-1.569-5.786a6.615 6.615 0 0 0-.445-1.122l6.168-3.436a2.69 2.69 0 0 0 2.407.649 2.598 2.598 0 0 0 1.979-3.121zm-2.602 1.682a1.105 1.105 0 0 1-1.105-1.087c0-.6.494-1.087 1.105-1.087.61 0 1.105.487 1.105 1.087 0 .601-.495 1.087-1.105 1.087zm-7.542 9.469c-.018.07-.018.14-.036.211v.052a2.531 2.531 0 0 1-1.123 1.648c-.107.053-.196.105-.303.158l-.053.018a2.491 2.491 0 0 1-.321.122c-.112.03-.225.054-.339.07l-.089.018c-.125 0-.232.017-.357.017a2.634 2.634 0 0 1-1.604-.543l-.482.21a2.042 2.042 0 0 1-.463.158h-.018a4.66 4.66 0 0 1-3.298-.333h-.018c-.107-.053-.214-.105-.303-.158l-.035-.017c-.107-.07-.197-.14-.304-.211a3.308 3.308 0 0 1-1.372.281c-.143 0-.268 0-.392-.018l-.072-.017-.321-.053-.035-.017a2.482 2.482 0 0 1-.339-.088 3.82 3.82 0 0 1-.82-.386 3.122 3.122 0 0 1-1.213-1.402c0-.035-.018-.053-.035-.088a1.785 1.785 0 0 0-.072-.175.83.83 0 0 1-.053-.123c-.018-.053-.054-.105-.054-.158a.51.51 0 0 0-.035-.158c-.018-.052-.018-.07-.036-.14s-.018-.14-.036-.21c0-.053-.017-.088-.017-.123a2.06 2.06 0 0 1-.018-.333 3.012 3.012 0 0 1 .018-.403c0-.053.017-.088.017-.123.018-.105.036-.193.054-.281.018-.034.018-.087.036-.122.021-.096.051-.19.089-.281.018-.035.018-.052.035-.087.04-.109.088-.214.143-.316l.019-.036c.195-.35.445-.684.748-.947a3.559 3.559 0 0 1 2.21-.911c.054-.018.107-.018.179-.018.215 0 .429.018.641.053.09-.106.179-.193.286-.298l.089-.088c.107-.088.196-.175.303-.246l.053-.035c.072-.052.197-.14.25-.175.053-.035.143-.105.196-.123a.816.816 0 0 0 .178-.087c.107-.053.286-.141.393-.176l.089-.07a4.479 4.479 0 0 1 2.246-.263h.018c.144.015.287.039.428.07h.018c.142.018.267.071.41.106l.017.017a8.9 8.9 0 0 1 .393.158l.035.017c.122.052.241.11.357.176l.017.017c.107.053.232.14.339.211l.018.017c.125.07.232.158.339.246l.018.017a4.645 4.645 0 0 1 1.337 1.876v.018c.035.105.071.228.107.333 0 .035.017.07.017.105.03.092.054.186.072.281.018.14.036.263.053.403a2.58 2.58 0 0 1 1.819 2.49c0 .088-.018.176-.018.263zM17.3 3.37c0-.6.495-1.087 1.106-1.087.61 0 1.105.487 1.105 1.087a1.102 1.102 0 0 1-1.105 1.087A1.096 1.096 0 0 1 17.3 3.37zm2.193 33.209a1.159 1.159 0 0 1-1.141.929 1.11 1.11 0 0 1-1.052-1.21.07.07 0 0 1 .018-.035 1.097 1.097 0 0 1 1.237-.903c.601.081 1.021.627.938 1.219zM3.323 12.593a1.06 1.06 0 0 1-.41-1.473 1.096 1.096 0 0 1 1.497-.403c.535.298.713.964.41 1.473a1.096 1.096 0 0 1-1.497.403zm.571 16.605c-.61 0-1.105-.487-1.105-1.088 0-.6.495-1.087 1.105-1.087.396.002.762.209.963.544.089.175.143.351.143.543 0 .601-.495 1.088-1.106 1.088zm28.988-2.122c.196.017.392.052.553.158.534.298.713.964.41 1.472a1.15 1.15 0 0 1-.963.544h-.03a1.096 1.096 0 0 1-1.09-1.102c.008-.6.51-1.08 1.12-1.072z"/>
</svg>
