<svg xmlns="http://www.w3.org/2000/svg" width="40" height="37">
    <path fill="#2ABEC2" fill-rule="evenodd" d="M2.696 13.176l17.43 10.964a.032.032 0 0 0 .037 0l17.783-11.212a.036.036 0 0 0 .011-.049.035.035 0 0 0-.011-.01L20.327 1.661a.035.035 0 0 0-.037 0L2.696 13.116a.037.037 0 0 0-.007.053l.007.007zm17.43 23.82c-.232 0-.458-.067-.653-.193l-18.667-12a.036.036 0 0 1 0-.049L1.6 23.52a.036.036 0 0 1 .049 0l18.468 11.874a.037.037 0 0 0 .038 0l17.503-11.227c.401-.256.643-.7.642-1.175v-2.761a.036.036 0 0 0-.037-.034.043.043 0 0 0-.016.005L20.569 31.44c-.395.251-.9.251-1.295 0L1.41 20.096a3.028 3.028 0 0 1-1.421-2.565v-3.867c0-.312.122-.612.339-.837l.06-.049.343-.234L19.683.217l.02-.011c.388-.222.867-.21 1.244.03l18.32 11.65a1.205 1.205 0 0 1 0 2.036L20.79 25.567a1.213 1.213 0 0 1-1.286 0L1.58 14.302a.035.035 0 0 0-.048.013.04.04 0 0 0-.005.018v3.198a1.49 1.49 0 0 0 .695 1.266l17.683 11.219a.035.035 0 0 0 .037 0L37.979 18.53a1.207 1.207 0 0 1 1.454.119c.256.244.397.585.387.939v3.393c.003 1-.506 1.932-1.35 2.471L20.768 36.808a1.208 1.208 0 0 1-.642.188z"/>
</svg>
