<svg height="40" width="40" xmlns="http://www.w3.org/2000/svg"><g fill-rule="evenodd"><path d="m20 40c11.043 0 20-8.957 20-20s-8.957-20-20-20-20 8.957-20 20 8.957 20 20 20z" fill="#e53431"/><path d="m15.836 7.092a.296.296 0 0 1 .19-.061c.069 0 .138.018.189.061l1.569 1.181a.312.312 0 0 1 .121.284.318.318 0 0 1 -.189.25.332.332 0 0 1 -.311-.034l-1.379-1.035-4.5 3.371 19.75 14.819c.077.06.129.155.129.25a.304.304 0 0 1 -.129.25l-1.448 1.095a.296.296 0 0 1 -.19.06.316.316 0 0 1 -.19-.569l1.121-.836-19.75-14.811a.325.325 0 0 1 -.129-.25c0-.094.051-.189.129-.25l5.017-3.775zm5.017 0a.296.296 0 0 1 .371 0l10.043 7.534c.112.078.155.224.112.345a.312.312 0 0 1 -.293.215h-5.026a.345.345 0 0 1 -.189-.06l-6.586-4.94a.31.31 0 0 1 .068-.534.332.332 0 0 1 .311.034l6.508 4.88h3.975l-9.104-6.828-6.302 4.724a.313.313 0 1 1 -.379-.5zm-8.655 6.5a.29.29 0 0 1 .19-.061c.095 0 .19.043.25.129a.317.317 0 0 1 .06.233.283.283 0 0 1 -.12.207l-1.052.785 19.75 14.819c.077.06.129.155.129.25a.305.305 0 0 1 -.129.25l-5.026 3.767a.296.296 0 0 1 -.19.06.353.353 0 0 1 -.189-.06l-1.449-1.086a.32.32 0 0 1 -.12-.293.316.316 0 0 1 .189-.25.332.332 0 0 1 .311.034l1.258.948 4.5-3.37-19.75-14.828a.319.319 0 0 1 0-.5zm-1.198 12.275h5.017c.069 0 .138.018.19.061l6.517 4.888a.313.313 0 0 1 -.379.5l-6.431-4.828h-3.974l9.103 6.828 6.285-4.716a.315.315 0 0 1 .439.06.315.315 0 0 1 -.06.44l-6.474 4.854a.296.296 0 0 1 -.19.06.296.296 0 0 1 -.19-.06l-10.043-7.535a.345.345 0 0 1 -.112-.353.319.319 0 0 1 .302-.199z" fill="#fff"/></g></svg>