<svg xmlns="http://www.w3.org/2000/svg" width="41" height="22">
    <path fill="#0082C6" fill-rule="evenodd" d="M15.686 9.696a.197.197 0 0 1-.006.171.193.193 0 0 1-.262.081C2.879 3.124 26.804-4.826 39.985 4.483c-4.889-2.916-29.291-5.821-24.299 5.213zm1.885 2.761a.195.195 0 0 1 .246.234c-1.503 6.03-18.821-5.906-3.705-10.966-11.017 7.904 1.236 11.488 3.459 10.732zm6.114-2.994a.192.192 0 1 1 .15-.344c17.471 3.305-6.298 21.874-23.368 5.064 20.133 13.48 30.502.813 23.218-4.72zm-2.009-2.888a.194.194 0 0 1-.163-.338C28.635.636 42 13.708 29.536 18.957c6.918-3.292 1.292-14.557-7.86-12.382z"/>
</svg>
