<svg height="40" width="40" xmlns="http://www.w3.org/2000/svg"><g fill-rule="evenodd"><path d="m20 0c11.044 0 20 8.956 20 20s-8.956 20-20 20-20-8.95-20-20 8.956-20 20-20z" fill="#26a17b"/><path d="m22.816 17.77v-2.978h6.806v-4.533h-18.528v4.533h6.806v2.978c-5.528.256-9.689 1.35-9.689 2.661s4.161 2.406 9.689 2.661v9.528h4.922v-9.528c5.522-.255 9.672-1.35 9.672-2.661-.006-1.311-4.156-2.405-9.678-2.661zm.006 4.517c-.139.005-.85.05-2.439.05-1.272 0-2.161-.034-2.478-.05v.005c-4.883-.216-8.533-1.066-8.533-2.083s3.644-1.867 8.533-2.083v3.311a37.29 37.29 0 0 0 2.5.078c1.517 0 2.278-.062 2.422-.078v-3.322c4.878.216 8.517 1.066 8.517 2.083-.011 1.016-3.65 1.867-8.522 2.089" fill="#fff"/></g></svg>