<svg height="39" width="41" xmlns="http://www.w3.org/2000/svg" xmlns:xlink="http://www.w3.org/1999/xlink"><linearGradient id="a" x1="93.969%" x2="0%" y1="0%" y2="34.202%"><stop offset="0" stop-color="#937fd6"/><stop offset="1" stop-color="#a676d0"/></linearGradient><path d="m40.549 1.957-17.646 35.498c.023 0-.984 1.499-2.609 1.499-.729 0-1.581-.301-2.521-1.172l-1.107-2.216-.007-.015-.422-.844-15.374-31.101-.311-.629-.294-.595s-.36-1.08.359-1.244c2.353-.065 4.51-.065 6.666-.098 0 0 .262 0 .458.491.026.066.279.582.695 1.425l12.147 24.357s1.239 1.153 2.721 1.153c.751 0 1.564-.295 2.311-1.186 1.765-3.468 8.431-16.849 12.973-26.011 0 0 .503-.29 1.062-.29.168 0 .341.026.507.094.719.294.392.884.392.884z" fill="#1c76a0" fill-rule="evenodd"/><path d="m40.549 1.957-17.646 35.498c.023 0-.984 1.499-2.609 1.499-.729 0-1.581-.301-2.521-1.172l-1.107-2.216-.007-.015-.422-.844-15.374-31.101-.311-.629-.294-.595s-.36-1.08.359-1.244c2.353-.065 4.51-.065 6.666-.098 0 0 .262 0 .458.491.026.066.279.582.695 1.425l12.147 24.357s1.239 1.153 2.721 1.153c.751 0 1.564-.295 2.311-1.186 1.765-3.468 8.431-16.849 12.973-26.011 0 0 .503-.29 1.062-.29.168 0 .341.026.507.094.719.294.392.884.392.884z" fill="url(#a)"/><path d="m.552 2.977.311.629 15.803 31.96-4.808-18.985zm7.842-.106 3.464 13.71 8.725 10.732s-9.47-18.939-12.147-24.357l-.037-.074z" fill="#9178ca" fill-rule="evenodd"/></svg>