<svg xmlns="http://www.w3.org/2000/svg" width="40" height="39">
    <path fill="#F93" fill-rule="evenodd" d="M28.257 21.069c.008 1.736-.101 3.524.491 5.188.285.819.817 1.63 1.668 1.932.901.289 1.992.102 2.65-.616.88-.976 1.065-2.352 1.258-3.609h5.328c-.121 2.085-.511 4.284-1.899 5.923-1.392 1.703-3.635 2.399-5.76 2.484-2.306.085-4.813-.221-6.654-1.749-1.71-1.401-2.457-3.626-2.75-5.753-.298-2.454-.31-4.934-.172-7.397.18-2.403.625-4.946 2.209-6.848 1.392-1.72 3.623-2.501 5.769-2.641 2.117-.149 4.402.042 6.201 1.287 1.589 1.095 2.461 2.942 2.876 4.78.503 2.301.528 4.671.524 7.019H28.257zm5.32-7.825c-.821-1.627-3.412-1.631-4.402-.17-.91 1.286-.931 2.942-.918 4.454h6.062c-.092-1.44-.084-2.964-.742-4.284zM7.052 31.794C4.7 21.51 2.348 11.231 0 .948V.926c2.209.005 4.415.005 6.624 0 1.396 7.329 2.788 14.653 4.18 21.981.063.323.147.645.23.964.327-1.278.533-2.586.81-3.872L15.655.926h6.406l-7.056 30.868H7.052zm-3.53 2.67h4.653c.7 0 1.266.561 1.266 1.248v1.249a.42.42 0 0 1-.423.416.42.42 0 0 1-.423-.416v-1.249a.42.42 0 0 0-.424-.416H3.522a.42.42 0 0 0-.424.416v1.941a.42.42 0 0 0 .424.416h1.97a.42.42 0 0 1 .423.416.42.42 0 0 1-.423.416h-1.97c-.701 0-1.267-.56-1.267-1.248v-1.941c0-.687.566-1.248 1.267-1.248zm3.236 1.524a.42.42 0 0 1 .424.417v1.248a.42.42 0 0 0 .423.416h4.641a.42.42 0 0 0 .424-.416v-1.248a.42.42 0 0 1 .423-.417.42.42 0 0 1 .423.417v1.248c0 .688-.566 1.248-1.266 1.248H7.601c-.7 0-1.266-.56-1.266-1.248v-1.248a.42.42 0 0 1 .423-.417zm4.23 1.389a.42.42 0 0 1-.423-.416v-1.249c0-.687.566-1.248 1.266-1.248h4.649c.701 0 1.267.561 1.267 1.248v1.249a.42.42 0 0 1-.424.416.42.42 0 0 1-.423-.416v-1.249a.42.42 0 0 0-.424-.416h-4.641a.42.42 0 0 0-.423.416v1.249a.42.42 0 0 1-.424.416zm4.08-1.389a.42.42 0 0 1 .423.417v1.248a.42.42 0 0 0 .424.416h4.64a.42.42 0 0 0 .424-.416v-1.248a.42.42 0 0 1 .423-.417.42.42 0 0 1 .424.417v1.248c0 .688-.566 1.248-1.266 1.248h-4.65c-.7 0-1.266-.56-1.266-1.248v-1.248a.42.42 0 0 1 .424-.417zm4.087 1.389a.42.42 0 0 1-.423-.416v-1.249c0-.687.566-1.248 1.266-1.248h4.658c.7 0 1.266.561 1.266 1.248v1.249a.42.42 0 0 1-.424.416.42.42 0 0 1-.423-.416v-1.249a.42.42 0 0 0-.423-.416h-4.65a.42.42 0 0 0-.423.416v1.249a.42.42 0 0 1-.424.416zm4.079-1.389a.42.42 0 0 1 .424.417v1.248a.42.42 0 0 0 .423.416h4.646a.42.42 0 0 0 .423-.416v-1.248a.42.42 0 0 1 .423-.417.42.42 0 0 1 .424.417v1.248c0 .688-.566 1.248-1.266 1.248h-4.654c-.7 0-1.266-.56-1.266-1.248v-1.248a.42.42 0 0 1 .423-.417zm4.231 1.389a.42.42 0 0 1-.424-.416v-1.249c0-.687.566-1.248 1.266-1.248h4.65c.7 0 1.266.561 1.266 1.248v1.249a.42.42 0 0 1-.424.416.42.42 0 0 1-.423-.416v-1.249a.42.42 0 0 0-.423-.416h-4.641a.42.42 0 0 0-.424.416v1.249a.42.42 0 0 1-.423.416zm4.079-1.389a.42.42 0 0 1 .423.417v1.248a.42.42 0 0 0 .424.416h4.649a.42.42 0 0 0 .424-.416v-1.941a.42.42 0 0 0-.424-.416h-1.97a.42.42 0 0 1-.424-.416.42.42 0 0 1 .424-.416h1.97c.7 0 1.266.561 1.266 1.248v1.941c0 .688-.566 1.248-1.266 1.248h-4.653c-.701 0-1.266-.56-1.266-1.248v-1.248a.42.42 0 0 1 .423-.417z"/>
</svg>
