<svg height="14" width="40" xmlns="http://www.w3.org/2000/svg"><g fill-rule="evenodd"><path d="m40 11.321h-3.936l-2.795-2.341-2.784 2.332h-3.326l-1.594-1.898h-5.491l1.387-1.676h2.697l-2.057-2.456-7.174 8.553h-3.325l2.076-2.485h-3.464l-1.87-5.144-1.859 5.106h-3.533l-2.952-8.015h2.696l1.988 5.462 1.978-5.433h3.336l1.977 5.423 1.978-5.423h2.696l-2.981 8.034.659-.79 6.091-7.253h3.346l5.067 6.049 2.441-2.052-7.705-6.521h3.956z" fill="#050708"/><path d="m36.074 3.355h3.749l-3.739 3.111-1.86-1.56z" fill="#f79020"/></g></svg>