<svg height="26" width="40" xmlns="http://www.w3.org/2000/svg"><g fill-rule="evenodd"><path d="m31.083 24.011-7.102 1.763c-.648.161-1.178-.225-1.178-.857v-15.666c0-.633.53-1.283 1.178-1.444l5.207-1.293v12.43c0 1.274.966 2.236 2.246 2.236.205 0 .413-.027.618-.077l.206-.051v1.517c0 .633-.528 1.281-1.175 1.442zm-15.273 0-7.102 1.763c-.648.161-1.177-.225-1.177-.857v-15.666c0-.633.529-1.283 1.177-1.444l5.207-1.293v12.43c0 1.274.966 2.236 2.246 2.236.206 0 .413-.027.619-.077l.205-.051v1.517c0 .633-.527 1.281-1.175 1.442z" fill="#2cfedb"/><path d="m38.824 18.038-7.103 1.764c-.646.16-1.176-.226-1.176-.858v-15.667c0-.632.53-1.281 1.176-1.442l7.103-1.763c.647-.161 1.176.225 1.176.857v15.667c0 .633-.529 1.281-1.176 1.442zm-17.378-8.787v9.309l-4.998 1.242c-.646.159-1.175-.226-1.175-.858v-15.667c0-.632.529-1.282 1.175-1.441l7.104-1.765c.646-.159 1.175.226 1.175.858v5.309l-1.078.268c-1.255.313-2.203 1.491-2.203 2.745zm-15.273 0v9.309l-4.998 1.242c-.645.159-1.175-.226-1.175-.858v-15.667c0-.632.53-1.282 1.175-1.441l7.104-1.765c.646-.159 1.176.226 1.176.858v5.309l-1.079.268c-1.254.313-2.203 1.491-2.203 2.745z" fill="#8225fb"/></g></svg>