<svg height="41" width="40" xmlns="http://www.w3.org/2000/svg"><g fill-rule="evenodd"><path d="m13.866 19.673c.087-.048.165-.093.242-.141 2.736-1.662 4.371-4.566 4.384-7.777v-.025c0-4.42 2.281-8.365 5.943-10.512a40.698 40.698 0 0 0 -4.438-.245 41.47 41.47 0 0 0 -19.612 4.956c-.283.152-.303.186-.324.224-.048.083-.061.113-.057.263a42.72 42.72 0 0 0 .829 7.189c.1.496.218 1.017.357 1.593 1.385 3.363 4.718 5.619 8.309 5.619a8.905 8.905 0 0 0 4.367-1.144z" fill="#f4a623"/><path d="m39.94 6.153c-.021-.037-.04-.072-.324-.224a41.394 41.394 0 0 0 -6.248-2.731 41.18 41.18 0 0 0 -1.494-.477 8.896 8.896 0 0 0 -1.375-.108c-4.921 0-8.932 4.023-8.991 8.989v.117c.001 3.212 1.624 6.123 4.341 7.788l.04.024c.083.046.187.106.285.166 3.561 2.159 5.789 6.099 5.831 10.304 4.916-6.856 7.74-15.162 7.991-23.588.004-.149-.007-.175-.056-.26z" fill="#6cb0df"/><path d="m24.614 22.31a6.137 6.137 0 0 0 -.212-.126l-.083-.048a8.892 8.892 0 0 0 -4.319-1.116 8.876 8.876 0 0 0 -4.35 1.134 11.9 11.9 0 0 1 -6.151 1.714 11.91 11.91 0 0 1 -5.908-1.59c3.342 7.576 8.883 14.105 15.755 18.519.164.106.278.152.679.152.363 0 .451-.037.63-.151a41.726 41.726 0 0 0 5.299-4.041c.374-.336.765-.702 1.193-1.119a9.235 9.235 0 0 0 1.845-5.515c-.001-3.184-1.678-6.178-4.378-7.813z" fill="#2ab9ac"/></g></svg>