<svg xmlns="http://www.w3.org/2000/svg" width="26" height="40">
    <path fill="#989898" fill-rule="evenodd" d="M3.629 40l-.456-.26 4.46-7.631.456.26L3.629 40zM2.62 36.688l2.575-4.405.456.26-2.575 4.405-.456-.26z"/>
    <path fill="#ED8117" fill-rule="evenodd" d="M14.67 23.221L11.477 21.4l-3.193-1.821-1.804 3.634c-.648 1.306-.61 2.755.003 3.793a2.966 2.966 0 0 0 2.575 1.469c1.218.005 2.507-.687 3.328-1.895l2.284-3.359z"/>
    <path fill="#EEBB18" fill-rule="evenodd" d="M13.682 22.657L11.477 21.4l-2.205-1.257-1.177 2.393c-.423.86-.376 1.825.057 2.525a2.14 2.14 0 0 0 1.778 1.014c.831.02 1.7-.422 2.242-1.214l1.51-2.204z"/>
    <path fill="#DCF2F9" fill-rule="evenodd" d="M23.724.449s-8.289.48-10.997 5.894c-1.989 3.976-4.088 8.887-5.063 11.217a1.651 1.651 0 0 0 .714 2.073l3.099 1.767 3.099 1.767a1.695 1.695 0 0 0 2.175-.426c1.555-1.998 4.812-6.249 7.304-9.938C27.447 7.779 23.724.449 23.724.449z"/>
    <path fill="#FFF" fill-rule="evenodd" d="M21.319 10.981a3.189 3.189 0 0 0-1.189-4.383c-1.554-.886-3.541-.36-4.438 1.174a3.188 3.188 0 0 0 1.189 4.383c1.554.886 3.541.36 4.438-1.174z"/>
    <path fill="#5A6971" fill-rule="evenodd" d="M24.42 13.043a149.453 149.453 0 0 1-3.641 5.115c.765 1.573 2.701 6.482-.695 10.352-.016-2.42-2.137-4.887-2.862-5.663l-.123.159a2.135 2.135 0 0 1-1.685.816c-.362 0-.726-.091-1.057-.279l-6.199-3.535a2.09 2.09 0 0 1-.9-2.614l.079-.186c-1.071-.237-4.285-.801-6.398.385 1.696-4.84 6.968-5.638 8.73-5.77a147.4 147.4 0 0 1 2.664-5.672C15.123.575 23.349.037 23.698.017L23.987 0l.129.255c.157.308 3.798 7.615.304 12.788zM23.456.908c-1.472.15-8.055 1.067-10.336 5.627-1.954 3.907-4.003 8.688-5.05 11.19a1.223 1.223 0 0 0 .527 1.532l6.199 3.535a1.258 1.258 0 0 0 1.607-.315c1.671-2.147 4.839-6.291 7.287-9.915 2.861-4.237.372-10.321-.234-11.654zm-4.957 12.11a3.692 3.692 0 0 1-1.837-.488 3.621 3.621 0 0 1-1.35-4.974 3.66 3.66 0 0 1 2.239-1.697 3.7 3.7 0 0 1 2.798.364 3.622 3.622 0 0 1 1.718 2.211 3.58 3.58 0 0 1-.368 2.763 3.702 3.702 0 0 1-3.2 1.821zm2.72-4.36a2.757 2.757 0 0 0-1.309-1.684 2.818 2.818 0 0 0-2.132-.278 2.787 2.787 0 0 0-1.705 1.293 2.758 2.758 0 0 0 1.028 3.79c1.341.766 3.063.31 3.837-1.015.376-.642.475-1.39.281-2.106z"/>
</svg>
