<svg height="40" width="38" xmlns="http://www.w3.org/2000/svg" xmlns:xlink="http://www.w3.org/1999/xlink"><linearGradient id="a" x1="0%" y1="0%" y2="0%"><stop offset="0" stop-color="#06a0db"/><stop offset="1" stop-color="#0689c7"/></linearGradient><path d="m33.503 24.493a8.569 8.569 0 0 0 -4.203-1.059l.012-.006c-1.956.022-3.561-1.503-3.584-3.406-.022-1.878 1.502-3.421 3.42-3.485v-.001l-.004-.002a8.565 8.565 0 0 0 4.256-1.15c3.998-2.314 5.313-7.344 2.936-11.235-2.378-3.892-7.546-5.171-11.545-2.857-3.998 2.313-5.312 7.343-2.935 11.234.99 1.622.442 3.718-1.224 4.682-1.642.95-3.757.445-4.765-1.122h-.001v.005a8.275 8.275 0 0 0 -3.14-3.022c-4.05-2.227-9.189-.837-11.477 3.105-2.288 3.941-.859 8.942 3.191 11.169 4.05 2.226 9.188.837 11.476-3.105l.04-.072v.006c.973-1.591 3.078-2.143 4.742-1.228 1.687.928 2.282 3.012 1.329 4.654-2.288 3.942-.86 8.942 3.19 11.169s9.188.837 11.477-3.105c2.287-3.942.859-8.942-3.191-11.169z" fill="#fff" fill-rule="evenodd"/><path d="m33.503 24.493a8.569 8.569 0 0 0 -4.203-1.059l.012-.006c-1.956.022-3.561-1.503-3.584-3.406-.022-1.878 1.502-3.421 3.42-3.485v-.001l-.004-.002a8.565 8.565 0 0 0 4.256-1.15c3.998-2.314 5.313-7.344 2.936-11.235-2.378-3.892-7.546-5.171-11.545-2.857-3.998 2.313-5.312 7.343-2.935 11.234.99 1.622.442 3.718-1.224 4.682-1.642.95-3.757.445-4.765-1.122h-.001v.005a8.275 8.275 0 0 0 -3.14-3.022c-4.05-2.227-9.189-.837-11.477 3.105-2.288 3.941-.859 8.942 3.191 11.169 4.05 2.226 9.188.837 11.476-3.105l.04-.072v.006c.973-1.591 3.078-2.143 4.742-1.228 1.687.928 2.282 3.012 1.329 4.654-2.288 3.942-.86 8.942 3.19 11.169s9.188.837 11.477-3.105c2.287-3.942.859-8.942-3.191-11.169z" fill="url(#a)"/></svg>