<svg xmlns="http://www.w3.org/2000/svg" width="38" height="40">
    <defs>
        <linearGradient id="a" x1="0%" y1="0%" y2="0%">
            <stop offset="0%" stop-color="#06A0DB"/>
            <stop offset="100%" stop-color="#0689C7"/>
        </linearGradient>
    </defs>
    <path fill="#FFF" fill-rule="evenodd" d="M33.503 24.493a8.569 8.569 0 0 0-4.203-1.059l.012-.006c-1.956.022-3.561-1.503-3.584-3.406-.022-1.878 1.502-3.421 3.42-3.485v-.001l-.004-.002a8.565 8.565 0 0 0 4.256-1.15c3.998-2.314 5.313-7.344 2.936-11.235C33.958.257 28.79-1.022 24.791 1.292c-3.998 2.313-5.312 7.343-2.935 11.234.99 1.622.442 3.718-1.224 4.682-1.642.95-3.757.445-4.765-1.122h-.001v.005a8.275 8.275 0 0 0-3.14-3.022c-4.05-2.227-9.189-.837-11.477 3.105-2.288 3.941-.859 8.942 3.191 11.169 4.05 2.226 9.188.837 11.476-3.105l.04-.072v.006c.973-1.591 3.078-2.143 4.742-1.228 1.687.928 2.282 3.012 1.329 4.654-2.288 3.942-.86 8.942 3.19 11.169 4.05 2.227 9.188.837 11.477-3.105 2.287-3.942.859-8.942-3.191-11.169z"/>
    <path fill="url(#a)" d="M33.503 24.493a8.569 8.569 0 0 0-4.203-1.059l.012-.006c-1.956.022-3.561-1.503-3.584-3.406-.022-1.878 1.502-3.421 3.42-3.485v-.001l-.004-.002a8.565 8.565 0 0 0 4.256-1.15c3.998-2.314 5.313-7.344 2.936-11.235C33.958.257 28.79-1.022 24.791 1.292c-3.998 2.313-5.312 7.343-2.935 11.234.99 1.622.442 3.718-1.224 4.682-1.642.95-3.757.445-4.765-1.122h-.001v.005a8.275 8.275 0 0 0-3.14-3.022c-4.05-2.227-9.189-.837-11.477 3.105-2.288 3.941-.859 8.942 3.191 11.169 4.05 2.226 9.188.837 11.476-3.105l.04-.072v.006c.973-1.591 3.078-2.143 4.742-1.228 1.687.928 2.282 3.012 1.329 4.654-2.288 3.942-.86 8.942 3.19 11.169 4.05 2.227 9.188.837 11.477-3.105 2.287-3.942.859-8.942-3.191-11.169z"/>
</svg>
