<svg height="40" width="40" xmlns="http://www.w3.org/2000/svg"><g fill-rule="evenodd"><path d="m20 35.996c-8.834 0-15.996-7.162-15.996-15.996s7.162-15.996 15.996-15.996 15.996 7.162 15.996 15.996-7.162 15.996-15.996 15.996z" fill="#f7b511"/><path d="m20 0c-11.046 0-20 8.954-20 20s8.954 20 20 20 20-8.954 20-20-8.954-20-20-20zm0 35.996c-8.834 0-15.996-7.162-15.996-15.996s7.162-15.996 15.996-15.996 15.996 7.162 15.996 15.996-7.162 15.996-15.996 15.996zm-7.74-6.374v-3.347l8.609-11.236h-8.003v-4.699h4.81v-3.546h4.385l.02 3.546h5.356v3.628l-8.144 11.034h8.447v4.62h-5.578v3.584h-4.486v-3.584z"/></g></svg>