<svg enable-background="new 0 0 681.9 377.4" viewBox="0 0 681.9 377.4" xmlns="http://www.w3.org/2000/svg" xmlns:xlink="http://www.w3.org/1999/xlink"><linearGradient id="a" gradientTransform="matrix(1 0 0 -1 0 380)" gradientUnits="userSpaceOnUse" x1="322.2462" x2="315.4962" y1="300.1574" y2="303.4074"><stop offset="0" stop-color="#f49784"/><stop offset="1" stop-color="#ffc197"/></linearGradient><path d="m551.1 263.3s-4.6 39-5.8 76.2h52.5s-2.8-66.3-11-80.6c-6-5.2-27.9-7.6-35.7 4.4z" fill="#96a6a6"/><path d="m627.4 292.8c4.3 13.5-1.6 22.3-9.7 27.6-4.7 1.8-9.5 3.1-14.5 3.9-1.3.2-2.6.4-3.9.6-1.1-4.4.3-9 .3-9s3.1-.2 6.7-1.6c4.4-1.7 9.6-5.2 11.5-12.3 1.3-4.9-.7-10-3.3-15.5-4.2-9.1-10.1-19.6-5.4-33.1.2-.5.4-1.1.6-1.6.4-1 .9-1.9 1.5-2.8.8-1.3 1.7-2.6 2.7-3.7 1.6-1.9 3.5-3.5 5.6-5 1.8-1.3 3.8-2.4 5.9-3.3 2.5-1.1 5-1.9 7.6-2.5.3-.1.7-.1 1-.2 11.1-2.1 21.9.9 23.9 9.8 3.9 17.4-10.6 17-19.3 18.3-.3 0-.5.1-.8.1-8.3 1.3-17.9 7-10.4 30.3z" fill="#7a8786"/><path d="m601.7 249.7s-.2-10.7-.3-11c-.4-2-.8-3.9-1.2-5.8-1.9-8.7-4-16.2-6.6-22.5-1.4-3.4-2.8-6.4-4.4-9-2.2-3.6-4.6-6.5-7.2-8.6-3.2-2.5-6.7-3.9-10.5-4.2-5-.3-9.4 1.1-13.2 4-2.7 2.1-5.1 4.9-7.2 8.5-1.5 2.6-3 5.5-4.2 8.9-2.9 7.7-5.2 17.3-6.9 28.6-.1.7-.2 1.4-.3 2.2v.1c-.4 2.6-.7 5.3-.9 8.1-.3 1.8 63.3 3 62.9.7z" fill="#96a6a6"/><path d="m559.8 193.5s-9.2-4.9-15.3-7.8c.5 9 7.6 16.9 7.6 16.9z" fill="#96a6a6"/><path d="m581.3 193.6s7-6.5 16.2-7.1c-.8 8.4-9.3 16.2-9.3 16.2z" fill="#96a6a6"/><path d="m563.1 223.2s-3-20.9 0-21.9 4 3.4 4 3.4 1.4-9.4 4.8-9.2 2.2 8.8 2.2 8.8 2-4.4 4.4-3.8-2.8 22.7-2.8 22.7l-2.2 22.3-1 4.1-9-.7.8-4c.1.1.1-8.1-1.2-21.7z" fill="#bec3c7"/><path d="m538.2 238.2s-7.3-.6-8.6 1.9c-1.6 3.1.4 5.8.4 5.8s-6 .9-6.5 5.6c-.5 4.2 3.3 5.4 3.3 5.4s-2.8 3.7-1.5 6.5c4 8.4 36 2.7 36 2.7s-1.2 3.9 3.8 5.1 14.4-6.9 14.4-6.9 25.3 7.1 33-.6c3.3-3.3 0-5.9 0-5.9s5.3-1.1 6.3-4.9c1.1-3.8-5.7-7-5.7-7s2.6-2-1.4-4.9c-3.9-2.9-10.3-2.3-10.3-2.3s-23.1.9-27.8 6.8c1 4.2-3.1 7.4-3.1 7.4l-4.8-7.9s-5.7-8.4-27.5-6.8z" fill="#bec3c7"/><path d="m606.6 227.4c0 4.4-1.6 8.4-4.2 11.4-3.2 3.8-8 6.2-13.4 6.2-6.2 0-11.6-3.2-14.7-8-1.8-2.8-2.9-6.1-2.9-9.6 0-9.7 7.9-17.6 17.6-17.6s17.6 7.9 17.6 17.6z" fill="#edf1f2"/><path d="m567.2 227.4c0 3.6-1 7-2.8 9.8-3 4.7-8.2 7.8-14.1 7.8-5.1 0-9.6-2.3-12.7-6-2.6-3.1-4.2-7.2-4.2-11.6 0-9.7 7.6-17.6 16.9-17.6s16.9 7.9 16.9 17.6z" fill="#edf1f2"/><circle cx="544.5" cy="225.1" fill="#2d3e4e" r="4.4"/><circle cx="577.1" cy="225.8" fill="#2d3e4e" r="4.4"/><path d="m561.4 254.4s.9 10.8 6 10.9 10.4-13.9 10.4-13.9z" fill="#bc312e"/><path d="m568.5 245.5s-12.8-3.6-12.6 4.6 12.6 5.5 12.6 5.5 6.2 7.7 11.8 2.4c5.5-5.3 2.9-14.2-6.6-12.6-3.3.4-5.2.1-5.2.1z" fill="#edf1f2"/><path d="m565.6 247.2 2.3 2.1c.6.5 1.5.5 2-.1l2.2-2.4c.9-.9.2-2.4-1-2.4-1.3 0-3 0-4.8.2-1.1.2-1.6 1.7-.7 2.6z" fill="#e54d42"/><path d="m610.7 246c-2 .3-4 .6-5.9.9-2 .3-3.9.7-5.9 1.2-1.9.4-3.8 1.1-5.8 1.4s-3.9.7-6 .7l-.1-.2c1.8-1.1 3.6-1.9 5.6-2.5 1.9-.6 4-.8 6-1.1 4-.5 8-.8 12.1-.8z" fill="#2d3e4e"/><path d="m607.1 252.8c-1.4 0-2.7 0-4.1.1-1.4 0-2.7.1-4.1.2s-2.7.3-4.1.1c-1.4-.1-2.7-.4-4.1-.9v-.2c1.4-.5 2.8-.8 4.1-.9 1.4-.1 2.8.1 4.1.3 1.4.1 2.8.3 4.1.4 1.4.2 2.7.4 4.1.7z" fill="#2d3e4e"/><path d="m526.8 258.8c1.7-1.1 3.5-2 5.3-2.8s3.7-1.6 5.6-2.3 3.8-1.4 5.9-1.6c2-.2 4.1-.1 6.1.4v.2c-2 .6-3.9.9-5.8 1.4s-3.8.6-5.7 1.1-3.8 1-5.7 1.7c-1.9.6-3.7 1.3-5.6 2.1z" fill="#2d3e4e"/><path d="m532.8 249.7c3.1-.8 6.2-1.3 9.4-1.6 1.6-.1 3.2-.4 4.8-.2s3.2.6 4.7 1.3v.2c-1.6.4-3.2.4-4.7.5s-3.1-.2-4.6-.2c-1.6-.1-3.1-.1-4.7 0-1.6 0-3.1.1-4.7.2z" fill="#2d3e4e"/><path d="m638.7 262.3c-13.8-9.8-7.4-23.5-4.6-28.1 11.1-2.1 21.9.9 23.9 9.8 3.9 17.4-10.6 17-19.3 18.3z" fill="#bec3c7"/><path d="m589.2 200.8-4.2-.8c-1.2-.2-2.4.6-2.6 1.8-.2 1.2.6 2.4 1.8 2.6l4.1.7c1.2.2 2.4-.6 2.6-1.8.3-1.2-.5-2.3-1.7-2.5z" fill="#2d3e50"/><path d="m553.2 199.8-4.1 1c-1.2.3-1.9 1.5-1.7 2.7.3 1.2 1.5 1.9 2.7 1.7l4.1-1c1.2-.3 1.9-1.5 1.7-2.7-.3-1.3-1.5-2-2.7-1.7z" fill="#2d3e50"/><path d="m586.7 197.4-.8-1.3c-.3-.5-.1-1.1.4-1.4l3.1-1.4c.9-.4 1.8.7 1.1 1.5l-2.3 2.7c-.4.5-1.1.4-1.5-.1z" fill="#bec3c7"/><path d="m553.3 198 1.3-1.4c.4-.4.3-1.1-.2-1.5l-3.3-2.2c-.8-.5-1.8.4-1.4 1.3l2 3.6c.4.6 1.2.7 1.6.2z" fill="#bec3c7"/><path d="m553.8 339.5h-24.8s-4.1-10.7 3.9-11c-10.3-18.7-13.6-47.8 9.5-36.8s11.4 47.8 11.4 47.8z" fill="#96a6a6"/><path d="m608.6 339.6 11.6-.1s1.2-8.8-8.5-9.2c15.8-17.2 19.5-43.3-5.1-35.8-10.2 4.3-17.6 14.3-17.6 14.3l3.9 30.7h15.7z" fill="#96a6a6"/><path d="m550.9 339.5s-3.6-61.2 17-62.2 25.4 62.2 25.4 62.2z" fill="#bec3c7"/><path d="m555 286.3 1.7 49s-3.1 1.2-2.9 4.2h11.4s.8-4.3-4.5-4.3c0-28.5.2-57.8.2-57.8z" fill="#96a6a6"/><path d="m583.8 286.3-1.7 49s3.1 1.2 2.9 4.2c-4.5 0-11.4 0-11.4 0s-.8-4.3 4.5-4.3c0-28.5-.2-57.8-.2-57.8z" fill="#96a6a6"/><path d="m645.9 339.5h-145.7l4.3 13.2 137.9-3z" fill="#93633e"/><path d="m635.5 349.8-.3 4.7-1.5 23.2h-118.3l-1.7-10.6-2.3-14.6z" fill="#93633e"/><path d="m635.5 349.8-.3 4.7-121.5 12.6-2.3-14.6z" fill="#684731"/><path d="m44.2 377.7c.6-6 1.1-10.9 1.4-13.9.2-2.2.4-3.4.4-3.4 2-3.1 5.2-5 8.7-6.1.7-.2 1.4-.4 2.2-.5 3-.6 6.2-.6 9.1-.3 1.9.2 3.7.6 5.2 1.1 1.8.6 3.2 1.3 4.2 2.2.8 1.5 1.6 3.6 2.3 6.2 1.1 4 2 9.2 2.8 14.8h-36.3z" fill="#96a6a6"/><path d="m87.5 349.2s-.2-8.8-.2-9c-.3-1.6-.6-3.2-1-4.8-1.5-7.1-3.3-13.3-5.4-18.4-1.1-2.8-2.3-5.2-3.6-7.4-1.8-3-3.7-5.3-5.9-7-2.6-2.1-5.5-3.2-8.7-3.4-4.1-.2-7.7.9-10.9 3.3-2.2 1.7-4.2 4-5.9 7-1.3 2.1-2.4 4.6-3.5 7.3-2.4 6.3-4.3 14.2-5.7 23.5-.1.6-.2 1.2-.3 1.8v.1c-.3 2.1-.5 4.3-.8 6.7 0 1.2 52.2 2.2 51.9.3z" fill="#96a6a6"/><path d="m53 303.1s-7.6-4-12.5-6.4c.4 7.4 6.3 13.9 6.3 13.9z" fill="#96a6a6"/><path d="m70.7 303.1s5.7-5.3 13.3-5.9c-.6 6.9-7.6 13.3-7.6 13.3z" fill="#96a6a6"/><path d="m55.8 327.4s-2.5-17.2 0-18 3.3 2.8 3.3 2.8 1.2-7.8 4-7.6 1.8 7.3 1.8 7.3 1.6-3.6 3.6-3.1-2.3 18.6-2.3 18.6l-1.8 18.3-.9 3.4-7.4-.6.6-3.3c.1.1.2-6.6-.9-17.8z" fill="#bec3c7"/><path d="m35.3 339.8s-6-.5-7.1 1.5c-1.3 2.6.3 4.8.3 4.8s-4.9.7-5.3 4.6c-.4 3.5 2.7 4.4 2.7 4.4s-2.3 3-1.2 5.3c3.3 6.9 29.5 2.2 29.5 2.2s-1 3.2 3.1 4.2 11.8-5.7 11.8-5.7 20.7 5.8 27.1-.5c2.7-2.7 0-4.8 0-4.8s4.3-.9 5.2-4-4.7-5.7-4.7-5.7 2.1-1.7-1.1-4.1-8.5-1.9-8.5-1.9-18.9.7-22.8 5.6c.8 3.4-2.6 6.1-2.6 6.1l-3.9-6.5c.1 0-4.6-6.9-22.5-5.5z" fill="#bec3c7"/><path d="m91.4 330.9c0 3.6-1.3 6.9-3.5 9.4-2.6 3.1-6.6 5-11 5-5.1 0-9.5-2.6-12.1-6.5-1.5-2.3-2.3-5-2.3-7.9 0-8 6.5-14.4 14.4-14.4 8.1-.1 14.5 6.4 14.5 14.4z" fill="#edf1f2"/><path d="m59.1 330.9c0 3-.9 5.7-2.3 8-2.5 3.9-6.7 6.4-11.6 6.4-4.2 0-7.9-1.9-10.4-4.9-2.2-2.5-3.5-5.9-3.5-9.5 0-8 6.2-14.4 13.9-14.4s13.9 6.4 13.9 14.4z" fill="#edf1f2"/><path d="m34.8 340.4c4.4-.5 12.5-1.2 22-1.5-2.5 3.9-6.7 6.4-11.6 6.4-4.1 0-7.8-1.9-10.4-4.9z" fill="#808b8d"/><path d="m88 340.3c-2.6 3.1-6.6 5-11 5-5.1 0-9.5-2.6-12.1-6.5 7.6 0 15.6.4 23.1 1.5z" fill="#808b8d"/><circle cx="50.5" cy="324.6" fill="#2d3e4e" r="3.6"/><circle cx="82.1" cy="322.8" fill="#2d3e4e" r="3.6"/><path d="m56.6 352.6s.6 6.9 3.8 7 6.6-8.8 6.6-8.8z" fill="#d7dcdd"/><path d="m60.2 345.8s-10.5-3-10.3 3.8 10.3 4.5 10.3 4.5 5.1 6.4 9.7 2 2.4-11.6-5.4-10.3c-2.7.2-4.3 0-4.3 0z" fill="#edf1f2"/><path d="m57.8 347.1 1.9 1.7c.5.4 1.2.4 1.6-.1l1.8-1.9c.7-.7.2-2-.8-2-1.1 0-2.4 0-3.9.2-.9.2-1.3 1.4-.6 2.1z" fill="#e54d42"/><path d="m94.9 346.2c-1.6.2-3.3.5-4.9.8s-3.2.6-4.8 1-3.1 1-4.7 1.2-3.2.5-5 .5l-.1-.2c1.4-1 3-1.7 4.5-2.2 1.6-.5 3.3-.6 4.9-.8 3.3-.4 6.6-.6 9.9-.5z" fill="#2d3e4e"/><path d="m91.9 351.8c-1.1 0-2.3.1-3.4.2l-3.4.2c-1.1.1-2.3.3-3.4.1-1.1-.1-2.2-.4-3.4-.9v-.2c1.1-.5 2.3-.8 3.4-.9s2.3.1 3.4.3c1.1.1 2.3.2 3.4.4s2.3.3 3.4.6z" fill="#2d3e4e"/><path d="m25.9 356.6c2.8-1.8 5.8-3.2 8.9-4.3 1.6-.6 3.1-1.2 4.8-1.3s3.4-.1 5 .5v.2c-1.6.6-3.2.9-4.7 1.3s-3.1.5-4.7.9-3.1.8-4.7 1.3-3.1 1-4.6 1.6z" fill="#2d3e4e"/><path d="m30.9 349.2c2.5-.7 5.1-1.2 7.7-1.4 1.3-.1 2.6-.4 3.9-.2s2.6.5 3.8 1.2v.2c-1.3.4-2.6.5-3.9.6s-2.5-.2-3.8-.2c-1.3-.1-2.6-.1-3.8-.1-1.3 0-2.6 0-3.9.1z" fill="#2d3e4e"/><path d="m77.5 309.1-4-.7c-.8-.1-1.6.4-1.8 1.2l-.1.6c-.1.8.4 1.6 1.2 1.8l4 .7c.8.1 1.6-.4 1.8-1.2l.1-.6c.1-.9-.4-1.7-1.2-1.8z" fill="#2d3e50"/><path d="m47.9 308.2-3.9.9c-.8.2-1.3 1-1.1 1.8l.1.6c.2.8 1 1.3 1.8 1.1l3.9-.9c.8-.2 1.3-1 1.1-1.8l-.1-.6c-.2-.8-1-1.3-1.8-1.1z" fill="#2d3e50"/><path d="m75.1 306.3-.7-1.1c-.3-.4-.1-.9.3-1.1l2.5-1.2c.8-.4 1.5.6.9 1.2l-1.8 2.3c-.2.3-.9.3-1.2-.1z" fill="#bec3c7"/><path d="m47.8 306.8 1.1-1.1c.3-.4.3-.9-.1-1.2l-2.7-1.8c-.7-.5-1.5.3-1.1 1l1.7 2.9c.1.5.7.6 1.1.2z" fill="#bec3c7"/><path d="m51.6 377.7c.7-1.2 1.4-2.2 2.3-3 1.6-1.7 3.5-2.7 5.8-2.8 3.2-.2 5.9 1.6 8.2 4.4.3.4.7.9 1 1.4z" fill="#bec3c7"/><path d="m113.9 377.7 9-72.9 2.5.2-8.7 72.7z" fill="#93633e"/><path d="m77 367 35.5-1.5s.7-3.6 2.5-3.7 4.8 0 4.8 4.6c0 3.6-2.1 4.2-3.9 4.2s-3.1-2-3.1-2l-35.1 4.2z" fill="#96a6a6"/><path d="m91 333.8 2.8-27.5 62.7 6.6-2.9 27.8z" fill="#f2f2f2"/><path d="m123.6 323.8c-.3.3-.6.5-.9.7s-.5.3-.7.4-.4.2-.6.2c.3-.8.6-1.6.8-2.3.1-.3.2-.6.3-.9s.2-.6.3-.9.2-.5.3-.7.2-.4.2-.5 0-.1.1-.2c0-.1 0-.3-.1-.4s-.2-.1-.4-.2c-.1 0-.3 0-.4 0s-.3.1-.5.1c-.2.1-.3.2-.4.3s-.2.3-.3.4l-1 2.1c-.1.2-.1.4-.2.6s-.3.4-.4.7c-.2.2-.3.4-.5.5s-.4.2-.6.1c-.1 0-.2-.1-.3-.1-.1-.1-.1-.2-.1-.3s0-.2 0-.3 0-.2 0-.4.1-.5.2-.8.2-.6.3-.9.3-.6.4-.9.3-.6.4-.8c0-.1.1-.1.1-.2s0-.1.1-.2c0-.2 0-.3-.1-.5-.1-.1-.3-.2-.4-.2-.2 0-.4 0-.7.1-.2.1-.4.2-.6.4-.2.3-.4.6-.6.9s-.3.6-.5.9c-.1.3-.3.7-.4 1s-.2.7-.3 1.1c-.2.1-.3.1-.5.2s-.4.1-.6.1-.3 0-.4 0-.2-.1-.2-.1c0-.1-.1-.1-.1-.2s0-.2 0-.3 0-.3.1-.4c0-.1.1-.2.1-.4.1-.2.2-.4.2-.7.1-.2.2-.5.3-.8s.2-.6.3-.8c.1-.3.2-.5.3-.8.1-.2.1-.4.2-.6 0-.1 0-.3-.2-.4-.1-.1-.3-.2-.6-.3-.2 0-.4 0-.6 0s-.3.1-.4.3l-1.5 3.7c-.1.2-.2.4-.3.5s-.2.3-.4.4c-.1.1-.3.2-.4.2s-.2 0-.4 0c-.1 0-.1 0-.2-.1 0-.1-.1-.1-.1-.2s0-.2 0-.2c0-.1 0-.2 0-.3 0 0 0-.1.1-.2s.1-.3.2-.6c.1-.2.2-.5.3-.8s.2-.6.3-.9.2-.6.4-1l.3-.9c0-.1 0-.2-.1-.3s-.3-.2-.6-.2c-.2 0-.3 0-.5 0-.1.1-.3.1-.4.2s-.2.2-.3.4c-.1.1-.2.3-.3.4s-.1.3-.2.4-.1.2-.1.3c-.2.6-.4 1.1-.6 1.6-.1.1-.3.2-.4.2-.2.1-.4.2-.7.3-.2.1-.4.2-.6.2-.2.1-.4.1-.6.2.2-.2.4-.4.5-.6s.2-.4.3-.6.2-.4.2-.7c.1-.2.1-.5.2-.7.1-.3.1-.6 0-.9 0-.3-.1-.6-.2-.8s-.3-.5-.5-.6c-.2-.2-.5-.3-.8-.3-.2 0-.5 0-.8.2s-.6.4-.9.7l-.1-.1c.4-.4.9-.8 1.3-1.2s.9-.9 1.3-1.3c.4-.5.7-.9 1-1.4s.5-1 .6-1.4c.1-.3.1-.7.1-1s0-.6-.1-.8-.2-.5-.4-.6c-.2-.2-.5-.3-.9-.4-.3-.1-.7 0-1 .2s-.7.5-1 1c-.3.4-.7.9-1 1.5s-.6 1.1-.9 1.7-.5 1.2-.8 1.8c-.2.6-.4 1.1-.6 1.6-.3.7-.5 1.4-.7 2s-.3 1.1-.5 1.5c-.1.5-.3 1-.4 1.4.7 2.3 3.6 1.9 3.6 1.9.2 0 .4-.1.6-.1s.3-.1.5-.2.3-.1.4-.2c.4 0 .7 0 1.1-.1.3 0 .7-.1 1-.2.2-.1.5-.2.7-.3v.1c-.1.3-.1.6-.1.8s.1.4.2.6.2.3.3.4.3.1.5.2h.7c.2 0 .5-.1.7-.2s.5-.2.7-.4.5-.3.7-.5c0 .2 0 .5.1.7 0 .2.1.4.2.5.1.2.2.3.3.4s.3.2.5.2.4 0 .6 0 .5 0 .7-.1c.2 0 .5-.1.7-.2s.3-.1.5-.2c.1.2.1.3.2.4.1.2.3.4.5.5s.4.2.7.3.6 0 .9-.1.6-.2 1-.4l-.3.7c-.4.2-.8.5-1.3.7-.4.3-.8.5-1.2.8s-.8.6-1.1.9-.6.6-.9.9-.5.6-.7.8c-.2.3-.3.5-.3.7-.1.3-.1.6 0 .8s.2.4.3.5.3.2.5.3.4.1.5.2c.4.1.8.1 1.2 0s.8-.2 1.1-.4.7-.5 1-.8.6-.7.9-1.1.5-.9.7-1.4.4-1 .6-1.5c.6-.2 1.1-.4 1.6-.7.2-.1.4-.2.6-.3s.4-.2.6-.4c.2-.1.4-.3.6-.4s.3-.3.4-.4v-1.8c.2.4-.2.7-.5 1zm-18.7-8.8c.1-.3.2-.6.3-.9s.3-.6.4-1c.2-.4.3-.7.5-1s.3-.7.5-1 .3-.6.5-.8.3-.4.4-.5.3-.2.4-.2.2.1.2.1c0 .1.1.1.1.2s0 .1 0 .2 0 .1 0 .1c-.1.4-.2.7-.4 1s-.3.7-.5 1-.4.6-.6.9-.5.6-.7.8c-.2.3-.5.5-.7.8s-.4.5-.6.7c0 0 .1-.2.2-.4zm2 3.3c0 .2-.1.4-.2.6s-.2.5-.2.7-.2.4-.3.6-.3.4-.4.5-.3.3-.5.3c-.2.1-.3.1-.5.1-.1 0-.3-.1-.5-.1-.2-.1-.3-.1-.4-.2-.2-.1-.3-.1-.5-.2 0-.2.1-.4.2-.6s.1-.4.2-.6.2-.5.3-.7c.1-.3.3-.6.4-.8.2-.2.3-.4.5-.5s.4-.2.6-.2.4 0 .6 0 .4.1.5.2.2.2.3.3.1.2.1.3c-.1 0-.1.2-.2.3zm11.6 9.7c-.1.2-.3.5-.4.7-.2.3-.3.5-.5.7s-.4.4-.6.6-.4.3-.6.4-.4.1-.6.1-.3-.2-.3-.3.1-.3.2-.4c.1-.2.2-.3.4-.5s.4-.4.6-.6.4-.4.7-.5c.2-.2.5-.3.7-.5.2-.1.5-.3.7-.4-.1.2-.2.5-.3.7z" fill="#2d3e50"/><path d="m147.9 322.6c-.1 0-.2 0-.3-.1-.1 0-.3-.1-.4-.1-.2 0-.3-.1-.5-.1s-.3-.1-.4-.1-.3-.1-.4-.1-.2 0-.2-.1c.2-.3.5-.5.7-.8s.4-.5.6-.8.3-.5.4-.8.2-.5.3-.8.1-.6.1-.9-.1-.5-.2-.8-.2-.4-.4-.6-.3-.3-.6-.3c-.3-.1-.7 0-1.1.3-.4.2-.7.6-1.1 1-.4.5-.7 1-1 1.6s-.6 1.2-.9 1.9c-.1 0-.1 0-.3 0-.1 0-.3-.1-.5-.1s-.3-.1-.5-.1-.4-.1-.5-.1c-.2 0-.3 0-.4 0s-.2.1-.2.2v.2s0 .1 0 .2.1.1.1.2c.1.1.1.1.3.1.3.1.5.1.6.2.1 0 .3.1.3.1.1 0 .2.1.3.1s.2.1.3.1c-.1.3-.2.7-.3 1s-.2.7-.2 1c-.1.6-.2 1.2-.2 1.8-.2.2-.5.4-.7.6-.1.1-.3.2-.4.3s-.3.2-.4.2c-.1.1-.3.1-.4.1s-.2 0-.3 0-.2-.1-.2-.3c0-.1 0-.3 0-.6.1-.3.1-.6.2-.9s.2-.6.3-.9.2-.6.3-.9.2-.6.2-.8 0-.3 0-.4 0-.2-.1-.2c0-.1-.1-.1-.2-.1s-.1 0-.2-.1c-.1 0-.1 0-.2 0s-.1 0-.2 0-.1 0-.2 0-.1 0-.2-.1c-.1 0-.1-.1-.1-.1 0-.1-.1-.1-.1-.2s-.1-.1-.1-.2c-.1-.1-.1-.1-.3-.1-.3-.1-.7-.1-1.1 0s-.7.2-1.1.4-.7.4-1 .7-.6.6-.9 1c-.3.3-.5.7-.7 1.1 0 .1-.1.2-.1.3-.3.2-.6.4-1 .6-.3.2-.7.3-1 .4s-.6.1-.8.1-.4-.1-.6-.3c-.1-.1-.2-.3-.3-.5s-.1-.4-.1-.6 0-.4.1-.6c0-.1.1-.3.1-.5s.1-.4.2-.6.2-.4.3-.6.2-.4.3-.5.3-.2.4-.3c.2-.1.4-.1.6 0 .1 0 .1.1.1.2s0 .2 0 .3 0 .2-.1.3 0 .2-.1.3v.5c.1.1.2.2.4.3h.4s.3-.1.4-.3c.1-.1.2-.3.3-.4.1-.2.1-.3.2-.5 0-.2 0-.5 0-.7-.1-.2-.2-.4-.3-.6s-.3-.4-.6-.5c-.2-.1-.5-.2-.8-.3s-.7-.1-1 0-.6.2-.9.4-.5.4-.7.6-.4.5-.6.8-.3.6-.4.9-.2.6-.3.9c-.1.4-.1.8 0 1.2 0 .4.2.8.4 1.1s.4.6.8.9c.3.2.7.4 1.2.5.3.1.5.1.8 0 .3 0 .5-.1.8-.2s.5-.2.8-.3.5-.3.7-.4v.2c.1.3.2.5.3.8.1.2.3.4.5.5s.4.2.7.3h.7s.5-.1.7-.2.5-.2.7-.3.4-.2.5-.3c.1.4.2.8.4 1 .2.3.4.4.8.5.3.1.6 0 .9 0 .3-.1.6-.2.9-.4s.5-.3.8-.5c.1-.1.3-.2.4-.3v.3c.1.5.3.9.5 1.1.3.3.6.5 1 .5h.6c.2 0 .5-.1.9-.2.3-.1.7-.2 1.1-.3s.9-.3 1.4-.5l.4-2c-.2.1-.4.3-.6.4s-.4.2-.7.3c-.2.1-.5.2-.7.3s-.5.1-.7.2-.4.1-.6.1-.3 0-.4 0c-.2 0-.3-.1-.5-.2-.1-.1-.2-.2-.3-.3s-.1-.3-.1-.5 0-.4.1-.7c0-.1 0-.2.1-.3s.1-.3.1-.4.1-.3.1-.4.1-.3.1-.4c.1-.3.1-.6.2-.9.2-.1.3-.3.5-.5s.4-.3.6-.5l2.9.6c.1 0 .2 0 .4-.1.1-.1.2-.2.2-.4 0-.1 0-.3 0-.4.4.3.3.2.2.2zm-10.6 2.5c-.1.2-.1.4-.2.6s-.3.4-.4.7c-.2.2-.3.4-.5.5s-.4.2-.6.1c-.1 0-.2-.1-.3-.1-.1-.1-.1-.2-.1-.3s0-.2 0-.3 0-.2 0-.4.1-.5.2-.7.2-.5.4-.7.3-.4.5-.6.4-.4.6-.5.4-.3.6-.3c.2-.1.4-.1.6 0zm7.1-3.4c-.1 0-.2 0-.2-.1-.1 0-.2 0-.2-.1.2-.4.3-.8.5-1.2s.4-.8.6-1.1.4-.6.6-.8.3-.3.5-.3c.1 0 .2.1.2.1 0 .1.1.1.1.2s0 .1 0 .2 0 .1 0 .2c0 .2-.1.4-.2.6s-.3.5-.5.8-.4.5-.6.8c-.4.2-.6.5-.8.7z" fill="#2d3e50"/><path d="m339 377.7s-30 0-63.3 0c-7.1-17.4-15.2-52.6-18.4-66.9-.9-3.9-1.4-6.3-1.4-6.3s31.2-.6 76.1 5.4c.5 5.8 1 11.8 1.5 17.7 2.6 25.6 5.5 50.1 5.5 50.1z" fill="#3c6baf"/><path d="m235.2 229.8s8.8 8.2 9.2 13.8c.3 5.7 3.3 19.2-6.5 21.7s-20.2-.7-18.7-4.7 7.7-2.2 7.7-2.2-7.7.5-7.2-3.2 5.6-3.4 5.6-3.4-2.9-.9-1.6-3.2 5-1.7 5-1.7l-6-7.1c0 .2-.3-10.6 12.5-10z" fill="#ffc197"/><path d="m467.9 208.1s17.3 3.6 21.5 4.5c2.9.6 12.1-1.8 17.6-3.3 2.3-.6 3.5-3.1 2.8-5.3-.6-1.8-2.5-3-4.4-2.7l-8.9 1.2 9.2-28.5c.9-2.9-.5-6-3.4-7.1l.7-2.1c.6-1.8-.4-3.7-2.2-4.2-1.7-.5-3.5.4-4.1 2l-.1.4c-2.4-.1-4.7 1.3-5.8 3.4l-1.2 2.3-1.1.7c-1.3.8-2.3 2-3 3.3l-7.8 17.6-12.9-3.2-7.5 17.3z" fill="#ffc197"/><path d="m333.7 327.6c-25.4-10.5-65.7-15.6-76.3-16.8-.9-3.9-1.4-6.3-1.4-6.3s31.2-.6 76.1 5.4c.5 5.7 1.1 11.7 1.6 17.7z" fill="#33567f"/><path d="m473.9 187.2s0 12.3-10 21.7c-1.5-.6-4.7-1.6-9.2-3-28.1-8.3-105.4-28.5-105.4-28.5s-16.5 47-15.1 120.3c.1 3.8.2 7.8.4 11.7-45 8.5-80-5.5-80-5.5s-1.8-4.7-4.2-12.9c-3.6-12.7-8.6-34-10.2-59.7-1.2-19.4-.6-41.3 4-64-25.5 15-31.2 22.5-31.2 22.5l18.2 32.2 6.4 8.5s-9.8-3-14.5 11.3c-2.7-2.5-5.5-5.3-8.4-8.3-18.3-19.5-28.1-44.5-28.1-44.5s29-74 114.2-63.6c63.1 7.7 138 43.4 163.7 56.7 6.1 3.2 9.4 5.1 9.4 5.1z" fill="#56b692"/><path d="m334.6 309.5c-45 8.5-80-5.5-80-5.5s-1.8-4.7-4.2-12.9c10.8 4 40.5 12.8 83.8 6.7.1 3.8.2 7.7.4 11.7z" fill="#6fd8ad"/><path d="m473.9 187.2s0 12.3-10 21.7c-1.5-.6-4.7-1.6-9.2-3 3.8-4.6 8.7-12.5 9.9-23.6 6 3 9.3 4.9 9.3 4.9z" fill="#6fd8ad"/><path d="m237.7 230.6s-9.8-3-14.5 11.3c-2.7-2.5-5.5-5.3-8.4-8.3 3.9-12.1 10.6-11.3 16.5-11.5z" fill="#6fd8ad"/><path d="m296.2 377.7s-3.5-12.5-5.4-26.4c4.5 1.4 11.8 3.1 11.8 3.1s-14.9-8.7-23.5-15.5c-.7-.6-1.8-.4-2.4.3-.5.6-.5 1.6.1 2.2 1.3 1.4 4.2 4.1 10.8 8.6 2.1 13 7.5 27.7 7.5 27.7z" fill="#33567f"/><path d="m302.2 107.7c-4 0-7.3 3.3-7.3 7.3v9.5c0 4 3.3 7.3 7.3 7.3 4 0 7.3-3.3 7.3-7.3v-9.5c.1-4-3.2-7.3-7.3-7.3z" fill="#edb28a"/><path d="m339.3 82.4c-4.5 22.6-24.1 37.8-43.7 33.9-15.4-3-26.3-16.9-28.1-33.6-.1-1-.2-2-.2-3-.2-3.7.1-7.5.9-11.4 4.5-22.6 24.1-37.8 43.7-33.9 19.5 3.9 31.8 25.4 27.4 48z" fill="#ffc197"/><path d="m274.9 59.4-3-.9c-2.9-.9-6.1.9-6.9 3.8-.9 2.9.9 6.1 3.8 6.9l3 .9c2.9.9 6.1-.9 6.9-3.8.9-2.9-.8-6-3.8-6.9z" fill="#ffc197"/><path d="m283.3 88.5c-.3.3-.7.5-1.1.5-.3 0-.7-.1-1-.4-5.4-4.6-10.5-5.8-13.8-6-.1-1-.2-2-.2-3 3.9.2 9.8 1.5 16 6.8.6.6.7 1.5.1 2.1z" fill="#383838"/><ellipse cx="284.5" cy="57.8" fill="#141414" rx="3.9" ry="3" transform="matrix(.6695 -.7428 .7428 .6695 51.0804 230.443)"/><path d="m354.9 72.6c0-18.5 17.3-24.7 29.5-12.4 21 21.2-8.8 45.9 21 54.2-18.3 12.1-50.5-5.8-50.5-41.8z" fill="#f2e48f"/><path d="m319.5 68.8s6.2 4.1 2.9 11.5c-3.3 7.3-11.5 3.8-11.5 3.8z" fill="url(#a)"/><path d="m352 81.1s4 2.1 6.1 0 2.9-15.4-1-18.6c-3.7-3.1-5.1.6-5.1.6s-6.3-4.8-6.6.5-.3 19 6.6 17.5z" fill="#56b692"/><path d="m293.6 37.9s-4.7 21.3 20.2 35.1c9.8 6 15.7 5.4 17.2 25.2 9.6-13.5 6.9-39.4 6.9-39.4z" opacity=".1"/><path d="m281.9 43.6s2.1-15 5.3-17.2c3.7-2.2 10.6.4 10.6.4s4.4-5 9.4-6.6c5-1.5 33.8 5.9 40.4 42.1s-18.2 40.7-18.2 40.7 4.9-29.6-.9-31.6c-5.7-2.1-26.1-2.1-34.2-27-1.2-4.2-.9-6.5-.9-6.5-3.8 1-7.7 3-11.5 5.7z" fill="#f2e48f"/><path d="m293.6 37.9s-3.4-7.9-5.6-6.4c-2 1.3-3.1 10.2-3.1 10.2s4-2.4 8.7-3.8z" fill="#efcc8f"/><path d="m303.5 194.9c1.2.5 2.2.9 3.2 1.5 4 2.3 6 5.7 5.9 10.3 0 2.5-.4 5-1.3 7.3-1.7 4.6-4.9 7.4-9.5 8.7-4 1.1-8 1.3-12.1 1.1-.7 0-.8.2-.9.8-.3 3.4-.7 6.9-1.1 10.3-.1.6-.2.8-.8.7-1.8-.3-3.7-.4-5.6-.6-.8-.1-.9-.4-.8-1.1.4-3.4.7-6.7 1.1-10.1.1-.6 0-.8-.7-.9-1.4-.1-2.8-.3-4.2-.5-.6-.1-.8.1-.9.7-.3 3.4-.7 6.8-1 10.2-.1.7-.3.9-1 .8-1.8-.3-3.6-.4-5.4-.6-.7-.1-.9-.2-.8-1 .4-3.4.7-6.8 1.1-10.3.1-.7-.1-.9-.8-1-4.4-.4-8.8-.9-13.3-1.4-.5 0-.4-.2-.3-.5.7-2.5 1.4-5 2.1-7.4.1-.4.3-.5.7-.5 1.6.2 3.2.4 4.9.5 1.6.1 2.6-.8 2.8-2.5.6-5.8 1.2-11.7 1.9-17.5.5-4.6 1-9.2 1.5-13.9.2-2.2-.9-3.8-3.1-4.2-1.6-.3-3.3-.4-4.9-.6-.7 0-.9-.2-.8-1 .3-2.1.4-4.2.6-6.3 0-.5.3-.5.6-.5 3.1.3 6.2.7 9.4 1 1.4.2 2.8.3 4.2.5.3 0 .4-.1.5-.5.5-3.5.8-7 1.1-10.5.1-.7.3-.9 1-.8 1.8.2 3.7.4 5.5.6.7.1.9.3.8 1-.4 3.3-.7 6.7-1.1 10-.1.6.1.8.6.8 1.5.1 3 .2 4.4.4.5.1.6-.1.7-.6.3-3.4.7-6.7 1-10.1.1-.6.2-.9.9-.8 1.9.3 3.8.5 5.7.6.7.1.8.3.7.9-.4 3.4-.7 6.8-1.1 10.1-.1.8.2 1 .9 1.1 3.3.7 6.4 1.6 9.3 3.4 3 1.8 5.1 4.3 5.7 7.8.7 4.6 0 9.8-4.7 12.9-.9.9-1.6 1.3-2.6 1.7zm-13.4 19.4c1-.1 2-.3 3-.6 2.7-.9 4.7-2.5 5.1-5.6.4-3-1-5.2-3.5-6.8-1.3-.8-2.7-1.3-4.2-1.8-3.6-1-7.4-1.3-11.1-1.6-.4 0-.6.1-.7.5-.5 4.9-1 9.8-1.6 14.7 0 .4 0 .6.4.6 4.2.6 8.4 1.2 12.6.6zm-.1-23.2c.9-.1 1.7-.3 2.5-.5 3.7-1.2 5.6-4.8 4.2-8.4-.8-2.1-2.5-3.2-4.5-4-3.5-1.4-7.2-1.6-10.8-1.9-.4 0-.5.2-.5.5-.5 4.4-.9 8.8-1.4 13.3 0 .4 0 .6.5.7 3.4.3 6.7.7 10 .3z" fill="#fefefd"/><path d="m295.4 47.5-1.6-3.3c-.6-1.3-2.2-1.9-3.6-1.2-1.3.6-1.9 2.2-1.2 3.6l1.6 3.3c.6 1.3 2.2 1.9 3.6 1.2 1.3-.7 1.8-2.3 1.2-3.6z" fill="#f2e48f"/><g fill="#56b692"><path d="m316.9 302.3c-.1-.6-1.1-.6-1 0 .2 2.5.3 4.9.4 7.4 0 .6 1 .6 1 0-.1-2.4-.2-4.9-.4-7.4z"/><path d="m323.2 301.8c0-.6-1-.6-1 0 0 2.5.3 4.9.7 7.4.1.6 1.1.4 1-.3-.5-2.3-.7-4.7-.7-7.1z"/><path d="m329.1 308.3c-.4-.2-.2-3-.2-3.4 0-1.2-.1-2.3-.1-3.5 0-.6-1-.6-1 0 0 1.7.1 3.5.1 5.2 0 .8-.2 2.2.6 2.6.7.2 1.2-.7.6-.9z"/><path d="m332.1 307.2c.1 0-.2-3-.2-3.4-.1-1-.1-2.1-.1-3.1 0-.6-1-.6-1 0 0 1.8.1 3.7.3 5.5.1.8 0 1.9 1 2 .6 0 .6-1 0-1z"/><path d="m231.7 228.9c-.9-.7-1.6-1.7-2.2-2.6-.6-.8-1.3-1.7-1.9-2.5-.4-.5-1.3 0-.9.5.8 1 1.6 2.1 2.4 3.1.6.8 1.2 1.7 2.1 2.3.5.5 1-.4.5-.8z"/><path d="m234.7 228.5c-1.8-1.5-3.4-3.4-4.6-5.4-.3-.6-1.2-.1-.9.5 1.2 2.1 2.8 4 4.7 5.6.5.4 1.3-.3.8-.7z"/><path d="m463.6 205.6c-1.8-.4-3.5-1-5.2-1.8-.6-.3-1.1.6-.5.9 1.8.8 3.6 1.5 5.4 1.9.7.1.9-.9.3-1z"/><path d="m465.1 202.8c-.7-.1-1.6-.6-2.1-.8-.8-.3-1.7-.7-2.5-1.1-.6-.3-1.1.6-.5.9l2.7 1.2c.7.3 1.8.9 2.6.8.2 0 .4-.1.5-.4v-.1c.2-.5-.3-.7-.7-.5z"/><path d="m467.9 199.3c-.8-.1-1.8-.6-2.4-.9-.9-.4-1.9-.8-2.8-1.2-.6-.3-1.1.6-.5.9 1.3.6 2.7 1.2 4 1.7.6.2 1.9 1 2.4.2.3-.5-.3-.9-.7-.7z"/></g></svg>