<?xml version="1.0" encoding="utf-8"?>
<!-- Generator: Adobe Illustrator 21.0.2, SVG Export Plug-In . SVG Version: 6.00 Build 0)  -->
<svg version="1.1" id="Слой_1" xmlns="http://www.w3.org/2000/svg" xmlns:xlink="http://www.w3.org/1999/xlink" x="0px" y="0px"
	 viewBox="0 0 681.9 377.4" style="enable-background:new 0 0 681.9 377.4;" xml:space="preserve">
<style type="text/css">
	.st0{fill:#96A6A6;}
	.st1{fill:#7A8786;}
	.st2{fill:#BEC3C7;}
	.st3{fill:#EDF1F2;}
	.st4{fill:#2D3E4E;}
	.st5{fill:#BC312E;}
	.st6{fill:#E54D42;}
	.st7{fill:#2D3E50;}
	.st8{fill:#93633E;}
	.st9{fill:#684731;}
	.st10{fill:#808B8D;}
	.st11{fill:#D7DCDD;}
	.st12{fill:#F2F2F2;}
	.st13{fill:#3C6BAF;}
	.st14{fill:#FFC197;}
	.st15{fill:#33567F;}
	.st16{fill:#56B692;}
	.st17{fill:#6FD8AD;}
	.st18{fill:#EDB28A;}
	.st19{fill:#383838;}
	.st20{fill:#141414;}
	.st21{fill:#F2E48F;}
	.st22{fill:url(#SVGID_1_);}
	.st23{opacity:0.1;enable-background:new    ;}
	.st24{fill:#EFCC8F;}
	.st25{fill:#FEFEFD;}
</style>
<g>
	<path class="st0" d="M551.1,263.3c0,0-4.6,39-5.8,76.2c33.4,0,52.5,0,52.5,0s-2.8-66.3-11-80.6
		C580.8,253.7,558.9,251.3,551.1,263.3z"/>
	<path class="st1" d="M627.4,292.8c4.3,13.5-1.6,22.3-9.7,27.6l0,0c-4.7,1.8-9.5,3.1-14.5,3.9c-1.3,0.2-2.6,0.4-3.9,0.6
		c-1.1-4.4,0.3-9,0.3-9s3.1-0.2,6.7-1.6l0,0c4.4-1.7,9.6-5.2,11.5-12.3c1.3-4.9-0.7-10-3.3-15.5c-4.2-9.1-10.1-19.6-5.4-33.1
		c0.2-0.5,0.4-1.1,0.6-1.6c0.4-1,0.9-1.9,1.5-2.8c0.8-1.3,1.7-2.6,2.7-3.7c1.6-1.9,3.5-3.5,5.6-5c1.8-1.3,3.8-2.4,5.9-3.3
		c2.5-1.1,5-1.9,7.6-2.5c0.3-0.1,0.7-0.1,1-0.2c11.1-2.1,21.9,0.9,23.9,9.8c3.9,17.4-10.6,17-19.3,18.3c-0.3,0-0.5,0.1-0.8,0.1
		C629.5,263.8,619.9,269.5,627.4,292.8z"/>
	<path class="st0" d="M601.7,249.7c0,0-0.2-10.7-0.3-11c-0.4-2-0.8-3.9-1.2-5.8c-1.9-8.7-4-16.2-6.6-22.5c-1.4-3.4-2.8-6.4-4.4-9
		c-2.2-3.6-4.6-6.5-7.2-8.6c-3.2-2.5-6.7-3.9-10.5-4.2c-5-0.3-9.4,1.1-13.2,4c-2.7,2.1-5.1,4.9-7.2,8.5c-1.5,2.6-3,5.5-4.2,8.9
		c-2.9,7.7-5.2,17.3-6.9,28.6c-0.1,0.7-0.2,1.4-0.3,2.2v0.1c-0.4,2.6-0.7,5.3-0.9,8.1C538.5,250.8,602.1,252,601.7,249.7z"/>
	<path class="st0" d="M559.8,193.5c0,0-9.2-4.9-15.3-7.8c0.5,9,7.6,16.9,7.6,16.9L559.8,193.5z"/>
	<path class="st0" d="M581.3,193.6c0,0,7-6.5,16.2-7.1c-0.8,8.4-9.3,16.2-9.3,16.2L581.3,193.6z"/>
	<path class="st2" d="M563.1,223.2c0,0-3-20.9,0-21.9s4,3.4,4,3.4s1.4-9.4,4.8-9.2c3.4,0.2,2.2,8.8,2.2,8.8s2-4.4,4.4-3.8
		c2.4,0.6-2.8,22.7-2.8,22.7l-2.2,22.3l-1,4.1l-9-0.7l0.8-4C564.4,245,564.4,236.8,563.1,223.2z"/>
	<path class="st2" d="M538.2,238.2c0,0-7.3-0.6-8.6,1.9c-1.6,3.1,0.4,5.8,0.4,5.8s-6,0.9-6.5,5.6c-0.5,4.2,3.3,5.4,3.3,5.4
		s-2.8,3.7-1.5,6.5c4,8.4,36,2.7,36,2.7s-1.2,3.9,3.8,5.1s14.4-6.9,14.4-6.9s25.3,7.1,33-0.6c3.3-3.3,0-5.9,0-5.9s5.3-1.1,6.3-4.9
		c1.1-3.8-5.7-7-5.7-7s2.6-2-1.4-4.9c-3.9-2.9-10.3-2.3-10.3-2.3s-23.1,0.9-27.8,6.8c1,4.2-3.1,7.4-3.1,7.4l-4.8-7.9
		C565.7,245,560,236.6,538.2,238.2z"/>
	<path class="st3" d="M606.6,227.4c0,4.4-1.6,8.4-4.2,11.4c-3.2,3.8-8,6.2-13.4,6.2c-6.2,0-11.6-3.2-14.7-8
		c-1.8-2.8-2.9-6.1-2.9-9.6c0-9.7,7.9-17.6,17.6-17.6C598.7,209.8,606.6,217.7,606.6,227.4z"/>
	<path class="st3" d="M567.2,227.4c0,3.6-1,7-2.8,9.8c-3,4.7-8.2,7.8-14.1,7.8c-5.1,0-9.6-2.3-12.7-6c-2.6-3.1-4.2-7.2-4.2-11.6
		c0-9.7,7.6-17.6,16.9-17.6S567.2,217.7,567.2,227.4z"/>
	<circle class="st4" cx="544.5" cy="225.1" r="4.4"/>
	<circle class="st4" cx="577.1" cy="225.8" r="4.4"/>
	<path class="st5" d="M561.4,254.4c0,0,0.9,10.8,6,10.9s10.4-13.9,10.4-13.9L561.4,254.4z"/>
	<path class="st3" d="M568.5,245.5c0,0-12.8-3.6-12.6,4.6s12.6,5.5,12.6,5.5s6.2,7.7,11.8,2.4c5.5-5.3,2.9-14.2-6.6-12.6
		C570.4,245.8,568.5,245.5,568.5,245.5z"/>
	<path class="st6" d="M565.6,247.2l2.3,2.1c0.6,0.5,1.5,0.5,2-0.1l2.2-2.4c0.9-0.9,0.2-2.4-1-2.4c-1.3,0-3,0-4.8,0.2
		C565.2,244.8,564.7,246.3,565.6,247.2z"/>
	<g>
		<path class="st4" d="M610.7,246c-2,0.3-4,0.6-5.9,0.9c-2,0.3-3.9,0.7-5.9,1.2c-1.9,0.4-3.8,1.1-5.8,1.4c-2,0.3-3.9,0.7-6,0.7
			L587,250c1.8-1.1,3.6-1.9,5.6-2.5c1.9-0.6,4-0.8,6-1.1c4-0.5,8-0.8,12.1-0.8L610.7,246z"/>
	</g>
	<g>
		<path class="st4" d="M607.1,252.8c-1.4,0-2.7,0-4.1,0.1c-1.4,0-2.7,0.1-4.1,0.2c-1.4,0.1-2.7,0.3-4.1,0.1
			c-1.4-0.1-2.7-0.4-4.1-0.9v-0.2c1.4-0.5,2.8-0.8,4.1-0.9c1.4-0.1,2.8,0.1,4.1,0.3c1.4,0.1,2.8,0.3,4.1,0.4
			c1.4,0.2,2.7,0.4,4.1,0.7V252.8z"/>
	</g>
	<g>
		<path class="st4" d="M526.8,258.8c1.7-1.1,3.5-2,5.3-2.8s3.7-1.6,5.6-2.3c1.9-0.7,3.8-1.4,5.9-1.6c2-0.2,4.1-0.1,6.1,0.4v0.2
			c-2,0.6-3.9,0.9-5.8,1.4c-1.9,0.5-3.8,0.6-5.7,1.1s-3.8,1-5.7,1.7c-1.9,0.6-3.7,1.3-5.6,2.1L526.8,258.8z"/>
	</g>
	<g>
		<path class="st4" d="M532.8,249.7c3.1-0.8,6.2-1.3,9.4-1.6c1.6-0.1,3.2-0.4,4.8-0.2s3.2,0.6,4.7,1.3v0.2c-1.6,0.4-3.2,0.4-4.7,0.5
			s-3.1-0.2-4.6-0.2c-1.6-0.1-3.1-0.1-4.7,0c-1.6,0-3.1,0.1-4.7,0.2L532.8,249.7z"/>
	</g>
	<path class="st2" d="M638.7,262.3c-13.8-9.8-7.4-23.5-4.6-28.1c11.1-2.1,21.9,0.9,23.9,9.8C661.9,261.4,647.4,261,638.7,262.3z"/>
	<path class="st7" d="M589.2,200.8L585,200c-1.2-0.2-2.4,0.6-2.6,1.8l0,0c-0.2,1.2,0.6,2.4,1.8,2.6l4.1,0.7c1.2,0.2,2.4-0.6,2.6-1.8
		l0,0C591.2,202.1,590.4,201,589.2,200.8z"/>
	<path class="st7" d="M553.2,199.8l-4.1,1c-1.2,0.3-1.9,1.5-1.7,2.7l0,0c0.3,1.2,1.5,1.9,2.7,1.7l4.1-1c1.2-0.3,1.9-1.5,1.7-2.7l0,0
		C555.6,200.2,554.4,199.5,553.2,199.8z"/>
	<path class="st2" d="M586.7,197.4l-0.8-1.3c-0.3-0.5-0.1-1.1,0.4-1.4l3.1-1.4c0.9-0.4,1.8,0.7,1.1,1.5l-2.3,2.7
		C587.8,198,587.1,197.9,586.7,197.4z"/>
	<path class="st2" d="M553.3,198l1.3-1.4c0.4-0.4,0.3-1.1-0.2-1.5l-3.3-2.2c-0.8-0.5-1.8,0.4-1.4,1.3l2,3.6
		C552.1,198.4,552.9,198.5,553.3,198z"/>
	<path class="st0" d="M553.8,339.5H529c0,0-4.1-10.7,3.9-11c-10.3-18.7-13.6-47.8,9.5-36.8S553.8,339.5,553.8,339.5z"/>
	<path class="st0" d="M608.6,339.6l11.6-0.1c0,0,1.2-8.8-8.5-9.2c15.8-17.2,19.5-43.3-5.1-35.8c-10.2,4.3-17.6,14.3-17.6,14.3
		l3.9,30.7h15.7V339.6z"/>
	<path class="st2" d="M550.9,339.5c0,0-3.6-61.2,17-62.2s25.4,62.2,25.4,62.2H550.9z"/>
	<path class="st0" d="M555,286.3l1.7,49c0,0-3.1,1.2-2.9,4.2c4.5,0,11.4,0,11.4,0s0.8-4.3-4.5-4.3c0-28.5,0.2-57.8,0.2-57.8
		L555,286.3z"/>
	<path class="st0" d="M583.8,286.3l-1.7,49c0,0,3.1,1.2,2.9,4.2c-4.5,0-11.4,0-11.4,0s-0.8-4.3,4.5-4.3c0-28.5-0.2-57.8-0.2-57.8
		L583.8,286.3z"/>
	<polygon class="st8" points="645.9,339.5 500.2,339.5 504.5,352.7 642.4,349.7 	"/>
	<polygon class="st8" points="635.5,349.8 635.2,354.5 633.7,377.7 515.4,377.7 513.7,367.1 511.4,352.5 	"/>
	<polygon class="st9" points="635.5,349.8 635.2,354.5 513.7,367.1 511.4,352.5 	"/>
</g>
<g>
	<path class="st0" d="M44.2,377.7c0.6-6,1.1-10.9,1.4-13.9c0.2-2.2,0.4-3.4,0.4-3.4c2-3.1,5.2-5,8.7-6.1c0.7-0.2,1.4-0.4,2.2-0.5
		c3-0.6,6.2-0.6,9.1-0.3c1.9,0.2,3.7,0.6,5.2,1.1c1.8,0.6,3.2,1.3,4.2,2.2c0.8,1.5,1.6,3.6,2.3,6.2c1.1,4,2,9.2,2.8,14.8H44.2V377.7
		z"/>
	<path class="st0" d="M87.5,349.2c0,0-0.2-8.8-0.2-9c-0.3-1.6-0.6-3.2-1-4.8c-1.5-7.1-3.3-13.3-5.4-18.4c-1.1-2.8-2.3-5.2-3.6-7.4
		c-1.8-3-3.7-5.3-5.9-7c-2.6-2.1-5.5-3.2-8.7-3.4c-4.1-0.2-7.7,0.9-10.9,3.3c-2.2,1.7-4.2,4-5.9,7c-1.3,2.1-2.4,4.6-3.5,7.3
		c-2.4,6.3-4.3,14.2-5.7,23.5c-0.1,0.6-0.2,1.2-0.3,1.8v0.1c-0.3,2.1-0.5,4.3-0.8,6.7C35.6,350.1,87.8,351.1,87.5,349.2z"/>
	<path class="st0" d="M53,303.1c0,0-7.6-4-12.5-6.4c0.4,7.4,6.3,13.9,6.3,13.9L53,303.1z"/>
	<path class="st0" d="M70.7,303.1c0,0,5.7-5.3,13.3-5.9c-0.6,6.9-7.6,13.3-7.6,13.3L70.7,303.1z"/>
	<path class="st2" d="M55.8,327.4c0,0-2.5-17.2,0-18s3.3,2.8,3.3,2.8s1.2-7.8,4-7.6c2.8,0.2,1.8,7.3,1.8,7.3s1.6-3.6,3.6-3.1
		s-2.3,18.6-2.3,18.6l-1.8,18.3l-0.9,3.4l-7.4-0.6l0.6-3.3C56.8,345.3,56.9,338.6,55.8,327.4z"/>
	<path class="st2" d="M35.3,339.8c0,0-6-0.5-7.1,1.5c-1.3,2.6,0.3,4.8,0.3,4.8s-4.9,0.7-5.3,4.6c-0.4,3.5,2.7,4.4,2.7,4.4
		s-2.3,3-1.2,5.3c3.3,6.9,29.5,2.2,29.5,2.2s-1,3.2,3.1,4.2s11.8-5.7,11.8-5.7s20.7,5.8,27.1-0.5c2.7-2.7,0-4.8,0-4.8s4.3-0.9,5.2-4
		c0.9-3.1-4.7-5.7-4.7-5.7s2.1-1.7-1.1-4.1s-8.5-1.9-8.5-1.9s-18.9,0.7-22.8,5.6c0.8,3.4-2.6,6.1-2.6,6.1l-3.9-6.5
		C57.9,345.3,53.2,338.4,35.3,339.8z"/>
	<path class="st3" d="M91.4,330.9c0,3.6-1.3,6.9-3.5,9.4c-2.6,3.1-6.6,5-11,5c-5.1,0-9.5-2.6-12.1-6.5c-1.5-2.3-2.3-5-2.3-7.9
		c0-8,6.5-14.4,14.4-14.4C85,316.4,91.4,322.9,91.4,330.9z"/>
	<path class="st3" d="M59.1,330.9c0,3-0.9,5.7-2.3,8c-2.5,3.9-6.7,6.4-11.6,6.4c-4.2,0-7.9-1.9-10.4-4.9c-2.2-2.5-3.5-5.9-3.5-9.5
		c0-8,6.2-14.4,13.9-14.4S59.1,322.9,59.1,330.9z"/>
	<path class="st10" d="M34.8,340.4c4.4-0.5,12.5-1.2,22-1.5c-2.5,3.9-6.7,6.4-11.6,6.4C41.1,345.3,37.4,343.4,34.8,340.4z"/>
	<path class="st10" d="M88,340.3c-2.6,3.1-6.6,5-11,5c-5.1,0-9.5-2.6-12.1-6.5C72.5,338.8,80.5,339.2,88,340.3z"/>
	<circle class="st4" cx="50.5" cy="324.6" r="3.6"/>
	<circle class="st4" cx="82.1" cy="322.8" r="3.6"/>
	<path class="st11" d="M56.6,352.6c0,0,0.6,6.9,3.8,7s6.6-8.8,6.6-8.8L56.6,352.6z"/>
	<path class="st3" d="M60.2,345.8c0,0-10.5-3-10.3,3.8s10.3,4.5,10.3,4.5s5.1,6.4,9.7,2s2.4-11.6-5.4-10.3
		C61.8,346,60.2,345.8,60.2,345.8z"/>
	<path class="st6" d="M57.8,347.1l1.9,1.7c0.5,0.4,1.2,0.4,1.6-0.1l1.8-1.9c0.7-0.7,0.2-2-0.8-2c-1.1,0-2.4,0-3.9,0.2
		C57.5,345.2,57.1,346.4,57.8,347.1z"/>
	<g>
		<path class="st4" d="M94.9,346.2c-1.6,0.2-3.3,0.5-4.9,0.8s-3.2,0.6-4.8,1c-1.6,0.4-3.1,1-4.7,1.2s-3.2,0.5-5,0.5l-0.1-0.2
			c1.4-1,3-1.7,4.5-2.2c1.6-0.5,3.3-0.6,4.9-0.8c3.3-0.4,6.6-0.6,9.9-0.5L94.9,346.2z"/>
	</g>
	<g>
		<path class="st4" d="M91.9,351.8c-1.1,0-2.3,0.1-3.4,0.2l-3.4,0.2c-1.1,0.1-2.3,0.3-3.4,0.1c-1.1-0.1-2.2-0.4-3.4-0.9v-0.2
			c1.1-0.5,2.3-0.8,3.4-0.9s2.3,0.1,3.4,0.3c1.1,0.1,2.3,0.2,3.4,0.4c1.1,0.2,2.3,0.3,3.4,0.6V351.8z"/>
	</g>
	<g>
		<path class="st4" d="M25.9,356.6c2.8-1.8,5.8-3.2,8.9-4.3c1.6-0.6,3.1-1.2,4.8-1.3c1.7-0.1,3.4-0.1,5,0.5v0.2
			c-1.6,0.6-3.2,0.9-4.7,1.3s-3.1,0.5-4.7,0.9c-1.6,0.4-3.1,0.8-4.7,1.3c-1.6,0.5-3.1,1-4.6,1.6L25.9,356.6z"/>
	</g>
	<g>
		<path class="st4" d="M30.9,349.2c2.5-0.7,5.1-1.2,7.7-1.4c1.3-0.1,2.6-0.4,3.9-0.2c1.3,0.2,2.6,0.5,3.8,1.2v0.2
			c-1.3,0.4-2.6,0.5-3.9,0.6c-1.3,0.1-2.5-0.2-3.8-0.2c-1.3-0.1-2.6-0.1-3.8-0.1c-1.3,0-2.6,0-3.9,0.1V349.2z"/>
	</g>
	<path class="st7" d="M77.5,309.1l-4-0.7c-0.8-0.1-1.6,0.4-1.8,1.2l-0.1,0.6c-0.1,0.8,0.4,1.6,1.2,1.8l4,0.7
		c0.8,0.1,1.6-0.4,1.8-1.2l0.1-0.6C78.8,310,78.3,309.2,77.5,309.1z"/>
	<path class="st7" d="M47.9,308.2l-3.9,0.9c-0.8,0.2-1.3,1-1.1,1.8l0.1,0.6c0.2,0.8,1,1.3,1.8,1.1l3.9-0.9c0.8-0.2,1.3-1,1.1-1.8
		l-0.1-0.6C49.5,308.5,48.7,308,47.9,308.2z"/>
	<path class="st2" d="M75.1,306.3l-0.7-1.1c-0.3-0.4-0.1-0.9,0.3-1.1l2.5-1.2c0.8-0.4,1.5,0.6,0.9,1.2l-1.8,2.3
		C76.1,306.7,75.4,306.7,75.1,306.3z"/>
	<path class="st2" d="M47.8,306.8l1.1-1.1c0.3-0.4,0.3-0.9-0.1-1.2l-2.7-1.8c-0.7-0.5-1.5,0.3-1.1,1l1.7,2.9
		C46.8,307.1,47.4,307.2,47.8,306.8z"/>
	<path class="st2" d="M51.6,377.7c0.7-1.2,1.4-2.2,2.3-3c1.6-1.7,3.5-2.7,5.8-2.8c3.2-0.2,5.9,1.6,8.2,4.4c0.3,0.4,0.7,0.9,1,1.4
		H51.6z"/>
	<polygon class="st8" points="113.9,377.7 122.9,304.8 125.4,305 116.7,377.7 	"/>
	<path class="st0" d="M77,367l35.5-1.5c0,0,0.7-3.6,2.5-3.7s4.8,0,4.8,4.6c0,3.6-2.1,4.2-3.9,4.2s-3.1-2-3.1-2l-35.1,4.2L77,367z"/>
	<polygon class="st12" points="91,333.8 93.8,306.3 156.5,312.9 153.6,340.7 	"/>
	<g>
		<path class="st7" d="M123.6,323.8c-0.3,0.3-0.6,0.5-0.9,0.7s-0.5,0.3-0.7,0.4s-0.4,0.2-0.6,0.2c0.3-0.8,0.6-1.6,0.8-2.3
			c0.1-0.3,0.2-0.6,0.3-0.9c0.1-0.3,0.2-0.6,0.3-0.9c0.1-0.3,0.2-0.5,0.3-0.7c0.1-0.2,0.2-0.4,0.2-0.5s0-0.1,0.1-0.2
			c0-0.1,0-0.3-0.1-0.4s-0.2-0.1-0.4-0.2c-0.1,0-0.3,0-0.4,0s-0.3,0.1-0.5,0.1c-0.2,0.1-0.3,0.2-0.4,0.3c-0.1,0.1-0.2,0.3-0.3,0.4
			l-1,2.1c-0.1,0.2-0.1,0.4-0.2,0.6s-0.3,0.4-0.4,0.7c-0.2,0.2-0.3,0.4-0.5,0.5s-0.4,0.2-0.6,0.1c-0.1,0-0.2-0.1-0.3-0.1
			c-0.1-0.1-0.1-0.2-0.1-0.3c0-0.1,0-0.2,0-0.3c0-0.1,0-0.2,0-0.4c0-0.2,0.1-0.5,0.2-0.8s0.2-0.6,0.3-0.9c0.1-0.3,0.3-0.6,0.4-0.9
			s0.3-0.6,0.4-0.8c0-0.1,0.1-0.1,0.1-0.2s0-0.1,0.1-0.2c0-0.2,0-0.3-0.1-0.5c-0.1-0.1-0.3-0.2-0.4-0.2c-0.2,0-0.4,0-0.7,0.1
			c-0.2,0.1-0.4,0.2-0.6,0.4c-0.2,0.3-0.4,0.6-0.6,0.9s-0.3,0.6-0.5,0.9c-0.1,0.3-0.3,0.7-0.4,1s-0.2,0.7-0.3,1.1
			c-0.2,0.1-0.3,0.1-0.5,0.2s-0.4,0.1-0.6,0.1s-0.3,0-0.4,0s-0.2-0.1-0.2-0.1c0-0.1-0.1-0.1-0.1-0.2s0-0.2,0-0.3s0-0.3,0.1-0.4
			c0-0.1,0.1-0.2,0.1-0.4c0.1-0.2,0.2-0.4,0.2-0.7c0.1-0.2,0.2-0.5,0.3-0.8c0.1-0.3,0.2-0.6,0.3-0.8c0.1-0.3,0.2-0.5,0.3-0.8
			c0.1-0.2,0.1-0.4,0.2-0.6c0-0.1,0-0.3-0.2-0.4c-0.1-0.1-0.3-0.2-0.6-0.3c-0.2,0-0.4,0-0.6,0s-0.3,0.1-0.4,0.3l-1.5,3.7
			c-0.1,0.2-0.2,0.4-0.3,0.5c-0.1,0.1-0.2,0.3-0.4,0.4c-0.1,0.1-0.3,0.2-0.4,0.2s-0.2,0-0.4,0c-0.1,0-0.1,0-0.2-0.1
			c0-0.1-0.1-0.1-0.1-0.2s0-0.2,0-0.2c0-0.1,0-0.2,0-0.3c0,0,0-0.1,0.1-0.2s0.1-0.3,0.2-0.6c0.1-0.2,0.2-0.5,0.3-0.8
			s0.2-0.6,0.3-0.9s0.2-0.6,0.4-1c0.1-0.3,0.2-0.6,0.3-0.9c0-0.1,0-0.2-0.1-0.3c-0.1-0.1-0.3-0.2-0.6-0.2c-0.2,0-0.3,0-0.5,0
			c-0.1,0.1-0.3,0.1-0.4,0.2s-0.2,0.2-0.3,0.4c-0.1,0.1-0.2,0.3-0.3,0.4s-0.1,0.3-0.2,0.4s-0.1,0.2-0.1,0.3
			c-0.2,0.6-0.4,1.1-0.6,1.6c-0.1,0.1-0.3,0.2-0.4,0.2c-0.2,0.1-0.4,0.2-0.7,0.3c-0.2,0.1-0.4,0.2-0.6,0.2c-0.2,0.1-0.4,0.1-0.6,0.2
			c0.2-0.2,0.4-0.4,0.5-0.6s0.2-0.4,0.3-0.6c0.1-0.2,0.2-0.4,0.2-0.7c0.1-0.2,0.1-0.5,0.2-0.7c0.1-0.3,0.1-0.6,0-0.9
			c0-0.3-0.1-0.6-0.2-0.8c-0.1-0.2-0.3-0.5-0.5-0.6c-0.2-0.2-0.5-0.3-0.8-0.3c-0.2,0-0.5,0-0.8,0.2s-0.6,0.4-0.9,0.7l-0.1-0.1
			c0.4-0.4,0.9-0.8,1.3-1.2c0.4-0.4,0.9-0.9,1.3-1.3c0.4-0.5,0.7-0.9,1-1.4s0.5-1,0.6-1.4c0.1-0.3,0.1-0.7,0.1-1s0-0.6-0.1-0.8
			c-0.1-0.2-0.2-0.5-0.4-0.6c-0.2-0.2-0.5-0.3-0.9-0.4c-0.3-0.1-0.7,0-1,0.2s-0.7,0.5-1,1c-0.3,0.4-0.7,0.9-1,1.5s-0.6,1.1-0.9,1.7
			s-0.5,1.2-0.8,1.8c-0.2,0.6-0.4,1.1-0.6,1.6c-0.3,0.7-0.5,1.4-0.7,2s-0.3,1.1-0.5,1.5c-0.1,0.5-0.3,1-0.4,1.4
			c0.7,2.3,3.6,1.9,3.6,1.9c0.2,0,0.4-0.1,0.6-0.1s0.3-0.1,0.5-0.2s0.3-0.1,0.4-0.2c0.4,0,0.7,0,1.1-0.1c0.3,0,0.7-0.1,1-0.2
			c0.2-0.1,0.5-0.2,0.7-0.3c0,0,0,0,0,0.1c-0.1,0.3-0.1,0.6-0.1,0.8c0,0.2,0.1,0.4,0.2,0.6s0.2,0.3,0.3,0.4c0.1,0.1,0.3,0.1,0.5,0.2
			c0.2,0,0.4,0,0.7,0c0.2,0,0.5-0.1,0.7-0.2s0.5-0.2,0.7-0.4c0.2-0.2,0.5-0.3,0.7-0.5c0,0.2,0,0.5,0.1,0.7c0,0.2,0.1,0.4,0.2,0.5
			c0.1,0.2,0.2,0.3,0.3,0.4c0.1,0.1,0.3,0.2,0.5,0.2s0.4,0,0.6,0s0.5,0,0.7-0.1c0.2,0,0.5-0.1,0.7-0.2s0.3-0.1,0.5-0.2
			c0.1,0.2,0.1,0.3,0.2,0.4c0.1,0.2,0.3,0.4,0.5,0.5s0.4,0.2,0.7,0.3c0.3,0.1,0.6,0,0.9-0.1s0.6-0.2,1-0.4l-0.3,0.7
			c-0.4,0.2-0.8,0.5-1.3,0.7c-0.4,0.3-0.8,0.5-1.2,0.8c-0.4,0.3-0.8,0.6-1.1,0.9c-0.3,0.3-0.6,0.6-0.9,0.9s-0.5,0.6-0.7,0.8
			c-0.2,0.3-0.3,0.5-0.3,0.7c-0.1,0.3-0.1,0.6,0,0.8c0.1,0.2,0.2,0.4,0.3,0.5c0.1,0.1,0.3,0.2,0.5,0.3c0.2,0.1,0.4,0.1,0.5,0.2
			c0.4,0.1,0.8,0.1,1.2,0s0.8-0.2,1.1-0.4c0.3-0.2,0.7-0.5,1-0.8s0.6-0.7,0.9-1.1s0.5-0.9,0.7-1.4s0.4-1,0.6-1.5
			c0.6-0.2,1.1-0.4,1.6-0.7c0.2-0.1,0.4-0.2,0.6-0.3c0.2-0.1,0.4-0.2,0.6-0.4c0.2-0.1,0.4-0.3,0.6-0.4s0.3-0.3,0.4-0.4v-1.8
			C124.3,323.2,123.9,323.5,123.6,323.8z M104.9,315c0.1-0.3,0.2-0.6,0.3-0.9s0.3-0.6,0.4-1c0.2-0.4,0.3-0.7,0.5-1s0.3-0.7,0.5-1
			s0.3-0.6,0.5-0.8c0.2-0.2,0.3-0.4,0.4-0.5s0.3-0.2,0.4-0.2s0.2,0.1,0.2,0.1c0,0.1,0.1,0.1,0.1,0.2s0,0.1,0,0.2s0,0.1,0,0.1
			c-0.1,0.4-0.2,0.7-0.4,1c-0.2,0.3-0.3,0.7-0.5,1s-0.4,0.6-0.6,0.9s-0.5,0.6-0.7,0.8c-0.2,0.3-0.5,0.5-0.7,0.8s-0.4,0.5-0.6,0.7
			C104.7,315.4,104.8,315.2,104.9,315z M106.9,318.3c0,0.2-0.1,0.4-0.2,0.6s-0.2,0.5-0.2,0.7s-0.2,0.4-0.3,0.6
			c-0.1,0.2-0.3,0.4-0.4,0.5s-0.3,0.3-0.5,0.3c-0.2,0.1-0.3,0.1-0.5,0.1c-0.1,0-0.3-0.1-0.5-0.1c-0.2-0.1-0.3-0.1-0.4-0.2
			c-0.2-0.1-0.3-0.1-0.5-0.2c0-0.2,0.1-0.4,0.2-0.6s0.1-0.4,0.2-0.6s0.2-0.5,0.3-0.7c0.1-0.3,0.3-0.6,0.4-0.8
			c0.2-0.2,0.3-0.4,0.5-0.5s0.4-0.2,0.6-0.2s0.4,0,0.6,0s0.4,0.1,0.5,0.2s0.2,0.2,0.3,0.3c0.1,0.1,0.1,0.2,0.1,0.3
			C107,318,107,318.2,106.9,318.3z M118.5,328c-0.1,0.2-0.3,0.5-0.4,0.7c-0.2,0.3-0.3,0.5-0.5,0.7s-0.4,0.4-0.6,0.6
			s-0.4,0.3-0.6,0.4s-0.4,0.1-0.6,0.1s-0.3-0.2-0.3-0.3c0-0.1,0.1-0.3,0.2-0.4c0.1-0.2,0.2-0.3,0.4-0.5c0.2-0.2,0.4-0.4,0.6-0.6
			s0.4-0.4,0.7-0.5c0.2-0.2,0.5-0.3,0.7-0.5c0.2-0.1,0.5-0.3,0.7-0.4C118.7,327.5,118.6,327.8,118.5,328z"/>
		<path class="st7" d="M147.9,322.6c-0.1,0-0.2,0-0.3-0.1c-0.1,0-0.3-0.1-0.4-0.1c-0.2,0-0.3-0.1-0.5-0.1s-0.3-0.1-0.4-0.1
			c-0.1,0-0.3-0.1-0.4-0.1c-0.1,0-0.2,0-0.2-0.1c0.2-0.3,0.5-0.5,0.7-0.8s0.4-0.5,0.6-0.8c0.2-0.3,0.3-0.5,0.4-0.8
			c0.1-0.3,0.2-0.5,0.3-0.8s0.1-0.6,0.1-0.9s-0.1-0.5-0.2-0.8s-0.2-0.4-0.4-0.6s-0.3-0.3-0.6-0.3c-0.3-0.1-0.7,0-1.1,0.3
			c-0.4,0.2-0.7,0.6-1.1,1c-0.4,0.5-0.7,1-1,1.6s-0.6,1.2-0.9,1.9c-0.1,0-0.1,0-0.3,0c-0.1,0-0.3-0.1-0.5-0.1s-0.3-0.1-0.5-0.1
			s-0.4-0.1-0.5-0.1c-0.2,0-0.3,0-0.4,0c-0.1,0-0.2,0.1-0.2,0.2c0,0,0,0.1,0,0.2s0,0.1,0,0.2s0.1,0.1,0.1,0.2
			c0.1,0.1,0.1,0.1,0.3,0.1c0.3,0.1,0.5,0.1,0.6,0.2c0.1,0,0.3,0.1,0.3,0.1c0.1,0,0.2,0.1,0.3,0.1s0.2,0.1,0.3,0.1
			c-0.1,0.3-0.2,0.7-0.3,1s-0.2,0.7-0.2,1c-0.1,0.6-0.2,1.2-0.2,1.8c-0.2,0.2-0.5,0.4-0.7,0.6c-0.1,0.1-0.3,0.2-0.4,0.3
			c-0.1,0.1-0.3,0.2-0.4,0.2c-0.1,0.1-0.3,0.1-0.4,0.1c-0.1,0-0.2,0-0.3,0s-0.2-0.1-0.2-0.3c0-0.1,0-0.3,0-0.6
			c0.1-0.3,0.1-0.6,0.2-0.9c0.1-0.3,0.2-0.6,0.3-0.9s0.2-0.6,0.3-0.9s0.2-0.6,0.2-0.8c0-0.2,0-0.3,0-0.4s0-0.2-0.1-0.2
			c0-0.1-0.1-0.1-0.2-0.1c-0.1,0-0.1,0-0.2-0.1c-0.1,0-0.1,0-0.2,0c-0.1,0-0.1,0-0.2,0c-0.1,0-0.1,0-0.2,0c-0.1,0-0.1,0-0.2-0.1
			c-0.1,0-0.1-0.1-0.1-0.1c0-0.1-0.1-0.1-0.1-0.2s-0.1-0.1-0.1-0.2c-0.1-0.1-0.1-0.1-0.3-0.1c-0.3-0.1-0.7-0.1-1.1,0
			s-0.7,0.2-1.1,0.4c-0.4,0.2-0.7,0.4-1,0.7c-0.3,0.3-0.6,0.6-0.9,1c-0.3,0.3-0.5,0.7-0.7,1.1c0,0.1-0.1,0.2-0.1,0.3
			c-0.3,0.2-0.6,0.4-1,0.6c-0.3,0.2-0.7,0.3-1,0.4s-0.6,0.1-0.8,0.1s-0.4-0.1-0.6-0.3c-0.1-0.1-0.2-0.3-0.3-0.5s-0.1-0.4-0.1-0.6
			s0-0.4,0.1-0.6c0-0.1,0.1-0.3,0.1-0.5s0.1-0.4,0.2-0.6c0.1-0.2,0.2-0.4,0.3-0.6s0.2-0.4,0.3-0.5s0.3-0.2,0.4-0.3
			c0.2-0.1,0.4-0.1,0.6,0c0.1,0,0.1,0.1,0.1,0.2s0,0.2,0,0.3c0,0.1,0,0.2-0.1,0.3s0,0.2-0.1,0.3c0,0.2,0,0.4,0,0.5
			c0.1,0.1,0.2,0.2,0.4,0.3c0.2,0,0.3,0,0.4,0s0.3-0.1,0.4-0.3c0.1-0.1,0.2-0.3,0.3-0.4c0.1-0.2,0.1-0.3,0.2-0.5c0-0.2,0-0.5,0-0.7
			c-0.1-0.2-0.2-0.4-0.3-0.6s-0.3-0.4-0.6-0.5c-0.2-0.1-0.5-0.2-0.8-0.3c-0.3-0.1-0.7-0.1-1,0s-0.6,0.2-0.9,0.4
			c-0.3,0.2-0.5,0.4-0.7,0.6s-0.4,0.5-0.6,0.8c-0.2,0.3-0.3,0.6-0.4,0.9s-0.2,0.6-0.3,0.9c-0.1,0.4-0.1,0.8,0,1.2
			c0,0.4,0.2,0.8,0.4,1.1c0.2,0.3,0.4,0.6,0.8,0.9c0.3,0.2,0.7,0.4,1.2,0.5c0.3,0.1,0.5,0.1,0.8,0c0.3,0,0.5-0.1,0.8-0.2
			s0.5-0.2,0.8-0.3c0.3-0.1,0.5-0.3,0.7-0.4l0,0c0,0.1,0,0.2,0,0.2c0.1,0.3,0.2,0.5,0.3,0.8c0.1,0.2,0.3,0.4,0.5,0.5
			s0.4,0.2,0.7,0.3c0.2,0,0.5,0,0.7,0s0.5-0.1,0.7-0.2s0.5-0.2,0.7-0.3c0.2-0.1,0.4-0.2,0.5-0.3c0.1,0.4,0.2,0.8,0.4,1
			c0.2,0.3,0.4,0.4,0.8,0.5c0.3,0.1,0.6,0,0.9,0c0.3-0.1,0.6-0.2,0.9-0.4c0.3-0.2,0.5-0.3,0.8-0.5c0.1-0.1,0.3-0.2,0.4-0.3
			c0,0.1,0,0.2,0,0.3c0.1,0.5,0.3,0.9,0.5,1.1c0.3,0.3,0.6,0.5,1,0.5c0.2,0,0.4,0,0.6,0c0.2,0,0.5-0.1,0.9-0.2
			c0.3-0.1,0.7-0.2,1.1-0.3c0.4-0.1,0.9-0.3,1.4-0.5l0.4-2c-0.2,0.1-0.4,0.3-0.6,0.4c-0.2,0.1-0.4,0.2-0.7,0.3
			c-0.2,0.1-0.5,0.2-0.7,0.3s-0.5,0.1-0.7,0.2s-0.4,0.1-0.6,0.1c-0.2,0-0.3,0-0.4,0c-0.2,0-0.3-0.1-0.5-0.2
			c-0.1-0.1-0.2-0.2-0.3-0.3c-0.1-0.1-0.1-0.3-0.1-0.5s0-0.4,0.1-0.7c0-0.1,0-0.2,0.1-0.3s0.1-0.3,0.1-0.4s0.1-0.3,0.1-0.4
			s0.1-0.3,0.1-0.4c0.1-0.3,0.1-0.6,0.2-0.9c0.2-0.1,0.3-0.3,0.5-0.5s0.4-0.3,0.6-0.5l2.9,0.6c0.1,0,0.2,0,0.4-0.1
			c0.1-0.1,0.2-0.2,0.2-0.4c0-0.1,0-0.3,0-0.4C148.1,322.7,148,322.6,147.9,322.6z M137.3,325.1c-0.1,0.2-0.1,0.4-0.2,0.6
			c-0.1,0.2-0.3,0.4-0.4,0.7c-0.2,0.2-0.3,0.4-0.5,0.5s-0.4,0.2-0.6,0.1c-0.1,0-0.2-0.1-0.3-0.1c-0.1-0.1-0.1-0.2-0.1-0.3
			c0-0.1,0-0.2,0-0.3c0-0.1,0-0.2,0-0.4c0-0.2,0.1-0.5,0.2-0.7c0.1-0.2,0.2-0.5,0.4-0.7s0.3-0.4,0.5-0.6s0.4-0.4,0.6-0.5
			c0.2-0.1,0.4-0.3,0.6-0.3c0.2-0.1,0.4-0.1,0.6,0L137.3,325.1z M144.4,321.7c-0.1,0-0.2,0-0.2-0.1c-0.1,0-0.2,0-0.2-0.1
			c0.2-0.4,0.3-0.8,0.5-1.2c0.2-0.4,0.4-0.8,0.6-1.1c0.2-0.3,0.4-0.6,0.6-0.8c0.2-0.2,0.3-0.3,0.5-0.3c0.1,0,0.2,0.1,0.2,0.1
			c0,0.1,0.1,0.1,0.1,0.2s0,0.1,0,0.2s0,0.1,0,0.2c0,0.2-0.1,0.4-0.2,0.6c-0.1,0.2-0.3,0.5-0.5,0.8s-0.4,0.5-0.6,0.8
			C144.8,321.2,144.6,321.5,144.4,321.7z"/>
	</g>
</g>
<g>
	<path class="st13" d="M339,377.7c0,0-30,0-63.3,0c-7.1-17.4-15.2-52.6-18.4-66.9c-0.9-3.9-1.4-6.3-1.4-6.3s31.2-0.6,76.1,5.4
		c0.5,5.8,1,11.8,1.5,17.7C336.1,353.2,339,377.7,339,377.7z"/>
	<path class="st14" d="M235.2,229.8c0,0,8.8,8.2,9.2,13.8c0.3,5.7,3.3,19.2-6.5,21.7s-20.2-0.7-18.7-4.7s7.7-2.2,7.7-2.2
		s-7.7,0.5-7.2-3.2s5.6-3.4,5.6-3.4s-2.9-0.9-1.6-3.2s5-1.7,5-1.7l-6-7.1C222.7,240,222.4,229.2,235.2,229.8z"/>
	<path class="st14" d="M467.9,208.1c0,0,17.3,3.6,21.5,4.5c2.9,0.6,12.1-1.8,17.6-3.3c2.3-0.6,3.5-3.1,2.8-5.3l0,0
		c-0.6-1.8-2.5-3-4.4-2.7l-8.9,1.2l9.2-28.5c0.9-2.9-0.5-6-3.4-7.1l0,0l0.7-2.1c0.6-1.8-0.4-3.7-2.2-4.2l0,0c-1.7-0.5-3.5,0.4-4.1,2
		l-0.1,0.4l0,0c-2.4-0.1-4.7,1.3-5.8,3.4l-1.2,2.3l-1.1,0.7c-1.3,0.8-2.3,2-3,3.3l-7.8,17.6l-12.9-3.2l-7.5,17.3L467.9,208.1z"/>
	<path class="st15" d="M333.7,327.6c-25.4-10.5-65.7-15.6-76.3-16.8c-0.9-3.9-1.4-6.3-1.4-6.3s31.2-0.6,76.1,5.4
		C332.6,315.6,333.2,321.6,333.7,327.6z"/>
	<path class="st16" d="M473.9,187.2c0,0,0,12.3-10,21.7c-1.5-0.6-4.7-1.6-9.2-3c-28.1-8.3-105.4-28.5-105.4-28.5
		s-16.5,47-15.1,120.3c0.1,3.8,0.2,7.8,0.4,11.7c-45,8.5-80-5.5-80-5.5s-1.8-4.7-4.2-12.9c-3.6-12.7-8.6-34-10.2-59.7
		c-1.2-19.4-0.6-41.3,4-64c-25.5,15-31.2,22.5-31.2,22.5l18.2,32.2l6.4,8.5c0,0-9.8-3-14.5,11.3c-2.7-2.5-5.5-5.3-8.4-8.3
		C196.4,214,186.6,189,186.6,189s29-74,114.2-63.6c63.1,7.7,138,43.4,163.7,56.7C470.6,185.3,473.9,187.2,473.9,187.2z"/>
	<path class="st17" d="M334.6,309.5c-45,8.5-80-5.5-80-5.5s-1.8-4.7-4.2-12.9c10.8,4,40.5,12.8,83.8,6.7
		C334.3,301.6,334.4,305.5,334.6,309.5z"/>
	<path class="st17" d="M473.9,187.2c0,0,0,12.3-10,21.7c-1.5-0.6-4.7-1.6-9.2-3c3.8-4.6,8.7-12.5,9.9-23.6
		C470.6,185.3,473.9,187.2,473.9,187.2z"/>
	<path class="st17" d="M237.7,230.6c0,0-9.8-3-14.5,11.3c-2.7-2.5-5.5-5.3-8.4-8.3c3.9-12.1,10.6-11.3,16.5-11.5L237.7,230.6z"/>
	<path class="st15" d="M296.2,377.7c0,0-3.5-12.5-5.4-26.4c4.5,1.4,11.8,3.1,11.8,3.1s-14.9-8.7-23.5-15.5c-0.7-0.6-1.8-0.4-2.4,0.3
		l0,0c-0.5,0.6-0.5,1.6,0.1,2.2c1.3,1.4,4.2,4.1,10.8,8.6c2.1,13,7.5,27.7,7.5,27.7L296.2,377.7L296.2,377.7z"/>
	<path class="st18" d="M302.2,107.7L302.2,107.7c-4,0-7.3,3.3-7.3,7.3v9.5c0,4,3.3,7.3,7.3,7.3l0,0c4,0,7.3-3.3,7.3-7.3V115
		C309.6,111,306.3,107.7,302.2,107.7z"/>
	<path class="st14" d="M339.3,82.4c-4.5,22.6-24.1,37.8-43.7,33.9c-15.4-3-26.3-16.9-28.1-33.6c-0.1-1-0.2-2-0.2-3
		c-0.2-3.7,0.1-7.5,0.9-11.4c4.5-22.6,24.1-37.8,43.7-33.9C331.4,38.3,343.7,59.8,339.3,82.4z"/>
	<path class="st14" d="M274.9,59.4l-3-0.9c-2.9-0.9-6.1,0.9-6.9,3.8l0,0c-0.9,2.9,0.9,6.1,3.8,6.9l3,0.9c2.9,0.9,6.1-0.9,6.9-3.8
		l0,0C279.6,63.4,277.9,60.3,274.9,59.4z"/>
	<g>
		<path class="st19" d="M283.3,88.5c-0.3,0.3-0.7,0.5-1.1,0.5c-0.3,0-0.7-0.1-1-0.4c-5.4-4.6-10.5-5.8-13.8-6c-0.1-1-0.2-2-0.2-3
			c3.9,0.2,9.8,1.5,16,6.8C283.8,87,283.9,87.9,283.3,88.5z"/>
	</g>
	<ellipse transform="matrix(0.6695 -0.7428 0.7428 0.6695 51.0804 230.443)" class="st20" cx="284.5" cy="57.8" rx="3.9" ry="3"/>
	<path class="st21" d="M354.9,72.6c0-18.5,17.3-24.7,29.5-12.4c21,21.2-8.8,45.9,21,54.2C387.1,126.5,354.9,108.6,354.9,72.6z"/>
	
		<linearGradient id="SVGID_1_" gradientUnits="userSpaceOnUse" x1="322.2462" y1="300.1574" x2="315.4962" y2="303.4074" gradientTransform="matrix(1 0 0 -1 0 380)">
		<stop  offset="0" style="stop-color:#F49784"/>
		<stop  offset="1" style="stop-color:#FFC197"/>
	</linearGradient>
	<path class="st22" d="M319.5,68.8c0,0,6.2,4.1,2.9,11.5c-3.3,7.3-11.5,3.8-11.5,3.8L319.5,68.8z"/>
	<path class="st16" d="M352,81.1c0,0,4,2.1,6.1,0s2.9-15.4-1-18.6c-3.7-3.1-5.1,0.6-5.1,0.6s-6.3-4.8-6.6,0.5S345.1,82.6,352,81.1z"
		/>
	<path class="st23" d="M293.6,37.9c0,0-4.7,21.3,20.2,35.1c9.8,6,15.7,5.4,17.2,25.2c9.6-13.5,6.9-39.4,6.9-39.4L293.6,37.9z"/>
	<path class="st21" d="M281.9,43.6c0,0,2.1-15,5.3-17.2c3.7-2.2,10.6,0.4,10.6,0.4s4.4-5,9.4-6.6c5-1.5,33.8,5.9,40.4,42.1
		S329.4,103,329.4,103s4.9-29.6-0.9-31.6c-5.7-2.1-26.1-2.1-34.2-27c-1.2-4.2-0.9-6.5-0.9-6.5C289.6,38.9,285.7,40.9,281.9,43.6z"/>
	<path class="st24" d="M293.6,37.9c0,0-3.4-7.9-5.6-6.4c-2,1.3-3.1,10.2-3.1,10.2S288.9,39.3,293.6,37.9z"/>
	<path class="st25" d="M303.5,194.9c1.2,0.5,2.2,0.9,3.2,1.5c4,2.3,6,5.7,5.9,10.3c0,2.5-0.4,5-1.3,7.3c-1.7,4.6-4.9,7.4-9.5,8.7
		c-4,1.1-8,1.3-12.1,1.1c-0.7,0-0.8,0.2-0.9,0.8c-0.3,3.4-0.7,6.9-1.1,10.3c-0.1,0.6-0.2,0.8-0.8,0.7c-1.8-0.3-3.7-0.4-5.6-0.6
		c-0.8-0.1-0.9-0.4-0.8-1.1c0.4-3.4,0.7-6.7,1.1-10.1c0.1-0.6,0-0.8-0.7-0.9c-1.4-0.1-2.8-0.3-4.2-0.5c-0.6-0.1-0.8,0.1-0.9,0.7
		c-0.3,3.4-0.7,6.8-1,10.2c-0.1,0.7-0.3,0.9-1,0.8c-1.8-0.3-3.6-0.4-5.4-0.6c-0.7-0.1-0.9-0.2-0.8-1c0.4-3.4,0.7-6.8,1.1-10.3
		c0.1-0.7-0.1-0.9-0.8-1c-4.4-0.4-8.8-0.9-13.3-1.4c-0.5,0-0.4-0.2-0.3-0.5c0.7-2.5,1.4-5,2.1-7.4c0.1-0.4,0.3-0.5,0.7-0.5
		c1.6,0.2,3.2,0.4,4.9,0.5c1.6,0.1,2.6-0.8,2.8-2.5c0.6-5.8,1.2-11.7,1.9-17.5c0.5-4.6,1-9.2,1.5-13.9c0.2-2.2-0.9-3.8-3.1-4.2
		c-1.6-0.3-3.3-0.4-4.9-0.6c-0.7,0-0.9-0.2-0.8-1c0.3-2.1,0.4-4.2,0.6-6.3c0-0.5,0.3-0.5,0.6-0.5c3.1,0.3,6.2,0.7,9.4,1
		c1.4,0.2,2.8,0.3,4.2,0.5c0.3,0,0.4-0.1,0.5-0.5c0.5-3.5,0.8-7,1.1-10.5c0.1-0.7,0.3-0.9,1-0.8c1.8,0.2,3.7,0.4,5.5,0.6
		c0.7,0.1,0.9,0.3,0.8,1c-0.4,3.3-0.7,6.7-1.1,10c-0.1,0.6,0.1,0.8,0.6,0.8c1.5,0.1,3,0.2,4.4,0.4c0.5,0.1,0.6-0.1,0.7-0.6
		c0.3-3.4,0.7-6.7,1-10.1c0.1-0.6,0.2-0.9,0.9-0.8c1.9,0.3,3.8,0.5,5.7,0.6c0.7,0.1,0.8,0.3,0.7,0.9c-0.4,3.4-0.7,6.8-1.1,10.1
		c-0.1,0.8,0.2,1,0.9,1.1c3.3,0.7,6.4,1.6,9.3,3.4c3,1.8,5.1,4.3,5.7,7.8c0.7,4.6,0,9.8-4.7,12.9
		C305.2,194.1,304.5,194.5,303.5,194.9z M290.1,214.3c1-0.1,2-0.3,3-0.6c2.7-0.9,4.7-2.5,5.1-5.6c0.4-3-1-5.2-3.5-6.8
		c-1.3-0.8-2.7-1.3-4.2-1.8c-3.6-1-7.4-1.3-11.1-1.6c-0.4,0-0.6,0.1-0.7,0.5c-0.5,4.9-1,9.8-1.6,14.7c0,0.4,0,0.6,0.4,0.6
		C281.7,214.3,285.9,214.9,290.1,214.3z M290,191.1c0.9-0.1,1.7-0.3,2.5-0.5c3.7-1.2,5.6-4.8,4.2-8.4c-0.8-2.1-2.5-3.2-4.5-4
		c-3.5-1.4-7.2-1.6-10.8-1.9c-0.4,0-0.5,0.2-0.5,0.5c-0.5,4.4-0.9,8.8-1.4,13.3c0,0.4,0,0.6,0.5,0.7
		C283.4,191.1,286.7,191.5,290,191.1z"/>
	<path class="st21" d="M295.4,47.5l-1.6-3.3c-0.6-1.3-2.2-1.9-3.6-1.2l0,0c-1.3,0.6-1.9,2.2-1.2,3.6l1.6,3.3
		c0.6,1.3,2.2,1.9,3.6,1.2l0,0C295.5,50.4,296,48.8,295.4,47.5z"/>
	<path class="st16" d="M316.9,302.3c-0.1-0.6-1.1-0.6-1,0c0.2,2.5,0.3,4.9,0.4,7.4c0,0.6,1,0.6,1,0
		C317.2,307.3,317.1,304.8,316.9,302.3z"/>
	<path class="st16" d="M323.2,301.8c0-0.6-1-0.6-1,0c0,2.5,0.3,4.9,0.7,7.4c0.1,0.6,1.1,0.4,1-0.3
		C323.4,306.6,323.2,304.2,323.2,301.8z"/>
	<path class="st16" d="M329.1,308.3c-0.4-0.2-0.2-3-0.2-3.4c0-1.2-0.1-2.3-0.1-3.5c0-0.6-1-0.6-1,0c0,1.7,0.1,3.5,0.1,5.2
		c0,0.8-0.2,2.2,0.6,2.6C329.2,309.4,329.7,308.5,329.1,308.3z"/>
	<path class="st16" d="M332.1,307.2c0.1,0-0.2-3-0.2-3.4c-0.1-1-0.1-2.1-0.1-3.1c0-0.6-1-0.6-1,0c0,1.8,0.1,3.7,0.3,5.5
		c0.1,0.8,0,1.9,1,2C332.7,308.2,332.7,307.2,332.1,307.2z"/>
	<path class="st16" d="M231.7,228.9c-0.9-0.7-1.6-1.7-2.2-2.6c-0.6-0.8-1.3-1.7-1.9-2.5c-0.4-0.5-1.3,0-0.9,0.5
		c0.8,1,1.6,2.1,2.4,3.1c0.6,0.8,1.2,1.7,2.1,2.3C231.7,230.2,232.2,229.3,231.7,228.9z"/>
	<path class="st16" d="M234.7,228.5c-1.8-1.5-3.4-3.4-4.6-5.4c-0.3-0.6-1.2-0.1-0.9,0.5c1.2,2.1,2.8,4,4.7,5.6
		C234.4,229.6,235.2,228.9,234.7,228.5z"/>
	<path class="st16" d="M463.6,205.6c-1.8-0.4-3.5-1-5.2-1.8c-0.6-0.3-1.1,0.6-0.5,0.9c1.8,0.8,3.6,1.5,5.4,1.9
		C464,206.7,464.2,205.7,463.6,205.6z"/>
	<path class="st16" d="M465.1,202.8c-0.7-0.1-1.6-0.6-2.1-0.8c-0.8-0.3-1.7-0.7-2.5-1.1c-0.6-0.3-1.1,0.6-0.5,0.9
		c0.9,0.4,1.8,0.8,2.7,1.2c0.7,0.3,1.8,0.9,2.6,0.8c0.2,0,0.4-0.1,0.5-0.4v-0.1C466,202.8,465.5,202.6,465.1,202.8z"/>
	<path class="st16" d="M467.9,199.3c-0.8-0.1-1.8-0.6-2.4-0.9c-0.9-0.4-1.9-0.8-2.8-1.2c-0.6-0.3-1.1,0.6-0.5,0.9
		c1.3,0.6,2.7,1.2,4,1.7c0.6,0.2,1.9,1,2.4,0.2C468.9,199.5,468.3,199.1,467.9,199.3z"/>
</g>
</svg>
