<?xml version="1.0" encoding="utf-8"?>
<!-- Generator: Adobe Illustrator 21.0.2, SVG Export Plug-In . SVG Version: 6.00 Build 0)  -->
<svg version="1.1" id="Слой_1" xmlns="http://www.w3.org/2000/svg" xmlns:xlink="http://www.w3.org/1999/xlink" x="0px" y="0px"
	 viewBox="0 0 681.9 377.4" style="enable-background:new 0 0 681.9 377.4;" xml:space="preserve">
<style type="text/css">
	.st0{fill:#3C6BAF;}
	.st1{fill:#DDB597;}
	.st2{fill:#6B5144;}
	.st3{fill:#EFC8AB;}
	.st4{fill:url(#SVGID_1_);}
	.st5{fill:#876755;}
	.st6{fill:#E9BF9C;}
	.st7{fill:#383838;}
	.st8{fill:#FFFFFF;}
	.st9{opacity:5.000000e-02;fill:#FF1AEF;enable-background:new    ;}
	.st10{opacity:5.000000e-02;fill:#FF1D89;enable-background:new    ;}
	.st11{fill:#F4A23C;}
	.st12{fill:#F2BE3D;}
	.st13{display:none;fill:#FFFFFF;}
	.st14{display:none;}
	.st15{display:inline;}
	.st16{fill:#0671B1;}
	.st17{fill:#FEFEFD;}
	.st18{opacity:0.48;fill:#FEFEFD;enable-background:new    ;}
</style>
<path class="st0" d="M379.9,377.7H247.6l0.8-4.8c5.6-36,39.7-60.9,75.7-55.3C354.8,322.4,377.4,347.9,379.9,377.7z"/>
<g>
	<path class="st1" d="M340.8,295.4L340.8,295.4c7.5,2.9,11.2,11.4,8.3,18.9l-5.2,13.2c-2.9,7.5-11.4,11.2-18.9,8.3l0,0
		c-7.5-2.9-11.2-11.4-8.3-18.9l5.2-13.2C324.8,296.2,333.3,292.5,340.8,295.4z"/>
	<path class="st2" d="M411.6,209.5c0,0,4.2-26.9-10.2-45.4c-14.5-10.9-29.5,15.5-29.5,15.5L411.6,209.5z"/>
	<path class="st3" d="M408.1,287.5c-3.2,5-6.9,9.5-11.2,13.5c-0.6,0.5-1.2,1.1-1.8,1.6c-4.8,4.1-10.1,7.4-15.9,9.8
		c-2.5,1-5,1.9-7.7,2.6c-6.8,1.8-13.6,2.3-20.3,1.7c-29.4-2.7-56.5-26.8-65.5-61.4c-11.1-42.5,9.3-84.6,45.7-94.1
		c14.8-3.9,30-1.7,43.6,5.1c19.6,9.9,35.7,29.5,42.3,54.6C423.5,245.2,419.5,269.4,408.1,287.5z"/>
	
		<linearGradient id="SVGID_1_" gradientUnits="userSpaceOnUse" x1="-819.6702" y1="0.5295" x2="-799.1671" y2="0.5295" gradientTransform="matrix(-0.9755 0.2201 -0.2201 -0.9755 -413.9514 426.1472)">
		<stop  offset="0" style="stop-color:#F49784"/>
		<stop  offset="1" style="stop-color:#EFC8AB"/>
	</linearGradient>
	<path class="st4" d="M368.1,258.4c0,0-6.3-12.3,1.2-20.3l6.4-0.1c5.5-0.1,10.1,4.3,10.1,9.8l0,0c0.1,5.3-4,9.8-9.3,10.1
		L368.1,258.4z"/>
	<path class="st5" d="M382.6,100.3c0,0,54.4,39,16.5,73.1s-101,30.1-101,30.1s14,16.3,8.7,26.9s-0.9,27.3-0.9,27.3l-7.3,1.6
		c0,0-6.4-16-15-13.9s-5.6,14.7-5.6,14.7s-41.6-30.9-17-64.5c-13.6,3.7-19.9-8.5-19.9-8.5s16.6-7.6,22.7,5.5
		c-2.7-29.1,17.5-66.1,54.8-63.6C356.1,131.6,388.4,127.3,382.6,100.3z"/>
	<path class="st6" d="M294.7,269.5c0,0-1.9-18.2-11.1-23.9c-8.9,2.6-14.1,9.9-8.1,20.1C281.4,275.7,294.7,269.5,294.7,269.5z"/>
	<path class="st7" d="M362.6,280.5c-1.8-4.3,2.2-9.8,10-11.6s12.1-0.5,12.1,3.1c0,3.7,0.1,6.6-8.1,9.2
		C368.5,283.8,364.3,284.7,362.6,280.5z"/>
	<g>
		<circle class="st8" cx="388.8" cy="214.7" r="19.9"/>
		<ellipse transform="matrix(0.9554 -0.2953 0.2953 0.9554 -46.2046 124.8345)" cx="390.2" cy="215.4" rx="12.6" ry="13.3"/>
		<circle class="st8" cx="380.3" cy="210.1" r="3"/>
		<circle class="st8" cx="391.6" cy="207.9" r="4.6"/>
		<circle class="st8" cx="389.9" cy="226.4" r="2.4"/>
		<circle class="st8" cx="384.5" cy="223.4" r="1.3"/>
		<path class="st8" d="M401.7,215.8l1.8-1.2c0.4-0.3,0.2-0.9-0.3-0.9l-2.3,0.1c-0.2,0-0.3-0.1-0.4-0.2l-1.2-1.8
			c-0.3-0.4-0.9-0.2-0.9,0.3l0.1,2c0,0.2-0.1,0.3-0.2,0.4l-1.9,1.4c-0.4,0.3-0.2,0.9,0.3,0.9h2.1c0.2,0,0.3,0.1,0.4,0.2l1.5,2
			c0.3,0.4,0.9,0.2,0.9-0.3v-2.4C401.5,216.1,401.6,215.9,401.7,215.8z"/>
	</g>
	<g>
		<circle class="st8" cx="336.1" cy="230.6" r="19.9"/>
		<ellipse transform="matrix(0.9554 -0.2953 0.2953 0.9554 -52.7095 110.9513)" cx="341" cy="230" rx="13.2" ry="13.9"/>
		<circle class="st8" cx="330.5" cy="224.5" r="3.1"/>
		<circle class="st8" cx="342.4" cy="222.2" r="4.8"/>
		<circle class="st8" cx="340.7" cy="241.6" r="2.5"/>
		<circle class="st8" cx="335" cy="238.5" r="1.4"/>
		<path class="st8" d="M353.1,230.5l1.9-1.3c0.4-0.3,0.2-0.9-0.3-0.9l-2.5,0.1c-0.2,0-0.3-0.1-0.4-0.2l-1.2-1.9
			c-0.3-0.4-0.9-0.2-0.9,0.3l0.1,2.1c0,0.2-0.1,0.3-0.2,0.4l-2,1.5c-0.4,0.3-0.2,0.9,0.3,0.9h2.2c0.2,0,0.3,0.1,0.4,0.2l1.5,2.1
			c0.3,0.4,0.9,0.2,0.9-0.3v-2.6C352.9,230.8,352.9,230.6,353.1,230.5z"/>
	</g>
	<path class="st9" d="M414.2,232.3c-1.9-3.7-7-2.3-8.2,1.1c-0.1,0.4-0.3,0.8-0.5,1.3c-0.1,0-0.2-0.1-0.2-0.1c-1.6-0.7-3.3-1-4.9-0.4
		s-2.5,1.6-3.2,3c-1.4-0.1-2.8,0.2-3.8,0.8c-0.6,0.3-1.1,0.8-1.6,1.2c-2,1.2-3.2,3.5-3.9,5.8c-1.3,4.2,4.6,7.4,7.4,4.7
		c0.2-0.1,0.4-0.3,0.7-0.4c1.1,0.5,2.3,0.6,3.5,0.4c2-0.4,3.1-1.4,3.7-2.8c0.5-0.3,1-0.6,1.4-1.1c0.2-0.2,0.4-0.5,0.7-0.7
		c0.1,0,0.2,0,0.3,0.1c0.1,0,0.2,0.1,0.2,0.1c2.2,0.7,4.4,0.4,6.4-0.8C416.3,241.8,416.4,236.4,414.2,232.3z"/>
	<path class="st9" d="M363.1,253c-1.1-0.9-2.3-1.6-3.6-2c-1.8-1.9-4.2-3.1-7-2.2c-2,0.7-3.4,2.3-4.6,4.2c-0.8-0.2-1.6-0.3-2.4-0.3
		c-2.8,0.1-4.9,1.6-6.5,3.7c-4-0.8-7.5,1.3-9.9,5.1c-0.8,1-1.5,2.2-1.7,3.6c-0.9,5.2,5.4,7.5,8,3.6c0.6,0.3,1.6,0.5,2,0.6
		c1.9,0.4,3.9,0.1,5.7-0.7c1.7-0.7,3-1.8,4.2-3.1c0.2-0.2,0.4-0.4,0.5-0.6c1.1,0.2,2.2,0.1,3.2-0.4c1.2,0.4,2.5,0.5,4.1-0.1
		c1.3-0.5,2.2-1.2,3.1-2.3c0.4-0.5,0.7-1,0.9-1.5C363.1,260.9,366.6,256.1,363.1,253z"/>
	<path class="st10" d="M359.9,252.3c-1.9,2.6-3.1,2.2-5.8,2.5c-0.8,0.1-1-0.1-1.9,0.2c-1.7,0.6-4,3.7-4.6,5.1
		c0.6-1.5-0.4-3.5-2.3-2.9c-2,0.7-2.7,2.3-4.3,3.2c-1.8,1-2.6-0.6-4.3-0.7c-3.8-0.2-7.4,5.9-9.4,8.6c-1.5,2.1,1.9,4.1,3.5,2
		c0.9-1.3,3.4-5.4,5-6c0.7-0.2,1.5,0.9,2.8,1.2c3.1,0.7,4.2-1.7,6-3.3c1.3,1.3,3.9,1.5,5.9,0c0.9-0.7,2-2.9,3-3.2
		c0.7-0.2,1.9,0.4,2.8,0.3c3.2-0.2,5.2-2.6,7-5C364.9,252.2,361.4,250.2,359.9,252.3z"/>
	<path class="st10" d="M411.8,234.2c-0.4,0.4-2.4,2.4-2.3,3c-0.3-1.5-2.3-1.8-3.3-0.9c-0.9,0.9-1.9,1.8-2.8,2.7
		c0.2,0.5,0.1,0.6-0.2,0c-0.4,0-1-0.8-1.5-0.9c-1.8-0.4-2.7,1.2-3.9,2.2c-2.7,2.4-3.8,0.6-6.7,1.8c-2,0.9-3.1,2.7-4,4.5
		c-1.2,2.3,2.2,4.3,3.5,2c2-3.7,4.2-1.8,6.9-2.7c0.7-0.2,1.2-0.7,1.8-1.1c0.1-0.1,1.3-1.4,1.8-2.2c0.5,0.4,1.9,0.7,2.4,0.7
		c1.5-0.1,2.9-1.3,4.1-2.5c0.5,0.3,1,0.4,1.7,0.5c2.7,0.1,4-2.6,5.6-4.2C416.5,235.2,413.7,232.4,411.8,234.2z"/>
	<path class="st2" d="M325.8,194.5l-7.1,4.1c-2.5,1.4-3.4,4.7-1.9,7.2l0,0c1.4,2.5,4.7,3.4,7.2,1.9l7.1-4.1c2.5-1.4,3.4-4.7,1.9-7.2
		l0,0C331.5,193.9,328.3,193.1,325.8,194.5z"/>
	<path class="st2" d="M375.3,181l-7.1,4.1c-2.5,1.4-3.4,4.7-1.9,7.2l0,0c1.4,2.5,4.7,3.4,7.2,1.9l7.1-4.1c2.5-1.4,3.4-4.7,1.9-7.2
		l0,0C381,180.4,377.8,179.6,375.3,181z"/>
</g>
<g>
	<path class="st11" d="M598.5,187.6c0,43.7-35.4,79.1-79.1,79.1c-10,0-19.6-1.9-28.4-5.3c-4.7-1.8-9.3-4.1-13.5-6.8
		c-3.8-2.4-7.4-5.1-10.8-8.1c-9.6-8.6-17.1-19.5-21.6-31.8c-3.1-8.5-4.8-17.6-4.8-27.2c0-43.7,35.4-79.1,79.1-79.1
		c8.3,0,16.2,1.3,23.7,3.6c12.6,4,23.8,11,32.8,20.2c3.1,3.2,6,6.7,8.6,10.4c2.8,4.1,5.3,8.5,7.4,13.2
		C596.2,165.5,598.5,176.3,598.5,187.6z"/>
	<circle class="st12" cx="519.5" cy="187.6" r="66.7"/>
	<path class="st13" d="M546.7,145.8h-54.5c-4.7,0-8.5,3.8-8.5,8.5v57.3c0,4.7,3.8,8.5,8.5,8.5h41l22,9.2v-17.7v-6.8v-3.3v-47.2
		C555.2,149.6,551.4,145.8,546.7,145.8z"/>
	<g class="st14">
		<g class="st15">
			<path class="st16" d="M519.7,207.6c-8.5,0-16.9-2.7-25.3-8.2c-0.7-0.5-0.9-1.4-0.4-2.1c0.5-0.7,1.4-0.9,2.1-0.4
				c15.9,10.4,31.4,10.4,47.4,0c0.7-0.5,1.6-0.3,2.1,0.4s0.3,1.6-0.4,2.1C536.6,204.9,528.2,207.6,519.7,207.6z"/>
		</g>
	</g>
	<path class="st17" d="M544,186.8c1.4,0.6,2.7,1.1,3.9,1.8c4.8,2.8,7.2,6.9,7.2,12.4c0,3-0.5,6-1.6,8.8c-2,5.5-5.9,8.9-11.5,10.5
		c-4.8,1.4-9.7,1.5-14.6,1.3c-0.9,0-1,0.3-1.1,1c-0.4,4.2-0.9,8.3-1.3,12.5c-0.1,0.7-0.2,1-1,0.9c-2.2-0.3-4.5-0.5-6.7-0.7
		c-0.9-0.1-1.1-0.4-1-1.3c0.5-4.1,0.8-8.1,1.3-12.2c0.1-0.7,0-1-0.8-1.1c-1.7-0.1-3.4-0.3-5.1-0.6c-0.8-0.1-1,0.1-1,0.8
		c-0.4,4.1-0.9,8.2-1.3,12.3c-0.1,0.9-0.3,1.1-1.2,1c-2.2-0.3-4.3-0.5-6.5-0.7c-0.8-0.1-1.1-0.3-1-1.2c0.5-4.1,0.9-8.3,1.3-12.4
		c0.1-0.8-0.1-1.1-0.9-1.2c-5.3-0.5-10.7-1.1-16-1.7c-0.6-0.1-0.5-0.2-0.4-0.7c0.9-3,1.7-6,2.5-9c0.1-0.5,0.3-0.7,0.9-0.6
		c2,0.2,3.9,0.5,5.9,0.6c1.9,0.1,3.2-1,3.4-3c0.8-7,1.5-14.1,2.2-21.1c0.6-5.6,1.2-11.2,1.8-16.7c0.3-2.7-1.1-4.6-3.8-5.1
		c-2-0.4-4-0.5-6-0.7c-0.8-0.1-1.1-0.2-1-1.2c0.3-2.5,0.5-5.1,0.7-7.6c0-0.6,0.3-0.7,0.8-0.6c3.8,0.4,7.5,0.8,11.3,1.2
		c1.7,0.2,3.4,0.4,5,0.6c0.4,0,0.5-0.1,0.6-0.6c0.6-4.2,0.9-8.5,1.4-12.7c0.1-0.9,0.4-1,1.2-0.9c2.2,0.3,4.4,0.5,6.6,0.7
		c0.9,0.1,1,0.4,0.9,1.2c-0.5,4-0.8,8-1.3,12.1c-0.1,0.7,0.1,0.9,0.8,1c1.8,0.1,3.6,0.3,5.3,0.5c0.6,0.1,0.8-0.1,0.8-0.7
		c0.4-4.1,0.9-8.1,1.3-12.2c0.1-0.7,0.2-1,1.1-0.9c2.3,0.3,4.6,0.6,6.8,0.7c0.8,0.1,0.9,0.4,0.9,1.1c-0.5,4.1-0.8,8.2-1.3,12.2
		c-0.1,1,0.2,1.2,1,1.4c4,0.8,7.8,2,11.3,4.1c3.6,2.2,6.2,5.2,6.9,9.4c0.9,5.5,0,11.9-5.7,15.6C546.1,185.8,545.2,186.3,544,186.8z
		 M527.8,210.2c1.2-0.1,2.4-0.4,3.6-0.8c3.3-1.1,5.6-3,6.1-6.7s-1.1-6.3-4.2-8.2c-1.6-1-3.3-1.6-5-2.1c-4.4-1.3-8.9-1.6-13.5-2
		c-0.5,0-0.7,0.1-0.8,0.7c-0.6,5.9-1.2,11.9-1.9,17.8c0,0.4,0,0.7,0.5,0.7C517.7,210.2,522.7,210.9,527.8,210.2z M527.8,182.2
		c1-0.1,2-0.3,3-0.7c4.5-1.4,6.8-5.8,5.1-10.1c-1-2.5-3-3.8-5.4-4.8c-4.2-1.7-8.6-1.9-13.1-2.3c-0.5,0-0.6,0.3-0.6,0.6
		c-0.6,5.3-1.1,10.7-1.7,16c0,0.4,0,0.7,0.6,0.8C519.7,182.2,523.7,182.7,527.8,182.2z"/>
	<path class="st18" d="M576,132.3l-8.5,8.9l-92.1,96.4l-8.5,8.9c-9.6-8.6-17.1-19.5-21.6-31.8l9.7-10.2l78.6-82.2l9.7-10.2
		C555.8,116.1,567,123.1,576,132.3z"/>
	<path class="st18" d="M591.9,155.8l-9.4,9.8l-82.1,85.9l-9.4,9.8c-4.7-1.8-9.3-4.1-13.5-6.8l8.7-9.1l89.5-93.7l8.7-9.1
		C587.4,146.8,589.9,151.2,591.9,155.8z"/>
</g>
<g>
	<path class="st11" d="M220.5,118.7c9,20.9-0.6,45.3-21.6,54.3c-4.8,2.1-9.8,3.2-14.7,3.4c-2.7,0.1-5.3,0-7.9-0.4
		c-2.3-0.4-4.6-0.9-6.8-1.7c-6.4-2.1-12.2-5.8-17-10.8c-3.2-3.4-5.9-7.5-7.9-12c-9-20.9,0.6-45.3,21.6-54.3c4-1.7,8.1-2.8,12.1-3.2
		c6.8-0.7,13.7,0.3,19.9,2.9c2.2,0.9,4.3,2,6.3,3.2c2.2,1.4,4.3,3,6.3,4.8C214.8,108.6,218.1,113.3,220.5,118.7z"/>
	
		<ellipse transform="matrix(0.9182 -0.3962 0.3962 0.9182 -38.5995 83.368)" class="st12" cx="182.5" cy="135.1" rx="34.9" ry="34.9"/>
	<path class="st13" d="M187,109.4l-26.1,11.3c-2.3,1-3.3,3.6-2.3,5.8l11.9,27.5c1,2.3,3.6,3.3,5.8,2.3l19.7-8.5l12.5-0.2l-3.7-8.5
		l-1.4-3.3l-0.7-1.6l-9.8-22.6C191.8,109.5,189.2,108.4,187,109.4z"/>
	<g class="st14">
		<g class="st15">
			<path class="st16" d="M186.8,144.7c-4.1,1.8-8.7,2.2-13.9,1.3c-0.4-0.1-0.7-0.5-0.6-0.9c0.1-0.4,0.5-0.7,0.9-0.6
				c9.8,1.7,17.2-1.5,22.7-9.8c0.2-0.4,0.7-0.5,1.1-0.2c0.4,0.2,0.5,0.7,0.2,1.1C194.4,139.8,190.9,142.9,186.8,144.7z"/>
		</g>
	</g>
	<path class="st18" d="M198.2,96.9l-2.2,6l-24.2,65.3l-2.2,6c-6.4-2.1-12.2-5.8-17-10.8l2.6-6.9l20.7-55.7l2.6-6.9
		C185.2,93.3,192,94.3,198.2,96.9z"/>
	<path class="st18" d="M210.7,104.9l-2.5,6.7l-21.6,58.2l-2.5,6.6c-2.7,0.1-5.3,0-7.9-0.4l2.3-6.2l23.5-63.5l2.3-6.2
		C206.7,101.4,208.8,103,210.7,104.9z"/>
	<g>
		<polygon class="st17" points="169.3,148.9 199.7,159.9 200.1,127.5 191.3,147.7 		"/>
		<polygon class="st17" points="198.5,125.2 165.3,110.3 167.7,146.6 189.5,145.1 		"/>
	</g>
</g>
<g>
	<path class="st11" d="M108.7,375.5c-0.3,0.8-0.6,1.5-0.9,2.2H32.4c-2.5-5.4-3.7-11.4-3.6-17.5c0.1-4.7,0.9-9.5,2.7-14.2
		c8.1-21.3,32-32,53.3-23.9c4,1.5,7.7,3.6,10.9,6.2c5.4,4.3,9.6,9.8,12.3,15.9c0.9,2.2,1.7,4.4,2.3,6.7c0.6,2.5,1,5.2,1.1,7.8
		C111.6,364.3,110.8,370,108.7,375.5z"/>
	<path class="st12" d="M105,361.8c-0.1,3.8-0.9,7.6-2.3,11.4c-0.6,1.6-1.3,3.1-2.1,4.5h-61c-0.1-0.2-0.3-0.5-0.4-0.7
		c-3.2-6-4.6-13-3.8-20c0.3-2.9,1-5.8,2.1-8.7c6.9-18,27-27,45-20.2c2.3,0.9,4.5,2,6.6,3.3c5.9,3.8,10.4,9.3,13.1,15.5
		c0.9,2.2,1.6,4.4,2.1,6.7l0,0C104.8,356.4,105,359.1,105,361.8z"/>
	<g class="st14">
		<g class="st15">
			<path class="st16" d="M66.5,370.6c-4.1-1.6-7.8-4.5-10.8-8.7c-0.3-0.4-0.2-0.8,0.2-1.1c0.4-0.3,0.8-0.2,1.1,0.2
				c5.8,8,13.4,10.9,23.1,8.8c0.4-0.1,0.8,0.2,0.9,0.6s-0.2,0.8-0.6,0.9C75.2,372.4,70.6,372.2,66.5,370.6z"/>
		</g>
	</g>
	<path class="st18" d="M108,344.3l-5.8,2.8l0,0l-8.4,4l-5,2.4l-7.8,3.7l-5.5,2.6l-5.8,2.7l-4.5,2.1l-3.3,1.6l-1.6,0.7l-8.4,4
		l-1.3,0.6L39.2,377l-1.5,0.7h-5.3c-2.5-5.4-3.7-11.4-3.6-17.5l6.6-3.2l0,0l19.7-9.3l8.5-4l5.5-2.6l3.7-1.8l0.9-0.4l4-1.9l11.3-5.4
		l6.6-3.2C101.1,332.6,105.3,338.1,108,344.3z"/>
	<path class="st18" d="M111.4,358.8l-6.4,3l0,0l-18.6,8.9l-0.8,0.4l-3.4,1.6l-10.6,5H54l5.2-2.5l0.4-0.2l6.4-3l1.9-0.9l2.2-1
		l0.7-0.3l5.2-2.5l12.6-6l1.7-0.8l14.1-6.7l0,0l6-2.8C110.9,353.5,111.2,356.1,111.4,358.8z"/>
	<polygon class="st17" points="85.9,373.6 83.6,377.7 68.9,377.7 59.2,375.2 49.3,372.7 49.7,372 55.5,361.4 51,361.9 53.5,356.5 
		58.4,356 65.8,342.6 69.1,336.5 75.3,338 81.7,339.6 73.3,354.6 79.8,353.9 77.1,358.8 70.5,359.6 68.5,363 65.5,368.4 70.7,369.7 
		82.2,372.6 	"/>
</g>
<g>
	<path class="st11" d="M652.3,261.1c3.6,13.7-4.7,27.7-18.4,31.2c-3.1,0.8-6.3,1-9.3,0.7c-1.6-0.2-3.2-0.5-4.8-1
		c-1.4-0.4-2.7-1-4-1.7c-3.7-1.9-7-4.7-9.4-8.2c-1.7-2.4-2.9-5.1-3.7-8.1c-3.6-13.7,4.7-27.7,18.4-31.2c2.6-0.7,5.2-0.9,7.7-0.8
		c4.3,0.2,8.4,1.5,11.9,3.7c1.2,0.7,2.4,1.6,3.5,2.6c1.2,1.1,2.4,2.2,3.4,3.5C649.8,254.4,651.4,257.5,652.3,261.1z"/>
	
		<ellipse transform="matrix(0.968 -0.2511 0.2511 0.968 -47.0678 166.135)" class="st12" cx="627.5" cy="267.5" rx="21.6" ry="21.6"/>
	<path class="st13" d="M632.7,252.2l-17.1,4.4c-1.5,0.4-2.4,1.9-2,3.4l4.7,18c0.4,1.5,1.9,2.4,3.4,2l12.9-3.3l7.6,1.1l-1.4-5.5
		l-0.6-2.1l-0.3-1l-3.8-14.8C635.7,252.7,634.2,251.8,632.7,252.2z"/>
	<g class="st14">
		<g class="st15">
			<path class="st16" d="M629.2,273.8c-2.7,0.7-5.5,0.5-8.6-0.5c-0.3-0.1-0.4-0.4-0.3-0.6c0.1-0.3,0.4-0.4,0.6-0.3
				c5.8,2,10.7,0.7,14.9-3.9c0.2-0.2,0.5-0.2,0.7,0s0.2,0.5,0,0.7C634.3,271.6,631.9,273.1,629.2,273.8z"/>
		</g>
	</g>
	<path class="st18" d="M640.8,245.6l-1.9,3.5l-21.1,37.8l-1.9,3.5c-3.7-1.9-7-4.7-9.4-8.2l2.2-4l18-32.2l2.2-4
		C633.1,242.1,637.2,243.4,640.8,245.6z"/>
	<path class="st18" d="M647.7,251.7l-2.1,3.8l-18.8,33.6l-2.1,3.8c-1.6-0.2-3.2-0.5-4.8-1l2-3.6l20.5-36.7l2-3.6
		C645.5,249.2,646.7,250.4,647.7,251.7z"/>
	<g>
		<polygon class="st17" points="617,272.6 631.9,284.8 638.5,266.8 629.6,276.3 		"/>
		<polygon class="st17" points="638.1,265.2 622.5,250.2 616.6,271 629.1,274.5 		"/>
	</g>
</g>
<g>
	<path class="st11" d="M287.3,72.7c3.6,13.7-4.7,27.7-18.4,31.2c-3.1,0.8-6.3,1-9.3,0.7c-1.6-0.2-3.2-0.5-4.8-1
		c-1.4-0.4-2.7-1-4-1.7c-3.7-1.9-7-4.7-9.4-8.2c-1.7-2.4-2.9-5.1-3.7-8.1c-3.6-13.7,4.7-27.7,18.4-31.2c2.6-0.7,5.2-0.9,7.7-0.8
		c4.3,0.2,8.4,1.5,11.9,3.7c1.2,0.7,2.4,1.6,3.5,2.6c1.2,1.1,2.4,2.2,3.4,3.5C284.8,66,286.4,69.2,287.3,72.7z"/>
	
		<ellipse transform="matrix(0.968 -0.2511 0.2511 0.968 -11.4759 68.4541)" class="st12" cx="262.5" cy="79.2" rx="21.6" ry="21.6"/>
	<path class="st13" d="M267.6,63.8l-17.1,4.4c-1.5,0.4-2.4,1.9-2,3.4l4.7,18c0.4,1.5,1.9,2.4,3.4,2l12.9-3.3l7.6,1.1l-1.4-5.5
		l-0.6-2.1l-0.3-1l-3.8-15C270.6,64.3,269.1,63.5,267.6,63.8z"/>
	<g class="st14">
		<g class="st15">
			<path class="st16" d="M264.2,85.4c-2.7,0.7-5.5,0.5-8.6-0.5c-0.3-0.1-0.4-0.4-0.3-0.6c0.1-0.3,0.4-0.4,0.6-0.3
				c5.8,2,10.7,0.7,14.9-3.9c0.2-0.2,0.5-0.2,0.7,0s0.2,0.5,0,0.7C269.3,83.2,266.9,84.7,264.2,85.4z"/>
		</g>
	</g>
	<path class="st17" d="M270.1,76.9c0.5,0.1,0.9,0.1,1.4,0.2c1.7,0.5,2.8,1.6,3.3,3.3c0.2,1,0.3,1.9,0.2,2.9
		c-0.2,1.9-1.1,3.3-2.8,4.2c-1.4,0.8-2.9,1.3-4.5,1.6c-0.3,0.1-0.3,0.2-0.3,0.4c0.2,1.3,0.4,2.7,0.6,4c0,0.2,0,0.3-0.2,0.4
		c-0.7,0.1-1.4,0.2-2.2,0.3c-0.3,0.1-0.4,0-0.4-0.3c-0.2-1.3-0.4-2.6-0.6-3.9c0-0.2-0.1-0.3-0.3-0.3c-0.5,0.1-1.1,0.2-1.7,0.2
		c-0.3,0-0.3,0.1-0.3,0.3c0.2,1.3,0.4,2.6,0.6,4c0,0.3,0,0.4-0.3,0.4c-0.7,0.1-1.4,0.2-2.1,0.3c-0.3,0-0.4,0-0.4-0.3
		c-0.2-1.3-0.4-2.7-0.6-4c0-0.3-0.1-0.3-0.4-0.3c-1.7,0.3-3.4,0.5-5.2,0.8c-0.2,0-0.2,0-0.2-0.2c0-1,0-2,0.1-3c0-0.2,0-0.2,0.2-0.3
		c0.6-0.1,1.3-0.2,1.9-0.3c0.6-0.1,0.9-0.6,0.8-1.2c-0.3-2.3-0.7-4.5-1-6.8c-0.3-1.8-0.5-3.6-0.8-5.4c-0.1-0.9-0.7-1.3-1.6-1.3
		c-0.7,0-1.3,0.2-1.9,0.3c-0.3,0-0.4,0-0.4-0.3c-0.1-0.8-0.2-1.6-0.4-2.4c0-0.2,0.1-0.2,0.2-0.3c1.2-0.2,2.4-0.4,3.7-0.5
		c0.5-0.1,1.1-0.2,1.6-0.2c0.1,0,0.2-0.1,0.1-0.2c-0.2-1.4-0.4-2.7-0.6-4.1c0-0.3,0-0.4,0.3-0.4c0.7-0.1,1.4-0.2,2.1-0.3
		c0.3,0,0.4,0,0.4,0.3c0.2,1.3,0.4,2.6,0.6,3.9c0,0.2,0.1,0.3,0.3,0.2c0.6-0.1,1.1-0.2,1.7-0.3c0.2,0,0.2-0.1,0.2-0.3
		c-0.2-1.3-0.4-2.6-0.6-3.9c0-0.2,0-0.3,0.3-0.4c0.7-0.1,1.5-0.2,2.2-0.3c0.3,0,0.3,0,0.4,0.3c0.2,1.3,0.4,2.6,0.6,4
		c0,0.3,0.2,0.4,0.4,0.3c1.3-0.1,2.6,0,3.9,0.4s2.4,1.1,2.9,2.4c0.7,1.7,1,3.7-0.5,5.4C270.7,76.4,270.5,76.7,270.1,76.9z M267,85.6
		c0.4-0.1,0.7-0.3,1.1-0.5c0.9-0.6,1.5-1.4,1.4-2.6c-0.2-1.2-0.9-1.9-2-2.2c-0.6-0.2-1.2-0.2-1.8-0.3c-1.5,0-2.9,0.2-4.4,0.5
		c-0.2,0-0.2,0.1-0.2,0.3c0.3,1.9,0.6,3.8,0.9,5.7c0,0.1,0,0.2,0.2,0.2C263.8,86.4,265.4,86.2,267,85.6z M264.7,76.8
		c0.3-0.1,0.6-0.3,0.9-0.5c1.3-0.8,1.6-2.4,0.8-3.6c-0.5-0.7-1.3-1-2.1-1.1c-1.5-0.2-2.9,0.1-4.3,0.3c-0.2,0-0.2,0.1-0.1,0.3
		c0.3,1.7,0.5,3.4,0.8,5.2c0,0.1,0,0.2,0.2,0.2C262.1,77.4,263.4,77.3,264.7,76.8z"/>
	<path class="st18" d="M275.7,57.2l-1.9,3.5l-21.1,37.8l-1.9,3.5c-3.7-1.9-7-4.7-9.4-8.2l2.2-4l18-32.2l2.2-4
		C268.1,53.8,272.2,55.1,275.7,57.2z"/>
	<path class="st18" d="M282.6,63.3l-2.1,3.8l-18.8,33.6l-2.1,3.8c-1.6-0.2-3.2-0.5-4.8-1l2-3.6l20.5-36.7l2-3.6
		C280.5,60.8,281.6,62,282.6,63.3z"/>
</g>
</svg>
