<?xml version="1.0" encoding="utf-8"?>
<!-- Generator: Adobe Illustrator 21.0.2, SVG Export Plug-In . SVG Version: 6.00 Build 0)  -->
<svg version="1.1" id="Слой_1" xmlns="http://www.w3.org/2000/svg" xmlns:xlink="http://www.w3.org/1999/xlink" x="0px" y="0px"
	 viewBox="0 0 681.9 377.4" style="enable-background:new 0 0 681.9 377.4;" xml:space="preserve">
<style type="text/css">
	.st0{fill:#3C6BAF;}
	.st1{fill:#33567F;}
	.st2{fill:#E74B3C;}
	.st3{fill:#A82A24;}
	.st4{fill:#603432;}
	.st5{fill:#EFC8AB;}
	.st6{fill:#DDB597;}
	.st7{fill:#E9BF9C;}
	.st8{fill:url(#SVGID_1_);}
	.st9{fill:#6B5144;}
	.st10{fill:#383838;}
	.st11{fill:none;stroke:#141414;stroke-width:3;stroke-linecap:round;stroke-miterlimit:10;}
	.st12{fill:#594339;}
	.st13{fill:url(#SVGID_2_);}
	.st14{fill:#212E3A;}
	.st15{fill:#385063;}
	.st16{fill:#121619;}
	.st17{fill:#BF997F;}
	.st18{fill:#AA856B;}
	.st19{fill:#FFF200;}
	.st20{opacity:0.5;}
</style>
<g>
	<polygon class="st0" points="398.7,267.9 398.1,287.7 395.7,377.4 311,377.4 308.4,276.5 308.2,267.9 	"/>
	<path class="st1" d="M350.7,377.4l-1.3-67.4c0,0-6.4-1.9-9.8-4.1c-2.9-1.9,0-6.3,12.9-1.5s21.8,10.1,21.8,10.1l-20.6-3.3l0.9,66.1
		L350.7,377.4L350.7,377.4z"/>
	<path class="st1" d="M398.7,267.9l-0.7,19.8c-31.1-7.4-73.6-10.4-89.6-11.3l-0.3-8.6h90.6V267.9z"/>
</g>
<g>
	<path class="st2" d="M405.2,118.1H304.1l-7.3,4.8v18.8l7.3,7.3c0,104.5,0,105.7,0,119.7c14.5,8.3,50.6,8.8,50.6,8.8
		s36.1-0.5,50.6-8.8c0-14,0-15.2,0-119.7l6.7-7.3v-18.8L405.2,118.1z"/>
	<g>
		<g>
			<g>
				<path class="st2" d="M405.2,118.1c20.5,1.6,60.5,16.3,60.5,57.2c0,21.5-11.3,38.3-31.7,47.4c-13.7,6-26.9,6.5-28.4,6.6
					c-0.1,0-0.3,0-0.4,0c-8.1,0-13.8-6.5-14-14.6c-0.2-8.3,5.3-15.2,13.6-15.4c0,0,9.2-0.4,17.7-4.3c9.1-4.2,13.2-10.3,13.2-19.6
					c0-6-1.4-14.7-13.8-21.1c-8.6-4.4-16.6-5.2-16.7-5.2"/>
				<path class="st3" d="M405.2,118.1c6.6,0.5,13,1.9,19.3,4c6.2,2.1,12.2,5,17.8,8.7c5.5,3.7,10.4,8.2,14.4,13.6
					c2,2.7,3.7,5.6,5.1,8.6s2.5,6.2,3.3,9.4c1.6,6.5,1.9,13.2,1.1,19.9c-0.1,0.8-0.2,1.7-0.3,2.5l-0.4,2.5l-0.6,2.4l-0.3,1.2
					l-0.4,1.2l-0.8,2.4l-1,2.3c-0.2,0.4-0.3,0.8-0.5,1.2l-0.6,1.1c-0.4,0.7-0.7,1.5-1.2,2.2c-3.3,5.8-7.8,11-13.2,15
					c-5.3,4.1-11.3,7.2-17.6,9.4c-6.3,2.2-12.8,3.6-19.4,4.3c-1.7,0.2-3.3,0.3-5,0.3s-3.5-0.4-5.1-1c-3.3-1.3-6-3.8-7.6-6.9
					c-1.6-3.1-2.2-6.7-1.8-10.1c0.2-1.7,0.6-3.4,1.3-5c0.7-1.6,1.7-3.1,2.9-4.3c1.2-1.3,2.6-2.3,4.2-3.1c1.6-0.7,3.3-1.2,5-1.3
					c3.3-0.2,6.5-0.6,9.6-1.3c3.2-0.7,6.3-1.7,9.2-3.1c2.9-1.4,5.7-3.1,7.8-5.5c2.2-2.3,3.5-5.3,4.2-8.4c0.6-3.1,0.6-6.4,0.1-9.6
					c-0.6-3.2-1.8-6.2-3.8-8.7c-2-2.6-4.5-4.6-7.3-6.3s-5.8-3-8.9-4.1s-6.3-1.9-9.5-2.3c6.5,0.7,12.9,2.7,18.7,6
					c2.9,1.6,5.6,3.7,7.7,6.3s3.6,5.7,4.2,9s0.6,6.7,0,10s-2,6.5-4.3,9.1s-5.1,4.4-8.1,5.9s-6.2,2.5-9.4,3.3
					c-3.2,0.8-6.6,1.3-9.8,1.5c-1.6,0.1-3.1,0.5-4.5,1.2s-2.6,1.6-3.7,2.7c-1.1,1.1-1.9,2.4-2.5,3.8c-0.6,1.4-1,2.9-1.2,4.5
					c-0.4,3.1,0.2,6.3,1.6,9c1.4,2.8,3.8,5,6.6,6c1.4,0.5,2.9,0.9,4.5,0.9c1.5,0,3.2-0.1,4.8-0.3c6.5-0.7,12.8-2.1,18.9-4.3
					c6.1-2.1,11.9-5.1,17.1-9c5.2-3.8,9.5-8.8,12.8-14.3c6.4-11.2,7.7-25,5-37.6c-0.7-3.2-1.7-6.3-3.1-9.2c-1.3-2.9-2.9-5.8-4.8-8.4
					c-3.8-5.3-8.6-9.8-13.9-13.5c-5.3-3.8-11.2-6.7-17.4-9C418.2,120.3,411.8,118.7,405.2,118.1z"/>
			</g>
		</g>
	</g>
	
		<ellipse transform="matrix(0.9971 -7.636847e-02 7.636847e-02 0.9971 -15.1978 31.3726)" class="st4" cx="402.6" cy="214.4" rx="8.7" ry="11.9"/>
	<g>
		<g>
			<g>
				<path class="st2" d="M304.1,118.1c-20.5,1.6-60.5,16.3-60.5,57.2c0,21.5,11.3,38.3,31.7,47.4c13.7,6,26.9,6.5,28.4,6.6
					c0.1,0,0.3,0,0.4,0c8.1,0,13.8-6.5,14-14.6c0.2-8.3-5.3-15.2-13.6-15.4c0,0-9.2-0.4-17.7-4.3c-9.1-4.2-13.2-10.3-13.2-19.6
					c0-6,1.4-14.7,13.8-21.1c8.6-4.4,16.6-5.2,16.7-5.2"/>
				<path class="st3" d="M304.1,118.1c-6.5,0.7-12.9,2.3-19.1,4.5c-6.1,2.3-12,5.2-17.4,9c-5.4,3.7-10.2,8.2-13.9,13.5
					c-1.9,2.6-3.5,5.5-4.8,8.4c-1.4,2.9-2.3,6-3.1,9.2c-2.7,12.6-1.4,26.3,5,37.6c3.2,5.6,7.6,10.5,12.8,14.3c5.1,3.9,11,6.9,17.1,9
					c6.1,2.2,12.5,3.6,18.9,4.3c1.6,0.2,3.3,0.3,4.8,0.3s3.1-0.3,4.5-0.9c2.8-1.1,5.2-3.3,6.6-6s2-6,1.6-9c-0.2-1.5-0.6-3.1-1.2-4.5
					s-1.5-2.7-2.5-3.8c-1.1-1.1-2.3-2-3.7-2.7c-1.4-0.7-2.9-1-4.5-1.2c-3.3-0.2-6.6-0.7-9.8-1.5c-3.2-0.8-6.4-1.9-9.4-3.3
					c-3-1.5-5.9-3.3-8.1-5.9c-2.3-2.5-3.7-5.8-4.3-9.1c-0.5-3.3-0.6-6.7,0-10c0.7-3.3,2.1-6.5,4.2-9c2.1-2.6,4.8-4.7,7.7-6.3
					c5.8-3.2,12.2-5.3,18.7-6c-3.3,0.4-6.4,1.3-9.5,2.3c-3.1,1.1-6.1,2.4-8.9,4.1c-2.8,1.7-5.4,3.8-7.3,6.3c-2,2.5-3.3,5.6-3.8,8.7
					c-0.5,3.2-0.5,6.5,0.1,9.6s2,6.1,4.2,8.4c2.1,2.4,4.9,4.1,7.8,5.5s6,2.4,9.2,3.1c3.2,0.7,6.3,1.2,9.6,1.3c1.7,0.1,3.4,0.5,5,1.3
					c1.6,0.7,3,1.8,4.2,3.1s2.2,2.7,2.9,4.3c0.7,1.6,1.1,3.3,1.3,5c0.4,3.4-0.2,7-1.8,10.1c-1.6,3.1-4.3,5.7-7.6,6.9
					c-1.6,0.6-3.4,1-5.1,1s-3.4-0.1-5-0.3c-6.6-0.7-13.1-2.1-19.4-4.3s-12.3-5.3-17.6-9.4c-5.4-4-9.8-9.2-13.2-15
					c-0.4-0.7-0.8-1.5-1.2-2.2l-0.6-1.1c-0.2-0.4-0.3-0.8-0.5-1.2l-1-2.3l-0.8-2.4l-0.4-1.2l-0.3-1.2l-0.6-2.4l-0.4-2.5
					c-0.1-0.8-0.3-1.6-0.3-2.5c-0.7-6.6-0.5-13.4,1.1-19.9c0.8-3.2,1.8-6.4,3.3-9.4c1.4-3,3.1-5.9,5.1-8.6c4-5.3,8.9-9.9,14.4-13.6
					c5.5-3.7,11.5-6.5,17.8-8.7C291,119.9,297.5,118.5,304.1,118.1z"/>
			</g>
		</g>
	</g>
	
		<ellipse transform="matrix(7.636847e-02 -0.9971 0.9971 7.636847e-02 69.4886 503.8873)" class="st4" cx="306.7" cy="214.4" rx="11.9" ry="8.7"/>
	<path class="st5" d="M368.5,119.1c0,7.4-6.3,13.3-14.1,13.3c-7.8,0-14.1-6-14.1-13.3c0-0.3,0-0.7,0-1h28.1
		C368.5,118.4,368.5,118.7,368.5,119.1z"/>
</g>
<g>
	<path class="st6" d="M354.6,104.7L354.6,104.7c-4.7,0-8.5,3.8-8.5,8.5v4.6c0,4.7,3.8,8.5,8.5,8.5l0,0c4.7,0,8.5-3.8,8.5-8.5v-4.6
		C363.1,108.5,359.3,104.7,354.6,104.7z"/>
	<path class="st5" d="M393.3,71.5c-0.1,1.8-0.2,3.5-0.4,5.2c-0.7,5.7-2.4,11-4.7,15.9c-5.2,10.7-13.9,18.7-24.1,22.1
		c-3.7,1.2-7.7,1.8-11.7,1.7c-1.6-0.1-3.1-0.2-4.7-0.5c-1.4-0.2-2.8-0.6-4.2-1c-2.1-0.6-4.2-1.5-6.1-2.5c-1.5-0.8-2.9-1.7-4.3-2.6
		c-1.8-1.3-3.4-2.7-5-4.2c-4.2-4.2-7.6-9.4-10-15.3v-0.1c-1.7-4.2-2.8-8.7-3.3-13.4c-0.1-0.6-0.1-1.2-0.2-1.8c-0.2-2-0.2-4-0.1-6
		c0.1-2.6,0.3-5.1,0.8-7.5c3.8-21.8,20.6-37.9,40.2-37.2c18.8,0.6,34,16.5,37.2,37.2c0.1,0.9,0.3,1.8,0.3,2.7
		C393.3,66.4,393.4,68.9,393.3,71.5z"/>
	<path class="st7" d="M401.4,69.6c-0.3,5.9-7,6.9-8.5,7.1c-0.2,0-0.3,0-0.3,0s-2.8-7.1-1.8-12.5c0.2-1,0.5-1.9,1-2.7
		c0.3-0.1,0.6-0.1,0.9-0.1c2.8-0.4,5.4,0.3,7,2.2C400.9,64.8,401.5,66.8,401.4,69.6z"/>
	<path class="st7" d="M316.3,74.5c-0.4,1.3-0.7,2.2-0.7,2.2s-0.3,0-0.8-0.1c-0.9-0.1-2.3-0.4-3.8-1.1c-2.1-1-4.1-2.7-4.3-5.9
		c-0.3-6.4,3.7-8.9,8.5-8.3c0.4,0,0.7,0.1,1.1,0.2C318.6,65.2,317.3,71.3,316.3,74.5z"/>
	
		<linearGradient id="SVGID_1_" gradientUnits="userSpaceOnUse" x1="186.1616" y1="364.8527" x2="198.0492" y2="364.8527" gradientTransform="matrix(0.9929 0.1191 0.1191 -0.9929 118.721 418.5891)">
		<stop  offset="0" style="stop-color:#F49784"/>
		<stop  offset="1" style="stop-color:#EFC8AB"/>
	</linearGradient>
	<path class="st8" d="M357.8,85c0,0,2.9-7.5-1.9-11.6l-3.7,0.3c-3.2,0.3-5.5,3.1-5.3,6.3l0,0c0.3,3.1,2.9,5.4,6,5.3L357.8,85z"/>
	<path class="st9" d="M372.5,50.9l-3.6-0.7c-1.4-0.3-2.9,0.6-3.1,2.1l0,0c-0.3,1.4,0.6,2.9,2.1,3.1l3.6,0.7c1.4,0.3,2.9-0.6,3.1-2.1
		l0,0C374.9,52.6,373.9,51.2,372.5,50.9z"/>
	<path class="st9" d="M340.1,50.2l-2.9,0.7c-1.4,0.3-2.3,1.8-2,3.2l0,0c0.3,1.4,1.8,2.3,3.2,2l2.9-0.7c1.4-0.3,2.3-1.8,2-3.2l0,0
		C343,50.7,341.6,49.8,340.1,50.2z"/>
	<g>
		<path class="st10" d="M346.9,93c0.2,0,0.5,0,0.7,0.1c6.2,2.1,13.7,0.3,13.8,0.2c0.8-0.2,1.6,0.3,1.8,1.1c0.2,0.8-0.3,1.6-1.1,1.8
			c-0.3,0.1-8.4,2-15.4-0.3c-0.8-0.3-1.2-1.1-0.9-1.9C345.9,93.5,346.4,93.1,346.9,93z"/>
	</g>
	<path class="st11" d="M362.2,65.6c0,0,5.6-5.8,12.4,0"/>
	<path class="st11" d="M335.2,65.6c0,0,5.6-5.8,12.4,0"/>
	<path class="st12" d="M324.7,44.3c0,0,1.6,9.1-2.3,13c-4.4,4.4-3.8,12.8-3.8,12.8l-1.3-0.7c0,0-10.2-21.5,0.7-35.5
		C323.8,35,324.7,44.3,324.7,44.3z"/>
	<path class="st9" d="M321.9,7.3c0,0-22.9,24.2-1.4,38.6c20.9,14,63.5,1.9,63.5,1.9s-1.6,9.1,2.3,13c4.4,4.4,3.8,12.8,3.8,12.8
		l1.3-0.7c0,0,10.2-21.5-0.7-35.5c7.1,0.3,6.8-8.3,6.8-8.3s-6.1-0.1-7.7,7C388,21.4,368.3,9,350.5,15.2
		C332.7,21.7,322,21.3,321.9,7.3z"/>
</g>
<radialGradient id="SVGID_2_" cx="354.8" cy="175" r="50.4" gradientTransform="matrix(1 0 0 -1 0 380)" gradientUnits="userSpaceOnUse">
	<stop  offset="0" style="stop-color:#F4FF65"/>
	<stop  offset="1" style="stop-color:#EFC8AB;stop-opacity:0"/>
</radialGradient>
<circle class="st13" cx="354.8" cy="205" r="50.4"/>
<g>
	<path class="st14" d="M348.3,216c-0.7,0.9-1.7,1.6-3.2,2c-4.9,1.5-10.2-1.5-11.7-6.6s1.3-10.4,6.2-11.8c0.8-0.2,1.6-0.3,2.3-0.3
		c3.5,0.1,5.5,3.4,6.8,7.6C349.8,210.5,350,213.8,348.3,216z"/>
	<path class="st14" d="M362.7,206c-1.6,5-1.5,9.6,3.4,11.1c4.9,1.6,10.2-1.3,11.8-6.3c1.6-5-1.1-10.4-6-12
		C366.9,197.3,364.3,200.9,362.7,206z"/>
	<g>
		<path class="st14" d="M369.1,213.6c-0.1,0-0.2,0-0.3,0l-10.9-2.2c-0.8-0.2-1.3-1-1.2-1.8s1-1.3,1.8-1.2l10.9,2.2
			c0.8,0.2,1.3,1,1.2,1.8C370.4,213.2,369.8,213.6,369.1,213.6z"/>
	</g>
	<g>
		<path class="st14" d="M371.3,205c-0.1,0-0.2,0-0.3,0l-10.9-2.2c-0.8-0.2-1.3-1-1.2-1.8s1-1.3,1.8-1.2l10.9,2.2
			c0.8,0.2,1.3,1,1.2,1.8C372.6,204.5,372,205,371.3,205z"/>
	</g>
	<g>
		<path class="st14" d="M323.5,217.7c-1,0-1.9-0.6-2.3-1.5c-0.5-1.3,0.1-2.7,1.3-3.3c7.9-3.4,14.2-3.9,14.4-4
			c1.4-0.1,2.6,0.9,2.7,2.3c0.1,1.4-0.9,2.6-2.3,2.7l0,0c-0.1,0-5.7,0.5-12.9,3.6C324.1,217.7,323.8,217.7,323.5,217.7z"/>
	</g>
	<g>
		<path class="st14" d="M388.5,218.7c-0.2,0-0.3,0-0.5,0c-9-1.8-15-7.9-15.3-8.1c-1-1-1-2.6,0-3.5c1-1,2.6-1,3.5,0l0,0
			c0.1,0.1,5.3,5.2,12.7,6.7c1.4,0.3,2.2,1.6,2,2.9C390.7,217.9,389.6,218.7,388.5,218.7z"/>
	</g>
	<path class="st15" d="M348.3,216L348.3,216c-2.2,0.6-5.2-0.1-7-7.2c-1.8-7,0.4-9.3,0.6-9.5c3.5,0.1,5.5,3.4,6.8,7.6
		C349.8,210.5,350,213.8,348.3,216z"/>
	<ellipse transform="matrix(0.9379 -0.347 0.347 0.9379 -49.3502 131.994)" class="st16" cx="343.9" cy="203.8" rx="1.6" ry="1.9"/>
	<ellipse transform="matrix(0.9379 -0.347 0.347 0.9379 -51.8757 133.277)" class="st16" cx="346.2" cy="211.5" rx="1.6" ry="1.9"/>
</g>
<g>
	
		<ellipse transform="matrix(0.6794 -0.7338 0.7338 0.6794 -42.1167 351.477)" class="st17" cx="381.1" cy="223.9" rx="3.4" ry="5.1"/>
	<path class="st5" d="M393.9,228.4c-0.8,0.1-1.5,0.1-2.3,0c-0.7,0-1.3-0.1-2-0.2c-1.8-0.3-3.5-1-5-1.9c-0.8-0.5-1.5-1-2.1-1.6l0,0
		c-2-1.9-3.3-4.4-3.5-7.2c-0.6-6.7,5.2-12.7,12.9-13.3c7.7-0.6,14.3,4.3,14.9,11C407.3,221.8,401.6,227.7,393.9,228.4z"/>
	<path class="st5" d="M391.9,204l13.9-0.4c0,0,6.5,3.5,5.3,13.5c-6.4,1.1-4.8,2-4.8,2S394.4,211.1,391.9,204z"/>
	<path class="st18" d="M384.1,223.6c0.1,0.9,0.3,1.9,0.6,2.7c-0.8-0.5-1.5-1-2.1-1.6l0,0c0-0.3,0-0.6,0-0.9c0-1.1,0.2-2.1,0.4-3.1
		c0.2-1,0.5-2,0.8-3s0.7-1.9,1.1-2.8c-0.3,1-0.5,2-0.6,3c-0.2,1-0.2,2-0.3,3C383.9,221.6,384,222.6,384.1,223.6z"/>
	<path class="st18" d="M391.2,226.1c0.1,0.8,0.3,1.6,0.5,2.3c-0.7,0-1.3-0.1-2-0.2c-0.1-0.7-0.1-1.3,0-2c0-1.1,0.2-2.1,0.4-3.1
		c0.2-1,0.5-2,0.8-3s0.7-1.9,1.1-2.9c-0.3,1-0.5,2-0.6,3c-0.2,1-0.2,2-0.3,3C391,224.1,391,225.1,391.2,226.1z"/>
</g>
<g>
	
		<ellipse transform="matrix(0.7338 -0.6794 0.6794 0.7338 -64.4365 283.2552)" class="st17" cx="329.2" cy="223.8" rx="5.1" ry="3.4"/>
	<path class="st5" d="M316.4,228.4c0.8,0.1,1.5,0.1,2.3,0c0.7,0,1.3-0.1,2-0.2c1.8-0.3,3.5-1,5-1.9c0.8-0.5,1.5-1,2.1-1.6l0,0
		c2-1.9,3.3-4.4,3.5-7.2c0.6-6.7-5.2-12.7-12.9-13.3c-7.7-0.6-14.3,4.3-14.9,11C303,221.8,308.7,227.7,316.4,228.4z"/>
	<path class="st5" d="M318.4,204l-14.9-0.4c0,0-6.5,3.5-5.3,13.5c6.4,1.1,5.8,2,5.8,2S315.9,211.1,318.4,204z"/>
	<path class="st18" d="M326.2,223.6c-0.1,0.9-0.3,1.9-0.6,2.7c0.8-0.5,1.5-1,2.1-1.6l0,0c0-0.3,0-0.6,0-0.9c0-1.1-0.2-2.1-0.4-3.1
		c-0.2-1-0.5-2-0.8-3s-0.7-1.9-1.1-2.8c0.3,1,0.5,2,0.6,3c0.2,1,0.2,2,0.3,3C326.4,221.6,326.3,222.6,326.2,223.6z"/>
	<path class="st18" d="M319.1,226.1c-0.1,0.8-0.3,1.6-0.5,2.3c0.7,0,1.3-0.1,2-0.2c0.1-0.7,0.1-1.3,0-2c0-1.1-0.2-2.1-0.4-3.1
		c-0.2-1-0.5-2-0.8-3s-0.7-1.9-1.1-2.9c0.3,1,0.5,2,0.6,3c0.2,1,0.2,2,0.3,3C319.3,224.1,319.3,225.1,319.1,226.1z"/>
</g>
<g>
	<path class="st14" d="M617.3,377.4h-5.2c-13.7-49.9-49.9-65.3-79-69.2c-32.6-4.4-53.5-28.9-70.3-48.7c-4.7-5.5-9.2-10.8-13.5-15.1
		c-18.8-18.8-50.5-21.5-50.9-21.6c-1.4-0.1-2.4-1.3-2.3-2.7s1.3-2.4,2.7-2.3c1.4,0.1,33.9,2.9,54,23c4.4,4.4,9,9.7,13.7,15.3
		c16.3,19.1,36.5,42.8,67.2,46.9c21.9,2.9,40.3,11.1,54.7,24.3C602.2,340,611.8,356.7,617.3,377.4z"/>
</g>
<g>
	<path class="st14" d="M311.4,225c-0.7,0.4-17,8.9-64.2,16.9c-46.6,7.9-77.8,49.1-96.4,73.7c-22,29.2-40.4,51-68.5,61.8H64.6
		c36.4-7.7,56.8-31.3,82.2-64.9c19.1-25.2,51-67.4,99.6-75.6c46.2-7.8,62.5-16.3,62.7-16.4c1.2-0.6,2.7-0.2,3.4,1
		C313.1,222.8,312.6,224.3,311.4,225z"/>
</g>
<polygon class="st19" points="343.9,198.5 354.6,191.7 352.3,196.6 365.9,196.8 356,194.8 358.5,186 "/>
<polygon class="st19" points="348.9,218.3 355.3,221.2 353.6,230.3 352.1,222.3 "/>
<polygon class="st19" points="365.9,217.9 361,221.1 368.4,220.3 "/>
<polygon class="st19" points="368.9,196.6 372,191.8 372,195.1 "/>
<g class="st20">
	<path class="st19" d="M388.2,92.5c-5.2,10.7-13.9,18.7-24.1,22.1c-3.7,1.2-7.7,1.8-11.7,1.7c-1.6-0.1-3.1-0.2-4.7-0.5
		c-1.4-0.2-2.8-0.6-4.2-1c-2.1-0.6-4.2-1.5-6.1-2.5c-1.5-0.8-2.9-1.7-4.3-2.6c-1.8-1.3-3.4-2.7-5-4.2c-4.2-4.2-7.6-9.4-10-15.3
		c0.7,1.3,12.6,22.9,36.1,22.9C373.4,112.9,384.4,98.5,388.2,92.5z"/>
	<path class="st19" d="M304.5,200.2c0,0-36,3-36-24.5s35.6-26.6,35.6-26.6s-31.1,2.8-31.1,26.1S304.5,200.2,304.5,200.2z"/>
	<path class="st19" d="M406.2,199.8c0,0,36,3.3,36-24.2S406.6,149,406.6,149s29.6,2.8,29.6,26.1S406.2,199.8,406.2,199.8z"/>
	<path class="st19" d="M303.4,203.7c0,0,9.5,0.2,14.9,0.4s13.7,5,12.9,13.3c-3.5-6.2-9.6-10.6-14.2-10.6s-16.5-0.4-16.5-0.4
		S302.1,204.4,303.4,203.7z"/>
	<path class="st19" d="M405.9,203.7c0,0-8.6,0.2-14,0.4s-13.7,5-12.9,13.3c3.5-6.2,9.6-10.6,14.2-10.6s15.5-0.4,15.5-0.4
		S407.3,204.4,405.9,203.7z"/>
</g>
</svg>
