<?xml version="1.0" encoding="utf-8"?>
<!-- Generator: Adobe Illustrator 21.0.2, SVG Export Plug-In . SVG Version: 6.00 Build 0)  -->
<svg version="1.1" id="Слой_1" xmlns="http://www.w3.org/2000/svg" xmlns:xlink="http://www.w3.org/1999/xlink" x="0px" y="0px"
	 viewBox="0 0 681.9 377.4" style="enable-background:new 0 0 681.9 377.4;" xml:space="preserve">
<style type="text/css">
	.st0{fill:#DDB597;}
	.st1{fill:#6B5144;}
	.st2{fill:#EFC8AB;}
	.st3{fill:#876755;}
	.st4{fill:#E9BF9C;}
	.st5{fill:url(#SVGID_1_);}
	.st6{fill:#141414;}
	.st7{fill:#383838;}
	.st8{opacity:0.3;fill:#68503E;enable-background:new    ;}
	.st9{fill:#85AFD6;}
	.st10{fill:#33567F;}
	.st11{fill:#274666;}
	.st12{fill:#F4A23C;}
	.st13{fill:#844F15;}
	.st14{fill:#DB8F1F;}
	.st15{fill:#3D7087;}
	.st16{fill:#2D5B6B;}
	.st17{fill:#498C9B;}
	.st18{opacity:0.3;enable-background:new    ;}
	.st19{fill:#D9E3E8;}
	.st20{fill:#87CDF4;}
	.st21{fill:#CEDCE0;}
	.st22{fill:#385066;}
	.st23{fill:#F4F8F9;}
	.st24{fill:#4F83AA;}
	.st25{fill:#2D3E50;}
	.st26{fill:#E6ECEF;}
	.st27{fill:#FFFFFF;}
	.st28{fill:#DAE2E5;}
	.st29{fill:#C2CBCE;}
	.st30{fill:#64DDA9;}
	.st31{fill:#56B692;}
	.st32{opacity:0.5;fill:#87CDF4;enable-background:new    ;}
	.st33{fill:#113156;}
	.st34{fill:#25527F;}
	.st35{fill:#B28A6F;}
	.st36{fill:#C19B81;}
	.st37{fill:#3B556D;}
</style>
<g>
	<path class="st0" d="M540.5,115.6L540.5,115.6c-4.7,0-8.5,3.8-8.5,8.5v4.6c0,4.7,3.8,8.5,8.5,8.5l0,0c4.7,0,8.5-3.8,8.5-8.5v-4.6
		C549,119.4,545.2,115.6,540.5,115.6z"/>
	<path class="st1" d="M498.2,72.8c0,0-5.8-14.7,0-27c6.8-8,18.7,5,18.7,5L498.2,72.8z"/>
	<path class="st2" d="M575.3,82.6c-0.7,20.7-13,37.8-29.3,43.1c-3.7,1.2-7.7,1.8-11.7,1.6c-1.6,0-3.1-0.2-4.7-0.5
		c-1.4-0.2-2.8-0.6-4.2-1c-2.1-0.6-4.2-1.5-6.1-2.5c-1.5-0.8-2.9-1.6-4.3-2.6c-1.8-1.3-3.4-2.7-5-4.2c-8.8-8.8-14.1-22-13.6-36.6
		c0.9-25.5,19.2-45.5,41-44.7C559.2,35.9,576.2,57.2,575.3,82.6z"/>
	<path class="st3" d="M500.7,7.3c0,0-25.8,29,0,43.5s61,4.2,61,4.2s-5.8,11-1.5,16.3s4,15.3,4,15.3h4.3c0,0,1.6-9.9,6.7-9.8
		c5.1,0.1,5,7.6,5,7.6s19.6-22.8,1.4-38.7c8.2,0.3,10.2-7.3,10.2-7.3s-10.3-2.2-12.2,6c-2.2-16.8-18.3-35.2-39.2-29
		S500.8,23.3,500.7,7.3z"/>
	<path class="st4" d="M572,91.8c0,0-1.2-10.5,3.2-14.9c5.4,0.3,9.3,3.8,7.1,10.4C580.3,93.7,572,91.8,572,91.8z"/>
	
		<linearGradient id="SVGID_1_" gradientUnits="userSpaceOnUse" x1="516.8992" y1="293.0117" x2="528.7943" y2="293.0117" gradientTransform="matrix(1 0 0 -1 0 380)">
		<stop  offset="0" style="stop-color:#F49784"/>
		<stop  offset="1" style="stop-color:#EFC8AB"/>
	</linearGradient>
	<path class="st5" d="M528.4,92.2c0,0,2-7.8-3.3-11.3l-3.7,0.8c-3.1,0.6-5.1,3.7-4.5,6.8l0,0c0.6,3,3.5,5,6.6,4.5L528.4,92.2z"/>
	<ellipse class="st6" cx="514.4" cy="78.7" rx="3.1" ry="3.8"/>
	<ellipse class="st6" cx="536.4" cy="77.2" rx="3.1" ry="3.8"/>
	<path class="st1" d="M540.4,59.9l-3.6-0.7c-1.4-0.3-2.9,0.6-3.1,2.1l0,0c-0.3,1.4,0.6,2.9,2.1,3.1l3.6,0.7c1.4,0.3,2.9-0.6,3.1-2.1
		l0,0C542.8,61.6,541.8,60.1,540.4,59.9z"/>
	<path class="st1" d="M513.4,67.4l-2.9,0.7c-1.4,0.3-2.3,1.8-2,3.2l0,0c0.3,1.4,1.8,2.3,3.2,2l2.9-0.7c1.4-0.3,2.3-1.8,2-3.2l0,0
		C516.2,67.9,514.8,67,513.4,67.4z"/>
	<g>
		<path class="st7" d="M536.4,112.3c-0.2,0-0.5-0.1-0.7-0.2c-5.8-2.9-13.5-2.3-13.6-2.2c-0.8,0.1-1.6-0.5-1.6-1.4
			c-0.1-0.8,0.5-1.6,1.3-1.6c0.3,0,8.6-0.8,15.2,2.6c0.7,0.4,1,1.3,0.7,2C537.5,112,536.9,112.3,536.4,112.3z"/>
	</g>
	<path class="st8" d="M525.5,125.9c-2.1-0.6-4.2-1.5-6.1-2.5c-1.5-0.8-2.9-1.6-4.3-2.6l-0.4-8.6c0-0.1,0-0.2,0-0.3
		c0-2.6,2-4.8,4.6-4.9c2.7-0.2,5.1,1.9,5.2,4.6L525.5,125.9z"/>
	<path class="st9" d="M554.5,70.2c0,0-5.5,9.4,0,9.4S554.5,70.2,554.5,70.2z"/>
</g>
<g>
	<polygon class="st10" points="587.9,377.7 560.1,377.7 545,316.8 545,316.8 547.8,377.7 520.7,377.7 508.5,277.5 507.7,270.8 
		581.1,269.3 582.3,288.3 	"/>
	<path class="st11" d="M582.3,288.3c-23.8-10.4-62.3-10.9-73.8-10.8l-0.8-6.6l73.5-1.5L582.3,288.3z"/>
	<path class="st12" d="M585.7,221.3l2,50.3c0,0-44,7.7-85,0c-7.6-43.8-12-112.9-12-112.9c-26.7,9.7-20,38.4-13.8,51.7
		s-26.2,25.2-32.4,11c-9-16.3-12.4-46.5,32.4-75.9c17.7-11.6,36-16.2,52.3-17.1c1-0.1,2-0.1,2.9-0.1c6-0.2,11.7,0.2,17,0.8
		c1,0.1,2.1,0.3,3.1,0.4c13.8,2.1,24.3,6.4,28.6,9.4C627,175.4,585.7,221.3,585.7,221.3z"/>
	
		<ellipse transform="matrix(0.9598 -0.2808 0.2808 0.9598 -42.2403 138.1297)" class="st13" cx="460.9" cy="216.5" rx="15.9" ry="9.5"/>
	
		<ellipse transform="matrix(4.337263e-02 -0.9991 0.9991 4.337263e-02 341.1602 663.6533)" class="st13" cx="517.1" cy="153.7" rx="2.7" ry="16.9"/>
	<path class="st14" d="M500.3,153c0,0-11,79.1,50.5,79.1c15,0,23.4-1.4,34.8-10.8c-8.3,13.3-30.8,15.8-35.6,15.8
		C482,237.1,500.3,153,500.3,153z"/>
	<path class="st14" d="M534.6,153.7c1.5,7.9,2.5,15.8,3.3,23.7c0.1,1,0.2,1.9,0.4,2.9c0.2,0.9,0.4,1.8,0.6,2.7
		c0.5,1.8,1.3,3.5,2.2,5c2,3.1,5,5.5,8.4,6.5c3.5,1.1,7.3,0.9,10.7-0.5s6.2-4.1,8-7.4c1.8-3.3,2.9-7.1,3-11c0.2-3.9-0.2-7.9-1-11.8
		c1.3,3.8,2.1,7.7,2.3,11.8c0,1,0,2,0,3.1c-0.1,1-0.2,2-0.4,3.1c-0.4,2-1,4-2,5.9c-1.8,3.8-4.9,7-8.9,8.8c-2,0.9-4.1,1.5-6.2,1.6
		c-2.2,0.1-4.3-0.1-6.4-0.7c-2.1-0.6-4-1.6-5.7-3c-1.7-1.3-3.2-3-4.3-4.8c-2.3-3.6-3.3-8-3.4-12
		C534.8,169.7,534.5,161.7,534.6,153.7z"/>
	<path class="st0" d="M549,129.2c0,2.3-1,4.5-2.5,6s-3.6,2.5-6,2.5c-4.7,0-8.5-3.8-8.5-8.5v-0.8C538,128.2,543.7,128.5,549,129.2z"
		/>
	<path class="st4" d="M526.7,156.4c0,0-3.7-10.5-1.9-12.8s10.8-5.8,13.9-9.9s0.4-7.6-3.5-5.8c-2.3,1-4.5,1.3-8.1,1.1
		c-2.4-0.2-4.2-2.3-4.4-4.7l-1.3-19c-0.2-2.7-2.5-4.8-5.2-4.6l0,0c-2.7,0.2-4.7,2.5-4.6,5.2l0.6,12.1l-3.4,0.1
		c-2.6,0-4.7,2.2-4.7,4.8l0,0L502,123c-2.5,0.2-4.4,2.3-4.4,4.8c0,5.2,0.2,13.5,1,16.4c1.3,4.3,4.8,10.6,4.8,10.6
		S513.1,157.3,526.7,156.4z"/>
</g>
<g>
	<g>
		<polygon class="st15" points="547.8,304.3 161.3,304.3 235.8,227.8 485.8,227.8 		"/>
		<polygon class="st16" points="241.7,304.3 161.3,304.3 237.1,230.9 238.5,252.6 		"/>
		<polygon class="st17" points="547.8,304.3 482,304.3 483.3,265.8 484.5,230.8 		"/>
		<polygon class="st18" points="519.3,293.7 518,304.3 188.5,304.3 203.5,276.8 213.8,280.8 232.5,248.1 238.5,252.6 251,262.2 
			257.6,253 251,238.8 283.4,235.2 290.8,246.7 365.1,245 363.5,255.6 403.7,238.8 406.8,243.2 437.1,234.8 453.9,252.6 
			483.3,265.8 496.9,271.8 488.4,289.3 		"/>
	</g>
	<g>
		<path class="st19" d="M266.7,261.2l-9-21c0,0,47-5.7,55.7-6.3c9.7,19.7,11,30.4,11,30.4L266.7,261.2z"/>
		<path class="st20" d="M354.6,279.8l41.1-25.7c0,0,18.3,22,21,32c-22.7,11.7-47,19.3-47,19.3L354.6,279.8z"/>
		<path class="st21" d="M305,244.2c0.1-0.5,52,3.7,52,3.7v28l-56.7-1.3C300.3,274.5,301.7,257.8,305,244.2z"/>
		<g>
			<g>
				<path class="st22" d="M349.1,288.9c-7.6,2.5-15.8-1.7-18.3-9.3l-21.9-67.7c-7.3-22.7,5.2-47.2,27.9-54.6l28.1-9.1
					c7.6-2.5,15.8,1.7,18.3,9.3s-1.7,15.8-9.3,18.3l-28.1,9.1c-7.5,2.4-11.7,10.5-9.2,18l21.9,67.7
					C360.9,278.3,356.7,286.4,349.1,288.9z"/>
			</g>
			
				<ellipse transform="matrix(0.9516 -0.3072 0.3072 0.9516 -31.6136 121.7722)" class="st9" cx="371" cy="161.3" rx="10.9" ry="12"/>
			<path class="st23" d="M369,155.3c-6.1,2-8.4,9.3-8.4,9.3s6.2,4.6,12.3,2.6c6.1-2,8.4-9.3,8.4-9.3S375.1,153.3,369,155.3z"/>
			
				<ellipse transform="matrix(0.9516 -0.3072 0.3072 0.9516 -31.3156 122.2617)" class="st24" cx="372.7" cy="160.6" rx="5.1" ry="5.1"/>
			
				<ellipse transform="matrix(0.9516 -0.3072 0.3072 0.9516 -31.3156 122.2617)" class="st25" cx="372.7" cy="160.6" rx="3" ry="3"/>
			
				<ellipse transform="matrix(0.9516 -0.3072 0.3072 0.9516 -30.9443 121.2214)" class="st23" cx="369.6" cy="158.9" rx="1.3" ry="1.3"/>
		</g>
		<g>
			<g>
				<path class="st25" d="M322.2,296.8c-7.6,2.5-15.8-1.7-18.3-9.3L282,219.7c-7.3-22.7,5.2-47.2,27.9-54.6L338,156
					c7.6-2.5,15.8,1.7,18.3,9.3s-1.7,15.8-9.3,18.3l-28.1,9.1c-7.5,2.4-11.7,10.5-9.2,18l21.9,67.7
					C334,286.2,329.8,294.4,322.2,296.8z"/>
			</g>
			
				<ellipse transform="matrix(0.9516 -0.3072 0.3072 0.9516 -35.3433 113.888)" class="st9" cx="344.1" cy="169.2" rx="10.9" ry="12"/>
			<path class="st23" d="M342.2,163.2c-6.1,2-8.4,9.3-8.4,9.3s6.2,4.6,12.3,2.6c6.1-2,8.4-9.3,8.4-9.3S348.2,161.3,342.2,163.2z"/>
			
				<ellipse transform="matrix(0.9516 -0.3072 0.3072 0.9516 -34.7609 114.7708)" class="st24" cx="347.2" cy="167.8" rx="5.1" ry="5.1"/>
			
				<ellipse transform="matrix(0.9516 -0.3072 0.3072 0.9516 -34.7609 114.7708)" class="st25" cx="347.2" cy="167.8" rx="3" ry="3"/>
			
				<ellipse transform="matrix(0.9516 -0.3072 0.3072 0.9516 -34.4314 113.7169)" class="st23" cx="344" cy="166.2" rx="1.3" ry="1.3"/>
		</g>
		<path class="st23" d="M340.7,279.2l-35.3-32.3c0,0-31.7,19.6-36,23.4c11,8.9,35.7,29.9,35.7,29.9L340.7,279.2z"/>
		<path class="st23" d="M244.3,244.8c0.2-1,25.7,5,38.7,10.7c-2.7,18.7-8.7,40.3-8.7,40.3L220,281.2
			C220,281.2,241.3,256.8,244.3,244.8z"/>
		<path class="st26" d="M233,312.2c-0.7-1-7.7-21-7.7-21l62-17.7l13,32.8l-63.7,16.2L233,312.2z"/>
		<path class="st27" d="M185,311.2c0.3-1,28.7-37.7,28.7-37.7l34.3,8.7l-14.7,38.7L185,311.2z"/>
		<path class="st28" d="M343,257.8l52-20c0,0,11,16.3,14.3,25.3c-13.3,13-43,23-43,23S346.7,264.5,343,257.8z"/>
		<path class="st19" d="M305.3,289.8l51-23.7l24.3,26.7c0,0-47,22.3-53,26.3C323,311.5,305.3,289.8,305.3,289.8z"/>
		<path class="st29" d="M405.3,246.8c0.3-1.2,48-16,48-16l13.7,35.3l-54.7,20C412.3,286.2,398,274.2,405.3,246.8z"/>
		<path class="st27" d="M276.3,316.8l-4.3-22.1l41-18.9c0,0,14.3,16.3,17,24.3C314,312.5,276.3,316.8,276.3,316.8z"/>
		<path class="st26" d="M380.7,264.8l12-20c0,0,35.7,0.3,45,3c0.7,17,0,29.7,0,29.7S415.3,267.5,380.7,264.8z"/>
		<path class="st27" d="M374.8,295.4l0.1-27.9c0,0,32.4-14.9,42.3-15.9c9.7,19,16,33.7,16,33.7S407.5,283.5,374.8,295.4z"/>
		<path class="st23" d="M479.3,300.2c0,0.3,8.7-26.7,8.7-26.7l-53-15.7c0,0-8.3,19-13,31C437.3,294.5,479.3,300.2,479.3,300.2z"/>
		<path class="st23" d="M352.8,280.3c0,0,49.2-14.3,53.8-15.9c5,15.6,8.7,37.2,8.7,37.2l-57.8,11.7
			C357.5,313.3,354.7,290.9,352.8,280.3z"/>
		<path class="st26" d="M401.3,286.2c0,0,28.7-7.3,60.3-10.3c-0.3,18.3,0,35,0,35l-55,6L401.3,286.2z"/>
		<path class="st27" d="M449.7,288.8l58,9.2l-9.7,30.5l-52-6C446,322.5,445.3,306.8,449.7,288.8z"/>
		<path class="st27" d="M384,310.8l8-24.7l48.7,9.7l-2.7,29C438,324.8,386.7,311.8,384,310.8z"/>
	</g>
	<g>
		<g>
			<path class="st30" d="M484.4,230.9l57.1,70.5H168.4l68.7-70.5H484.4 M485.8,227.9h-250l-74.5,76.5h386.5L485.8,227.9L485.8,227.9
				z"/>
		</g>
		<polygon class="st31" points="165.8,377.7 161.3,304.3 547.8,304.3 543.8,377.7 		"/>
	</g>
	<g>
		<path class="st19" d="M75.4,319.8l-4.3,35c0,0,48-1.3,69.3-17.5c-9.7-7.5-19-26.2-19-26.2S107.4,318.5,75.4,319.8z"/>
		<path class="st19" d="M257.2,139.9c0,0,23.9,5.2,32,19c7.7-14.9,17-30.9,17-30.9s-23.7-16.5-43.1-12.9
			C259.4,130.8,257.2,139.9,257.2,139.9z"/>
		<path class="st27" d="M223.1,198.5c0,0,6.5-22.6,34.1-38.1c-21.2-16.5-30.9-27.5-30.9-27.5s-29,17.5-28.6,57.1
			C214.9,193.8,223.1,198.5,223.1,198.5z"/>
		<path class="st23" d="M350.6,64c0,0,23.7,19.7,24,38.3c19.7-5.7,33.7-9,33.7-9s-0.3-28.7-20.7-49C368.9,52.7,350.6,64,350.6,64z"
			/>
	</g>
</g>
<g>
	<ellipse class="st32" cx="442.9" cy="258.3" rx="25.3" ry="12.6"/>
	<path class="st27" d="M420.9,263.2l19.1-16.4h9.5c0,0-11.4,3-16.7,21.1C428.1,267.3,420.9,263.2,420.9,263.2z"/>
	<path class="st27" d="M436.6,247.1l-14,9.8c0,0,8.3-7.9,9.3-9.2C433.3,247.5,436.6,247.1,436.6,247.1z"/>
	<g>
		<path class="st33" d="M470.6,257.4v3.8c0,7.4-12.3,13.4-27.4,13.4c-15.2,0-27.4-6-27.4-13.4v-3.8h1.1c0.6-1,1.4-1.9,2.4-2.8
			c-0.3,0.7-0.4,1.3-0.4,2c0,6.2,10.8,11.2,24.1,11.2c13.3,0,24.1-5,24.1-11.2c0-0.9-0.2-1.8-0.7-2.7c1.4,1.1,2.5,2.2,3.2,3.5
			L470.6,257.4L470.6,257.4z"/>
		<path class="st33" d="M470.6,228.9c0.8-1,0.7-2.6-0.3-3.5s-2.6-0.8-3.5,0.2L449,245.1l6.8,2L470.6,228.9z"/>
	</g>
	<path class="st34" d="M456.8,245.7c-2.2-0.6-4.6-1.1-7.2-1.4c-2.1-0.3-4.3-0.4-6.5-0.4c-15.2,0-27.4,6-27.4,13.4
		c0,7.4,12.3,13.4,27.4,13.4c15.2,0,27.4-6,27.4-13.4C470.6,252.4,465,248.1,456.8,245.7z M442.9,267.9c-13.3,0-24.1-5-24.1-11.2
		c0-0.7,0.1-1.4,0.4-2c2-5.2,11.9-9.2,23.7-9.2c11.3,0,20.8,3.6,23.4,8.5c0.5,0.9,0.7,1.8,0.7,2.7
		C467,262.8,456.2,267.9,442.9,267.9z"/>
	<path class="st35" d="M480.6,225.4L480.6,225.4c-1,1.1-2.1,2.3-3.4,3.6c-0.2,0.2-0.3,0.3-0.5,0.5c-2.6,2.6-6.7,3.2-9.3,3.2l3.2-3.9
		c0.4-0.5,0.6-1.1,0.6-1.8c0-0.2-0.1-0.5-0.2-0.7c-0.1-0.3-0.3-0.7-0.6-0.9l3.8-5.3c0.8-1.1,2.1-1.7,3.3-1.7c0.8,0,1.7,0.3,2.4,0.8
		C481.9,220.8,482.2,223.6,480.6,225.4z"/>
	<path class="st36" d="M479.6,228.6c-0.6,0.7-1.3,1.4-2.1,2.2c-0.6,0.6-1.2,1.2-1.8,1.9c-3.3,3.3-8.9,3.3-10.9,3.2l2.6-3.1l3.2-3.9
		c0.4-0.5,0.6-1.1,0.6-1.8c0-0.2-0.1-0.5-0.2-0.7l2.2-3.1c0.8-1.1,2.1-1.7,3.3-1.7c0.8,0,1.7,0.3,2.4,0.8c1,0.7,1.6,1.8,1.7,2.9
		C480.8,226.5,480.4,227.7,479.6,228.6z"/>
	<path class="st0" d="M453.6,226.7l8.4-4.3c2.4-1.2,5.4-0.1,6.3,2.5l0,0c0.6,1.7,0.2,3.6-1.1,4.8c-2.9,2.9-8.3,7.6-11,7.5
		c-3.9-0.2-9.3-1.2-11.2-11.5c-1.9-10.3,12.7-18.4,22-14.8c7.5,3,7.5,8.9,7.5,8.9l-4.2,5.7c0,0-3-1.4-6.7,3.3
		C459.9,233.6,453.6,226.7,453.6,226.7z"/>
	<path class="st0" d="M477.5,230.9c-0.1,0.9-0.4,1.8-1.1,2.5c-1.1,1.2-2.4,2.6-3.9,4.1c-4,4-11.6,3.2-11.6,3.2l3.9-4.7l2.6-3.1
		l3.2-3.9c0.4-0.5,0.6-1.1,0.6-1.8c0.7-0.5,1.5-0.7,2.3-0.7s1.7,0.3,2.4,0.8c0.6,0.5,1.1,1.1,1.4,1.8
		C477.5,229.6,477.6,230.2,477.5,230.9z"/>
	<g>
		<path class="st36" d="M453.5,226.5c1.1-1,2.3-1.9,3.5-2.6c1.2-0.8,2.4-1.5,3.7-2.1c0.3-0.2,0.6-0.3,1-0.5s0.8-0.3,1.2-0.4
			c0.9-0.1,1.7-0.1,2.5,0.3c1.6,0.6,2.7,2.1,2.8,3.6c-0.9-1.2-2.1-1.9-3.2-2.1c-0.6-0.1-1.2-0.1-1.7,0.1c-0.3,0.1-0.5,0.2-0.8,0.3
			s-0.6,0.3-0.9,0.5c-1.3,0.6-2.6,1.2-3.9,1.7C456.3,225.7,454.9,226.2,453.5,226.5z"/>
	</g>
	<path class="st33" d="M466.3,253.9c-4.9-3.7-13.4-6.2-23.1-6.2c-10.3,0-19.3,2.8-24,6.9c2-5.2,11.9-9.2,23.7-9.2
		C454.2,245.4,463.7,249,466.3,253.9z"/>
</g>
<polygon class="st25" points="286.7,234.2 283.9,225.4 314.3,225.4 317.1,233.8 "/>
<path class="st37" d="M333.3,163l-11.9,4.1L316,169c-0.6,0.2-1.2,0.5-1.9,0.7c-1.2,0.5-2.5,1-3.7,1.6l-1.8,0.9l-0.9,0.5l-0.8,0.6
	c-9.1,5.6-15.8,14.7-18.5,24.9c-1.4,5.1-1.8,10.4-1.2,15.5c0.3,2.6,0.8,5.1,1.6,7.6c0.3,1.3,0.8,2.4,1.2,3.6l1.2,3.6l7.4,21.4
	c0.1-0.1,0.2-0.1,0.4-0.1l-6.3-21.7l-1.1-3.6c-0.4-1.2-0.7-2.4-1-3.6c-0.6-2.4-1-4.8-1.1-7.3c-0.3-4.9,0.3-9.8,1.9-14.5
	c3-9.3,9.6-17.2,17.9-21.9l0.8-0.5l0.8-0.4l1.6-0.8c1.1-0.6,2.2-0.9,3.3-1.3c0.6-0.2,1.1-0.4,1.7-0.6l1.8-0.5l3.6-1.1l9-2.6
	C331.8,167.2,332.3,165,333.3,163z"/>
<g>
	<g>
		<path class="st23" d="M595.3,24.8c-0.3,0-0.7-0.2-0.9-0.5c-0.3-0.5-0.1-1.1,0.3-1.4l10.3-6.3c0.5-0.3,1.1-0.1,1.4,0.3
			c0.3,0.5,0.1,1.1-0.3,1.4l-10.3,6.3C595.6,24.7,595.5,24.8,595.3,24.8z"/>
	</g>
	<g>
		<path class="st23" d="M573.1,9.5c-0.2,0-0.3,0-0.5-0.1c-0.5-0.3-0.6-0.9-0.4-1.4l4.3-7.5c0.3-0.5,0.9-0.6,1.4-0.4
			c0.5,0.3,0.6,0.9,0.4,1.4L573.9,9C573.7,9.3,573.4,9.5,573.1,9.5z"/>
	</g>
	<g>
		<path class="st23" d="M599.2,51.8c-0.5,0-0.9-0.4-1-0.9s0.3-1,0.9-1.1l10.7-1.2c0.6-0.1,1,0.3,1.1,0.9s-0.3,1-0.9,1.1L599.2,51.8
			C599.2,51.8,599.2,51.8,599.2,51.8z"/>
	</g>
</g>
<polygon class="st22" points="317.7,235.8 313.8,223.6 343.2,223.6 347.1,235.8 "/>
</svg>
