<?xml version="1.0" encoding="utf-8"?>
<!-- Generator: Adobe Illustrator 21.0.2, SVG Export Plug-In . SVG Version: 6.00 Build 0)  -->
<svg version="1.1" id="Слой_1" xmlns="http://www.w3.org/2000/svg" xmlns:xlink="http://www.w3.org/1999/xlink" x="0px" y="0px"
	 viewBox="0 0 681.9 377.4" style="enable-background:new 0 0 681.9 377.4;" xml:space="preserve">
<style type="text/css">
	.st0{fill:#2D5B6B;}
	.st1{fill:#E07D2B;}
	.st2{fill:#FEFEFD;}
	.st3{fill:#F2BE3D;}
	.st4{fill:#F4A23C;}
	.st5{display:none;fill:#FFFFFF;}
	.st6{display:none;}
	.st7{display:inline;}
	.st8{fill:#0671B1;}
	.st9{opacity:0.48;fill:#FEFEFD;enable-background:new    ;}
	.st10{fill:#FFD066;}
	.st11{fill:#EFC8AB;}
	.st12{fill:#9B8980;}
	.st13{fill:#EDF2F7;}
	.st14{fill:#383838;}
	.st15{fill:#DDB597;}
	.st16{fill:#6B5144;}
	.st17{fill:#E9BF9C;}
	.st18{fill:url(#SVGID_1_);}
	.st19{fill:#141414;}
	.st20{fill:#B7A295;}
	.st21{fill:#EAEAEA;}
	.st22{fill:#3C6BAF;}
	.st23{fill:#876755;}
	.st24{fill:#89776F;}
	.st25{fill:#51423C;}
	.st26{opacity:0.5;fill:#87CDF4;enable-background:new    ;}
	.st27{fill:#FFFFFF;}
	.st28{fill:#113156;}
	.st29{fill:#25527F;}
	.st30{fill:#C1977A;}
	.st31{fill:#CEA68A;}
	.st32{fill:#C19B81;}
	.st33{fill:#AA958A;}
</style>
<path class="st0" d="M321.6,348.2c-1.6,0.2-2.8,0.2-3.7,0.2c-6-0.2-9.9,0-12.4,0.5c-1.3,1.8-2.4,3.7-3.2,5.7
	c2.1,1.5,6.9,2.4,14.5,2.4c1.7,0,4.6,0.1,8,0.2L321.6,348.2z"/>
<path class="st0" d="M335.7,357.7c3.3-2,6.4-4.4,9-7.2c1.4-1.6,2.6-3.3,3.8-5.2c-7.8,0.5-15.9,1.6-22,2.4l5.2,9.9
	C333,357.6,334.4,357.6,335.7,357.7z"/>
<g>
	<g>
		<path class="st1" d="M592.5,351.3v2.3c0,0.6-0.7,1.2-1.9,1.7c-0.4,0.2-0.8,0.3-1.3,0.4c-0.3,0.1-0.6,0.1-0.9,0.2
			c-1,0.2-2,0.4-3.2,0.5c-1.8,0.2-3.8,0.4-6,0.4c-1.7,0-3.3-0.1-4.8-0.2l0,0c-0.6-0.1-1.1-0.1-1.6-0.2c-0.2,0-0.4-0.1-0.6-0.1
			c-0.1,0-0.2,0-0.4-0.1c-0.5-0.1-1-0.2-1.4-0.3l0,0c-1.6-0.4-2.9-0.8-3.6-1.3c-0.5-0.3-0.8-0.7-0.8-1.1v-2.3h3.8
			c2.4-0.6,5.8-1,9.5-1c1.4,0,2.7,0.1,4,0.2c2.1,0.2,4,0.4,5.5,0.8h3.7V351.3z"/>
		<path class="st2" d="M588.4,352.2v3.7c-1,0.2-2,0.4-3.2,0.5v-4.3L588.4,352.2L588.4,352.2z"/>
		<path class="st2" d="M590.5,351.9v3.3c-0.4,0.2-0.8,0.3-1.3,0.4v-3.7L590.5,351.9L590.5,351.9z"/>
		<path class="st3" d="M572.8,353.7v2.7c-0.2,0-0.4-0.1-0.6-0.1c-0.1,0-0.2,0-0.4-0.1v-2.5H572.8z"/>
		<path class="st3" d="M570.4,352.4v3.5l0,0c-1.6-0.3-2.9-0.8-3.6-1.3v-2.2H570.4z"/>
		<path class="st4" d="M592.5,351.3c0,1.8-5.9,3.2-13.3,3.2c-1.7,0-3.3-0.1-4.8-0.2c-0.8-0.1-1.6-0.2-2.3-0.3
			c-0.6-0.1-1.3-0.2-1.8-0.3c-1.6-0.4-2.9-0.8-3.6-1.3c-0.5-0.3-0.8-0.7-0.8-1.1c0-1.8,5.9-3.2,13.3-3.2c1.4,0,2.7,0,4,0.1
			c2.1,0.2,4,0.5,5.5,0.8c0.5,0.1,1,0.3,1.4,0.4c0.5,0.2,0.9,0.3,1.2,0.5c0,0,0.1,0,0.1,0.1C592.1,350.5,592.5,350.9,592.5,351.3z"
			/>
		<ellipse class="st3" cx="579.2" cy="351.3" rx="11.2" ry="2.7"/>
		<path class="st5" d="M583.8,349.7h-9.2c-0.8,0-1.4,0.2-1.4,0.3v2.3c0,0.2,0.6,0.3,1.4,0.3h6.9l3.7,0.4v-0.7V352v-0.1V350
			C585.2,349.8,584.6,349.7,583.8,349.7z"/>
		<g class="st6">
			<g class="st7">
				<path class="st8" d="M579.2,352.2c-1.4,0-2.8-0.1-4.3-0.3c-0.1,0-0.1-0.1-0.1-0.1c0.1,0,0.2,0,0.3,0c2.7,0.4,5.3,0.4,8,0
					c0.1,0,0.3,0,0.3,0c0.1,0,0,0.1-0.1,0.1C582.1,352.1,580.7,352.2,579.2,352.2z"/>
			</g>
		</g>
		<path class="st9" d="M591.5,350.1l-19.7,3.3l-1.4,0.4c-1.6-0.4-2.9-0.8-3.6-1.3l1.6-0.4l13.2-3.3l1.6-0.4c2.1,0.2,4,0.5,5.5,0.8
			c0.5,0.1,1,0.3,1.4,0.4c0.5,0.2,0.9,0.3,1.2,0.5C591.4,350.1,591.5,350.1,591.5,350.1z"/>
	</g>
	<g>
		<path class="st1" d="M620.5,355.1v2.3c0,0.6-0.7,1.2-1.9,1.7c-0.4,0.2-0.8,0.3-1.3,0.4c-0.3,0.1-0.6,0.1-0.9,0.2
			c-1,0.2-2,0.4-3.2,0.5c-1.8,0.2-3.8,0.4-6,0.4c-1.7,0-3.3-0.1-4.8-0.2l0,0c-0.6-0.1-1.1-0.1-1.6-0.2c-0.2,0-0.4-0.1-0.6-0.1
			c-0.1,0-0.2,0-0.4-0.1c-0.5-0.1-1-0.2-1.4-0.3l0,0c-1.6-0.4-2.9-0.8-3.6-1.3c-0.5-0.3-0.8-0.7-0.8-1.1V355h3.8
			c2.4-0.6,5.8-1,9.5-1c1.4,0,2.7,0.1,4,0.2c2.1,0.2,4,0.4,5.5,0.8h3.7V355.1z"/>
		<path class="st2" d="M616.5,355.9v3.7c-1,0.2-2,0.4-3.2,0.5v-4.3L616.5,355.9L616.5,355.9z"/>
		<path class="st2" d="M618.6,355.7v3.3c-0.4,0.2-0.8,0.3-1.3,0.4v-3.7L618.6,355.7L618.6,355.7z"/>
		<path class="st3" d="M600.9,357.4v2.7c-0.2,0-0.4-0.1-0.6-0.1c-0.1,0-0.2,0-0.4-0.1v-2.5H600.9z"/>
		<path class="st3" d="M598.4,356.2v3.5l0,0c-1.6-0.3-2.9-0.8-3.6-1.3v-2.2H598.4z"/>
		<path class="st4" d="M620.5,355.1c0,1.8-5.9,3.2-13.3,3.2c-1.7,0-3.3-0.1-4.8-0.2c-0.8-0.1-1.6-0.2-2.3-0.3
			c-0.6-0.1-1.3-0.2-1.8-0.3c-1.6-0.4-2.9-0.8-3.6-1.3c-0.5-0.3-0.8-0.7-0.8-1.1c0-1.8,5.9-3.2,13.3-3.2c1.4,0,2.7,0,4,0.1
			c2.1,0.2,4,0.5,5.5,0.8c0.5,0.1,1,0.3,1.4,0.4c0.5,0.2,0.9,0.3,1.2,0.5c0,0,0.1,0,0.1,0.1C620.2,354.2,620.5,354.6,620.5,355.1z"
			/>
		<ellipse class="st3" cx="607.2" cy="355.1" rx="11.2" ry="2.7"/>
		<path class="st5" d="M611.8,353.4h-9.2c-0.8,0-1.4,0.2-1.4,0.3v2.3c0,0.2,0.6,0.3,1.4,0.3h6.9l3.7,0.4V356v-0.3v-0.1v-1.9
			C613.2,353.5,612.6,353.4,611.8,353.4z"/>
		<g class="st6">
			<g class="st7">
				<path class="st8" d="M607.3,355.9c-1.4,0-2.8-0.1-4.3-0.3c-0.1,0-0.1-0.1-0.1-0.1c0.1,0,0.2,0,0.3,0c2.7,0.4,5.3,0.4,8,0
					c0.1,0,0.3,0,0.3,0c0.1,0,0,0.1-0.1,0.1C610.1,355.8,608.7,355.9,607.3,355.9z"/>
			</g>
		</g>
		<path class="st9" d="M619.5,353.8l-19.7,3.3l-1.4,0.4c-1.6-0.4-2.9-0.8-3.6-1.3l1.6-0.4l13.2-3.3l1.6-0.4c2.1,0.2,4,0.5,5.5,0.8
			c0.5,0.1,1,0.3,1.4,0.4c0.5,0.2,0.9,0.3,1.2,0.5C619.5,353.8,619.5,353.8,619.5,353.8z"/>
	</g>
	<g>
		<path class="st1" d="M621.1,352.3v2.3c0,0.6-0.7,1.2-1.9,1.7c-0.4,0.2-0.8,0.3-1.3,0.4c-0.3,0.1-0.6,0.1-0.9,0.2
			c-1,0.2-2,0.4-3.2,0.5c-1.8,0.2-3.8,0.4-6,0.4c-1.7,0-3.3-0.1-4.8-0.2l0,0c-0.6-0.1-1.1-0.1-1.6-0.2c-0.2,0-0.4-0.1-0.6-0.1
			c-0.1,0-0.2,0-0.4-0.1c-0.5-0.1-1-0.2-1.4-0.3l0,0c-1.6-0.4-2.9-0.8-3.6-1.3c-0.5-0.3-0.8-0.7-0.8-1.1v-2.3h3.8
			c2.4-0.6,5.8-1,9.5-1c1.4,0,2.7,0.1,4,0.2c2.1,0.2,4,0.4,5.5,0.8h3.7V352.3z"/>
		<path class="st2" d="M617,353.1v3.7c-1,0.2-2,0.4-3.2,0.5V353L617,353.1L617,353.1z"/>
		<path class="st2" d="M619.2,352.9v3.3c-0.4,0.2-0.8,0.3-1.3,0.4v-3.7L619.2,352.9L619.2,352.9z"/>
		<path class="st3" d="M601.4,354.7v2.7c-0.2,0-0.4-0.1-0.6-0.1c-0.1,0-0.2,0-0.4-0.1v-2.5H601.4z"/>
		<path class="st3" d="M599,353.4v3.5l0,0c-1.6-0.3-2.9-0.8-3.6-1.3v-2.2H599z"/>
		<path class="st4" d="M621.1,352.3c0,1.8-5.9,3.2-13.3,3.2c-1.7,0-3.3-0.1-4.8-0.2c-0.8-0.1-1.6-0.2-2.3-0.3
			c-0.6-0.1-1.3-0.2-1.8-0.3c-1.6-0.4-2.9-0.8-3.6-1.3c-0.5-0.3-0.8-0.7-0.8-1.1c0-1.8,5.9-3.2,13.3-3.2c1.4,0,2.7,0,4,0.1
			c2.1,0.2,4,0.5,5.5,0.8c0.5,0.1,1,0.3,1.4,0.4c0.5,0.2,0.9,0.3,1.2,0.5c0,0,0.1,0,0.1,0.1C620.8,351.5,621.1,351.9,621.1,352.3z"
			/>
		<ellipse class="st3" cx="607.8" cy="352.3" rx="11.2" ry="2.7"/>
		<path class="st5" d="M612.4,350.6h-9.2c-0.8,0-1.4,0.2-1.4,0.3v2.3c0,0.2,0.6,0.3,1.4,0.3h6.9l3.7,0.4v-0.7V353v-0.1V351
			C613.8,350.8,613.2,350.6,612.4,350.6z"/>
		<g class="st6">
			<g class="st7">
				<path class="st8" d="M607.9,353.1c-1.4,0-2.8-0.1-4.3-0.3c-0.1,0-0.1-0.1-0.1-0.1c0.1,0,0.2,0,0.3,0c2.7,0.4,5.3,0.4,8,0
					c0.1,0,0.3,0,0.3,0c0.1,0,0,0.1-0.1,0.1C610.7,353,609.3,353.1,607.9,353.1z"/>
			</g>
		</g>
		<path class="st9" d="M620.1,351.1l-19.7,3.3l-1.4,0.4c-1.6-0.4-2.9-0.8-3.6-1.3l1.6-0.4l13.2-3.3l1.6-0.4c2.1,0.2,4,0.5,5.5,0.8
			c0.5,0.1,1,0.3,1.4,0.4c0.5,0.2,0.9,0.3,1.2,0.5C620,351,620.1,351.1,620.1,351.1z"/>
	</g>
	<g>
		<path class="st1" d="M620.9,349.7v2.3c0,0.6-0.7,1.2-1.9,1.7c-0.4,0.2-0.8,0.3-1.3,0.4c-0.3,0.1-0.6,0.1-0.9,0.2
			c-1,0.2-2,0.4-3.2,0.5c-1.8,0.2-3.8,0.4-6,0.4c-1.7,0-3.3-0.1-4.8-0.2l0,0c-0.6-0.1-1.1-0.1-1.6-0.2c-0.2,0-0.4-0.1-0.6-0.1
			c-0.1,0-0.2,0-0.4-0.1c-0.5-0.1-1-0.2-1.4-0.3l0,0c-1.6-0.4-2.9-0.8-3.6-1.3c-0.5-0.3-0.8-0.7-0.8-1.1v-2.3h3.8
			c2.4-0.6,5.8-1,9.5-1c1.4,0,2.7,0.1,4,0.2c2.1,0.2,4,0.4,5.5,0.8h3.7V349.7z"/>
		<path class="st2" d="M616.8,350.6v3.7c-1,0.2-2,0.4-3.2,0.5v-4.3L616.8,350.6L616.8,350.6z"/>
		<path class="st2" d="M618.9,350.3v3.3c-0.4,0.2-0.8,0.3-1.3,0.4v-3.7L618.9,350.3L618.9,350.3z"/>
		<path class="st3" d="M601.2,352.1v2.7c-0.2,0-0.4-0.1-0.6-0.1c-0.1,0-0.2,0-0.4-0.1v-2.5H601.2z"/>
		<path class="st3" d="M598.8,350.8v3.5l0,0c-1.6-0.3-2.9-0.8-3.6-1.3v-2.2H598.8z"/>
		<path class="st4" d="M620.9,349.7c0,1.8-5.9,3.2-13.3,3.2c-1.7,0-3.3-0.1-4.8-0.2c-0.8-0.1-1.6-0.2-2.3-0.3
			c-0.6-0.1-1.3-0.2-1.8-0.3c-1.6-0.4-2.9-0.8-3.6-1.3c-0.5-0.3-0.8-0.7-0.8-1.1c0-1.8,5.9-3.2,13.3-3.2c1.4,0,2.7,0,4,0.1
			c2.1,0.2,4,0.5,5.5,0.8c0.5,0.1,1,0.3,1.4,0.4c0.5,0.2,0.9,0.3,1.2,0.5c0,0,0.1,0,0.1,0.1C620.5,348.9,620.9,349.3,620.9,349.7z"
			/>
		<ellipse class="st3" cx="607.6" cy="349.7" rx="11.2" ry="2.7"/>
		<path class="st5" d="M612.2,348H603c-0.8,0-1.4,0.2-1.4,0.3v2.3c0,0.2,0.6,0.3,1.4,0.3h6.9l3.7,0.4v-0.7v-0.3v-0.1v-1.9
			C613.6,348.2,613,348,612.2,348z"/>
		<g class="st6">
			<g class="st7">
				<path class="st8" d="M607.6,350.5c-1.4,0-2.8-0.1-4.3-0.3c-0.1,0-0.1-0.1-0.1-0.1c0.1,0,0.2,0,0.3,0c2.7,0.4,5.3,0.4,8,0
					c0.1,0,0.3,0,0.3,0c0.1,0,0,0.1-0.1,0.1C610.5,350.4,609.1,350.5,607.6,350.5z"/>
			</g>
		</g>
		<path class="st9" d="M619.9,348.5l-19.7,3.3l-1.4,0.4c-1.6-0.4-2.9-0.8-3.6-1.3l1.6-0.4l13.2-3.3l1.6-0.4c2.1,0.2,4,0.5,5.5,0.8
			c0.5,0.1,1,0.3,1.4,0.4c0.5,0.2,0.9,0.3,1.2,0.5C619.8,348.5,619.8,348.5,619.9,348.5z"/>
	</g>
	<g>
		<path class="st1" d="M621.1,347.2v2.3c0,0.6-0.7,1.2-1.9,1.7c-0.4,0.2-0.8,0.3-1.3,0.4c-0.3,0.1-0.6,0.1-0.9,0.2
			c-1,0.2-2,0.4-3.2,0.5c-1.8,0.2-3.8,0.4-6,0.4c-1.7,0-3.3-0.1-4.8-0.2l0,0c-0.6-0.1-1.1-0.1-1.6-0.2c-0.2,0-0.4-0.1-0.6-0.1
			c-0.1,0-0.2,0-0.4-0.1c-0.5-0.1-1-0.2-1.4-0.3l0,0c-1.6-0.4-2.9-0.8-3.6-1.3c-0.5-0.3-0.8-0.7-0.8-1.1v-2.3h3.8
			c2.4-0.6,5.8-1,9.5-1c1.4,0,2.7,0.1,4,0.2c2.1,0.2,4,0.4,5.5,0.8h3.7V347.2z"/>
		<path class="st10" d="M617,348.1v3.7c-1,0.2-2,0.4-3.2,0.5V348L617,348.1L617,348.1z"/>
		<path class="st10" d="M619.2,347.8v3.3c-0.4,0.2-0.8,0.3-1.3,0.4v-3.7L619.2,347.8L619.2,347.8z"/>
		<path class="st3" d="M601.4,349.6v2.7c-0.2,0-0.4-0.1-0.6-0.1c-0.1,0-0.2,0-0.4-0.1v-2.5H601.4z"/>
		<path class="st3" d="M599,348.4v3.5l0,0c-1.6-0.3-2.9-0.8-3.6-1.3v-2.2H599z"/>
		<path class="st4" d="M621.1,347.2c0,1.8-5.9,3.2-13.3,3.2c-1.7,0-3.3-0.1-4.8-0.2c-0.8-0.1-1.6-0.2-2.3-0.3
			c-0.6-0.1-1.3-0.2-1.8-0.3c-1.6-0.4-2.9-0.8-3.6-1.3c-0.5-0.3-0.8-0.7-0.8-1.1c0-1.8,5.9-3.2,13.3-3.2c1.4,0,2.7,0,4,0.1
			c2.1,0.2,4,0.5,5.5,0.8c0.5,0.1,1,0.3,1.4,0.4c0.5,0.2,0.9,0.3,1.2,0.5c0,0,0.1,0,0.1,0.1C620.8,346.4,621.1,346.8,621.1,347.2z"
			/>
		<ellipse class="st3" cx="607.8" cy="347.2" rx="11.2" ry="2.7"/>
		<path class="st5" d="M612.4,345.6h-9.2c-0.8,0-1.4,0.2-1.4,0.3v2.3c0,0.2,0.6,0.3,1.4,0.3h6.9l3.7,0.4v-0.7v-0.3v-0.1v-1.9
			C613.8,345.7,613.2,345.6,612.4,345.6z"/>
		<g class="st6">
			<g class="st7">
				<path class="st8" d="M607.9,348.1c-1.4,0-2.8-0.1-4.3-0.3c-0.1,0-0.1-0.1-0.1-0.1c0.1,0,0.2,0,0.3,0c2.7,0.4,5.3,0.4,8,0
					c0.1,0,0.3,0,0.3,0c0.1,0,0,0.1-0.1,0.1C610.7,348,609.3,348.1,607.9,348.1z"/>
			</g>
		</g>
		<path class="st9" d="M620.1,346l-19.7,3.3l-1.4,0.4c-1.6-0.4-2.9-0.8-3.6-1.3l1.6-0.4l13.2-3.3l1.6-0.4c2.1,0.2,4,0.5,5.5,0.8
			c0.5,0.1,1,0.3,1.4,0.4c0.5,0.2,0.9,0.3,1.2,0.5C620,346,620.1,346,620.1,346z"/>
	</g>
	<g>
		<path class="st1" d="M622.7,344.5v2.3c0,0.6-0.7,1.2-1.9,1.7c-0.4,0.2-0.8,0.3-1.3,0.4c-0.3,0.1-0.6,0.1-0.9,0.2
			c-1,0.2-2,0.4-3.2,0.5c-1.8,0.2-3.8,0.4-6,0.4c-1.7,0-3.3-0.1-4.8-0.2l0,0c-0.6-0.1-1.1-0.1-1.6-0.2c-0.2,0-0.4-0.1-0.6-0.1
			c-0.1,0-0.2,0-0.4-0.1c-0.5-0.1-1-0.2-1.4-0.3l0,0c-1.6-0.4-2.9-0.8-3.6-1.3c-0.5-0.3-0.8-0.7-0.8-1.1v-2.3h3.8
			c2.4-0.6,5.8-1,9.5-1c1.4,0,2.7,0.1,4,0.2c2.1,0.2,4,0.4,5.5,0.8h3.7V344.5z"/>
		<path class="st10" d="M618.6,345.3v3.7c-1,0.2-2,0.4-3.2,0.5v-4.3L618.6,345.3L618.6,345.3z"/>
		<path class="st10" d="M620.8,345.1v3.3c-0.4,0.2-0.8,0.3-1.3,0.4v-3.7L620.8,345.1L620.8,345.1z"/>
		<path class="st3" d="M603,346.9v2.7c-0.2,0-0.4-0.1-0.6-0.1c-0.1,0-0.2,0-0.4-0.1v-2.5H603z"/>
		<path class="st3" d="M600.6,345.6v3.5l0,0c-1.6-0.3-2.9-0.8-3.6-1.3v-2.2H600.6z"/>
		<path class="st4" d="M622.7,344.5c0,1.8-5.9,3.2-13.3,3.2c-1.7,0-3.3-0.1-4.8-0.2c-0.8-0.1-1.6-0.2-2.3-0.3
			c-0.6-0.1-1.3-0.2-1.8-0.3c-1.6-0.4-2.9-0.8-3.6-1.3c-0.5-0.3-0.8-0.7-0.8-1.1c0-1.8,5.9-3.2,13.3-3.2c1.4,0,2.7,0,4,0.1
			c2.1,0.2,4,0.5,5.5,0.8c0.5,0.1,1,0.3,1.4,0.4c0.5,0.2,0.9,0.3,1.2,0.5c0,0,0.1,0,0.1,0.1C622.3,343.6,622.7,344,622.7,344.5z"/>
		<ellipse class="st3" cx="609.4" cy="344.5" rx="11.2" ry="2.7"/>
		<path class="st5" d="M614,342.8h-9.2c-0.8,0-1.4,0.2-1.4,0.3v2.3c0,0.2,0.6,0.3,1.4,0.3h6.9l3.7,0.4v-0.7v-0.3V345v-1.9
			C615.4,342.9,614.8,342.8,614,342.8z"/>
		<g class="st6">
			<g class="st7">
				<path class="st8" d="M609.5,345.3c-1.4,0-2.8-0.1-4.3-0.3c-0.1,0-0.1-0.1-0.1-0.1c0.1,0,0.2,0,0.3,0c2.7,0.4,5.3,0.4,8,0
					c0.1,0,0.3,0,0.3,0c0.1,0,0,0.1-0.1,0.1C612.3,345.2,610.9,345.3,609.5,345.3z"/>
			</g>
		</g>
		<path class="st9" d="M621.7,343.3l-19.7,3.3l-1.4,0.4c-1.6-0.4-2.9-0.8-3.6-1.3l1.6-0.4l13.2-3.3l1.6-0.4c2.1,0.2,4,0.5,5.5,0.8
			c0.5,0.1,1,0.3,1.4,0.4c0.5,0.2,0.9,0.3,1.2,0.5C621.6,343.2,621.7,343.2,621.7,343.3z"/>
	</g>
	<g>
		<path class="st1" d="M621.6,341.9v2.3c0,0.6-0.7,1.2-1.9,1.7c-0.4,0.2-0.8,0.3-1.3,0.4c-0.3,0.1-0.6,0.1-0.9,0.2
			c-1,0.2-2,0.4-3.2,0.5c-1.8,0.2-3.8,0.4-6,0.4c-1.7,0-3.3-0.1-4.8-0.2l0,0c-0.6-0.1-1.1-0.1-1.6-0.2c-0.2,0-0.4-0.1-0.6-0.1
			c-0.1,0-0.2,0-0.4-0.1c-0.5-0.1-1-0.2-1.4-0.3l0,0c-1.6-0.4-2.9-0.8-3.6-1.3c-0.5-0.3-0.8-0.7-0.8-1.1v-2.3h3.8
			c2.4-0.6,5.8-1,9.5-1c1.4,0,2.7,0.1,4,0.2c2.1,0.2,4,0.4,5.5,0.8h3.7V341.9z"/>
		<path class="st10" d="M617.5,342.7v3.7c-1,0.2-2,0.4-3.2,0.5v-4.3L617.5,342.7L617.5,342.7z"/>
		<path class="st10" d="M619.6,342.5v3.3c-0.4,0.2-0.8,0.3-1.3,0.4v-3.7L619.6,342.5L619.6,342.5z"/>
		<path class="st3" d="M601.9,344.3v2.7c-0.2,0-0.4-0.1-0.6-0.1c-0.1,0-0.2,0-0.4-0.1v-2.5H601.9z"/>
		<path class="st3" d="M599.5,343v3.5l0,0c-1.6-0.3-2.9-0.8-3.6-1.3V343H599.5z"/>
		<path class="st4" d="M621.6,341.9c0,1.8-5.9,3.2-13.3,3.2c-1.7,0-3.3-0.1-4.8-0.2c-0.8-0.1-1.6-0.2-2.3-0.3
			c-0.6-0.1-1.3-0.2-1.8-0.3c-1.6-0.4-2.9-0.8-3.6-1.3c-0.5-0.3-0.8-0.7-0.8-1.1c0-1.8,5.9-3.2,13.3-3.2c1.4,0,2.7,0,4,0.1
			c2.1,0.2,4,0.5,5.5,0.8c0.5,0.1,1,0.3,1.4,0.4c0.5,0.2,0.9,0.3,1.2,0.5c0,0,0.1,0,0.1,0.1C621.2,341,621.6,341.4,621.6,341.9z"/>
		<ellipse class="st3" cx="608.3" cy="341.9" rx="11.2" ry="2.7"/>
		<path class="st5" d="M612.9,340.2h-9.2c-0.8,0-1.4,0.2-1.4,0.3v2.3c0,0.2,0.6,0.3,1.4,0.3h6.9l3.7,0.4v-0.7v-0.3v-0.1v-1.9
			C614.3,340.3,613.7,340.2,612.9,340.2z"/>
		<g class="st6">
			<g class="st7">
				<path class="st8" d="M608.4,342.7c-1.4,0-2.8-0.1-4.3-0.3c-0.1,0-0.1-0.1-0.1-0.1c0.1,0,0.2,0,0.3,0c2.7,0.4,5.3,0.4,8,0
					c0.1,0,0.3,0,0.3,0c0.1,0,0,0.1-0.1,0.1C611.2,342.6,609.8,342.7,608.4,342.7z"/>
			</g>
		</g>
		<path class="st9" d="M620.6,340.7l-19.7,3.3l-1.4,0.4c-1.6-0.4-2.9-0.8-3.6-1.3l1.6-0.4l13.2-3.3l1.6-0.4c2.1,0.2,4,0.5,5.5,0.8
			c0.5,0.1,1,0.3,1.4,0.4c0.5,0.2,0.9,0.3,1.2,0.5C620.5,340.6,620.6,340.6,620.6,340.7z"/>
	</g>
	<g>
		<path class="st1" d="M605,363.5v2.3c0,0.6-0.7,1.2-1.9,1.7c-0.4,0.2-0.8,0.3-1.3,0.4c-0.3,0.1-0.6,0.1-0.9,0.2
			c-1,0.2-2,0.4-3.2,0.5c-1.8,0.2-3.8,0.4-6,0.4c-1.7,0-3.3-0.1-4.8-0.2l0,0c-0.6-0.1-1.1-0.1-1.6-0.2c-0.2,0-0.4-0.1-0.6-0.1
			c-0.1,0-0.2,0-0.4-0.1c-0.5-0.1-1-0.2-1.4-0.3l0,0c-1.6-0.4-2.9-0.8-3.6-1.3c-0.5-0.3-0.8-0.7-0.8-1.1v-2.3h3.8
			c2.4-0.6,5.8-1,9.5-1c1.4,0,2.7,0.1,4,0.2c2.1,0.2,4,0.4,5.5,0.8h3.7V363.5z"/>
		<path class="st10" d="M600.9,364.3v3.7c-1,0.2-2,0.4-3.2,0.5v-4.3L600.9,364.3L600.9,364.3z"/>
		<path class="st10" d="M603,364.1v3.3c-0.4,0.2-0.8,0.3-1.3,0.4v-3.7L603,364.1L603,364.1z"/>
		<path class="st3" d="M585.3,365.9v2.7c-0.2,0-0.4-0.1-0.6-0.1c-0.1,0-0.2,0-0.4-0.1v-2.5H585.3z"/>
		<path class="st3" d="M582.9,364.6v3.5l0,0c-1.6-0.3-2.9-0.8-3.6-1.3v-2.2H582.9z"/>
		<path class="st4" d="M605,363.5c0,1.8-5.9,3.2-13.3,3.2c-1.7,0-3.3-0.1-4.8-0.2c-0.8-0.1-1.6-0.2-2.3-0.3
			c-0.6-0.1-1.3-0.2-1.8-0.3c-1.6-0.4-2.9-0.8-3.6-1.3c-0.5-0.3-0.8-0.7-0.8-1.1c0-1.8,5.9-3.2,13.3-3.2c1.4,0,2.7,0,4,0.1
			c2.1,0.2,4,0.5,5.5,0.8c0.5,0.1,1,0.3,1.4,0.4c0.5,0.2,0.9,0.3,1.2,0.5c0,0,0.1,0,0.1,0.1C604.6,362.6,605,363,605,363.5z"/>
		<ellipse class="st3" cx="591.7" cy="363.5" rx="11.2" ry="2.7"/>
		<path class="st5" d="M596.3,361.8h-9.2c-0.8,0-1.4,0.2-1.4,0.3v2.3c0,0.2,0.6,0.3,1.4,0.3h6.9l3.7,0.4v-0.7v-0.3V364v-1.9
			C597.7,361.9,597,361.8,596.3,361.8z"/>
		<g class="st6">
			<g class="st7">
				<path class="st8" d="M591.7,364.3c-1.4,0-2.8-0.1-4.3-0.3c-0.1,0-0.1-0.1-0.1-0.1c0.1,0,0.2,0,0.3,0c2.7,0.4,5.3,0.4,8,0
					c0.1,0,0.3,0,0.3,0c0.1,0,0,0.1-0.1,0.1C594.6,364.2,593.1,364.3,591.7,364.3z"/>
			</g>
		</g>
		<path class="st9" d="M604,362.3l-19.7,3.3l-1.4,0.4c-1.6-0.4-2.9-0.8-3.6-1.3l1.6-0.4l13.2-3.3l1.6-0.4c2.1,0.2,4,0.5,5.5,0.8
			c0.5,0.1,1,0.3,1.4,0.4c0.5,0.2,0.9,0.3,1.2,0.5C603.9,362.2,603.9,362.2,604,362.3z"/>
	</g>
	<g>
		<path class="st1" d="M607,360.9v2.3c0,0.6-0.7,1.2-1.9,1.7c-0.4,0.2-0.8,0.3-1.3,0.4c-0.3,0.1-0.6,0.1-0.9,0.2
			c-1,0.2-2,0.4-3.2,0.5c-1.8,0.2-3.8,0.4-6,0.4c-1.7,0-3.3-0.1-4.8-0.2l0,0c-0.6-0.1-1.1-0.1-1.6-0.2c-0.2,0-0.4-0.1-0.6-0.1
			c-0.1,0-0.2,0-0.4-0.1c-0.5-0.1-1-0.2-1.4-0.3l0,0c-1.6-0.4-2.9-0.8-3.6-1.3c-0.5-0.3-0.8-0.7-0.8-1.1v-2.3h3.8
			c2.4-0.6,5.8-1,9.5-1c1.4,0,2.7,0.1,4,0.2c2.1,0.2,4,0.4,5.5,0.8h3.7V360.9z"/>
		<path class="st10" d="M603,361.7v3.7c-1,0.2-2,0.4-3.2,0.5v-4.3L603,361.7L603,361.7z"/>
		<path class="st10" d="M605.1,361.5v3.3c-0.4,0.2-0.8,0.3-1.3,0.4v-3.7L605.1,361.5L605.1,361.5z"/>
		<path class="st3" d="M587.4,363.2v2.7c-0.2,0-0.4-0.1-0.6-0.1c-0.1,0-0.2,0-0.4-0.1v-2.5H587.4z"/>
		<path class="st3" d="M585,362v3.5l0,0c-1.6-0.3-2.9-0.8-3.6-1.3V362H585z"/>
		<path class="st4" d="M607,360.9c0,1.8-5.9,3.2-13.3,3.2c-1.7,0-3.3-0.1-4.8-0.2c-0.8-0.1-1.6-0.2-2.3-0.3
			c-0.6-0.1-1.3-0.2-1.8-0.3c-1.6-0.4-2.9-0.8-3.6-1.3c-0.5-0.3-0.8-0.7-0.8-1.1c0-1.8,5.9-3.2,13.3-3.2c1.4,0,2.7,0,4,0.1
			c2.1,0.2,4,0.5,5.5,0.8c0.5,0.1,1,0.3,1.4,0.4c0.5,0.2,0.9,0.3,1.2,0.5c0,0,0.1,0,0.1,0.1C606.7,360,607,360.4,607,360.9z"/>
		<ellipse class="st3" cx="593.8" cy="360.9" rx="11.2" ry="2.7"/>
		<path class="st5" d="M598.3,359.2h-9.2c-0.8,0-1.4,0.2-1.4,0.3v2.3c0,0.2,0.6,0.3,1.4,0.3h6.9l3.7,0.4v-0.7v-0.3v-0.1v-1.9
			C599.8,359.3,599.1,359.2,598.3,359.2z"/>
		<g class="st6">
			<g class="st7">
				<path class="st8" d="M593.8,361.7c-1.4,0-2.8-0.1-4.3-0.3c-0.1,0-0.1-0.1-0.1-0.1c0.1,0,0.2,0,0.3,0c2.7,0.4,5.3,0.4,8,0
					c0.1,0,0.3,0,0.3,0c0.1,0,0,0.1-0.1,0.1C596.7,361.6,595.2,361.7,593.8,361.7z"/>
			</g>
		</g>
		<path class="st9" d="M606,359.6l-19.7,3.3l-1.4,0.4c-1.6-0.4-2.9-0.8-3.6-1.3l1.6-0.4l13.2-3.3l1.6-0.4c2.1,0.2,4,0.5,5.5,0.8
			c0.5,0.1,1,0.3,1.4,0.4c0.5,0.2,0.9,0.3,1.2,0.5C606,359.6,606,359.6,606,359.6z"/>
	</g>
	<g>
		<path class="st1" d="M608.3,358.4v2.3c0,0.6-0.7,1.2-1.9,1.7c-0.4,0.2-0.8,0.3-1.3,0.4c-0.3,0.1-0.6,0.1-0.9,0.2
			c-1,0.2-2,0.4-3.2,0.5c-1.8,0.2-3.8,0.4-6,0.4c-1.7,0-3.3-0.1-4.8-0.2l0,0c-0.6-0.1-1.1-0.1-1.6-0.2c-0.2,0-0.4-0.1-0.6-0.1
			c-0.1,0-0.2,0-0.4-0.1c-0.5-0.1-1-0.2-1.4-0.3l0,0c-1.6-0.4-2.9-0.8-3.6-1.3c-0.5-0.3-0.8-0.7-0.8-1.1v-2.3h3.8
			c2.4-0.6,5.8-1,9.5-1c1.4,0,2.7,0.1,4,0.2c2.1,0.2,4,0.4,5.5,0.8h3.7V358.4z"/>
		<path class="st10" d="M604.2,359.2v3.7c-1,0.2-2,0.4-3.2,0.5v-4.3L604.2,359.2L604.2,359.2z"/>
		<path class="st10" d="M606.4,359v3.3c-0.4,0.2-0.8,0.3-1.3,0.4V359H606.4z"/>
		<path class="st3" d="M588.6,360.8v2.7c-0.2,0-0.4-0.1-0.6-0.1c-0.1,0-0.2,0-0.4-0.1v-2.5H588.6z"/>
		<path class="st3" d="M586.2,359.5v3.5l0,0c-1.6-0.3-2.9-0.8-3.6-1.3v-2.2H586.2z"/>
		<path class="st4" d="M608.3,358.4c0,1.8-5.9,3.2-13.3,3.2c-1.7,0-3.3-0.1-4.8-0.2c-0.8-0.1-1.6-0.2-2.3-0.3
			c-0.6-0.1-1.3-0.2-1.8-0.3c-1.6-0.4-2.9-0.8-3.6-1.3c-0.5-0.3-0.8-0.7-0.8-1.1c0-1.8,5.9-3.2,13.3-3.2c1.4,0,2.7,0,4,0.1
			c2.1,0.2,4,0.5,5.5,0.8c0.5,0.1,1,0.3,1.4,0.4c0.5,0.2,0.9,0.3,1.2,0.5c0,0,0.1,0,0.1,0.1C608,357.5,608.3,358,608.3,358.4z"/>
		<ellipse class="st3" cx="595" cy="358.4" rx="11.2" ry="2.7"/>
		<path class="st5" d="M599.6,356.7h-9.2c-0.8,0-1.4,0.2-1.4,0.3v2.3c0,0.2,0.6,0.3,1.4,0.3h6.9l3.7,0.4v-0.7V359v-0.1V357
			C601,356.8,600.4,356.7,599.6,356.7z"/>
		<g class="st6">
			<g class="st7">
				<path class="st8" d="M595.1,359.2c-1.4,0-2.8-0.1-4.3-0.3c-0.1,0-0.1-0.1-0.1-0.1c0.1,0,0.2,0,0.3,0c2.7,0.4,5.3,0.4,8,0
					c0.1,0,0.3,0,0.3,0c0.1,0,0,0.1-0.1,0.1C597.9,359.1,596.5,359.2,595.1,359.2z"/>
			</g>
		</g>
		<path class="st9" d="M607.3,357.2l-19.7,3.3l-1.4,0.4c-1.6-0.4-2.9-0.8-3.6-1.3l1.6-0.4l13.2-3.3l1.6-0.4c2.1,0.2,4,0.5,5.5,0.8
			c0.5,0.1,1,0.3,1.4,0.4c0.5,0.2,0.9,0.3,1.2,0.5C607.2,357.1,607.3,357.1,607.3,357.2z"/>
	</g>
	<g>
		<path class="st1" d="M607,355.8v2.3c0,0.6-0.7,1.2-1.9,1.7c-0.4,0.2-0.8,0.3-1.3,0.4c-0.3,0.1-0.6,0.1-0.9,0.2
			c-1,0.2-2,0.4-3.2,0.5c-1.8,0.2-3.8,0.4-6,0.4c-1.7,0-3.3-0.1-4.8-0.2l0,0c-0.6-0.1-1.1-0.1-1.6-0.2c-0.2,0-0.4-0.1-0.6-0.1
			c-0.1,0-0.2,0-0.4-0.1c-0.5-0.1-1-0.2-1.4-0.3l0,0c-1.6-0.4-2.9-0.8-3.6-1.3c-0.5-0.3-0.8-0.7-0.8-1.1v-2.3h3.8
			c2.4-0.6,5.8-1,9.5-1c1.4,0,2.7,0.1,4,0.2c2.1,0.2,4,0.4,5.5,0.8h3.7V355.8z"/>
		<path class="st10" d="M603,356.6v3.7c-1,0.2-2,0.4-3.2,0.5v-4.3L603,356.6L603,356.6z"/>
		<path class="st10" d="M605.1,356.4v3.3c-0.4,0.2-0.8,0.3-1.3,0.4v-3.7L605.1,356.4L605.1,356.4z"/>
		<path class="st3" d="M587.4,358.2v2.7c-0.2,0-0.4-0.1-0.6-0.1c-0.1,0-0.2,0-0.4-0.1v-2.5H587.4z"/>
		<path class="st3" d="M585,356.9v3.5l0,0c-1.6-0.3-2.9-0.8-3.6-1.3v-2.2H585z"/>
		<path class="st4" d="M607,355.8c0,1.8-5.9,3.2-13.3,3.2c-1.7,0-3.3-0.1-4.8-0.2c-0.8-0.1-1.6-0.2-2.3-0.3
			c-0.6-0.1-1.3-0.2-1.8-0.3c-1.6-0.4-2.9-0.8-3.6-1.3c-0.5-0.3-0.8-0.7-0.8-1.1c0-1.8,5.9-3.2,13.3-3.2c1.4,0,2.7,0,4,0.1
			c2.1,0.2,4,0.5,5.5,0.8c0.5,0.1,1,0.3,1.4,0.4c0.5,0.2,0.9,0.3,1.2,0.5c0,0,0.1,0,0.1,0.1C606.7,354.9,607,355.4,607,355.8z"/>
		<ellipse class="st3" cx="593.8" cy="355.8" rx="11.2" ry="2.7"/>
		<path class="st5" d="M598.3,354.1h-9.2c-0.8,0-1.4,0.2-1.4,0.3v2.3c0,0.2,0.6,0.3,1.4,0.3h6.9l3.7,0.4v-0.7v-0.3v-0.1v-1.9
			C599.8,354.2,599.1,354.1,598.3,354.1z"/>
		<g class="st6">
			<g class="st7">
				<path class="st8" d="M593.8,356.6c-1.4,0-2.8-0.1-4.3-0.3c-0.1,0-0.1-0.1-0.1-0.1c0.1,0,0.2,0,0.3,0c2.7,0.4,5.3,0.4,8,0
					c0.1,0,0.3,0,0.3,0c0.1,0,0,0.1-0.1,0.1C596.7,356.5,595.2,356.6,593.8,356.6z"/>
			</g>
		</g>
		<path class="st9" d="M606,354.6l-19.7,3.3l-1.4,0.4c-1.6-0.4-2.9-0.8-3.6-1.3l1.6-0.4l13.2-3.3l1.6-0.4c2.1,0.2,4,0.5,5.5,0.8
			c0.5,0.1,1,0.3,1.4,0.4c0.5,0.2,0.9,0.3,1.2,0.5C606,354.5,606,354.5,606,354.6z"/>
	</g>
	<g>
		<path class="st1" d="M606.9,353.3v2.3c0,0.6-0.7,1.2-1.9,1.7c-0.4,0.2-0.8,0.3-1.3,0.4c-0.3,0.1-0.6,0.1-0.9,0.2
			c-1,0.2-2,0.4-3.2,0.5c-1.8,0.2-3.8,0.4-6,0.4c-1.7,0-3.3-0.1-4.8-0.2l0,0c-0.6-0.1-1.1-0.1-1.6-0.2c-0.2,0-0.4-0.1-0.6-0.1
			c-0.1,0-0.2,0-0.4-0.1c-0.5-0.1-1-0.2-1.4-0.3l0,0c-1.6-0.4-2.9-0.8-3.6-1.3c-0.5-0.3-0.8-0.7-0.8-1.1v-2.3h3.8
			c2.4-0.6,5.8-1,9.5-1c1.4,0,2.7,0.1,4,0.2c2.1,0.2,4,0.4,5.5,0.8h3.7V353.3z"/>
		<path class="st10" d="M602.9,354.1v3.7c-1,0.2-2,0.4-3.2,0.5V354L602.9,354.1L602.9,354.1z"/>
		<path class="st10" d="M605,353.9v3.3c-0.4,0.2-0.8,0.3-1.3,0.4v-3.7L605,353.9L605,353.9z"/>
		<path class="st3" d="M587.3,355.6v2.7c-0.2,0-0.4-0.1-0.6-0.1c-0.1,0-0.2,0-0.4-0.1v-2.5H587.3z"/>
		<path class="st3" d="M584.9,354.4v3.5l0,0c-1.6-0.3-2.9-0.8-3.6-1.3v-2.2H584.9z"/>
		<path class="st4" d="M606.9,353.3c0,1.8-5.9,3.2-13.3,3.2c-1.7,0-3.3-0.1-4.8-0.2c-0.8-0.1-1.6-0.2-2.3-0.3
			c-0.6-0.1-1.3-0.2-1.8-0.3c-1.6-0.4-2.9-0.8-3.6-1.3c-0.5-0.3-0.8-0.7-0.8-1.1c0-1.8,5.9-3.2,13.3-3.2c1.4,0,2.7,0,4,0.1
			c2.1,0.2,4,0.5,5.5,0.8c0.5,0.1,1,0.3,1.4,0.4c0.5,0.2,0.9,0.3,1.2,0.5c0,0,0.1,0,0.1,0.1C606.6,352.4,606.9,352.8,606.9,353.3z"
			/>
		<ellipse class="st3" cx="593.7" cy="353.3" rx="11.2" ry="2.7"/>
		<path class="st5" d="M598.2,351.6H589c-0.8,0-1.4,0.2-1.4,0.3v2.3c0,0.2,0.6,0.3,1.4,0.3h6.9l3.7,0.4v-0.7V354v-0.1V352
			C599.7,351.7,599,351.6,598.2,351.6z"/>
		<g class="st6">
			<g class="st7">
				<path class="st8" d="M593.7,354.1c-1.4,0-2.8-0.1-4.3-0.3c-0.1,0-0.1-0.1-0.1-0.1c0.1,0,0.2,0,0.3,0c2.7,0.4,5.3,0.4,8,0
					c0.1,0,0.3,0,0.3,0c0.1,0,0,0.1-0.1,0.1C596.6,354,595.1,354.1,593.7,354.1z"/>
			</g>
		</g>
		<path class="st9" d="M605.9,352l-19.7,3.3l-1.4,0.4c-1.6-0.4-2.9-0.8-3.6-1.3l1.6-0.4l13.2-3.3l1.6-0.4c2.1,0.2,4,0.5,5.5,0.8
			c0.5,0.1,1,0.3,1.4,0.4c0.5,0.2,0.9,0.3,1.2,0.5C605.9,352,605.9,352,605.9,352z"/>
	</g>
	<g>
		<path class="st1" d="M606.2,350.7v2.3c0,0.6-0.7,1.2-1.9,1.7c-0.4,0.2-0.8,0.3-1.3,0.4c-0.3,0.1-0.6,0.1-0.9,0.2
			c-1,0.2-2,0.4-3.2,0.5c-1.8,0.2-3.8,0.4-6,0.4c-1.7,0-3.3-0.1-4.8-0.2l0,0c-0.6-0.1-1.1-0.1-1.6-0.2c-0.2,0-0.4-0.1-0.6-0.1
			c-0.1,0-0.2,0-0.4-0.1c-0.5-0.1-1-0.2-1.4-0.3l0,0c-1.6-0.4-2.9-0.8-3.6-1.3c-0.5-0.3-0.8-0.7-0.8-1.1v-2.3h3.8
			c2.4-0.6,5.8-1,9.5-1c1.4,0,2.7,0.1,4,0.2c2.1,0.2,4,0.4,5.5,0.8h3.7V350.7z"/>
		<path class="st10" d="M602.2,351.6v3.7c-1,0.2-2,0.4-3.2,0.5v-4.3L602.2,351.6L602.2,351.6z"/>
		<path class="st10" d="M604.3,351.3v3.3c-0.4,0.2-0.8,0.3-1.3,0.4v-3.7L604.3,351.3L604.3,351.3z"/>
		<path class="st3" d="M586.6,353.1v2.7c-0.2,0-0.4-0.1-0.6-0.1c-0.1,0-0.2,0-0.4-0.1v-2.5H586.6z"/>
		<path class="st3" d="M584.2,351.8v3.5l0,0c-1.6-0.3-2.9-0.8-3.6-1.3v-2.2H584.2z"/>
		<path class="st4" d="M606.2,350.7c0,1.8-5.9,3.2-13.3,3.2c-1.7,0-3.3-0.1-4.8-0.2c-0.8-0.1-1.6-0.2-2.3-0.3
			c-0.6-0.1-1.3-0.2-1.8-0.3c-1.6-0.4-2.9-0.8-3.6-1.3c-0.5-0.3-0.8-0.7-0.8-1.1c0-1.8,5.9-3.2,13.3-3.2c1.4,0,2.7,0,4,0.1
			c2.1,0.2,4,0.5,5.5,0.8c0.5,0.1,1,0.3,1.4,0.4c0.5,0.2,0.9,0.3,1.2,0.5c0,0,0.1,0,0.1,0.1C605.9,349.9,606.2,350.3,606.2,350.7z"
			/>
		<ellipse class="st3" cx="593" cy="350.7" rx="11.2" ry="2.7"/>
		<path class="st5" d="M597.5,349h-9.2c-0.8,0-1.4,0.2-1.4,0.3v2.3c0,0.2,0.6,0.3,1.4,0.3h6.9l3.7,0.4v-0.7v-0.3v-0.1v-1.9
			C599,349.2,598.3,349,597.5,349z"/>
		<g class="st6">
			<g class="st7">
				<path class="st8" d="M593,351.5c-1.4,0-2.8-0.1-4.3-0.3c-0.1,0-0.1-0.1-0.1-0.1c0.1,0,0.2,0,0.3,0c2.7,0.4,5.3,0.4,8,0
					c0.1,0,0.3,0,0.3,0c0.1,0,0,0.1-0.1,0.1C595.9,351.4,594.4,351.5,593,351.5z"/>
			</g>
		</g>
		<path class="st9" d="M605.2,349.5l-19.7,3.3l-1.4,0.4c-1.6-0.4-2.9-0.8-3.6-1.3l1.6-0.4l13.2-3.3l1.6-0.4c2.1,0.2,4,0.5,5.5,0.8
			c0.5,0.1,1,0.3,1.4,0.4c0.5,0.2,0.9,0.3,1.2,0.5C605.2,349.5,605.2,349.5,605.2,349.5z"/>
	</g>
	<g>
		<path class="st1" d="M606.8,347.2v2.3c0,0.6-0.7,1.2-1.9,1.7c-0.4,0.2-0.8,0.3-1.3,0.4c-0.3,0.1-0.6,0.1-0.9,0.2
			c-1,0.2-2,0.4-3.2,0.5c-1.8,0.2-3.8,0.4-6,0.4c-1.7,0-3.3-0.1-4.8-0.2l0,0c-0.6-0.1-1.1-0.1-1.6-0.2c-0.2,0-0.4-0.1-0.6-0.1
			c-0.1,0-0.2,0-0.4-0.1c-0.5-0.1-1-0.2-1.4-0.3l0,0c-1.6-0.4-2.9-0.8-3.6-1.3c-0.5-0.3-0.8-0.7-0.8-1.1v-2.3h3.8
			c2.4-0.6,5.8-1,9.5-1c1.4,0,2.7,0.1,4,0.2c2.1,0.2,4,0.4,5.5,0.8h3.7V347.2z"/>
		<path class="st10" d="M602.8,348.1v3.7c-1,0.2-2,0.4-3.2,0.5V348L602.8,348.1L602.8,348.1z"/>
		<path class="st10" d="M604.9,347.8v3.3c-0.4,0.2-0.8,0.3-1.3,0.4v-3.7L604.9,347.8L604.9,347.8z"/>
		<path class="st3" d="M587.2,349.6v2.7c-0.2,0-0.4-0.1-0.6-0.1c-0.1,0-0.2,0-0.4-0.1v-2.5H587.2z"/>
		<path class="st3" d="M584.8,348.3v3.5l0,0c-1.6-0.3-2.9-0.8-3.6-1.3v-2.2H584.8z"/>
		<path class="st4" d="M606.8,347.2c0,1.8-5.9,3.2-13.3,3.2c-1.7,0-3.3-0.1-4.8-0.2c-0.8-0.1-1.6-0.2-2.3-0.3
			c-0.6-0.1-1.3-0.2-1.8-0.3c-1.6-0.4-2.9-0.8-3.6-1.3c-0.5-0.3-0.8-0.7-0.8-1.1c0-1.8,5.9-3.2,13.3-3.2c1.4,0,2.7,0,4,0.1
			c2.1,0.2,4,0.5,5.5,0.8c0.5,0.1,1,0.3,1.4,0.4c0.5,0.2,0.9,0.3,1.2,0.5c0,0,0.1,0,0.1,0.1C606.5,346.4,606.8,346.8,606.8,347.2z"
			/>
		<ellipse class="st3" cx="593.6" cy="347.2" rx="11.2" ry="2.7"/>
		<path class="st5" d="M598.1,345.5H589c-0.8,0-1.4,0.2-1.4,0.3v2.3c0,0.2,0.6,0.3,1.4,0.3h6.9l3.7,0.4v-0.7v-0.3v-0.1v-1.9
			C599.6,345.7,598.9,345.5,598.1,345.5z"/>
		<g class="st6">
			<g class="st7">
				<path class="st8" d="M593.6,348c-1.4,0-2.8-0.1-4.3-0.3c-0.1,0-0.1-0.1-0.1-0.1c0.1,0,0.2,0,0.3,0c2.7,0.4,5.3,0.4,8,0
					c0.1,0,0.3,0,0.3,0c0.1,0,0,0.1-0.1,0.1C596.5,347.9,595,348,593.6,348z"/>
			</g>
		</g>
		<path class="st9" d="M605.8,346l-19.7,3.3l-1.4,0.4c-1.6-0.4-2.9-0.8-3.6-1.3l1.6-0.4l13.2-3.3l1.6-0.4c2.1,0.2,4,0.5,5.5,0.8
			c0.5,0.1,1,0.3,1.4,0.4c0.5,0.2,0.9,0.3,1.2,0.5C605.8,346,605.8,346,605.8,346z"/>
	</g>
	<g>
		<path class="st1" d="M606.1,344.8v2.3c0,0.6-0.7,1.2-1.9,1.7c-0.4,0.2-0.8,0.3-1.3,0.4c-0.3,0.1-0.6,0.1-0.9,0.2
			c-1,0.2-2,0.4-3.2,0.5c-1.8,0.2-3.8,0.4-6,0.4c-1.7,0-3.3-0.1-4.8-0.2l0,0c-0.6-0.1-1.1-0.1-1.6-0.2c-0.2,0-0.4-0.1-0.6-0.1
			c-0.1,0-0.2,0-0.4-0.1c-0.5-0.1-1-0.2-1.4-0.3l0,0c-1.6-0.4-2.9-0.8-3.6-1.3c-0.5-0.3-0.8-0.7-0.8-1.1v-2.3h3.8
			c2.4-0.6,5.8-1,9.5-1c1.4,0,2.7,0.1,4,0.2c2.1,0.2,4,0.4,5.5,0.8h3.7V344.8z"/>
		<path class="st10" d="M602.1,345.6v3.7c-1,0.2-2,0.4-3.2,0.5v-4.3L602.1,345.6L602.1,345.6z"/>
		<path class="st10" d="M604.2,345.4v3.3c-0.4,0.2-0.8,0.3-1.3,0.4v-3.7L604.2,345.4L604.2,345.4z"/>
		<path class="st3" d="M586.5,347.2v2.7c-0.2,0-0.4-0.1-0.6-0.1c-0.1,0-0.2,0-0.4-0.1v-2.5H586.5z"/>
		<path class="st3" d="M584.1,345.9v3.5l0,0c-1.6-0.3-2.9-0.8-3.6-1.3v-2.2H584.1z"/>
		<path class="st4" d="M606.1,344.8c0,1.8-5.9,3.2-13.3,3.2c-1.7,0-3.3-0.1-4.8-0.2c-0.8-0.1-1.6-0.2-2.3-0.3
			c-0.6-0.1-1.3-0.2-1.8-0.3c-1.6-0.4-2.9-0.8-3.6-1.3c-0.5-0.3-0.8-0.7-0.8-1.1c0-1.8,5.9-3.2,13.3-3.2c1.4,0,2.7,0,4,0.1
			c2.1,0.2,4,0.5,5.5,0.8c0.5,0.1,1,0.3,1.4,0.4c0.5,0.2,0.9,0.3,1.2,0.5c0,0,0.1,0,0.1,0.1C605.8,343.9,606.1,344.3,606.1,344.8z"
			/>
		<ellipse class="st3" cx="592.9" cy="344.8" rx="11.2" ry="2.7"/>
		<path class="st5" d="M597.4,343.1h-9.2c-0.8,0-1.4,0.2-1.4,0.3v2.3c0,0.2,0.6,0.3,1.4,0.3h6.9l3.7,0.4v-0.7v-0.3v-0.1v-1.9
			C598.9,343.2,598.2,343.1,597.4,343.1z"/>
		<g class="st6">
			<g class="st7">
				<path class="st8" d="M592.9,345.6c-1.4,0-2.8-0.1-4.3-0.3c-0.1,0-0.1-0.1-0.1-0.1c0.1,0,0.2,0,0.3,0c2.7,0.4,5.3,0.4,8,0
					c0.1,0,0.3,0,0.3,0c0.1,0,0,0.1-0.1,0.1C595.8,345.5,594.3,345.6,592.9,345.6z"/>
			</g>
		</g>
		<path class="st9" d="M605.1,343.5l-19.7,3.3l-1.4,0.4c-1.6-0.4-2.9-0.8-3.6-1.3l1.6-0.4l13.2-3.3l1.6-0.4c2.1,0.2,4,0.5,5.5,0.8
			c0.5,0.1,1,0.3,1.4,0.4c0.5,0.2,0.9,0.3,1.2,0.5C605.1,343.5,605.1,343.5,605.1,343.5z"/>
	</g>
	<g>
		<path class="st1" d="M606.1,341.9v2.3c0,0.6-0.7,1.2-1.9,1.7c-0.4,0.2-0.8,0.3-1.3,0.4c-0.3,0.1-0.6,0.1-0.9,0.2
			c-1,0.2-2,0.4-3.2,0.5c-1.8,0.2-3.8,0.4-6,0.4c-1.7,0-3.3-0.1-4.8-0.2l0,0c-0.6-0.1-1.1-0.1-1.6-0.2c-0.2,0-0.4-0.1-0.6-0.1
			c-0.1,0-0.2,0-0.4-0.1c-0.5-0.1-1-0.2-1.4-0.3l0,0c-1.6-0.4-2.9-0.8-3.6-1.3c-0.5-0.3-0.8-0.7-0.8-1.1v-2.3h3.8
			c2.4-0.6,5.8-1,9.5-1c1.4,0,2.7,0.1,4,0.2c2.1,0.2,4,0.4,5.5,0.8h3.7V341.9z"/>
		<path class="st10" d="M602.1,342.7v3.7c-1,0.2-2,0.4-3.2,0.5v-4.3L602.1,342.7L602.1,342.7z"/>
		<path class="st10" d="M604.2,342.5v3.3c-0.4,0.2-0.8,0.3-1.3,0.4v-3.7L604.2,342.5L604.2,342.5z"/>
		<path class="st3" d="M586.5,344.3v2.7c-0.2,0-0.4-0.1-0.6-0.1c-0.1,0-0.2,0-0.4-0.1v-2.5H586.5z"/>
		<path class="st3" d="M584.1,343v3.5l0,0c-1.6-0.3-2.9-0.8-3.6-1.3V343H584.1z"/>
		<path class="st4" d="M606.1,341.9c0,1.8-5.9,3.2-13.3,3.2c-1.7,0-3.3-0.1-4.8-0.2c-0.8-0.1-1.6-0.2-2.3-0.3
			c-0.6-0.1-1.3-0.2-1.8-0.3c-1.6-0.4-2.9-0.8-3.6-1.3c-0.5-0.3-0.8-0.7-0.8-1.1c0-1.8,5.9-3.2,13.3-3.2c1.4,0,2.7,0,4,0.1
			c2.1,0.2,4,0.5,5.5,0.8c0.5,0.1,1,0.3,1.4,0.4c0.5,0.2,0.9,0.3,1.2,0.5c0,0,0.1,0,0.1,0.1C605.8,341,606.1,341.4,606.1,341.9z"/>
		<ellipse class="st3" cx="592.9" cy="341.9" rx="11.2" ry="2.7"/>
		<path class="st5" d="M597.4,340.2h-9.2c-0.8,0-1.4,0.2-1.4,0.3v2.3c0,0.2,0.6,0.3,1.4,0.3h6.9l3.7,0.4v-0.7v-0.3v-0.1v-1.9
			C598.9,340.3,598.2,340.2,597.4,340.2z"/>
		<g class="st6">
			<g class="st7">
				<path class="st8" d="M592.9,342.7c-1.4,0-2.8-0.1-4.3-0.3c-0.1,0-0.1-0.1-0.1-0.1c0.1,0,0.2,0,0.3,0c2.7,0.4,5.3,0.4,8,0
					c0.1,0,0.3,0,0.3,0c0.1,0,0,0.1-0.1,0.1C595.8,342.6,594.3,342.7,592.9,342.7z"/>
			</g>
		</g>
		<path class="st9" d="M605.1,340.7l-19.7,3.3l-1.4,0.4c-1.6-0.4-2.9-0.8-3.6-1.3l1.6-0.4l13.2-3.3l1.6-0.4c2.1,0.2,4,0.5,5.5,0.8
			c0.5,0.1,1,0.3,1.4,0.4c0.5,0.2,0.9,0.3,1.2,0.5C605.1,340.6,605.1,340.6,605.1,340.7z"/>
	</g>
	<g>
		<path class="st1" d="M634.4,364.1v2.3c0,0.6-0.7,1.2-1.9,1.7c-0.4,0.2-0.8,0.3-1.3,0.4c-0.3,0.1-0.6,0.1-0.9,0.2
			c-1,0.2-2,0.4-3.2,0.5c-1.8,0.2-3.8,0.4-6,0.4c-1.7,0-3.3-0.1-4.8-0.2l0,0c-0.6-0.1-1.1-0.1-1.6-0.2c-0.2,0-0.4-0.1-0.6-0.1
			c-0.1,0-0.2,0-0.4-0.1c-0.5-0.1-1-0.2-1.4-0.3l0,0c-1.6-0.4-2.9-0.8-3.6-1.3c-0.5-0.3-0.8-0.7-0.8-1.1V364h3.8
			c2.4-0.6,5.8-1,9.5-1c1.4,0,2.7,0.1,4,0.2c2.1,0.2,4,0.4,5.5,0.8h3.7V364.1z"/>
		<path class="st10" d="M630.3,364.9v3.7c-1,0.2-2,0.4-3.2,0.5v-4.3L630.3,364.9L630.3,364.9z"/>
		<path class="st10" d="M632.4,364.7v3.3c-0.4,0.2-0.8,0.3-1.3,0.4v-3.7L632.4,364.7L632.4,364.7z"/>
		<path class="st3" d="M614.7,366.4v2.7c-0.2,0-0.4-0.1-0.6-0.1c-0.1,0-0.2,0-0.4-0.1v-2.5H614.7z"/>
		<path class="st3" d="M612.3,365.2v3.5l0,0c-1.6-0.3-2.9-0.8-3.6-1.3v-2.2H612.3z"/>
		<path class="st4" d="M634.4,364.1c0,1.8-5.9,3.2-13.3,3.2c-1.7,0-3.3-0.1-4.8-0.2c-0.8-0.1-1.6-0.2-2.3-0.3
			c-0.6-0.1-1.3-0.2-1.8-0.3c-1.6-0.4-2.9-0.8-3.6-1.3c-0.5-0.3-0.8-0.7-0.8-1.1c0-1.8,5.9-3.2,13.3-3.2c1.4,0,2.7,0,4,0.1
			c2.1,0.2,4,0.5,5.5,0.8c0.5,0.1,1,0.3,1.4,0.4c0.5,0.2,0.9,0.3,1.2,0.5c0,0,0.1,0,0.1,0.1C634,363.2,634.4,363.6,634.4,364.1z"/>
		<ellipse class="st3" cx="621.1" cy="364.1" rx="11.2" ry="2.7"/>
		<path class="st5" d="M625.7,362.4h-9.2c-0.8,0-1.4,0.2-1.4,0.3v2.3c0,0.2,0.6,0.3,1.4,0.3h6.9l3.7,0.4V365v-0.3v-0.1v-1.9
			C627.1,362.5,626.5,362.4,625.7,362.4z"/>
		<g class="st6">
			<g class="st7">
				<path class="st8" d="M621.2,364.9c-1.4,0-2.8-0.1-4.3-0.3c-0.1,0-0.1-0.1-0.1-0.1c0.1,0,0.2,0,0.3,0c2.7,0.4,5.3,0.4,8,0
					c0.1,0,0.3,0,0.3,0c0.1,0,0,0.1-0.1,0.1C624,364.8,622.6,364.9,621.2,364.9z"/>
			</g>
		</g>
		<path class="st9" d="M633.4,362.8l-19.7,3.3l-1.4,0.4c-1.6-0.4-2.9-0.8-3.6-1.3l1.6-0.4l13.2-3.3l1.6-0.4c2.1,0.2,4,0.5,5.5,0.8
			c0.5,0.1,1,0.3,1.4,0.4c0.5,0.2,0.9,0.3,1.2,0.5C633.3,362.8,633.4,362.8,633.4,362.8z"/>
	</g>
	<g>
		<path class="st1" d="M634,361.4v2.3c0,0.6-0.7,1.2-1.9,1.7c-0.4,0.2-0.8,0.3-1.3,0.4c-0.3,0.1-0.6,0.1-0.9,0.2
			c-1,0.2-2,0.4-3.2,0.5c-1.8,0.2-3.8,0.4-6,0.4c-1.7,0-3.3-0.1-4.8-0.2l0,0c-0.6-0.1-1.1-0.1-1.6-0.2c-0.2,0-0.4-0.1-0.6-0.1
			c-0.1,0-0.2,0-0.4-0.1c-0.5-0.1-1-0.2-1.4-0.3l0,0c-1.6-0.4-2.9-0.8-3.6-1.3c-0.5-0.3-0.8-0.7-0.8-1.1v-2.3h3.8
			c2.4-0.6,5.8-1,9.5-1c1.4,0,2.7,0.1,4,0.2c2.1,0.2,4,0.4,5.5,0.8h3.7V361.4z"/>
		<path class="st10" d="M630,362.2v3.7c-1,0.2-2,0.4-3.2,0.5v-4.3L630,362.2L630,362.2z"/>
		<path class="st10" d="M632.1,362v3.3c-0.4,0.2-0.8,0.3-1.3,0.4V362H632.1z"/>
		<path class="st3" d="M614.4,363.8v2.7c-0.2,0-0.4-0.1-0.6-0.1c-0.1,0-0.2,0-0.4-0.1v-2.5H614.4z"/>
		<path class="st3" d="M612,362.5v3.5l0,0c-1.6-0.3-2.9-0.8-3.6-1.3v-2.2H612z"/>
		<path class="st4" d="M634,361.4c0,1.8-5.9,3.2-13.3,3.2c-1.7,0-3.3-0.1-4.8-0.2c-0.8-0.1-1.6-0.2-2.3-0.3
			c-0.6-0.1-1.3-0.2-1.8-0.3c-1.6-0.4-2.9-0.8-3.6-1.3c-0.5-0.3-0.8-0.7-0.8-1.1c0-1.8,5.9-3.2,13.3-3.2c1.4,0,2.7,0,4,0.1
			c2.1,0.2,4,0.5,5.5,0.8c0.5,0.1,1,0.3,1.4,0.4c0.5,0.2,0.9,0.3,1.2,0.5c0,0,0.1,0,0.1,0.1C633.7,360.6,634,361,634,361.4z"/>
		<ellipse class="st3" cx="620.8" cy="361.4" rx="11.2" ry="2.7"/>
		<path class="st5" d="M625.3,359.7h-9.2c-0.8,0-1.4,0.2-1.4,0.3v2.3c0,0.2,0.6,0.3,1.4,0.3h6.9l3.7,0.4v-0.7V362v0v-2
			C626.8,359.9,626.1,359.7,625.3,359.7z"/>
		<g class="st6">
			<g class="st7">
				<path class="st8" d="M620.8,362.2c-1.4,0-2.8-0.1-4.3-0.3c-0.1,0-0.1-0.1-0.1-0.1c0.1,0,0.2,0,0.3,0c2.7,0.4,5.3,0.4,8,0
					c0.1,0,0.3,0,0.3,0c0.1,0,0,0.1-0.1,0.1C623.7,362.1,622.2,362.2,620.8,362.2z"/>
			</g>
		</g>
		<path class="st9" d="M633,360.2l-19.7,3.3l-1.4,0.4c-1.6-0.4-2.9-0.8-3.6-1.3l1.6-0.4l13.2-3.3l1.6-0.4c2.1,0.2,4,0.5,5.5,0.8
			c0.5,0.1,1,0.3,1.4,0.4c0.5,0.2,0.9,0.3,1.2,0.5C633,360.1,633,360.1,633,360.2z"/>
	</g>
	<g>
		<path class="st1" d="M635.2,358.8v2.3c0,0.6-0.7,1.2-1.9,1.7c-0.4,0.2-0.8,0.3-1.3,0.4c-0.3,0.1-0.6,0.1-0.9,0.2
			c-1,0.2-2,0.4-3.2,0.5c-1.8,0.2-3.8,0.4-6,0.4c-1.7,0-3.3-0.1-4.8-0.2l0,0c-0.6-0.1-1.1-0.1-1.6-0.2c-0.2,0-0.4-0.1-0.6-0.1
			c-0.1,0-0.2,0-0.4-0.1c-0.5-0.1-1-0.2-1.4-0.3l0,0c-1.6-0.4-2.9-0.8-3.6-1.3c-0.5-0.3-0.8-0.7-0.8-1.1v-2.3h3.8
			c2.4-0.6,5.8-1,9.5-1c1.4,0,2.7,0.1,4,0.2c2.1,0.2,4,0.4,5.5,0.8h3.7V358.8z"/>
		<path class="st10" d="M631.1,359.6v3.7c-1,0.2-2,0.4-3.2,0.5v-4.3L631.1,359.6L631.1,359.6z"/>
		<path class="st10" d="M633.3,359.4v3.3c-0.4,0.2-0.8,0.3-1.3,0.4v-3.7L633.3,359.4L633.3,359.4z"/>
		<path class="st3" d="M615.5,361.2v2.7c-0.2,0-0.4-0.1-0.6-0.1c-0.1,0-0.2,0-0.4-0.1v-2.5H615.5z"/>
		<path class="st3" d="M613.1,359.9v3.5l0,0c-1.6-0.3-2.9-0.8-3.6-1.3v-2.2H613.1z"/>
		<path class="st4" d="M635.2,358.8c0,1.8-5.9,3.2-13.3,3.2c-1.7,0-3.3-0.1-4.8-0.2c-0.8-0.1-1.6-0.2-2.3-0.3
			c-0.6-0.1-1.3-0.2-1.8-0.3c-1.6-0.4-2.9-0.8-3.6-1.3c-0.5-0.3-0.8-0.7-0.8-1.1c0-1.8,5.9-3.2,13.3-3.2c1.4,0,2.7,0,4,0.1
			c2.1,0.2,4,0.5,5.5,0.8c0.5,0.1,1,0.3,1.4,0.4c0.5,0.2,0.9,0.3,1.2,0.5c0,0,0.1,0,0.1,0.1C634.8,357.9,635.2,358.3,635.2,358.8z"
			/>
		<ellipse class="st3" cx="621.9" cy="358.8" rx="11.2" ry="2.7"/>
		<path class="st5" d="M626.5,357.1h-9.2c-0.8,0-1.4,0.2-1.4,0.3v2.3c0,0.2,0.6,0.3,1.4,0.3h6.9l3.7,0.4v-0.7v-0.3v-0.1v-1.9
			C627.9,357.2,627.3,357.1,626.5,357.1z"/>
		<g class="st6">
			<g class="st7">
				<path class="st8" d="M622,359.6c-1.4,0-2.8-0.1-4.3-0.3c-0.1,0-0.1-0.1-0.1-0.1c0.1,0,0.2,0,0.3,0c2.7,0.4,5.3,0.4,8,0
					c0.1,0,0.3,0,0.3,0c0.1,0,0,0.1-0.1,0.1C624.8,359.5,623.4,359.6,622,359.6z"/>
			</g>
		</g>
		<path class="st9" d="M634.2,357.5l-19.7,3.3l-1.4,0.4c-1.6-0.4-2.9-0.8-3.6-1.3l1.6-0.4l13.2-3.3l1.6-0.4c2.1,0.2,4,0.5,5.5,0.8
			c0.5,0.1,1,0.3,1.4,0.4c0.5,0.2,0.9,0.3,1.2,0.5C634.1,357.5,634.2,357.5,634.2,357.5z"/>
	</g>
	<g>
		<path class="st1" d="M636,355.3v2.3c0,0.6-0.7,1.2-1.9,1.7c-0.4,0.2-0.8,0.3-1.3,0.4c-0.3,0.1-0.6,0.1-0.9,0.2
			c-1,0.2-2,0.4-3.2,0.5c-1.8,0.2-3.8,0.4-6,0.4c-1.7,0-3.3-0.1-4.8-0.2l0,0c-0.6-0.1-1.1-0.1-1.6-0.2c-0.2,0-0.4-0.1-0.6-0.1
			c-0.1,0-0.2,0-0.4-0.1c-0.5-0.1-1-0.2-1.4-0.3l0,0c-1.6-0.4-2.9-0.8-3.6-1.3c-0.5-0.3-0.8-0.7-0.8-1.1v-2.3h3.8
			c2.4-0.6,5.8-1,9.5-1c1.4,0,2.7,0.1,4,0.2c2.1,0.2,4,0.4,5.5,0.8h3.7V355.3z"/>
		<path class="st10" d="M631.9,356.1v3.7c-1,0.2-2,0.4-3.2,0.5V356L631.9,356.1L631.9,356.1z"/>
		<path class="st10" d="M634,355.9v3.3c-0.4,0.2-0.8,0.3-1.3,0.4v-3.7L634,355.9L634,355.9z"/>
		<path class="st3" d="M616.3,357.7v2.7c-0.2,0-0.4-0.1-0.6-0.1c-0.1,0-0.2,0-0.4-0.1v-2.5H616.3z"/>
		<path class="st3" d="M613.9,356.4v3.5l0,0c-1.6-0.3-2.9-0.8-3.6-1.3v-2.2H613.9z"/>
		<path class="st4" d="M636,355.3c0,1.8-5.9,3.2-13.3,3.2c-1.7,0-3.3-0.1-4.8-0.2c-0.8-0.1-1.6-0.2-2.3-0.3
			c-0.6-0.1-1.3-0.2-1.8-0.3c-1.6-0.4-2.9-0.8-3.6-1.3c-0.5-0.3-0.8-0.7-0.8-1.1c0-1.8,5.9-3.2,13.3-3.2c1.4,0,2.7,0,4,0.1
			c2.1,0.2,4,0.5,5.5,0.8c0.5,0.1,1,0.3,1.4,0.4c0.5,0.2,0.9,0.3,1.2,0.5c0,0,0.1,0,0.1,0.1C635.6,354.4,636,354.8,636,355.3z"/>
		<ellipse class="st3" cx="622.7" cy="355.3" rx="11.2" ry="2.7"/>
		<path class="st5" d="M627.3,353.6h-9.2c-0.8,0-1.4,0.2-1.4,0.3v2.3c0,0.2,0.6,0.3,1.4,0.3h6.9l3.7,0.4v-0.7V356v-0.1V354
			C628.7,353.7,628.1,353.6,627.3,353.6z"/>
		<g class="st6">
			<g class="st7">
				<path class="st8" d="M622.8,356.1c-1.4,0-2.8-0.1-4.3-0.3c-0.1,0-0.1-0.1-0.1-0.1c0.1,0,0.2,0,0.3,0c2.7,0.4,5.3,0.4,8,0
					c0.1,0,0.3,0,0.3,0c0.1,0,0,0.1-0.1,0.1C625.6,356,624.2,356.1,622.8,356.1z"/>
			</g>
		</g>
		<path class="st9" d="M635,354l-19.7,3.3l-1.4,0.4c-1.6-0.4-2.9-0.8-3.6-1.3l1.6-0.4l13.2-3.3l1.6-0.4c2.1,0.2,4,0.5,5.5,0.8
			c0.5,0.1,1,0.3,1.4,0.4c0.5,0.2,0.9,0.3,1.2,0.5C634.9,354,635,354,635,354z"/>
	</g>
	<g>
		<path class="st1" d="M633.9,352.8v2.3c0,0.6-0.7,1.2-1.9,1.7c-0.4,0.2-0.8,0.3-1.3,0.4c-0.3,0.1-0.6,0.1-0.9,0.2
			c-1,0.2-2,0.4-3.2,0.5c-1.8,0.2-3.8,0.4-6,0.4c-1.7,0-3.3-0.1-4.8-0.2l0,0c-0.6-0.1-1.1-0.1-1.6-0.2c-0.2,0-0.4-0.1-0.6-0.1
			c-0.1,0-0.2,0-0.4-0.1c-0.5-0.1-1-0.2-1.4-0.3l0,0c-1.6-0.4-2.9-0.8-3.6-1.3c-0.5-0.3-0.8-0.7-0.8-1.1v-2.3h3.8
			c2.4-0.6,5.8-1,9.5-1c1.4,0,2.7,0.1,4,0.2c2.1,0.2,4,0.4,5.5,0.8h3.7V352.8z"/>
		<path class="st10" d="M629.9,353.6v3.7c-1,0.2-2,0.4-3.2,0.5v-4.3L629.9,353.6L629.9,353.6z"/>
		<path class="st10" d="M632,353.4v3.3c-0.4,0.2-0.8,0.3-1.3,0.4v-3.7L632,353.4L632,353.4z"/>
		<path class="st3" d="M614.3,355.2v2.7c-0.2,0-0.4-0.1-0.6-0.1c-0.1,0-0.2,0-0.4-0.1v-2.5H614.3z"/>
		<path class="st3" d="M611.9,353.9v3.5l0,0c-1.6-0.3-2.9-0.8-3.6-1.3v-2.2H611.9z"/>
		<path class="st4" d="M633.9,352.8c0,1.8-5.9,3.2-13.3,3.2c-1.7,0-3.3-0.1-4.8-0.2c-0.8-0.1-1.6-0.2-2.3-0.3
			c-0.6-0.1-1.3-0.2-1.8-0.3c-1.6-0.4-2.9-0.8-3.6-1.3c-0.5-0.3-0.8-0.7-0.8-1.1c0-1.8,5.9-3.2,13.3-3.2c1.4,0,2.7,0,4,0.1
			c2.1,0.2,4,0.5,5.5,0.8c0.5,0.1,1,0.3,1.4,0.4c0.5,0.2,0.9,0.3,1.2,0.5c0,0,0.1,0,0.1,0.1C633.6,352,633.9,352.4,633.9,352.8z"/>
		<ellipse class="st3" cx="620.7" cy="352.8" rx="11.2" ry="2.7"/>
		<path class="st5" d="M625.2,351.1H616c-0.8,0-1.4,0.2-1.4,0.3v2.3c0,0.2,0.6,0.3,1.4,0.3h6.9l3.7,0.4v-0.7v-0.3v-0.1v-1.9
			C626.7,351.3,626,351.1,625.2,351.1z"/>
		<g class="st6">
			<g class="st7">
				<path class="st8" d="M620.7,353.6c-1.4,0-2.8-0.1-4.3-0.3c-0.1,0-0.1-0.1-0.1-0.1c0.1,0,0.2,0,0.3,0c2.7,0.4,5.3,0.4,8,0
					c0.1,0,0.3,0,0.3,0c0.1,0,0,0.1-0.1,0.1C623.6,353.5,622.1,353.6,620.7,353.6z"/>
			</g>
		</g>
		<path class="st9" d="M632.9,351.6l-19.7,3.3l-1.4,0.4c-1.6-0.4-2.9-0.8-3.6-1.3l1.6-0.4l13.2-3.3l1.6-0.4c2.1,0.2,4,0.5,5.5,0.8
			c0.5,0.1,1,0.3,1.4,0.4c0.5,0.2,0.9,0.3,1.2,0.5C632.9,351.5,632.9,351.6,632.9,351.6z"/>
	</g>
	<g>
		<path class="st1" d="M664.4,357.5v2.3c0,0.6-0.7,1.2-1.9,1.7c-0.4,0.2-0.8,0.3-1.3,0.4c-0.3,0.1-0.6,0.1-0.9,0.2
			c-1,0.2-2,0.4-3.2,0.5c-1.8,0.2-3.8,0.4-6,0.4c-1.7,0-3.3-0.1-4.8-0.2l0,0c-0.6-0.1-1.1-0.1-1.6-0.2c-0.2,0-0.4-0.1-0.6-0.1
			c-0.1,0-0.2,0-0.4-0.1c-0.5-0.1-1-0.2-1.4-0.3l0,0c-1.6-0.4-2.9-0.8-3.6-1.3c-0.5-0.3-0.8-0.7-0.8-1.1v-2.3h3.8
			c2.4-0.6,5.8-1,9.5-1c1.4,0,2.7,0.1,4,0.2c2.1,0.2,4,0.4,5.5,0.8h3.7V357.5z"/>
		<path class="st10" d="M660.4,358.4v3.7c-1,0.2-2,0.4-3.2,0.5v-4.3L660.4,358.4L660.4,358.4z"/>
		<path class="st10" d="M662.5,358.1v3.3c-0.4,0.2-0.8,0.3-1.3,0.4v-3.7L662.5,358.1L662.5,358.1z"/>
		<path class="st3" d="M644.8,359.9v2.7c-0.2,0-0.4-0.1-0.6-0.1c-0.1,0-0.2,0-0.4-0.1v-2.5H644.8z"/>
		<path class="st3" d="M642.3,358.6v3.5l0,0c-1.6-0.3-2.9-0.8-3.6-1.3v-2.2H642.3z"/>
		<path class="st4" d="M664.4,357.5c0,1.8-5.9,3.2-13.3,3.2c-1.7,0-3.3-0.1-4.8-0.2c-0.8-0.1-1.6-0.2-2.3-0.3
			c-0.6-0.1-1.3-0.2-1.8-0.3c-1.6-0.4-2.9-0.8-3.6-1.3c-0.5-0.3-0.8-0.7-0.8-1.1c0-1.8,5.9-3.2,13.3-3.2c1.4,0,2.7,0,4,0.1
			c2.1,0.2,4,0.5,5.5,0.8c0.5,0.1,1,0.3,1.4,0.4c0.5,0.2,0.9,0.3,1.2,0.5c0,0,0.1,0,0.1,0.1C664.1,356.7,664.4,357.1,664.4,357.5z"
			/>
		<ellipse class="st3" cx="651.1" cy="357.5" rx="11.2" ry="2.7"/>
		<path class="st5" d="M655.7,355.8h-9.2c-0.8,0-1.4,0.2-1.4,0.3v2.3c0,0.2,0.6,0.3,1.4,0.3h6.9l3.7,0.4v-0.7v-0.3V358v-1.9
			C657.2,356,656.5,355.8,655.7,355.8z"/>
		<g class="st6">
			<g class="st7">
				<path class="st8" d="M651.2,358.4c-1.4,0-2.8-0.1-4.3-0.3c-0.1,0-0.1-0.1-0.1-0.1c0.1,0,0.2,0,0.3,0c2.7,0.4,5.3,0.4,8,0
					c0.1,0,0.3,0,0.3,0c0.1,0,0,0.1-0.1,0.1C654,358.2,652.6,358.4,651.2,358.4z"/>
			</g>
		</g>
		<path class="st9" d="M663.4,356.3l-19.7,3.3l-1.4,0.4c-1.6-0.4-2.9-0.8-3.6-1.3l1.6-0.4l13.2-3.3l1.6-0.4c2.1,0.2,4,0.5,5.5,0.8
			c0.5,0.1,1,0.3,1.4,0.4c0.5,0.2,0.9,0.3,1.2,0.5C663.4,356.3,663.4,356.3,663.4,356.3z"/>
	</g>
	<g>
		<path class="st1" d="M664.4,354.1v2.3c0,0.6-0.7,1.2-1.9,1.7c-0.4,0.2-0.8,0.3-1.3,0.4c-0.3,0.1-0.6,0.1-0.9,0.2
			c-1,0.2-2,0.4-3.2,0.5c-1.8,0.2-3.8,0.4-6,0.4c-1.7,0-3.3-0.1-4.8-0.2l0,0c-0.6-0.1-1.1-0.1-1.6-0.2c-0.2,0-0.4-0.1-0.6-0.1
			c-0.1,0-0.2,0-0.4-0.1c-0.5-0.1-1-0.2-1.4-0.3l0,0c-1.6-0.4-2.9-0.8-3.6-1.3c-0.5-0.3-0.8-0.7-0.8-1.1V354h3.8
			c2.4-0.6,5.8-1,9.5-1c1.4,0,2.7,0.1,4,0.2c2.1,0.2,4,0.4,5.5,0.8h3.7V354.1z"/>
		<path class="st10" d="M660.4,354.9v3.7c-1,0.2-2,0.4-3.2,0.5v-4.3L660.4,354.9L660.4,354.9z"/>
		<path class="st10" d="M662.5,354.7v3.3c-0.4,0.2-0.8,0.3-1.3,0.4v-3.7L662.5,354.7L662.5,354.7z"/>
		<path class="st3" d="M644.8,356.5v2.7c-0.2,0-0.4-0.1-0.6-0.1c-0.1,0-0.2,0-0.4-0.1v-2.5H644.8z"/>
		<path class="st3" d="M642.3,355.2v3.5l0,0c-1.6-0.3-2.9-0.8-3.6-1.3v-2.2H642.3z"/>
		<path class="st4" d="M664.4,354.1c0,1.8-5.9,3.2-13.3,3.2c-1.7,0-3.3-0.1-4.8-0.2c-0.8-0.1-1.6-0.2-2.3-0.3
			c-0.6-0.1-1.3-0.2-1.8-0.3c-1.6-0.4-2.9-0.8-3.6-1.3c-0.5-0.3-0.8-0.7-0.8-1.1c0-1.8,5.9-3.2,13.3-3.2c1.4,0,2.7,0,4,0.1
			c2.1,0.2,4,0.5,5.5,0.8c0.5,0.1,1,0.3,1.4,0.4c0.5,0.2,0.9,0.3,1.2,0.5c0,0,0.1,0,0.1,0.1C664.1,353.3,664.4,353.7,664.4,354.1z"
			/>
		<ellipse class="st3" cx="651.1" cy="354.1" rx="11.2" ry="2.7"/>
		<path class="st5" d="M655.7,352.4h-9.2c-0.8,0-1.4,0.2-1.4,0.3v2.3c0,0.2,0.6,0.3,1.4,0.3h6.9l3.7,0.4V355v-0.3v-0.1v-1.9
			C657.2,352.6,656.5,352.4,655.7,352.4z"/>
		<g class="st6">
			<g class="st7">
				<path class="st8" d="M651.2,354.9c-1.4,0-2.8-0.1-4.3-0.3c-0.1,0-0.1-0.1-0.1-0.1c0.1,0,0.2,0,0.3,0c2.7,0.4,5.3,0.4,8,0
					c0.1,0,0.3,0,0.3,0c0.1,0,0,0.1-0.1,0.1C654,354.8,652.6,354.9,651.2,354.9z"/>
			</g>
		</g>
		<path class="st9" d="M663.4,352.9l-19.7,3.3l-1.4,0.4c-1.6-0.4-2.9-0.8-3.6-1.3l1.6-0.4l13.2-3.3l1.6-0.4c2.1,0.2,4,0.5,5.5,0.8
			c0.5,0.1,1,0.3,1.4,0.4c0.5,0.2,0.9,0.3,1.2,0.5C663.4,352.8,663.4,352.9,663.4,352.9z"/>
	</g>
	<g>
		<path class="st1" d="M663.4,350.4v2.3c0,0.6-0.7,1.2-1.9,1.7c-0.4,0.2-0.8,0.3-1.3,0.4c-0.3,0.1-0.6,0.1-0.9,0.2
			c-1,0.2-2,0.4-3.2,0.5c-1.8,0.2-3.8,0.4-6,0.4c-1.7,0-3.3-0.1-4.8-0.2l0,0c-0.6-0.1-1.1-0.1-1.6-0.2c-0.2,0-0.4-0.1-0.6-0.1
			c-0.1,0-0.2,0-0.4-0.1c-0.5-0.1-1-0.2-1.4-0.3l0,0c-1.6-0.4-2.9-0.8-3.6-1.3c-0.5-0.3-0.8-0.7-0.8-1.1v-2.3h3.8
			c2.4-0.6,5.8-1,9.5-1c1.4,0,2.7,0.1,4,0.2c2.1,0.2,4,0.4,5.5,0.8h3.7V350.4z"/>
		<path class="st10" d="M659.4,351.2v3.7c-1,0.2-2,0.4-3.2,0.5v-4.3L659.4,351.2L659.4,351.2z"/>
		<path class="st10" d="M661.5,351v3.3c-0.4,0.2-0.8,0.3-1.3,0.4V351H661.5z"/>
		<path class="st3" d="M643.8,352.8v2.7c-0.2,0-0.4-0.1-0.6-0.1c-0.1,0-0.2,0-0.4-0.1v-2.5H643.8z"/>
		<path class="st3" d="M641.3,351.5v3.5l0,0c-1.6-0.3-2.9-0.8-3.6-1.3v-2.2H641.3z"/>
		<path class="st4" d="M663.4,350.4c0,1.8-5.9,3.2-13.3,3.2c-1.7,0-3.3-0.1-4.8-0.2c-0.8-0.1-1.6-0.2-2.3-0.3
			c-0.6-0.1-1.3-0.2-1.8-0.3c-1.6-0.4-2.9-0.8-3.6-1.3c-0.5-0.3-0.8-0.7-0.8-1.1c0-1.8,5.9-3.2,13.3-3.2c1.4,0,2.7,0,4,0.1
			c2.1,0.2,4,0.5,5.5,0.8c0.5,0.1,1,0.3,1.4,0.4c0.5,0.2,0.9,0.3,1.2,0.5c0,0,0.1,0,0.1,0.1C663.1,349.5,663.4,349.9,663.4,350.4z"
			/>
		<ellipse class="st3" cx="650.1" cy="350.4" rx="11.2" ry="2.7"/>
		<path class="st5" d="M654.7,348.7h-9.2c-0.8,0-1.4,0.2-1.4,0.3v2.3c0,0.2,0.6,0.3,1.4,0.3h6.9l3.7,0.4v-0.7V351v-0.1V349
			C656.2,348.8,655.5,348.7,654.7,348.7z"/>
		<g class="st6">
			<g class="st7">
				<path class="st8" d="M650.2,351.2c-1.4,0-2.8-0.1-4.3-0.3c-0.1,0-0.1-0.1-0.1-0.1c0.1,0,0.2,0,0.3,0c2.7,0.4,5.3,0.4,8,0
					c0.1,0,0.3,0,0.3,0c0.1,0,0,0.1-0.1,0.1C653,351.1,651.6,351.2,650.2,351.2z"/>
			</g>
		</g>
		<path class="st9" d="M662.4,349.2l-19.7,3.3l-1.4,0.4c-1.6-0.4-2.9-0.8-3.6-1.3l1.6-0.4l13.2-3.3l1.6-0.4c2.1,0.2,4,0.5,5.5,0.8
			c0.5,0.1,1,0.3,1.4,0.4c0.5,0.2,0.9,0.3,1.2,0.5C662.4,349.1,662.4,349.1,662.4,349.2z"/>
	</g>
	<g>
		<path class="st1" d="M681.9,363.4v2.3c0,0.6-0.7,1.2-1.9,1.7c-0.4,0.2-0.8,0.3-1.3,0.4c-0.3,0.1-0.6,0.1-0.9,0.2
			c-1,0.2-2,0.4-3.2,0.5c-1.8,0.2-3.8,0.4-6,0.4c-1.7,0-3.3-0.1-4.8-0.2l0,0c-0.6-0.1-1.1-0.1-1.6-0.2c-0.2,0-0.4-0.1-0.6-0.1
			c-0.1,0-0.2,0-0.4-0.1c-0.5-0.1-1-0.2-1.4-0.3l0,0c-1.6-0.4-2.9-0.8-3.6-1.3c-0.5-0.3-0.8-0.7-0.8-1.1v-2.3h3.8
			c2.4-0.6,5.8-1,9.5-1c1.4,0,2.7,0.1,4,0.2c2.1,0.2,4,0.4,5.5,0.8h3.7V363.4z"/>
		<path class="st10" d="M677.9,364.2v3.7c-1,0.2-2,0.4-3.2,0.5v-4.3L677.9,364.2L677.9,364.2z"/>
		<path class="st10" d="M680,364v3.3c-0.4,0.2-0.8,0.3-1.3,0.4V364H680z"/>
		<path class="st3" d="M662.3,365.8v2.7c-0.2,0-0.4-0.1-0.6-0.1c-0.1,0-0.2,0-0.4-0.1v-2.5H662.3z"/>
		<path class="st3" d="M659.8,364.5v3.5l0,0c-1.6-0.3-2.9-0.8-3.6-1.3v-2.2H659.8z"/>
		<path class="st4" d="M681.9,363.4c0,1.8-5.9,3.2-13.3,3.2c-1.7,0-3.3-0.1-4.8-0.2c-0.8-0.1-1.6-0.2-2.3-0.3
			c-0.6-0.1-1.3-0.2-1.8-0.3c-1.6-0.4-2.9-0.8-3.6-1.3c-0.5-0.3-0.8-0.7-0.8-1.1c0-1.8,5.9-3.2,13.3-3.2c1.4,0,2.7,0,4,0.1
			c2.1,0.2,4,0.5,5.5,0.8c0.5,0.1,1,0.3,1.4,0.4c0.5,0.2,0.9,0.3,1.2,0.5c0,0,0.1,0,0.1,0.1C681.6,362.5,681.9,363,681.9,363.4z"/>
		<ellipse class="st3" cx="668.7" cy="363.4" rx="11.2" ry="2.7"/>
		<path class="st5" d="M673.2,361.7H664c-0.8,0-1.4,0.2-1.4,0.3v2.3c0,0.2,0.6,0.3,1.4,0.3h6.9l3.7,0.4v-0.7V364v-0.1V362
			C674.7,361.8,674,361.7,673.2,361.7z"/>
		<g class="st6">
			<g class="st7">
				<path class="st8" d="M668.7,364.2c-1.4,0-2.8-0.1-4.3-0.3c-0.1,0-0.1-0.1-0.1-0.1c0.1,0,0.2,0,0.3,0c2.7,0.4,5.3,0.4,8,0
					c0.1,0,0.3,0,0.3,0c0.1,0,0,0.1-0.1,0.1C671.5,364.1,670.1,364.2,668.7,364.2z"/>
			</g>
		</g>
		<path class="st9" d="M680.9,362.2l-19.7,3.3l-1.4,0.4c-1.6-0.4-2.9-0.8-3.6-1.3l1.6-0.4l13.2-3.3l1.6-0.4c2.1,0.2,4,0.5,5.5,0.8
			c0.5,0.1,1,0.3,1.4,0.4c0.5,0.2,0.9,0.3,1.2,0.5C680.9,362.1,680.9,362.1,680.9,362.2z"/>
	</g>
	<g>
		<path class="st1" d="M572.9,362.1v2.3c0,0.6-0.7,1.2-1.9,1.7c-0.4,0.2-0.8,0.3-1.3,0.4c-0.3,0.1-0.6,0.1-0.9,0.2
			c-1,0.2-2,0.4-3.2,0.5c-1.8,0.2-3.8,0.4-6,0.4c-1.7,0-3.3-0.1-4.8-0.2l0,0c-0.6-0.1-1.1-0.1-1.6-0.2c-0.2,0-0.4-0.1-0.6-0.1
			c-0.1,0-0.2,0-0.4-0.1c-0.5-0.1-1-0.2-1.4-0.3l0,0c-1.6-0.4-2.9-0.8-3.6-1.3c-0.5-0.3-0.8-0.7-0.8-1.1V362h3.8
			c2.4-0.6,5.8-1,9.5-1c1.4,0,2.7,0.1,4,0.2c2.1,0.2,4,0.4,5.5,0.8h3.7V362.1z"/>
		<path class="st10" d="M568.8,362.9v3.7c-1,0.2-2,0.4-3.2,0.5v-4.3L568.8,362.9L568.8,362.9z"/>
		<path class="st10" d="M571,362.7v3.3c-0.4,0.2-0.8,0.3-1.3,0.4v-3.7L571,362.7L571,362.7z"/>
		<path class="st3" d="M553.2,364.5v2.7c-0.2,0-0.4-0.1-0.6-0.1c-0.1,0-0.2,0-0.4-0.1v-2.5H553.2z"/>
		<path class="st3" d="M550.8,363.2v3.5l0,0c-1.6-0.3-2.9-0.8-3.6-1.3v-2.2H550.8z"/>
		<path class="st4" d="M572.9,362.1c0,1.8-5.9,3.2-13.3,3.2c-1.7,0-3.3-0.1-4.8-0.2c-0.8-0.1-1.6-0.2-2.3-0.3
			c-0.6-0.1-1.3-0.2-1.8-0.3c-1.6-0.4-2.9-0.8-3.6-1.3c-0.5-0.3-0.8-0.7-0.8-1.1c0-1.8,5.9-3.2,13.3-3.2c1.4,0,2.7,0,4,0.1
			c2.1,0.2,4,0.5,5.5,0.8c0.5,0.1,1,0.3,1.4,0.4c0.5,0.2,0.9,0.3,1.2,0.5c0,0,0.1,0,0.1,0.1C572.5,361.3,572.9,361.7,572.9,362.1z"
			/>
		<ellipse class="st3" cx="559.6" cy="362.1" rx="11.2" ry="2.7"/>
		<path class="st5" d="M564.2,360.4H555c-0.8,0-1.4,0.2-1.4,0.3v2.3c0,0.2,0.6,0.3,1.4,0.3h6.9l3.7,0.4V363v-0.3v-0.1v-1.9
			C565.6,360.6,565,360.4,564.2,360.4z"/>
		<g class="st6">
			<g class="st7">
				<path class="st8" d="M559.7,362.9c-1.4,0-2.8-0.1-4.3-0.3c-0.1,0-0.1-0.1-0.1-0.1c0.1,0,0.2,0,0.3,0c2.7,0.4,5.3,0.4,8,0
					c0.1,0,0.3,0,0.3,0c0.1,0,0,0.1-0.1,0.1C562.5,362.8,561.1,362.9,559.7,362.9z"/>
			</g>
		</g>
		<path class="st9" d="M571.9,360.9l-19.7,3.3l-1.4,0.4c-1.6-0.4-2.9-0.8-3.6-1.3l1.6-0.4l13.2-3.3l1.6-0.4c2.1,0.2,4,0.5,5.5,0.8
			c0.5,0.1,1,0.3,1.4,0.4c0.5,0.2,0.9,0.3,1.2,0.5C571.8,360.8,571.9,360.9,571.9,360.9z"/>
	</g>
	<g>
		<path class="st1" d="M613.6,340.7l-0.3,2.2c-0.1,0.6-0.9,1.1-2.2,1.4c-0.4,0.1-0.8,0.2-1.3,0.2c-0.3,0-0.6,0.1-0.9,0.1
			c-1,0.1-2.1,0.1-3.3,0.1c-1.8,0-3.8-0.2-6-0.5c-1.7-0.3-3.2-0.6-4.7-0.9l0,0c-0.5-0.1-1.1-0.3-1.6-0.4c-0.2-0.1-0.4-0.1-0.6-0.2
			c-0.1,0-0.2-0.1-0.3-0.1c-0.5-0.1-0.9-0.3-1.4-0.5l0,0c-1.5-0.6-2.7-1.2-3.4-1.8c-0.5-0.4-0.7-0.8-0.6-1.2l0.3-2.2l3.8,0.6
			c2.5-0.2,5.8-0.1,9.5,0.5c1.4,0.2,2.7,0.5,3.9,0.7c2.1,0.5,3.9,1,5.3,1.6L613.6,340.7z"/>
		<path class="st10" d="M609.5,340.9l-0.6,3.7c-1,0.1-2.1,0.1-3.3,0.1l0.6-4.2L609.5,340.9z"/>
		<path class="st10" d="M611.6,341l-0.5,3.3c-0.4,0.1-0.8,0.2-1.3,0.2l0.6-3.7L611.6,341z"/>
		<path class="st3" d="M593.8,340.1l-0.4,2.6c-0.2-0.1-0.4-0.1-0.6-0.2c-0.1,0-0.2-0.1-0.3-0.1l0.4-2.5L593.8,340.1z"/>
		<path class="st3" d="M591.6,338.5l-0.5,3.5l0,0c-1.5-0.6-2.7-1.2-3.4-1.8l0.3-2.2L591.6,338.5z"/>
		<path class="st4" d="M613.6,340.7c-0.3,1.8-6.4,2.3-13.6,1.2c-1.7-0.3-3.2-0.6-4.7-0.9c-0.8-0.2-1.5-0.4-2.2-0.6
			c-0.6-0.2-1.2-0.4-1.7-0.6c-1.5-0.6-2.7-1.2-3.4-1.8c-0.5-0.4-0.7-0.8-0.6-1.2c0.3-1.8,6.4-2.3,13.6-1.2c1.4,0.2,2.7,0.5,3.9,0.7
			c2.1,0.5,3.9,1,5.3,1.6c0.5,0.2,1,0.4,1.4,0.6s0.8,0.5,1.1,0.7l0.1,0.1C613.4,339.8,613.7,340.2,613.6,340.7z"/>
		
			<ellipse transform="matrix(0.1491 -0.9888 0.9888 0.1491 176.0357 882.0544)" class="st3" cx="600.5" cy="338.7" rx="2.7" ry="11.2"/>
		<path class="st5" d="M605.3,337.7l-9-1.4c-0.8-0.1-1.4-0.1-1.5,0.1l-0.3,2.3c0,0.2,0.6,0.4,1.4,0.6l6.8,1l3.6,0.9l0.1-0.7v-0.3
			v-0.1l0.3-1.9C606.7,338.1,606.1,337.8,605.3,337.7z"/>
		<g class="st6">
			<g class="st7">
				<path class="st8" d="M600.4,339.5c-1.4-0.2-2.8-0.5-4.2-1c-0.1,0-0.1-0.1-0.1-0.1c0.1,0,0.2,0,0.3,0c2.6,0.8,5.2,1.2,7.9,1.2
					c0.1,0,0.3,0,0.3,0.1c0.1,0,0,0.1-0.1,0.1C603.3,339.8,601.8,339.7,600.4,339.5z"/>
			</g>
		</g>
		<path class="st9" d="M612.8,339.3l-20,0.3l-1.5,0.1c-1.5-0.6-2.7-1.2-3.4-1.8l1.7-0.2l13.5-1.3l1.7-0.2c2.1,0.5,3.9,1,5.3,1.6
			c0.5,0.2,1,0.4,1.4,0.6C612,338.8,612.4,339,612.8,339.3L612.8,339.3z"/>
	</g>
</g>
<g>
	<path class="st0" d="M339,371.8l2.6,5.7c-2.7-0.1-4.9-0.1-6.3-0.2c-8.3-0.1-12.4-1.1-12.4-2.8c0-1.7,1.3-2.9,13.2-2.6
		C336.8,371.9,337.8,371.9,339,371.8z"/>
	<path class="st0" d="M347,377.6l-4.1-6.2c11.9-1.2,33.5-3.7,36.5,1.5C382,377.8,361.4,377.9,347,377.6z"/>
	<path class="st0" d="M418.3,361.6l-4.6-4.8c-2.6,0.1-4.8,0.1-6.1,0.1c-8.2,0-11,0.9-8.9,2.4c2.1,1.4,4.9,2.5,16.5,2.2
		C415.9,361.4,416.9,361.5,418.3,361.6z"/>
	<path class="st0" d="M416.9,356.5l6,5.1c13.4,1,35.1,2.6,31.4-1.8C450.8,355.6,430.9,356.2,416.9,356.5z"/>
	<path class="st0" d="M482.6,371.8l2.6,5.7c-2.7-0.1-4.9-0.1-6.3-0.2c-8.3-0.1-12.4-1.1-12.4-2.8c0-1.7,1.3-2.9,13.2-2.6
		C480.4,371.9,481.4,371.9,482.6,371.8z"/>
	<path class="st0" d="M490.6,377.6l-4.1-6.2c11.9-1.2,33.5-3.7,36.5,1.5C525.6,377.8,505,377.9,490.6,377.6z"/>
</g>
<path class="st11" d="M99.3,173.7c0,0-11.3,0.8-16.3-0.1c-4-1.6-18-7.3-18-7.3c-7.1,2.1-15.2,1.7-18.1,1.4c-0.6-0.1-1.3,0.4-1.5,1
	c-0.5,1.1,0.1,2.4,1.1,2.7l4.5,1l-7.6,0.8c-1.2,0.1-2.3,0.8-3.1,1.9l-0.4,0.6h-2.1c-0.9,0-1.8,0.8-1.9,1.8c-0.2,1.3,0.6,2.6,1.7,2.8
	l1.2,0.1v0.2c0,2.1,1.5,3.8,3.3,3.8h16.6c0,0,8.7,1.7,15.8,2.7c-3.4,1.4-8.1,4.7-9.7,7.1c-0.7,1.1-0.7,2.6,0.1,3.7
	c0.8,1.1,2.3,1.3,3.3,0.5c1.2-1,3-2.1,5.1-2.3c4-0.5,10.2-8,10.2-8l18.2-0.6L99.3,173.7z"/>
<g>
	<path class="st12" d="M249,154.5l-7.3,42.6c0,0,10.6,0,20.7-8.1C255.5,165.8,249,154.5,249,154.5z"/>
	<path class="st12" d="M290.5,313.3L238,297.5l8.1-52.7l15.2,6.3l5.5-37l-18.2,0.6c-0.1-2-0.3-4.1-0.5-6.3c-16.3,0-79,0-109.3,52.5
		c0,0,29.4-11.5,74.7-5.2l-4.1,46.4c-0.7,7.4,3.7,14.4,10.7,17l53.9,20.2c0,0,8.3-0.5,13.4-9.8C292.5,320.1,290.5,313.3,290.5,313.3
		z"/>
</g>
<path class="st13" d="M155.9,245c0,0,34.3-2.2,65.3-1.2c11.8,0.4,22.1-8.1,24-19.8c2.7-16.4,3-19.5,3-19.5S192.4,205.7,155.9,245z"
	/>
<path class="st14" d="M238,224.2c0,0-36.3,16.1-44,51c-7.2,2.6-13.7,4.7-13.7,4.7l-7.1-11.6c0,0,16-32.1,60.8-47
	C236.3,219.4,238,224.2,238,224.2z"/>
<g>
	<path class="st15" d="M252.2,212.9L252.2,212.9c1,4.5-1.8,9.1-6.4,10.1l-4.5,1c-4.5,1-9.1-1.8-10.1-6.4l0,0
		c-1-4.5,1.8-9.1,6.4-10.1l4.5-1C246.6,205.5,251.2,208.4,252.2,212.9z"/>
	<path class="st11" d="M277.4,172c-20,5.3-34,21-35.6,38c-0.3,3.9-0.1,7.9,1,11.8c0.4,1.5,0.9,3,1.5,4.4c0.5,1.3,1.2,2.6,1.9,3.8
		c1.1,1.9,2.4,3.7,3.8,5.4c1.1,1.3,2.2,2.5,3.5,3.6c1.6,1.4,3.4,2.8,5.2,4c10.5,6.6,24.5,8.9,38.7,5.2c24.6-6.5,40.1-28.8,34.6-49.9
		C326.5,177.3,302,165.5,277.4,172z"/>
	<path class="st16" d="M314.2,214c-9.7-14.3-35.5-8.4-35.5-8.4l-0.5-3c0,0,7.6-6.5-1-10.5c-13.2-4.3-13.8-14.3-13.8-14.3
		c19.2-15.3,35.8-7,35.8-7S325.3,184.4,314.2,214z"/>
	<path class="st17" d="M273.9,203c0,0,10.6-0.1,14.4-5c-1-5.3-4.9-8.7-11.2-5.8C271.1,195,273.9,203,273.9,203z"/>
	
		<linearGradient id="SVGID_1_" gradientUnits="userSpaceOnUse" x1="-1677.2976" y1="1700.6846" x2="-1665.4023" y2="1700.6846" gradientTransform="matrix(-0.2209 -0.9753 0.9753 -0.2209 -1745.2344 -1016.1196)">
		<stop  offset="0" style="stop-color:#F49784"/>
		<stop  offset="1" style="stop-color:#EFC8AB"/>
	</linearGradient>
	<path class="st18" d="M276.3,234c0,0,7.1-3.7,11.8,0.7l0.1,3.7c0.1,3.2-2.5,5.8-5.7,5.9l0,0c-3.1,0.1-5.7-2.3-5.9-5.4L276.3,234z"
		/>
	
		<ellipse transform="matrix(0.9753 -0.2209 0.2209 0.9753 -45.8103 70.5658)" class="st19" cx="292.6" cy="240.1" rx="3.8" ry="3.1"/>
	
		<ellipse transform="matrix(0.9753 -0.2209 0.2209 0.9753 -42.0222 69.8298)" class="st19" cx="291.2" cy="222.8" rx="3.8" ry="3.1"/>
	<path class="st16" d="M302.7,216.5v3.7c0,1.5-1.2,2.7-2.7,2.7l0,0c-1.5,0-2.7-1.2-2.7-2.7v-3.7c0-1.5,1.2-2.7,2.7-2.7l0,0
		C301.5,213.8,302.7,215,302.7,216.5z"/>
	<path class="st16" d="M304.6,238.2v3c0,1.5-1.2,2.7-2.7,2.7l0,0c-1.5,0-2.7-1.2-2.7-2.7v-3c0-1.5,1.2-2.7,2.7-2.7l0,0
		C303.4,235.5,304.6,236.7,304.6,238.2z"/>
	<g>
		<path class="st14" d="M263.7,242.7c-0.6,0-1.1-0.3-1.4-0.9c-0.2-0.4-4.2-10.4,2.4-17.4c0.6-0.6,1.5-0.6,2.1-0.1
			c0.6,0.6,0.6,1.5,0.1,2.1c-5.3,5.6-1.8,14.1-1.8,14.2c0.3,0.8,0,1.6-0.8,2C264.1,242.7,263.9,242.7,263.7,242.7z"/>
	</g>
</g>
<path class="st20" d="M207.1,213.8c0,0,0,0-0.1-0.1L207.1,213.8z"/>
<g>
	<polygon class="st21" points="15.3,329.6 37.7,325.6 40.5,341.3 24.8,349.8 15.3,350.6 11.3,339.3 	"/>
	<path class="st21" d="M125.2,362.6l4.8-11l22.7,6.8L151,363l-2.3,5.8C148.8,368.7,135.3,373,125.2,362.6z"/>
	<path class="st22" d="M105.7,266l8.9,60c0.5,3.1-1.5,6-4.5,6.7l-79.6,19c0,0-12.3-4.5-11.8-33.5c34.8-5,63.3-9.8,63.3-9.8
		l-10.2-53.1C71.7,255.3,92.2,252.3,105.7,266z"/>
	<path class="st22" d="M130,228.1c0,0,56.7,60.3,57.7,64.3s-26,69.7-26,69.7s-31.3-6.7-36-10.3c8.7-13.3,27.7-50.3,27.7-50.3
		s-48-44-53.7-49.3C94,246.8,130,228.1,130,228.1z"/>
	<path class="st23" d="M124.8,360.8c0,0-5.2,9.9-4.7,16.9c7.8,0,68.5,0,68.5,0s-0.7-9.4-6-10.4s-31.7-4.3-31.7-4.3
		S138.7,369.6,124.8,360.8z"/>
	<path class="st23" d="M35.3,377.7H9l-9-44.9c0,0,6.8-2.8,15.3-3.2c-3.2,10.3,9.5,20.2,9.5,20.2l1.8,15c0,0,2.3,0.2,2.3,2.5
		c8,1.8,11,2.7,11.5,10.4C35.3,377.7,35.3,377.7,35.3,377.7z"/>
</g>
<g>
	<path class="st12" d="M331.2,212.4c1.5,25.9-16.3,54.6-23.6,48c-0.1-0.1-0.2-0.2-0.3-0.3c-7.7-8.5-1.8-63.6-1.8-63.6
		s8.1,2.1,24.8,8.9C330.8,207.6,331.1,210,331.2,212.4z"/>
	<path class="st12" d="M320.7,183.5l-4.6,3.9l-10.6,9c0,0-22.7-28.2-21.1-34.8c0.3-1.1,1.2-1.6,3-1.3
		C300,162.7,320.7,183.5,320.7,183.5z"/>
	<path class="st24" d="M331.2,212.4c1.5,25.9-16.3,54.6-23.6,48c17.9-15.5,16.5-45.4,16.5-45.4C326.7,213.7,329,212.8,331.2,212.4z"
		/>
	<path class="st24" d="M320.7,183.5l-4.6,3.9c-14.3-20.8-29.5-25.2-31.8-25.8c0.3-1.1,1.2-1.6,3-1.3
		C300,162.7,320.7,183.5,320.7,183.5z"/>
	<path class="st12" d="M331.3,217.9c-8.2,3.5-19.8-3.9-25.8-21.5s4.5-22.6,4.5-22.6s32.9-9,41.2-1.6c0.2,0.2,0.4,0.4,0.6,0.6
		C358.4,181.3,339.2,214.5,331.3,217.9z"/>
	<path class="st12" d="M350,171.8c0,0-5.2-5.8-2.4-7.1C350.4,163.3,350,171.8,350,171.8z"/>
	<path class="st12" d="M350,171.8c0,0,7.7,4.3,7.9,0.4C358,168.2,353.3,169,350,171.8z"/>
	<path class="st24" d="M336.5,203c-5.9,5.9-14.6,9.1-22.7,8.5c5.7,6.4,12.3,8.6,17.5,6.4c6.7-2.8,21.2-26.6,21.8-39.2
		C348.9,187.7,343.5,196,336.5,203z"/>
</g>
<path class="st25" d="M273.2,337.6c-2-1.5,0.6-9.4,4.3-14.8c3.4-5,9.2-10,11.2-8.6s0.1,9-3.3,14.4
	C281.7,334.4,275.2,339.1,273.2,337.6z"/>
<g>
	<path class="st15" d="M307.5,339.4c0.5-1.2,9.3-11-3.6-20.2c-3.3,14.5-5.9,17.5-5.9,17.5l-1.6,11.9
		C296.4,348.6,303.3,347.9,307.5,339.4z"/>
	
		<ellipse transform="matrix(0.8857 -0.4643 0.4643 0.8857 -125.4499 190.834)" class="st26" cx="324.8" cy="350.2" rx="25.3" ry="12.6"/>
	<path class="st27" d="M346.6,344.4l-24.6-5.7l-8.4,4.4c0,0,11.4-2.7,24.6,10.9C342.1,351.3,346.6,344.4,346.6,344.4z"/>
	<path class="st27" d="M325.1,337.4l17,2.2c0,0-11-3.1-12.5-3.8C328.3,336.2,325.1,337.4,325.1,337.4z"/>
	<g>
		<path class="st28" d="M299.9,362.4l1.7,3.3c3.4,6.6,17.1,6.2,30.5-0.8s21.5-18.1,18.1-24.6l-1.7-3.3l-1,0.5
			c-1-0.6-2.1-1.1-3.4-1.3c0.5,0.5,1,1,1.3,1.6c2.9,5.5-4.4,15-16.1,21.1c-11.8,6.2-23.7,6.7-26.6,1.3c-0.4-0.8-0.6-1.7-0.6-2.7
			c-0.7,1.6-1.2,3.1-1.2,4.6L299.9,362.4z"/>
		<path class="st28" d="M286.7,337.2c-1.2-0.5-1.8-1.9-1.4-3.2c0.5-1.3,1.9-1.9,3.2-1.5l24.8,8.9l-5,4.9L286.7,337.2z"/>
	</g>
	<path class="st29" d="M299.9,362.3c3.4,6.6,17.1,6.2,30.5-0.8s21.5-18.1,18.1-24.6s-17.1-6.2-30.5,0.8c-2,1-3.9,2.2-5.6,3.4
		c-2.1,1.4-4,3-5.7,4.6C300.4,351.5,297.5,357.9,299.9,362.3z M302.7,360c-0.4-0.8-0.6-1.7-0.6-2.7c0-5.5,6.8-13.2,16.8-18.4
		c10.5-5.5,21.1-6.5,25.3-2.8c0.5,0.5,1,1,1.3,1.6c2.9,5.5-4.4,15-16.1,21.1C317.5,364.9,305.6,365.5,302.7,360z"/>
	<path class="st15" d="M306.6,335.6c-0.6,0.8-2,1.5-3.6,2.1l-5.4-1.9l-8.2-3l-0.9-0.3c-1.3-0.5-2.7,0.2-3.2,1.5s0.1,2.7,1.4,3.2
		l3.7,1.6c0.7,0.2,1.3,0.4,1.3,0.4l-10,0.2c0,0-4.7-3.7-2.4-11.4c2.8-9.6,18.2-16.1,25.1-8.3C311.3,327.5,308.8,332.4,306.6,335.6z"
		/>
	<path class="st28" d="M302,357.2c2.6-5.6,9-11.7,17.6-16.3c9.1-4.8,18.4-6.5,24.5-5c-4.2-3.7-14.8-2.7-25.3,2.8
		C308.8,344.1,302.1,351.7,302,357.2z"/>
	<path class="st15" d="M296.8,316.2l-11-1.6c0,0-5.8,2.7-10.6,12.2c4.5,1.5,7.9,2.3,7.9,2.3L296.8,316.2z"/>
	<path class="st30" d="M280.1,332.8L280.1,332.8c-2.6,0.7-4.1,3.5-3.4,6.1l0.6,2.3c0.7,2.6,3.5,4.1,6.1,3.4l0,0
		c2.6-0.7,4.1-3.5,3.4-6.1l-0.6-2.3C285.5,333.6,282.7,332.1,280.1,332.8z"/>
	<path class="st31" d="M286.6,334.5L286.6,334.5c-2.6,0.7-4.1,3.5-3.4,6.1l0.6,2.3c0.7,2.6,3.5,4.1,6.1,3.4l0,0
		c2.6-0.7,4.1-3.5,3.4-6.1l-0.6-2.3C292,335.3,289.2,333.7,286.6,334.5z"/>
	<path class="st15" d="M293.1,336.9L293.1,336.9c-2.6,0.7-4.1,3.5-3.4,6.1l0.6,2.3c0.7,2.6,3.5,4.1,6.1,3.4l0,0
		c2.6-0.7,4.1-3.5,3.4-6.1l-0.6-2.3C298.5,337.7,295.7,336.1,293.1,336.9z"/>
	<path class="st15" d="M304.3,319.5c6.9,7.8,4.5,12.7,2.2,15.9c-1.6,2.2-8.6,3.5-12.7,4.1c-1.8,0.2-3.5-0.6-4.5-2.1l0,0
		c-1.4-2.3-0.5-5.3,1.9-6.5l8.6-4L304.3,319.5z"/>
	<g>
		<path class="st32" d="M299.8,326.9c-1.1,1-2.3,1.8-3.5,2.5s-2.5,1.4-3.8,2c-0.3,0.1-0.7,0.3-0.9,0.4c-0.3,0.1-0.5,0.3-0.7,0.4
			c-0.5,0.3-0.8,0.8-1.1,1.3c-0.6,1-0.8,2.4-0.4,3.8c-1.1-1-1.6-2.8-1.1-4.4c0.2-0.8,0.7-1.5,1.3-2.1c0.3-0.3,0.7-0.5,1.1-0.8
			c0.4-0.2,0.7-0.3,1-0.5c1.3-0.6,2.6-1.1,4-1.6C297,327.5,298.3,327.1,299.8,326.9z"/>
	</g>
</g>
<g>
	<path class="st20" d="M261.3,206.1c0,0-14,5-27,18.3c-72,4.7-100.5,45.6-139.5,92.6c-69.2-24-48.3-77.3-48.3-77.3
		c16.2-10.8,31.1-19.6,45-26.9l0,0c2.7-1.4,5.4-2.8,8-4.1c83.2-41.1,122.5-22.3,122.5-22.3s2.7-2,27-32
		C249.7,181.1,261.3,206.1,261.3,206.1z"/>
	<path class="st20" d="M218.3,188.5L207,213.8c0,0,0,0-0.1-0.1l-57.4-24.2c0,0-45.2,7.3-63.2,7.5c-0.2-1-0.4-1.9-0.6-2.8
		c-2.6-14.1,1.8-22.5,1.8-22.5l68.3-8L218.3,188.5z"/>
	<path class="st33" d="M149,186.3c11.1,5.5,55.2,26.2,58,27.5l-57.4-24.2c0,0-45.2,7.3-63.2,7.5c-0.2-1-0.4-1.9-0.6-2.8
		C85.8,194.3,140.2,187.3,149,186.3z"/>
	<path class="st33" d="M127.6,270.3l-25.8-17.8l-23,25.8c0,0,8.3,16.7,24.4,16.7C116.1,278.6,127.6,270.3,127.6,270.3z"/>
	<path class="st33" d="M101.7,233.5c-1,6.6-7,7.7-12.5,7.3c-3.9-8.2-0.5-22.7,2.4-28l0,0c2.7-1.4,5.4-2.8,8-4.1
		C98.8,211.3,95.5,223.1,101.7,233.5z"/>
</g>
</svg>
