<svg enable-background="new 0 0 681.9 377.4" viewBox="0 0 681.9 377.4" xmlns="http://www.w3.org/2000/svg" xmlns:xlink="http://www.w3.org/1999/xlink"><linearGradient id="a" gradientTransform="matrix(.9929 .1191 .1191 -.9929 118.721 418.5891)" gradientUnits="userSpaceOnUse" x1="186.1616" x2="198.0492" y1="364.8527" y2="364.8527"><stop offset="0" stop-color="#f49784"/><stop offset="1" stop-color="#efc8ab"/></linearGradient><radialGradient id="b" cx="354.8" cy="175" gradientTransform="matrix(1 0 0 -1 0 380)" gradientUnits="userSpaceOnUse" r="50.4"><stop offset="0" stop-color="#f4ff65"/><stop offset="1" stop-color="#efc8ab" stop-opacity="0"/></radialGradient><path d="m398.7 267.9-.6 19.8-2.4 89.7h-84.7l-2.6-100.9-.2-8.6z" fill="#3c6baf"/><path d="m350.7 377.4-1.3-67.4s-6.4-1.9-9.8-4.1c-2.9-1.9 0-6.3 12.9-1.5s21.8 10.1 21.8 10.1l-20.6-3.3.9 66.1z" fill="#33567f"/><path d="m398.7 267.9-.7 19.8c-31.1-7.4-73.6-10.4-89.6-11.3l-.3-8.6h90.6z" fill="#33567f"/><path d="m405.2 118.1h-101.1l-7.3 4.8v18.8l7.3 7.3v119.7c14.5 8.3 50.6 8.8 50.6 8.8s36.1-.5 50.6-8.8c0-14 0-15.2 0-119.7l6.7-7.3v-18.8z" fill="#e74b3c"/><path d="m405.2 118.1c20.5 1.6 60.5 16.3 60.5 57.2 0 21.5-11.3 38.3-31.7 47.4-13.7 6-26.9 6.5-28.4 6.6-.1 0-.3 0-.4 0-8.1 0-13.8-6.5-14-14.6-.2-8.3 5.3-15.2 13.6-15.4 0 0 9.2-.4 17.7-4.3 9.1-4.2 13.2-10.3 13.2-19.6 0-6-1.4-14.7-13.8-21.1-8.6-4.4-16.6-5.2-16.7-5.2" fill="#e74b3c"/><path d="m405.2 118.1c6.6.5 13 1.9 19.3 4 6.2 2.1 12.2 5 17.8 8.7 5.5 3.7 10.4 8.2 14.4 13.6 2 2.7 3.7 5.6 5.1 8.6s2.5 6.2 3.3 9.4c1.6 6.5 1.9 13.2 1.1 19.9-.1.8-.2 1.7-.3 2.5l-.4 2.5-.6 2.4-.3 1.2-.4 1.2-.8 2.4-1 2.3c-.2.4-.3.8-.5 1.2l-.6 1.1c-.4.7-.7 1.5-1.2 2.2-3.3 5.8-7.8 11-13.2 15-5.3 4.1-11.3 7.2-17.6 9.4s-12.8 3.6-19.4 4.3c-1.7.2-3.3.3-5 .3s-3.5-.4-5.1-1c-3.3-1.3-6-3.8-7.6-6.9s-2.2-6.7-1.8-10.1c.2-1.7.6-3.4 1.3-5s1.7-3.1 2.9-4.3c1.2-1.3 2.6-2.3 4.2-3.1 1.6-.7 3.3-1.2 5-1.3 3.3-.2 6.5-.6 9.6-1.3 3.2-.7 6.3-1.7 9.2-3.1s5.7-3.1 7.8-5.5c2.2-2.3 3.5-5.3 4.2-8.4.6-3.1.6-6.4.1-9.6-.6-3.2-1.8-6.2-3.8-8.7-2-2.6-4.5-4.6-7.3-6.3s-5.8-3-8.9-4.1-6.3-1.9-9.5-2.3c6.5.7 12.9 2.7 18.7 6 2.9 1.6 5.6 3.7 7.7 6.3s3.6 5.7 4.2 9 .6 6.7 0 10-2 6.5-4.3 9.1-5.1 4.4-8.1 5.9-6.2 2.5-9.4 3.3-6.6 1.3-9.8 1.5c-1.6.1-3.1.5-4.5 1.2s-2.6 1.6-3.7 2.7-1.9 2.4-2.5 3.8-1 2.9-1.2 4.5c-.4 3.1.2 6.3 1.6 9 1.4 2.8 3.8 5 6.6 6 1.4.5 2.9.9 4.5.9 1.5 0 3.2-.1 4.8-.3 6.5-.7 12.8-2.1 18.9-4.3 6.1-2.1 11.9-5.1 17.1-9 5.2-3.8 9.5-8.8 12.8-14.3 6.4-11.2 7.7-25 5-37.6-.7-3.2-1.7-6.3-3.1-9.2-1.3-2.9-2.9-5.8-4.8-8.4-3.8-5.3-8.6-9.8-13.9-13.5-5.3-3.8-11.2-6.7-17.4-9-6.2-2.6-12.6-4.2-19.2-4.8z" fill="#a82a24"/><ellipse cx="402.6" cy="214.4" fill="#603432" rx="8.7" ry="11.9" transform="matrix(.9971 -.07636847 .07636847 .9971 -15.1978 31.3726)"/><path d="m304.1 118.1c-20.5 1.6-60.5 16.3-60.5 57.2 0 21.5 11.3 38.3 31.7 47.4 13.7 6 26.9 6.5 28.4 6.6h.4c8.1 0 13.8-6.5 14-14.6.2-8.3-5.3-15.2-13.6-15.4 0 0-9.2-.4-17.7-4.3-9.1-4.2-13.2-10.3-13.2-19.6 0-6 1.4-14.7 13.8-21.1 8.6-4.4 16.6-5.2 16.7-5.2" fill="#e74b3c"/><path d="m304.1 118.1c-6.5.7-12.9 2.3-19.1 4.5-6.1 2.3-12 5.2-17.4 9-5.4 3.7-10.2 8.2-13.9 13.5-1.9 2.6-3.5 5.5-4.8 8.4-1.4 2.9-2.3 6-3.1 9.2-2.7 12.6-1.4 26.3 5 37.6 3.2 5.6 7.6 10.5 12.8 14.3 5.1 3.9 11 6.9 17.1 9 6.1 2.2 12.5 3.6 18.9 4.3 1.6.2 3.3.3 4.8.3s3.1-.3 4.5-.9c2.8-1.1 5.2-3.3 6.6-6s2-6 1.6-9c-.2-1.5-.6-3.1-1.2-4.5s-1.5-2.7-2.5-3.8c-1.1-1.1-2.3-2-3.7-2.7s-2.9-1-4.5-1.2c-3.3-.2-6.6-.7-9.8-1.5s-6.4-1.9-9.4-3.3c-3-1.5-5.9-3.3-8.1-5.9-2.3-2.5-3.7-5.8-4.3-9.1-.5-3.3-.6-6.7 0-10 .7-3.3 2.1-6.5 4.2-9 2.1-2.6 4.8-4.7 7.7-6.3 5.8-3.2 12.2-5.3 18.7-6-3.3.4-6.4 1.3-9.5 2.3-3.1 1.1-6.1 2.4-8.9 4.1s-5.4 3.8-7.3 6.3c-2 2.5-3.3 5.6-3.8 8.7-.5 3.2-.5 6.5.1 9.6s2 6.1 4.2 8.4c2.1 2.4 4.9 4.1 7.8 5.5s6 2.4 9.2 3.1 6.3 1.2 9.6 1.3c1.7.1 3.4.5 5 1.3 1.6.7 3 1.8 4.2 3.1s2.2 2.7 2.9 4.3 1.1 3.3 1.3 5c.4 3.4-.2 7-1.8 10.1s-4.3 5.7-7.6 6.9c-1.6.6-3.4 1-5.1 1s-3.4-.1-5-.3c-6.6-.7-13.1-2.1-19.4-4.3s-12.3-5.3-17.6-9.4c-5.4-4-9.8-9.2-13.2-15-.4-.7-.8-1.5-1.2-2.2l-.6-1.1c-.2-.4-.3-.8-.5-1.2l-1-2.3-.8-2.4-.4-1.2-.3-1.2-.6-2.4-.4-2.5c-.1-.8-.3-1.6-.3-2.5-.7-6.6-.5-13.4 1.1-19.9.8-3.2 1.8-6.4 3.3-9.4 1.4-3 3.1-5.9 5.1-8.6 4-5.3 8.9-9.9 14.4-13.6s11.5-6.5 17.8-8.7c6.1-1.9 12.6-3.3 19.2-3.7z" fill="#a82a24"/><ellipse cx="306.7" cy="214.4" fill="#603432" rx="11.9" ry="8.7" transform="matrix(.07636847 -.9971 .9971 .07636847 69.4886 503.8873)"/><path d="m368.5 119.1c0 7.4-6.3 13.3-14.1 13.3s-14.1-6-14.1-13.3c0-.3 0-.7 0-1h28.1c.1.3.1.6.1 1z" fill="#efc8ab"/><path d="m354.6 104.7c-4.7 0-8.5 3.8-8.5 8.5v4.6c0 4.7 3.8 8.5 8.5 8.5 4.7 0 8.5-3.8 8.5-8.5v-4.6c0-4.7-3.8-8.5-8.5-8.5z" fill="#ddb597"/><path d="m393.3 71.5c-.1 1.8-.2 3.5-.4 5.2-.7 5.7-2.4 11-4.7 15.9-5.2 10.7-13.9 18.7-24.1 22.1-3.7 1.2-7.7 1.8-11.7 1.7-1.6-.1-3.1-.2-4.7-.5-1.4-.2-2.8-.6-4.2-1-2.1-.6-4.2-1.5-6.1-2.5-1.5-.8-2.9-1.7-4.3-2.6-1.8-1.3-3.4-2.7-5-4.2-4.2-4.2-7.6-9.4-10-15.3v-.1c-1.7-4.2-2.8-8.7-3.3-13.4-.1-.6-.1-1.2-.2-1.8-.2-2-.2-4-.1-6 .1-2.6.3-5.1.8-7.5 3.8-21.8 20.6-37.9 40.2-37.2 18.8.6 34 16.5 37.2 37.2.1.9.3 1.8.3 2.7.3 2.2.4 4.7.3 7.3z" fill="#efc8ab"/><path d="m401.4 69.6c-.3 5.9-7 6.9-8.5 7.1-.2 0-.3 0-.3 0s-2.8-7.1-1.8-12.5c.2-1 .5-1.9 1-2.7.3-.1.6-.1.9-.1 2.8-.4 5.4.3 7 2.2 1.2 1.2 1.8 3.2 1.7 6z" fill="#e9bf9c"/><path d="m316.3 74.5c-.4 1.3-.7 2.2-.7 2.2s-.3 0-.8-.1c-.9-.1-2.3-.4-3.8-1.1-2.1-1-4.1-2.7-4.3-5.9-.3-6.4 3.7-8.9 8.5-8.3.4 0 .7.1 1.1.2 2.3 3.7 1 9.8 0 13z" fill="#e9bf9c"/><path d="m357.8 85s2.9-7.5-1.9-11.6l-3.7.3c-3.2.3-5.5 3.1-5.3 6.3.3 3.1 2.9 5.4 6 5.3z" fill="url(#a)"/><path d="m372.5 50.9-3.6-.7c-1.4-.3-2.9.6-3.1 2.1-.3 1.4.6 2.9 2.1 3.1l3.6.7c1.4.3 2.9-.6 3.1-2.1.3-1.4-.7-2.8-2.1-3.1z" fill="#6b5144"/><path d="m340.1 50.2-2.9.7c-1.4.3-2.3 1.8-2 3.2.3 1.4 1.8 2.3 3.2 2l2.9-.7c1.4-.3 2.3-1.8 2-3.2-.3-1.5-1.7-2.4-3.2-2z" fill="#6b5144"/><path d="m346.9 93c.2 0 .5 0 .7.1 6.2 2.1 13.7.3 13.8.2.8-.2 1.6.3 1.8 1.1s-.3 1.6-1.1 1.8c-.3.1-8.4 2-15.4-.3-.8-.3-1.2-1.1-.9-1.9.1-.5.6-.9 1.1-1z" fill="#383838"/><path d="m362.2 65.6s5.6-5.8 12.4 0" fill="none" stroke="#141414" stroke-linecap="round" stroke-miterlimit="10" stroke-width="3"/><path d="m335.2 65.6s5.6-5.8 12.4 0" fill="none" stroke="#141414" stroke-linecap="round" stroke-miterlimit="10" stroke-width="3"/><path d="m324.7 44.3s1.6 9.1-2.3 13c-4.4 4.4-3.8 12.8-3.8 12.8l-1.3-.7s-10.2-21.5.7-35.5c5.8 1.1 6.7 10.4 6.7 10.4z" fill="#594339"/><path d="m321.9 7.3s-22.9 24.2-1.4 38.6c20.9 14 63.5 1.9 63.5 1.9s-1.6 9.1 2.3 13c4.4 4.4 3.8 12.8 3.8 12.8l1.3-.7s10.2-21.5-.7-35.5c7.1.3 6.8-8.3 6.8-8.3s-6.1-.1-7.7 7c-1.8-14.7-21.5-27.1-39.3-20.9-17.8 6.5-28.5 6.1-28.6-7.9z" fill="#6b5144"/><circle cx="354.8" cy="205" fill="url(#b)" r="50.4"/><g fill="#212e3a"><path d="m348.3 216c-.7.9-1.7 1.6-3.2 2-4.9 1.5-10.2-1.5-11.7-6.6s1.3-10.4 6.2-11.8c.8-.2 1.6-.3 2.3-.3 3.5.1 5.5 3.4 6.8 7.6 1.1 3.6 1.3 6.9-.4 9.1z"/><path d="m362.7 206c-1.6 5-1.5 9.6 3.4 11.1 4.9 1.6 10.2-1.3 11.8-6.3s-1.1-10.4-6-12c-5-1.5-7.6 2.1-9.2 7.2z"/><path d="m369.1 213.6c-.1 0-.2 0-.3 0l-10.9-2.2c-.8-.2-1.3-1-1.2-1.8s1-1.3 1.8-1.2l10.9 2.2c.8.2 1.3 1 1.2 1.8-.2.8-.8 1.2-1.5 1.2z"/><path d="m371.3 205c-.1 0-.2 0-.3 0l-10.9-2.2c-.8-.2-1.3-1-1.2-1.8s1-1.3 1.8-1.2l10.9 2.2c.8.2 1.3 1 1.2 1.8-.2.7-.8 1.2-1.5 1.2z"/><path d="m323.5 217.7c-1 0-1.9-.6-2.3-1.5-.5-1.3.1-2.7 1.3-3.3 7.9-3.4 14.2-3.9 14.4-4 1.4-.1 2.6.9 2.7 2.3s-.9 2.6-2.3 2.7c-.1 0-5.7.5-12.9 3.6-.3.2-.6.2-.9.2z"/><path d="m388.5 218.7c-.2 0-.3 0-.5 0-9-1.8-15-7.9-15.3-8.1-1-1-1-2.6 0-3.5 1-1 2.6-1 3.5 0 .1.1 5.3 5.2 12.7 6.7 1.4.3 2.2 1.6 2 2.9-.2 1.2-1.3 2-2.4 2z"/></g><path d="m348.3 216c-2.2.6-5.2-.1-7-7.2-1.8-7 .4-9.3.6-9.5 3.5.1 5.5 3.4 6.8 7.6 1.1 3.6 1.3 6.9-.4 9.1z" fill="#385063"/><ellipse cx="343.9" cy="203.8" fill="#121619" rx="1.6" ry="1.9" transform="matrix(.9379 -.347 .347 .9379 -49.3502 131.994)"/><ellipse cx="346.2" cy="211.5" fill="#121619" rx="1.6" ry="1.9" transform="matrix(.9379 -.347 .347 .9379 -51.8757 133.277)"/><ellipse cx="381.1" cy="223.9" fill="#bf997f" rx="3.4" ry="5.1" transform="matrix(.6794 -.7338 .7338 .6794 -42.1167 351.477)"/><path d="m393.9 228.4c-.8.1-1.5.1-2.3 0-.7 0-1.3-.1-2-.2-1.8-.3-3.5-1-5-1.9-.8-.5-1.5-1-2.1-1.6-2-1.9-3.3-4.4-3.5-7.2-.6-6.7 5.2-12.7 12.9-13.3s14.3 4.3 14.9 11c.5 6.6-5.2 12.5-12.9 13.2z" fill="#efc8ab"/><path d="m391.9 204 13.9-.4s6.5 3.5 5.3 13.5c-6.4 1.1-4.8 2-4.8 2s-11.9-8-14.4-15.1z" fill="#efc8ab"/><path d="m384.1 223.6c.1.9.3 1.9.6 2.7-.8-.5-1.5-1-2.1-1.6 0-.3 0-.6 0-.9 0-1.1.2-2.1.4-3.1s.5-2 .8-3 .7-1.9 1.1-2.8c-.3 1-.5 2-.6 3-.2 1-.2 2-.3 3-.1.7 0 1.7.1 2.7z" fill="#aa856b"/><path d="m391.2 226.1c.1.8.3 1.6.5 2.3-.7 0-1.3-.1-2-.2-.1-.7-.1-1.3 0-2 0-1.1.2-2.1.4-3.1s.5-2 .8-3 .7-1.9 1.1-2.9c-.3 1-.5 2-.6 3-.2 1-.2 2-.3 3-.1.9-.1 1.9.1 2.9z" fill="#aa856b"/><ellipse cx="329.2" cy="223.8" fill="#bf997f" rx="5.1" ry="3.4" transform="matrix(.7338 -.6794 .6794 .7338 -64.4365 283.2552)"/><path d="m316.4 228.4c.8.1 1.5.1 2.3 0 .7 0 1.3-.1 2-.2 1.8-.3 3.5-1 5-1.9.8-.5 1.5-1 2.1-1.6 2-1.9 3.3-4.4 3.5-7.2.6-6.7-5.2-12.7-12.9-13.3s-14.3 4.3-14.9 11c-.5 6.6 5.2 12.5 12.9 13.2z" fill="#efc8ab"/><path d="m318.4 204-14.9-.4s-6.5 3.5-5.3 13.5c6.4 1.1 5.8 2 5.8 2s11.9-8 14.4-15.1z" fill="#efc8ab"/><path d="m326.2 223.6c-.1.9-.3 1.9-.6 2.7.8-.5 1.5-1 2.1-1.6 0-.3 0-.6 0-.9 0-1.1-.2-2.1-.4-3.1s-.5-2-.8-3-.7-1.9-1.1-2.8c.3 1 .5 2 .6 3 .2 1 .2 2 .3 3 .1.7 0 1.7-.1 2.7z" fill="#aa856b"/><path d="m319.1 226.1c-.1.8-.3 1.6-.5 2.3.7 0 1.3-.1 2-.2.1-.7.1-1.3 0-2 0-1.1-.2-2.1-.4-3.1s-.5-2-.8-3-.7-1.9-1.1-2.9c.3 1 .5 2 .6 3 .2 1 .2 2 .3 3 .1.9.1 1.9-.1 2.9z" fill="#aa856b"/><path d="m617.3 377.4h-5.2c-13.7-49.9-49.9-65.3-79-69.2-32.6-4.4-53.5-28.9-70.3-48.7-4.7-5.5-9.2-10.8-13.5-15.1-18.8-18.8-50.5-21.5-50.9-21.6-1.4-.1-2.4-1.3-2.3-2.7s1.3-2.4 2.7-2.3 33.9 2.9 54 23c4.4 4.4 9 9.7 13.7 15.3 16.3 19.1 36.5 42.8 67.2 46.9 21.9 2.9 40.3 11.1 54.7 24.3 13.8 12.7 23.4 29.4 28.9 50.1z" fill="#212e3a"/><path d="m311.4 225c-.7.4-17 8.9-64.2 16.9-46.6 7.9-77.8 49.1-96.4 73.7-22 29.2-40.4 51-68.5 61.8h-17.7c36.4-7.7 56.8-31.3 82.2-64.9 19.1-25.2 51-67.4 99.6-75.6 46.2-7.8 62.5-16.3 62.7-16.4 1.2-.6 2.7-.2 3.4 1 .6 1.3.1 2.8-1.1 3.5z" fill="#212e3a"/><path d="m343.9 198.5 10.7-6.8-2.3 4.9 13.6.2-9.9-2 2.5-8.8z" fill="#fff200"/><path d="m348.9 218.3 6.4 2.9-1.7 9.1-1.5-8z" fill="#fff200"/><path d="m365.9 217.9-4.9 3.2 7.4-.8z" fill="#fff200"/><path d="m368.9 196.6 3.1-4.8v3.3z" fill="#fff200"/><g fill="#fff200" opacity=".5"><path d="m388.2 92.5c-5.2 10.7-13.9 18.7-24.1 22.1-3.7 1.2-7.7 1.8-11.7 1.7-1.6-.1-3.1-.2-4.7-.5-1.4-.2-2.8-.6-4.2-1-2.1-.6-4.2-1.5-6.1-2.5-1.5-.8-2.9-1.7-4.3-2.6-1.8-1.3-3.4-2.7-5-4.2-4.2-4.2-7.6-9.4-10-15.3.7 1.3 12.6 22.9 36.1 22.9 19.2-.2 30.2-14.6 34-20.6z"/><path d="m304.5 200.2s-36 3-36-24.5 35.6-26.6 35.6-26.6-31.1 2.8-31.1 26.1 31.5 25 31.5 25z"/><path d="m406.2 199.8s36 3.3 36-24.2-35.6-26.6-35.6-26.6 29.6 2.8 29.6 26.1-30 24.7-30 24.7z"/><path d="m303.4 203.7s9.5.2 14.9.4 13.7 5 12.9 13.3c-3.5-6.2-9.6-10.6-14.2-10.6s-16.5-.4-16.5-.4 1.6-2 2.9-2.7z"/><path d="m405.9 203.7s-8.6.2-14 .4-13.7 5-12.9 13.3c3.5-6.2 9.6-10.6 14.2-10.6s15.5-.4 15.5-.4-1.4-2-2.8-2.7z"/></g></svg>