<svg enable-background="new 0 0 681.9 377.4" viewBox="0 0 681.9 377.4" xmlns="http://www.w3.org/2000/svg" xmlns:xlink="http://www.w3.org/1999/xlink"><linearGradient id="a" gradientTransform="matrix(1 0 0 -1 0 380)" gradientUnits="userSpaceOnUse" x1="516.8992" x2="528.7943" y1="293.0117" y2="293.0117"><stop offset="0" stop-color="#f49784"/><stop offset="1" stop-color="#efc8ab"/></linearGradient><path d="m540.5 115.6c-4.7 0-8.5 3.8-8.5 8.5v4.6c0 4.7 3.8 8.5 8.5 8.5 4.7 0 8.5-3.8 8.5-8.5v-4.6c0-4.7-3.8-8.5-8.5-8.5z" fill="#ddb597"/><path d="m498.2 72.8s-5.8-14.7 0-27c6.8-8 18.7 5 18.7 5z" fill="#6b5144"/><path d="m575.3 82.6c-.7 20.7-13 37.8-29.3 43.1-3.7 1.2-7.7 1.8-11.7 1.6-1.6 0-3.1-.2-4.7-.5-1.4-.2-2.8-.6-4.2-1-2.1-.6-4.2-1.5-6.1-2.5-1.5-.8-2.9-1.6-4.3-2.6-1.8-1.3-3.4-2.7-5-4.2-8.8-8.8-14.1-22-13.6-36.6.9-25.5 19.2-45.5 41-44.7 21.8.7 38.8 22 37.9 47.4z" fill="#efc8ab"/><path d="m500.7 7.3s-25.8 29 0 43.5 61 4.2 61 4.2-5.8 11-1.5 16.3 4 15.3 4 15.3h4.3s1.6-9.9 6.7-9.8 5 7.6 5 7.6 19.6-22.8 1.4-38.7c8.2.3 10.2-7.3 10.2-7.3s-10.3-2.2-12.2 6c-2.2-16.8-18.3-35.2-39.2-29s-39.6 7.9-39.7-8.1z" fill="#876755"/><path d="m572 91.8s-1.2-10.5 3.2-14.9c5.4.3 9.3 3.8 7.1 10.4-2 6.4-10.3 4.5-10.3 4.5z" fill="#e9bf9c"/><path d="m528.4 92.2s2-7.8-3.3-11.3l-3.7.8c-3.1.6-5.1 3.7-4.5 6.8.6 3 3.5 5 6.6 4.5z" fill="url(#a)"/><ellipse cx="514.4" cy="78.7" fill="#141414" rx="3.1" ry="3.8"/><ellipse cx="536.4" cy="77.2" fill="#141414" rx="3.1" ry="3.8"/><path d="m540.4 59.9-3.6-.7c-1.4-.3-2.9.6-3.1 2.1-.3 1.4.6 2.9 2.1 3.1l3.6.7c1.4.3 2.9-.6 3.1-2.1.3-1.4-.7-2.9-2.1-3.1z" fill="#6b5144"/><path d="m513.4 67.4-2.9.7c-1.4.3-2.3 1.8-2 3.2.3 1.4 1.8 2.3 3.2 2l2.9-.7c1.4-.3 2.3-1.8 2-3.2-.4-1.5-1.8-2.4-3.2-2z" fill="#6b5144"/><path d="m536.4 112.3c-.2 0-.5-.1-.7-.2-5.8-2.9-13.5-2.3-13.6-2.2-.8.1-1.6-.5-1.6-1.4-.1-.8.5-1.6 1.3-1.6.3 0 8.6-.8 15.2 2.6.7.4 1 1.3.7 2-.2.5-.8.8-1.3.8z" fill="#383838"/><path d="m525.5 125.9c-2.1-.6-4.2-1.5-6.1-2.5-1.5-.8-2.9-1.6-4.3-2.6l-.4-8.6c0-.1 0-.2 0-.3 0-2.6 2-4.8 4.6-4.9 2.7-.2 5.1 1.9 5.2 4.6z" fill="#68503e" opacity=".3"/><path d="m554.5 70.2s-5.5 9.4 0 9.4 0-9.4 0-9.4z" fill="#85afd6"/><path d="m587.9 377.7h-27.8l-15.1-60.9 2.8 60.9h-27.1l-12.2-100.2-.8-6.7 73.4-1.5 1.2 19z" fill="#33567f"/><path d="m582.3 288.3c-23.8-10.4-62.3-10.9-73.8-10.8l-.8-6.6 73.5-1.5z" fill="#274666"/><path d="m585.7 221.3 2 50.3s-44 7.7-85 0c-7.6-43.8-12-112.9-12-112.9-26.7 9.7-20 38.4-13.8 51.7s-26.2 25.2-32.4 11c-9-16.3-12.4-46.5 32.4-75.9 17.7-11.6 36-16.2 52.3-17.1 1-.1 2-.1 2.9-.1 6-.2 11.7.2 17 .8 1 .1 2.1.3 3.1.4 13.8 2.1 24.3 6.4 28.6 9.4 46.2 36.5 4.9 82.4 4.9 82.4z" fill="#f4a23c"/><ellipse cx="460.9" cy="216.5" fill="#844f15" rx="15.9" ry="9.5" transform="matrix(.9598 -.2808 .2808 .9598 -42.2403 138.1297)"/><ellipse cx="517.1" cy="153.7" fill="#844f15" rx="2.7" ry="16.9" transform="matrix(.04337263 -.9991 .9991 .04337263 341.1602 663.6533)"/><path d="m500.3 153s-11 79.1 50.5 79.1c15 0 23.4-1.4 34.8-10.8-8.3 13.3-30.8 15.8-35.6 15.8-68 0-49.7-84.1-49.7-84.1z" fill="#db8f1f"/><path d="m534.6 153.7c1.5 7.9 2.5 15.8 3.3 23.7.1 1 .2 1.9.4 2.9.2.9.4 1.8.6 2.7.5 1.8 1.3 3.5 2.2 5 2 3.1 5 5.5 8.4 6.5 3.5 1.1 7.3.9 10.7-.5s6.2-4.1 8-7.4 2.9-7.1 3-11c.2-3.9-.2-7.9-1-11.8 1.3 3.8 2.1 7.7 2.3 11.8v3.1c-.1 1-.2 2-.4 3.1-.4 2-1 4-2 5.9-1.8 3.8-4.9 7-8.9 8.8-2 .9-4.1 1.5-6.2 1.6-2.2.1-4.3-.1-6.4-.7s-4-1.6-5.7-3c-1.7-1.3-3.2-3-4.3-4.8-2.3-3.6-3.3-8-3.4-12-.4-7.9-.7-15.9-.6-23.9z" fill="#db8f1f"/><path d="m549 129.2c0 2.3-1 4.5-2.5 6s-3.6 2.5-6 2.5c-4.7 0-8.5-3.8-8.5-8.5v-.8c6-.2 11.7.1 17 .8z" fill="#ddb597"/><path d="m526.7 156.4s-3.7-10.5-1.9-12.8 10.8-5.8 13.9-9.9.4-7.6-3.5-5.8c-2.3 1-4.5 1.3-8.1 1.1-2.4-.2-4.2-2.3-4.4-4.7l-1.3-19c-.2-2.7-2.5-4.8-5.2-4.6-2.7.2-4.7 2.5-4.6 5.2l.6 12.1-3.4.1c-2.6 0-4.7 2.2-4.7 4.8l-2.1.1c-2.5.2-4.4 2.3-4.4 4.8 0 5.2.2 13.5 1 16.4 1.3 4.3 4.8 10.6 4.8 10.6s9.7 2.5 23.3 1.6z" fill="#e9bf9c"/><path d="m547.8 304.3h-386.5l74.5-76.5h250z" fill="#3d7087"/><path d="m241.7 304.3h-80.4l75.8-73.4 1.4 21.7z" fill="#2d5b6b"/><path d="m547.8 304.3h-65.8l1.3-38.5 1.2-35z" fill="#498c9b"/><path d="m519.3 293.7-1.3 10.6h-329.5l15-27.5 10.3 4 18.7-32.7 6 4.5 12.5 9.6 6.6-9.2-6.6-14.2 32.4-3.6 7.4 11.5 74.3-1.7-1.6 10.6 40.2-16.8 3.1 4.4 30.3-8.4 16.8 17.8 29.4 13.2 13.6 6-8.5 17.5z" opacity=".3"/><path d="m266.7 261.2-9-21s47-5.7 55.7-6.3c9.7 19.7 11 30.4 11 30.4z" fill="#d9e3e8"/><path d="m354.6 279.8 41.1-25.7s18.3 22 21 32c-22.7 11.7-47 19.3-47 19.3z" fill="#87cdf4"/><path d="m305 244.2c.1-.5 52 3.7 52 3.7v28l-56.7-1.3c0-.1 1.4-16.8 4.7-30.4z" fill="#cedce0"/><path d="m349.1 288.9c-7.6 2.5-15.8-1.7-18.3-9.3l-21.9-67.7c-7.3-22.7 5.2-47.2 27.9-54.6l28.1-9.1c7.6-2.5 15.8 1.7 18.3 9.3s-1.7 15.8-9.3 18.3l-28.1 9.1c-7.5 2.4-11.7 10.5-9.2 18l21.9 67.7c2.4 7.7-1.8 15.8-9.4 18.3z" fill="#385066"/><ellipse cx="371" cy="161.3" fill="#85afd6" rx="10.9" ry="12" transform="matrix(.9516 -.3072 .3072 .9516 -31.6136 121.7722)"/><path d="m369 155.3c-6.1 2-8.4 9.3-8.4 9.3s6.2 4.6 12.3 2.6 8.4-9.3 8.4-9.3-6.2-4.6-12.3-2.6z" fill="#f4f8f9"/><ellipse cx="372.7" cy="160.6" fill="#4f83aa" rx="5.1" ry="5.1" transform="matrix(.9516 -.3072 .3072 .9516 -31.3156 122.2617)"/><ellipse cx="372.7" cy="160.6" fill="#2d3e50" rx="3" ry="3" transform="matrix(.9516 -.3072 .3072 .9516 -31.3156 122.2617)"/><ellipse cx="369.6" cy="158.9" fill="#f4f8f9" rx="1.3" ry="1.3" transform="matrix(.9516 -.3072 .3072 .9516 -30.9443 121.2214)"/><path d="m322.2 296.8c-7.6 2.5-15.8-1.7-18.3-9.3l-21.9-67.8c-7.3-22.7 5.2-47.2 27.9-54.6l28.1-9.1c7.6-2.5 15.8 1.7 18.3 9.3s-1.7 15.8-9.3 18.3l-28.1 9.1c-7.5 2.4-11.7 10.5-9.2 18l21.9 67.7c2.4 7.8-1.8 16-9.4 18.4z" fill="#2d3e50"/><ellipse cx="344.1" cy="169.2" fill="#85afd6" rx="10.9" ry="12" transform="matrix(.9516 -.3072 .3072 .9516 -35.3433 113.888)"/><path d="m342.2 163.2c-6.1 2-8.4 9.3-8.4 9.3s6.2 4.6 12.3 2.6 8.4-9.3 8.4-9.3-6.3-4.5-12.3-2.6z" fill="#f4f8f9"/><ellipse cx="347.2" cy="167.8" fill="#4f83aa" rx="5.1" ry="5.1" transform="matrix(.9516 -.3072 .3072 .9516 -34.7609 114.7708)"/><ellipse cx="347.2" cy="167.8" fill="#2d3e50" rx="3" ry="3" transform="matrix(.9516 -.3072 .3072 .9516 -34.7609 114.7708)"/><g fill="#f4f8f9"><ellipse cx="344" cy="166.2" rx="1.3" ry="1.3" transform="matrix(.9516 -.3072 .3072 .9516 -34.4314 113.7169)"/><path d="m340.7 279.2-35.3-32.3s-31.7 19.6-36 23.4c11 8.9 35.7 29.9 35.7 29.9z"/><path d="m244.3 244.8c.2-1 25.7 5 38.7 10.7-2.7 18.7-8.7 40.3-8.7 40.3l-54.3-14.6s21.3-24.4 24.3-36.4z"/></g><path d="m233 312.2c-.7-1-7.7-21-7.7-21l62-17.7 13 32.8-63.7 16.2z" fill="#e6ecef"/><path d="m185 311.2c.3-1 28.7-37.7 28.7-37.7l34.3 8.7-14.7 38.7z" fill="#fff"/><path d="m343 257.8 52-20s11 16.3 14.3 25.3c-13.3 13-43 23-43 23s-19.6-21.6-23.3-28.3z" fill="#dae2e5"/><path d="m305.3 289.8 51-23.7 24.3 26.7s-47 22.3-53 26.3c-4.6-7.6-22.3-29.3-22.3-29.3z" fill="#d9e3e8"/><path d="m405.3 246.8c.3-1.2 48-16 48-16l13.7 35.3-54.7 20c0 .1-14.3-11.9-7-39.3z" fill="#c2cbce"/><path d="m276.3 316.8-4.3-22.1 41-18.9s14.3 16.3 17 24.3c-16 12.4-53.7 16.7-53.7 16.7z" fill="#fff"/><path d="m380.7 264.8 12-20s35.7.3 45 3c.7 17 0 29.7 0 29.7s-22.4-10-57-12.7z" fill="#e6ecef"/><path d="m374.8 295.4.1-27.9s32.4-14.9 42.3-15.9c9.7 19 16 33.7 16 33.7s-25.7-1.8-58.4 10.1z" fill="#fff"/><path d="m479.3 300.2c0 .3 8.7-26.7 8.7-26.7l-53-15.7s-8.3 19-13 31c15.3 5.7 57.3 11.4 57.3 11.4z" fill="#f4f8f9"/><path d="m352.8 280.3s49.2-14.3 53.8-15.9c5 15.6 8.7 37.2 8.7 37.2l-57.8 11.7s-2.8-22.4-4.7-33z" fill="#f4f8f9"/><path d="m401.3 286.2s28.7-7.3 60.3-10.3c-.3 18.3 0 35 0 35l-55 6z" fill="#e6ecef"/><path d="m449.7 288.8 58 9.2-9.7 30.5-52-6s-.7-15.7 3.7-33.7z" fill="#fff"/><path d="m384 310.8 8-24.7 48.7 9.7-2.7 29s-51.3-13-54-14z" fill="#fff"/><path d="m484.4 230.9 57.1 70.5h-373.1l68.7-70.5zm1.4-3h-250l-74.5 76.5h386.5z" fill="#64dda9"/><path d="m165.8 377.7-4.5-73.4h386.5l-4 73.4z" fill="#56b692"/><path d="m75.4 319.8-4.3 35s48-1.3 69.3-17.5c-9.7-7.5-19-26.2-19-26.2s-14 7.4-46 8.7z" fill="#d9e3e8"/><path d="m257.2 139.9s23.9 5.2 32 19c7.7-14.9 17-30.9 17-30.9s-23.7-16.5-43.1-12.9c-3.7 15.7-5.9 24.8-5.9 24.8z" fill="#d9e3e8"/><path d="m223.1 198.5s6.5-22.6 34.1-38.1c-21.2-16.5-30.9-27.5-30.9-27.5s-29 17.5-28.6 57.1c17.2 3.8 25.4 8.5 25.4 8.5z" fill="#fff"/><path d="m350.6 64s23.7 19.7 24 38.3c19.7-5.7 33.7-9 33.7-9s-.3-28.7-20.7-49c-18.7 8.4-37 19.7-37 19.7z" fill="#f4f8f9"/><ellipse cx="442.9" cy="258.3" fill="#87cdf4" opacity=".5" rx="25.3" ry="12.6"/><path d="m420.9 263.2 19.1-16.4h9.5s-11.4 3-16.7 21.1c-4.7-.6-11.9-4.7-11.9-4.7z" fill="#fff"/><path d="m436.6 247.1-14 9.8s8.3-7.9 9.3-9.2c1.4-.2 4.7-.6 4.7-.6z" fill="#fff"/><path d="m470.6 257.4v3.8c0 7.4-12.3 13.4-27.4 13.4-15.2 0-27.4-6-27.4-13.4v-3.8h1.1c.6-1 1.4-1.9 2.4-2.8-.3.7-.4 1.3-.4 2 0 6.2 10.8 11.2 24.1 11.2s24.1-5 24.1-11.2c0-.9-.2-1.8-.7-2.7 1.4 1.1 2.5 2.2 3.2 3.5z" fill="#113156"/><path d="m470.6 228.9c.8-1 .7-2.6-.3-3.5s-2.6-.8-3.5.2l-17.8 19.5 6.8 2z" fill="#113156"/><path d="m456.8 245.7c-2.2-.6-4.6-1.1-7.2-1.4-2.1-.3-4.3-.4-6.5-.4-15.2 0-27.4 6-27.4 13.4s12.3 13.4 27.4 13.4c15.2 0 27.4-6 27.4-13.4.1-4.9-5.5-9.2-13.7-11.6zm-13.9 22.2c-13.3 0-24.1-5-24.1-11.2 0-.7.1-1.4.4-2 2-5.2 11.9-9.2 23.7-9.2 11.3 0 20.8 3.6 23.4 8.5.5.9.7 1.8.7 2.7 0 6.1-10.8 11.2-24.1 11.2z" fill="#25527f"/><path d="m480.6 225.4c-1 1.1-2.1 2.3-3.4 3.6-.2.2-.3.3-.5.5-2.6 2.6-6.7 3.2-9.3 3.2l3.2-3.9c.4-.5.6-1.1.6-1.8 0-.2-.1-.5-.2-.7-.1-.3-.3-.7-.6-.9l3.8-5.3c.8-1.1 2.1-1.7 3.3-1.7.8 0 1.7.3 2.4.8 2 1.6 2.3 4.4.7 6.2z" fill="#b28a6f"/><path d="m479.6 228.6c-.6.7-1.3 1.4-2.1 2.2-.6.6-1.2 1.2-1.8 1.9-3.3 3.3-8.9 3.3-10.9 3.2l2.6-3.1 3.2-3.9c.4-.5.6-1.1.6-1.8 0-.2-.1-.5-.2-.7l2.2-3.1c.8-1.1 2.1-1.7 3.3-1.7.8 0 1.7.3 2.4.8 1 .7 1.6 1.8 1.7 2.9.2 1.2-.2 2.4-1 3.3z" fill="#c19b81"/><path d="m453.6 226.7 8.4-4.3c2.4-1.2 5.4-.1 6.3 2.5.6 1.7.2 3.6-1.1 4.8-2.9 2.9-8.3 7.6-11 7.5-3.9-.2-9.3-1.2-11.2-11.5s12.7-18.4 22-14.8c7.5 3 7.5 8.9 7.5 8.9l-4.2 5.7s-3-1.4-6.7 3.3c-3.7 4.8-10-2.1-10-2.1z" fill="#ddb597"/><path d="m477.5 230.9c-.1.9-.4 1.8-1.1 2.5-1.1 1.2-2.4 2.6-3.9 4.1-4 4-11.6 3.2-11.6 3.2l3.9-4.7 2.6-3.1 3.2-3.9c.4-.5.6-1.1.6-1.8.7-.5 1.5-.7 2.3-.7s1.7.3 2.4.8c.6.5 1.1 1.1 1.4 1.8.2.5.3 1.1.2 1.8z" fill="#ddb597"/><path d="m453.5 226.5c1.1-1 2.3-1.9 3.5-2.6 1.2-.8 2.4-1.5 3.7-2.1.3-.2.6-.3 1-.5s.8-.3 1.2-.4c.9-.1 1.7-.1 2.5.3 1.6.6 2.7 2.1 2.8 3.6-.9-1.2-2.1-1.9-3.2-2.1-.6-.1-1.2-.1-1.7.1-.3.1-.5.2-.8.3s-.6.3-.9.5c-1.3.6-2.6 1.2-3.9 1.7-1.4.4-2.8.9-4.2 1.2z" fill="#c19b81"/><path d="m466.3 253.9c-4.9-3.7-13.4-6.2-23.1-6.2-10.3 0-19.3 2.8-24 6.9 2-5.2 11.9-9.2 23.7-9.2 11.3 0 20.8 3.6 23.4 8.5z" fill="#113156"/><path d="m286.7 234.2-2.8-8.8h30.4l2.8 8.4z" fill="#2d3e50"/><path d="m333.3 163-11.9 4.1-5.4 1.9c-.6.2-1.2.5-1.9.7-1.2.5-2.5 1-3.7 1.6l-1.8.9-.9.5-.8.6c-9.1 5.6-15.8 14.7-18.5 24.9-1.4 5.1-1.8 10.4-1.2 15.5.3 2.6.8 5.1 1.6 7.6.3 1.3.8 2.4 1.2 3.6l1.2 3.6 7.4 21.4c.1-.1.2-.1.4-.1l-6.3-21.7-1.1-3.6c-.4-1.2-.7-2.4-1-3.6-.6-2.4-1-4.8-1.1-7.3-.3-4.9.3-9.8 1.9-14.5 3-9.3 9.6-17.2 17.9-21.9l.8-.5.8-.4 1.6-.8c1.1-.6 2.2-.9 3.3-1.3.6-.2 1.1-.4 1.7-.6l1.8-.5 3.6-1.1 9-2.6c-.1-2.2.4-4.4 1.4-6.4z" fill="#3b556d"/><path d="m595.3 24.8c-.3 0-.7-.2-.9-.5-.3-.5-.1-1.1.3-1.4l10.3-6.3c.5-.3 1.1-.1 1.4.3.3.5.1 1.1-.3 1.4l-10.3 6.3c-.2.1-.3.2-.5.2z" fill="#f4f8f9"/><path d="m573.1 9.5c-.2 0-.3 0-.5-.1-.5-.3-.6-.9-.4-1.4l4.3-7.5c.3-.5.9-.6 1.4-.4.5.3.6.9.4 1.4l-4.4 7.5c-.2.3-.5.5-.8.5z" fill="#f4f8f9"/><path d="m599.2 51.8c-.5 0-.9-.4-1-.9s.3-1 .9-1.1l10.7-1.2c.6-.1 1 .3 1.1.9s-.3 1-.9 1.1z" fill="#f4f8f9"/><path d="m317.7 235.8-3.9-12.2h29.4l3.9 12.2z" fill="#385066"/></svg>