<svg enable-background="new 0 0 681.9 377.4" viewBox="0 0 681.9 377.4" xmlns="http://www.w3.org/2000/svg" xmlns:xlink="http://www.w3.org/1999/xlink"><linearGradient id="a" gradientTransform="matrix(-.9755 .2201 -.2201 -.9755 -413.9514 426.1472)" gradientUnits="userSpaceOnUse" x1="-819.6702" x2="-799.1671" y1=".5295" y2=".5295"><stop offset="0" stop-color="#f49784"/><stop offset="1" stop-color="#efc8ab"/></linearGradient><path d="m379.9 377.7h-132.3l.8-4.8c5.6-36 39.7-60.9 75.7-55.3 30.7 4.8 53.3 30.3 55.8 60.1z" fill="#3c6baf"/><path d="m340.8 295.4c7.5 2.9 11.2 11.4 8.3 18.9l-5.2 13.2c-2.9 7.5-11.4 11.2-18.9 8.3-7.5-2.9-11.2-11.4-8.3-18.9l5.2-13.2c2.9-7.5 11.4-11.2 18.9-8.3z" fill="#ddb597"/><path d="m411.6 209.5s4.2-26.9-10.2-45.4c-14.5-10.9-29.5 15.5-29.5 15.5z" fill="#6b5144"/><path d="m408.1 287.5c-3.2 5-6.9 9.5-11.2 13.5-.6.5-1.2 1.1-1.8 1.6-4.8 4.1-10.1 7.4-15.9 9.8-2.5 1-5 1.9-7.7 2.6-6.8 1.8-13.6 2.3-20.3 1.7-29.4-2.7-56.5-26.8-65.5-61.4-11.1-42.5 9.3-84.6 45.7-94.1 14.8-3.9 30-1.7 43.6 5.1 19.6 9.9 35.7 29.5 42.3 54.6 6.2 24.3 2.2 48.5-9.2 66.6z" fill="#efc8ab"/><path d="m368.1 258.4s-6.3-12.3 1.2-20.3l6.4-.1c5.5-.1 10.1 4.3 10.1 9.8.1 5.3-4 9.8-9.3 10.1z" fill="url(#a)"/><path d="m382.6 100.3s54.4 39 16.5 73.1-101 30.1-101 30.1 14 16.3 8.7 26.9-.9 27.3-.9 27.3l-7.3 1.6s-6.4-16-15-13.9-5.6 14.7-5.6 14.7-41.6-30.9-17-64.5c-13.6 3.7-19.9-8.5-19.9-8.5s16.6-7.6 22.7 5.5c-2.7-29.1 17.5-66.1 54.8-63.6 37.5 2.6 69.8-1.7 64-28.7z" fill="#876755"/><path d="m294.7 269.5s-1.9-18.2-11.1-23.9c-8.9 2.6-14.1 9.9-8.1 20.1 5.9 10 19.2 3.8 19.2 3.8z" fill="#e9bf9c"/><path d="m362.6 280.5c-1.8-4.3 2.2-9.8 10-11.6s12.1-.5 12.1 3.1c0 3.7.1 6.6-8.1 9.2-8.1 2.6-12.3 3.5-14-.7z" fill="#383838"/><circle cx="388.8" cy="214.7" fill="#fff" r="19.9"/><ellipse cx="390.2" cy="215.4" rx="12.6" ry="13.3" transform="matrix(.9554 -.2953 .2953 .9554 -46.2046 124.8345)"/><g fill="#fff"><circle cx="380.3" cy="210.1" r="3"/><circle cx="391.6" cy="207.9" r="4.6"/><circle cx="389.9" cy="226.4" r="2.4"/><circle cx="384.5" cy="223.4" r="1.3"/><path d="m401.7 215.8 1.8-1.2c.4-.3.2-.9-.3-.9l-2.3.1c-.2 0-.3-.1-.4-.2l-1.2-1.8c-.3-.4-.9-.2-.9.3l.1 2c0 .2-.1.3-.2.4l-1.9 1.4c-.4.3-.2.9.3.9h2.1c.2 0 .3.1.4.2l1.5 2c.3.4.9.2.9-.3v-2.4c-.1-.2 0-.4.1-.5z"/><circle cx="336.1" cy="230.6" r="19.9"/></g><ellipse cx="341" cy="230" rx="13.2" ry="13.9" transform="matrix(.9554 -.2953 .2953 .9554 -52.7095 110.9513)"/><circle cx="330.5" cy="224.5" fill="#fff" r="3.1"/><circle cx="342.4" cy="222.2" fill="#fff" r="4.8"/><circle cx="340.7" cy="241.6" fill="#fff" r="2.5"/><circle cx="335" cy="238.5" fill="#fff" r="1.4"/><path d="m353.1 230.5 1.9-1.3c.4-.3.2-.9-.3-.9l-2.5.1c-.2 0-.3-.1-.4-.2l-1.2-1.9c-.3-.4-.9-.2-.9.3l.1 2.1c0 .2-.1.3-.2.4l-2 1.5c-.4.3-.2.9.3.9h2.2c.2 0 .3.1.4.2l1.5 2.1c.3.4.9.2.9-.3v-2.6c0-.1 0-.3.2-.4z" fill="#fff"/><path d="m414.2 232.3c-1.9-3.7-7-2.3-8.2 1.1-.1.4-.3.8-.5 1.3-.1 0-.2-.1-.2-.1-1.6-.7-3.3-1-4.9-.4s-2.5 1.6-3.2 3c-1.4-.1-2.8.2-3.8.8-.6.3-1.1.8-1.6 1.2-2 1.2-3.2 3.5-3.9 5.8-1.3 4.2 4.6 7.4 7.4 4.7.2-.1.4-.3.7-.4 1.1.5 2.3.6 3.5.4 2-.4 3.1-1.4 3.7-2.8.5-.3 1-.6 1.4-1.1.2-.2.4-.5.7-.7.1 0 .2 0 .3.1.1 0 .2.1.2.1 2.2.7 4.4.4 6.4-.8 4.1-2.7 4.2-8.1 2-12.2z" fill="#ff1aef" opacity=".05"/><path d="m363.1 253c-1.1-.9-2.3-1.6-3.6-2-1.8-1.9-4.2-3.1-7-2.2-2 .7-3.4 2.3-4.6 4.2-.8-.2-1.6-.3-2.4-.3-2.8.1-4.9 1.6-6.5 3.7-4-.8-7.5 1.3-9.9 5.1-.8 1-1.5 2.2-1.7 3.6-.9 5.2 5.4 7.5 8 3.6.6.3 1.6.5 2 .6 1.9.4 3.9.1 5.7-.7 1.7-.7 3-1.8 4.2-3.1.2-.2.4-.4.5-.6 1.1.2 2.2.1 3.2-.4 1.2.4 2.5.5 4.1-.1 1.3-.5 2.2-1.2 3.1-2.3.4-.5.7-1 .9-1.5 4 .3 7.5-4.5 4-7.6z" fill="#ff1aef" opacity=".05"/><path d="m359.9 252.3c-1.9 2.6-3.1 2.2-5.8 2.5-.8.1-1-.1-1.9.2-1.7.6-4 3.7-4.6 5.1.6-1.5-.4-3.5-2.3-2.9-2 .7-2.7 2.3-4.3 3.2-1.8 1-2.6-.6-4.3-.7-3.8-.2-7.4 5.9-9.4 8.6-1.5 2.1 1.9 4.1 3.5 2 .9-1.3 3.4-5.4 5-6 .7-.2 1.5.9 2.8 1.2 3.1.7 4.2-1.7 6-3.3 1.3 1.3 3.9 1.5 5.9 0 .9-.7 2-2.9 3-3.2.7-.2 1.9.4 2.8.3 3.2-.2 5.2-2.6 7-5 1.6-2.1-1.9-4.1-3.4-2z" fill="#ff1d89" opacity=".05"/><path d="m411.8 234.2c-.4.4-2.4 2.4-2.3 3-.3-1.5-2.3-1.8-3.3-.9-.9.9-1.9 1.8-2.8 2.7.2.5.1.6-.2 0-.4 0-1-.8-1.5-.9-1.8-.4-2.7 1.2-3.9 2.2-2.7 2.4-3.8.6-6.7 1.8-2 .9-3.1 2.7-4 4.5-1.2 2.3 2.2 4.3 3.5 2 2-3.7 4.2-1.8 6.9-2.7.7-.2 1.2-.7 1.8-1.1.1-.1 1.3-1.4 1.8-2.2.5.4 1.9.7 2.4.7 1.5-.1 2.9-1.3 4.1-2.5.5.3 1 .4 1.7.5 2.7.1 4-2.6 5.6-4.2 1.6-1.9-1.2-4.7-3.1-2.9z" fill="#ff1d89" opacity=".05"/><path d="m325.8 194.5-7.1 4.1c-2.5 1.4-3.4 4.7-1.9 7.2 1.4 2.5 4.7 3.4 7.2 1.9l7.1-4.1c2.5-1.4 3.4-4.7 1.9-7.2-1.5-2.5-4.7-3.3-7.2-1.9z" fill="#6b5144"/><path d="m375.3 181-7.1 4.1c-2.5 1.4-3.4 4.7-1.9 7.2 1.4 2.5 4.7 3.4 7.2 1.9l7.1-4.1c2.5-1.4 3.4-4.7 1.9-7.2-1.5-2.5-4.7-3.3-7.2-1.9z" fill="#6b5144"/><path d="m598.5 187.6c0 43.7-35.4 79.1-79.1 79.1-10 0-19.6-1.9-28.4-5.3-4.7-1.8-9.3-4.1-13.5-6.8-3.8-2.4-7.4-5.1-10.8-8.1-9.6-8.6-17.1-19.5-21.6-31.8-3.1-8.5-4.8-17.6-4.8-27.2 0-43.7 35.4-79.1 79.1-79.1 8.3 0 16.2 1.3 23.7 3.6 12.6 4 23.8 11 32.8 20.2 3.1 3.2 6 6.7 8.6 10.4 2.8 4.1 5.3 8.5 7.4 13.2 4.3 9.7 6.6 20.5 6.6 31.8z" fill="#f4a23c"/><circle cx="519.5" cy="187.6" fill="#f2be3d" r="66.7"/><path d="m544 186.8c1.4.6 2.7 1.1 3.9 1.8 4.8 2.8 7.2 6.9 7.2 12.4 0 3-.5 6-1.6 8.8-2 5.5-5.9 8.9-11.5 10.5-4.8 1.4-9.7 1.5-14.6 1.3-.9 0-1 .3-1.1 1-.4 4.2-.9 8.3-1.3 12.5-.1.7-.2 1-1 .9-2.2-.3-4.5-.5-6.7-.7-.9-.1-1.1-.4-1-1.3.5-4.1.8-8.1 1.3-12.2.1-.7 0-1-.8-1.1-1.7-.1-3.4-.3-5.1-.6-.8-.1-1 .1-1 .8-.4 4.1-.9 8.2-1.3 12.3-.1.9-.3 1.1-1.2 1-2.2-.3-4.3-.5-6.5-.7-.8-.1-1.1-.3-1-1.2.5-4.1.9-8.3 1.3-12.4.1-.8-.1-1.1-.9-1.2-5.3-.5-10.7-1.1-16-1.7-.6-.1-.5-.2-.4-.7.9-3 1.7-6 2.5-9 .1-.5.3-.7.9-.6 2 .2 3.9.5 5.9.6 1.9.1 3.2-1 3.4-3 .8-7 1.5-14.1 2.2-21.1.6-5.6 1.2-11.2 1.8-16.7.3-2.7-1.1-4.6-3.8-5.1-2-.4-4-.5-6-.7-.8-.1-1.1-.2-1-1.2.3-2.5.5-5.1.7-7.6 0-.6.3-.7.8-.6 3.8.4 7.5.8 11.3 1.2 1.7.2 3.4.4 5 .6.4 0 .5-.1.6-.6.6-4.2.9-8.5 1.4-12.7.1-.9.4-1 1.2-.9 2.2.3 4.4.5 6.6.7.9.1 1 .4.9 1.2-.5 4-.8 8-1.3 12.1-.1.7.1.9.8 1 1.8.1 3.6.3 5.3.5.6.1.8-.1.8-.7.4-4.1.9-8.1 1.3-12.2.1-.7.2-1 1.1-.9 2.3.3 4.6.6 6.8.7.8.1.9.4.9 1.1-.5 4.1-.8 8.2-1.3 12.2-.1 1 .2 1.2 1 1.4 4 .8 7.8 2 11.3 4.1 3.6 2.2 6.2 5.2 6.9 9.4.9 5.5 0 11.9-5.7 15.6-.9.7-1.8 1.2-3 1.7zm-16.2 23.4c1.2-.1 2.4-.4 3.6-.8 3.3-1.1 5.6-3 6.1-6.7s-1.1-6.3-4.2-8.2c-1.6-1-3.3-1.6-5-2.1-4.4-1.3-8.9-1.6-13.5-2-.5 0-.7.1-.8.7-.6 5.9-1.2 11.9-1.9 17.8 0 .4 0 .7.5.7 5.1.6 10.1 1.3 15.2.6zm0-28c1-.1 2-.3 3-.7 4.5-1.4 6.8-5.8 5.1-10.1-1-2.5-3-3.8-5.4-4.8-4.2-1.7-8.6-1.9-13.1-2.3-.5 0-.6.3-.6.6-.6 5.3-1.1 10.7-1.7 16 0 .4 0 .7.6.8 4 .5 8 1 12.1.5z" fill="#fefefd"/><path d="m576 132.3-8.5 8.9-92.1 96.4-8.5 8.9c-9.6-8.6-17.1-19.5-21.6-31.8l9.7-10.2 78.6-82.2 9.7-10.2c12.5 4 23.7 11 32.7 20.2z" fill="#fefefd" opacity=".48"/><path d="m591.9 155.8-9.4 9.8-82.1 85.9-9.4 9.8c-4.7-1.8-9.3-4.1-13.5-6.8l8.7-9.1 89.5-93.7 8.7-9.1c3 4.2 5.5 8.6 7.5 13.2z" fill="#fefefd" opacity=".48"/><path d="m220.5 118.7c9 20.9-.6 45.3-21.6 54.3-4.8 2.1-9.8 3.2-14.7 3.4-2.7.1-5.3 0-7.9-.4-2.3-.4-4.6-.9-6.8-1.7-6.4-2.1-12.2-5.8-17-10.8-3.2-3.4-5.9-7.5-7.9-12-9-20.9.6-45.3 21.6-54.3 4-1.7 8.1-2.8 12.1-3.2 6.8-.7 13.7.3 19.9 2.9 2.2.9 4.3 2 6.3 3.2 2.2 1.4 4.3 3 6.3 4.8 4 3.7 7.3 8.4 9.7 13.8z" fill="#f4a23c"/><ellipse cx="182.5" cy="135.1" fill="#f2be3d" rx="34.9" ry="34.9" transform="matrix(.9182 -.3962 .3962 .9182 -38.5995 83.368)"/><path d="m198.2 96.9-2.2 6-24.2 65.3-2.2 6c-6.4-2.1-12.2-5.8-17-10.8l2.6-6.9 20.7-55.7 2.6-6.9c6.7-.6 13.5.4 19.7 3z" fill="#fefefd" opacity=".48"/><path d="m210.7 104.9-2.5 6.7-21.6 58.2-2.5 6.6c-2.7.1-5.3 0-7.9-.4l2.3-6.2 23.5-63.5 2.3-6.2c2.4 1.3 4.5 2.9 6.4 4.8z" fill="#fefefd" opacity=".48"/><path d="m169.3 148.9 30.4 11 .4-32.4-8.8 20.2z" fill="#fefefd"/><path d="m198.5 125.2-33.2-14.9 2.4 36.3 21.8-1.5z" fill="#fefefd"/><path d="m108.7 375.5c-.3.8-.6 1.5-.9 2.2h-75.4c-2.5-5.4-3.7-11.4-3.6-17.5.1-4.7.9-9.5 2.7-14.2 8.1-21.3 32-32 53.3-23.9 4 1.5 7.7 3.6 10.9 6.2 5.4 4.3 9.6 9.8 12.3 15.9.9 2.2 1.7 4.4 2.3 6.7.6 2.5 1 5.2 1.1 7.8.2 5.6-.6 11.3-2.7 16.8z" fill="#f4a23c"/><path d="m105 361.8c-.1 3.8-.9 7.6-2.3 11.4-.6 1.6-1.3 3.1-2.1 4.5h-61c-.1-.2-.3-.5-.4-.7-3.2-6-4.6-13-3.8-20 .3-2.9 1-5.8 2.1-8.7 6.9-18 27-27 45-20.2 2.3.9 4.5 2 6.6 3.3 5.9 3.8 10.4 9.3 13.1 15.5.9 2.2 1.6 4.4 2.1 6.7.5 2.8.7 5.5.7 8.2z" fill="#f2be3d"/><path d="m108 344.3-5.8 2.8-8.4 4-5 2.4-7.8 3.7-5.5 2.6-5.8 2.7-4.5 2.1-3.3 1.6-1.6.7-8.4 4-1.3.6-11.4 5.5-1.5.7h-5.3c-2.5-5.4-3.7-11.4-3.6-17.5l6.6-3.2 19.7-9.3 8.5-4 5.5-2.6 3.7-1.8.9-.4 4-1.9 11.3-5.4 6.6-3.2c5.5 4.2 9.7 9.7 12.4 15.9z" fill="#fefefd" opacity=".48"/><path d="m111.4 358.8-6.4 3-18.6 8.9-.8.4-3.4 1.6-10.6 5h-17.6l5.2-2.5.4-.2 6.4-3 1.9-.9 2.2-1 .7-.3 5.2-2.5 12.6-6 1.7-.8 14.1-6.7 6-2.8c.5 2.5.8 5.1 1 7.8z" fill="#fefefd" opacity=".48"/><path d="m85.9 373.6-2.3 4.1h-14.7l-9.7-2.5-9.9-2.5.4-.7 5.8-10.6-4.5.5 2.5-5.4 4.9-.5 7.4-13.4 3.3-6.1 6.2 1.5 6.4 1.6-8.4 15 6.5-.7-2.7 4.9-6.6.8-2 3.4-3 5.4 5.2 1.3 11.5 2.9z" fill="#fefefd"/><path d="m652.3 261.1c3.6 13.7-4.7 27.7-18.4 31.2-3.1.8-6.3 1-9.3.7-1.6-.2-3.2-.5-4.8-1-1.4-.4-2.7-1-4-1.7-3.7-1.9-7-4.7-9.4-8.2-1.7-2.4-2.9-5.1-3.7-8.1-3.6-13.7 4.7-27.7 18.4-31.2 2.6-.7 5.2-.9 7.7-.8 4.3.2 8.4 1.5 11.9 3.7 1.2.7 2.4 1.6 3.5 2.6 1.2 1.1 2.4 2.2 3.4 3.5 2.2 2.6 3.8 5.7 4.7 9.3z" fill="#f4a23c"/><ellipse cx="627.5" cy="267.5" fill="#f2be3d" rx="21.6" ry="21.6" transform="matrix(.968 -.2511 .2511 .968 -47.0678 166.135)"/><path d="m640.8 245.6-1.9 3.5-21.1 37.8-1.9 3.5c-3.7-1.9-7-4.7-9.4-8.2l2.2-4 18-32.2 2.2-4c4.2.1 8.3 1.4 11.9 3.6z" fill="#fefefd" opacity=".48"/><path d="m647.7 251.7-2.1 3.8-18.8 33.6-2.1 3.8c-1.6-.2-3.2-.5-4.8-1l2-3.6 20.5-36.7 2-3.6c1.1 1.2 2.3 2.4 3.3 3.7z" fill="#fefefd" opacity=".48"/><path d="m617 272.6 14.9 12.2 6.6-18-8.9 9.5z" fill="#fefefd"/><path d="m638.1 265.2-15.6-15-5.9 20.8 12.5 3.5z" fill="#fefefd"/><path d="m287.3 72.7c3.6 13.7-4.7 27.7-18.4 31.2-3.1.8-6.3 1-9.3.7-1.6-.2-3.2-.5-4.8-1-1.4-.4-2.7-1-4-1.7-3.7-1.9-7-4.7-9.4-8.2-1.7-2.4-2.9-5.1-3.7-8.1-3.6-13.7 4.7-27.7 18.4-31.2 2.6-.7 5.2-.9 7.7-.8 4.3.2 8.4 1.5 11.9 3.7 1.2.7 2.4 1.6 3.5 2.6 1.2 1.1 2.4 2.2 3.4 3.5 2.2 2.6 3.8 5.8 4.7 9.3z" fill="#f4a23c"/><ellipse cx="262.5" cy="79.2" fill="#f2be3d" rx="21.6" ry="21.6" transform="matrix(.968 -.2511 .2511 .968 -11.4759 68.4541)"/><path d="m270.1 76.9c.5.1.9.1 1.4.2 1.7.5 2.8 1.6 3.3 3.3.2 1 .3 1.9.2 2.9-.2 1.9-1.1 3.3-2.8 4.2-1.4.8-2.9 1.3-4.5 1.6-.3.1-.3.2-.3.4.2 1.3.4 2.7.6 4 0 .2 0 .3-.2.4-.7.1-1.4.2-2.2.3-.3.1-.4 0-.4-.3-.2-1.3-.4-2.6-.6-3.9 0-.2-.1-.3-.3-.3-.5.1-1.1.2-1.7.2-.3 0-.3.1-.3.3.2 1.3.4 2.6.6 4 0 .3 0 .4-.3.4-.7.1-1.4.2-2.1.3-.3 0-.4 0-.4-.3-.2-1.3-.4-2.7-.6-4 0-.3-.1-.3-.4-.3-1.7.3-3.4.5-5.2.8-.2 0-.2 0-.2-.2 0-1 0-2 .1-3 0-.2 0-.2.2-.3.6-.1 1.3-.2 1.9-.3s.9-.6.8-1.2c-.3-2.3-.7-4.5-1-6.8-.3-1.8-.5-3.6-.8-5.4-.1-.9-.7-1.3-1.6-1.3-.7 0-1.3.2-1.9.3-.3 0-.4 0-.4-.3-.1-.8-.2-1.6-.4-2.4 0-.2.1-.2.2-.3 1.2-.2 2.4-.4 3.7-.5.5-.1 1.1-.2 1.6-.2.1 0 .2-.1.1-.2-.2-1.4-.4-2.7-.6-4.1 0-.3 0-.4.3-.4.7-.1 1.4-.2 2.1-.3.3 0 .4 0 .4.3.2 1.3.4 2.6.6 3.9 0 .2.1.3.3.2.6-.1 1.1-.2 1.7-.3.2 0 .2-.1.2-.3-.2-1.3-.4-2.6-.6-3.9 0-.2 0-.3.3-.4.7-.1 1.5-.2 2.2-.3.3 0 .3 0 .4.3.2 1.3.4 2.6.6 4 0 .3.2.4.4.3 1.3-.1 2.6 0 3.9.4s2.4 1.1 2.9 2.4c.7 1.7 1 3.7-.5 5.4-.1.2-.3.5-.7.7zm-3.1 8.7c.4-.1.7-.3 1.1-.5.9-.6 1.5-1.4 1.4-2.6-.2-1.2-.9-1.9-2-2.2-.6-.2-1.2-.2-1.8-.3-1.5 0-2.9.2-4.4.5-.2 0-.2.1-.2.3.3 1.9.6 3.8.9 5.7 0 .1 0 .2.2.2 1.6-.3 3.2-.5 4.8-1.1zm-2.3-8.8c.3-.1.6-.3.9-.5 1.3-.8 1.6-2.4.8-3.6-.5-.7-1.3-1-2.1-1.1-1.5-.2-2.9.1-4.3.3-.2 0-.2.1-.1.3.3 1.7.5 3.4.8 5.2 0 .1 0 .2.2.2 1.2-.2 2.5-.3 3.8-.8z" fill="#fefefd"/><path d="m275.7 57.2-1.9 3.5-21.1 37.8-1.9 3.5c-3.7-1.9-7-4.7-9.4-8.2l2.2-4 18-32.2 2.2-4c4.3.2 8.4 1.5 11.9 3.6z" fill="#fefefd" opacity=".48"/><path d="m282.6 63.3-2.1 3.8-18.8 33.6-2.1 3.8c-1.6-.2-3.2-.5-4.8-1l2-3.6 20.5-36.7 2-3.6c1.2 1.2 2.3 2.4 3.3 3.7z" fill="#fefefd" opacity=".48"/></svg>