<svg enable-background="new 0 0 681.9 377.4" viewBox="0 0 681.9 377.4" xmlns="http://www.w3.org/2000/svg" xmlns:xlink="http://www.w3.org/1999/xlink"><linearGradient id="a" gradientTransform="matrix(-.2209 -.9753 .9753 -.2209 -1745.2344 -1016.1196)" gradientUnits="userSpaceOnUse" x1="-1677.2976" x2="-1665.4023" y1="1700.6846" y2="1700.6846"><stop offset="0" stop-color="#f49784"/><stop offset="1" stop-color="#efc8ab"/></linearGradient><path d="m321.6 348.2c-1.6.2-2.8.2-3.7.2-6-.2-9.9 0-12.4.5-1.3 1.8-2.4 3.7-3.2 5.7 2.1 1.5 6.9 2.4 14.5 2.4 1.7 0 4.6.1 8 .2z" fill="#2d5b6b"/><path d="m335.7 357.7c3.3-2 6.4-4.4 9-7.2 1.4-1.6 2.6-3.3 3.8-5.2-7.8.5-15.9 1.6-22 2.4l5.2 9.9c1.3 0 2.7 0 4 .1z" fill="#2d5b6b"/><path d="m592.5 351.3v2.3c0 .6-.7 1.2-1.9 1.7-.4.2-.8.3-1.3.4-.3.1-.6.1-.9.2-1 .2-2 .4-3.2.5-1.8.2-3.8.4-6 .4-1.7 0-3.3-.1-4.8-.2-.6-.1-1.1-.1-1.6-.2-.2 0-.4-.1-.6-.1-.1 0-.2 0-.4-.1-.5-.1-1-.2-1.4-.3-1.6-.4-2.9-.8-3.6-1.3-.5-.3-.8-.7-.8-1.1v-2.3h3.8c2.4-.6 5.8-1 9.5-1 1.4 0 2.7.1 4 .2 2.1.2 4 .4 5.5.8h3.7z" fill="#e07d2b"/><path d="m588.4 352.2v3.7c-1 .2-2 .4-3.2.5v-4.3z" fill="#fefefd"/><path d="m590.5 351.9v3.3c-.4.2-.8.3-1.3.4v-3.7z" fill="#fefefd"/><path d="m572.8 353.7v2.7c-.2 0-.4-.1-.6-.1-.1 0-.2 0-.4-.1v-2.5z" fill="#f2be3d"/><path d="m570.4 352.4v3.5c-1.6-.3-2.9-.8-3.6-1.3v-2.2z" fill="#f2be3d"/><path d="m592.5 351.3c0 1.8-5.9 3.2-13.3 3.2-1.7 0-3.3-.1-4.8-.2-.8-.1-1.6-.2-2.3-.3-.6-.1-1.3-.2-1.8-.3-1.6-.4-2.9-.8-3.6-1.3-.5-.3-.8-.7-.8-1.1 0-1.8 5.9-3.2 13.3-3.2 1.4 0 2.7 0 4 .1 2.1.2 4 .5 5.5.8.5.1 1 .3 1.4.4.5.2.9.3 1.2.5 0 0 .1 0 .1.1.7.5 1.1.9 1.1 1.3z" fill="#f4a23c"/><ellipse cx="579.2" cy="351.3" fill="#f2be3d" rx="11.2" ry="2.7"/><path d="m591.5 350.1-19.7 3.3-1.4.4c-1.6-.4-2.9-.8-3.6-1.3l1.6-.4 13.2-3.3 1.6-.4c2.1.2 4 .5 5.5.8.5.1 1 .3 1.4.4.5.2.9.3 1.2.5z" fill="#fefefd" opacity=".48"/><path d="m620.5 355.1v2.3c0 .6-.7 1.2-1.9 1.7-.4.2-.8.3-1.3.4-.3.1-.6.1-.9.2-1 .2-2 .4-3.2.5-1.8.2-3.8.4-6 .4-1.7 0-3.3-.1-4.8-.2-.6-.1-1.1-.1-1.6-.2-.2 0-.4-.1-.6-.1-.1 0-.2 0-.4-.1-.5-.1-1-.2-1.4-.3-1.6-.4-2.9-.8-3.6-1.3-.5-.3-.8-.7-.8-1.1v-2.3h3.8c2.4-.6 5.8-1 9.5-1 1.4 0 2.7.1 4 .2 2.1.2 4 .4 5.5.8h3.7z" fill="#e07d2b"/><path d="m616.5 355.9v3.7c-1 .2-2 .4-3.2.5v-4.3z" fill="#fefefd"/><path d="m618.6 355.7v3.3c-.4.2-.8.3-1.3.4v-3.7z" fill="#fefefd"/><path d="m600.9 357.4v2.7c-.2 0-.4-.1-.6-.1-.1 0-.2 0-.4-.1v-2.5z" fill="#f2be3d"/><path d="m598.4 356.2v3.5c-1.6-.3-2.9-.8-3.6-1.3v-2.2z" fill="#f2be3d"/><path d="m620.5 355.1c0 1.8-5.9 3.2-13.3 3.2-1.7 0-3.3-.1-4.8-.2-.8-.1-1.6-.2-2.3-.3-.6-.1-1.3-.2-1.8-.3-1.6-.4-2.9-.8-3.6-1.3-.5-.3-.8-.7-.8-1.1 0-1.8 5.9-3.2 13.3-3.2 1.4 0 2.7 0 4 .1 2.1.2 4 .5 5.5.8.5.1 1 .3 1.4.4.5.2.9.3 1.2.5 0 0 .1 0 .1.1.8.4 1.1.8 1.1 1.3z" fill="#f4a23c"/><ellipse cx="607.2" cy="355.1" fill="#f2be3d" rx="11.2" ry="2.7"/><path d="m619.5 353.8-19.7 3.3-1.4.4c-1.6-.4-2.9-.8-3.6-1.3l1.6-.4 13.2-3.3 1.6-.4c2.1.2 4 .5 5.5.8.5.1 1 .3 1.4.4.5.2.9.3 1.2.5z" fill="#fefefd" opacity=".48"/><path d="m621.1 352.3v2.3c0 .6-.7 1.2-1.9 1.7-.4.2-.8.3-1.3.4-.3.1-.6.1-.9.2-1 .2-2 .4-3.2.5-1.8.2-3.8.4-6 .4-1.7 0-3.3-.1-4.8-.2-.6-.1-1.1-.1-1.6-.2-.2 0-.4-.1-.6-.1-.1 0-.2 0-.4-.1-.5-.1-1-.2-1.4-.3-1.6-.4-2.9-.8-3.6-1.3-.5-.3-.8-.7-.8-1.1v-2.3h3.8c2.4-.6 5.8-1 9.5-1 1.4 0 2.7.1 4 .2 2.1.2 4 .4 5.5.8h3.7z" fill="#e07d2b"/><path d="m617 353.1v3.7c-1 .2-2 .4-3.2.5v-4.3z" fill="#fefefd"/><path d="m619.2 352.9v3.3c-.4.2-.8.3-1.3.4v-3.7z" fill="#fefefd"/><path d="m601.4 354.7v2.7c-.2 0-.4-.1-.6-.1-.1 0-.2 0-.4-.1v-2.5z" fill="#f2be3d"/><path d="m599 353.4v3.5c-1.6-.3-2.9-.8-3.6-1.3v-2.2z" fill="#f2be3d"/><path d="m621.1 352.3c0 1.8-5.9 3.2-13.3 3.2-1.7 0-3.3-.1-4.8-.2-.8-.1-1.6-.2-2.3-.3-.6-.1-1.3-.2-1.8-.3-1.6-.4-2.9-.8-3.6-1.3-.5-.3-.8-.7-.8-1.1 0-1.8 5.9-3.2 13.3-3.2 1.4 0 2.7 0 4 .1 2.1.2 4 .5 5.5.8.5.1 1 .3 1.4.4.5.2.9.3 1.2.5 0 0 .1 0 .1.1.8.5 1.1.9 1.1 1.3z" fill="#f4a23c"/><ellipse cx="607.8" cy="352.3" fill="#f2be3d" rx="11.2" ry="2.7"/><path d="m620.1 351.1-19.7 3.3-1.4.4c-1.6-.4-2.9-.8-3.6-1.3l1.6-.4 13.2-3.3 1.6-.4c2.1.2 4 .5 5.5.8.5.1 1 .3 1.4.4.5.2.9.3 1.2.5.1-.1.2 0 .2 0z" fill="#fefefd" opacity=".48"/><path d="m620.9 349.7v2.3c0 .6-.7 1.2-1.9 1.7-.4.2-.8.3-1.3.4-.3.1-.6.1-.9.2-1 .2-2 .4-3.2.5-1.8.2-3.8.4-6 .4-1.7 0-3.3-.1-4.8-.2-.6-.1-1.1-.1-1.6-.2-.2 0-.4-.1-.6-.1-.1 0-.2 0-.4-.1-.5-.1-1-.2-1.4-.3-1.6-.4-2.9-.8-3.6-1.3-.5-.3-.8-.7-.8-1.1v-2.3h3.8c2.4-.6 5.8-1 9.5-1 1.4 0 2.7.1 4 .2 2.1.2 4 .4 5.5.8h3.7z" fill="#e07d2b"/><path d="m616.8 350.6v3.7c-1 .2-2 .4-3.2.5v-4.3z" fill="#fefefd"/><path d="m618.9 350.3v3.3c-.4.2-.8.3-1.3.4v-3.7z" fill="#fefefd"/><path d="m601.2 352.1v2.7c-.2 0-.4-.1-.6-.1-.1 0-.2 0-.4-.1v-2.5z" fill="#f2be3d"/><path d="m598.8 350.8v3.5c-1.6-.3-2.9-.8-3.6-1.3v-2.2z" fill="#f2be3d"/><path d="m620.9 349.7c0 1.8-5.9 3.2-13.3 3.2-1.7 0-3.3-.1-4.8-.2-.8-.1-1.6-.2-2.3-.3-.6-.1-1.3-.2-1.8-.3-1.6-.4-2.9-.8-3.6-1.3-.5-.3-.8-.7-.8-1.1 0-1.8 5.9-3.2 13.3-3.2 1.4 0 2.7 0 4 .1 2.1.2 4 .5 5.5.8.5.1 1 .3 1.4.4.5.2.9.3 1.2.5 0 0 .1 0 .1.1.7.5 1.1.9 1.1 1.3z" fill="#f4a23c"/><ellipse cx="607.6" cy="349.7" fill="#f2be3d" rx="11.2" ry="2.7"/><path d="m619.9 348.5-19.7 3.3-1.4.4c-1.6-.4-2.9-.8-3.6-1.3l1.6-.4 13.2-3.3 1.6-.4c2.1.2 4 .5 5.5.8.5.1 1 .3 1.4.4.5.2.9.3 1.2.5z" fill="#fefefd" opacity=".48"/><path d="m621.1 347.2v2.3c0 .6-.7 1.2-1.9 1.7-.4.2-.8.3-1.3.4-.3.1-.6.1-.9.2-1 .2-2 .4-3.2.5-1.8.2-3.8.4-6 .4-1.7 0-3.3-.1-4.8-.2-.6-.1-1.1-.1-1.6-.2-.2 0-.4-.1-.6-.1-.1 0-.2 0-.4-.1-.5-.1-1-.2-1.4-.3-1.6-.4-2.9-.8-3.6-1.3-.5-.3-.8-.7-.8-1.1v-2.3h3.8c2.4-.6 5.8-1 9.5-1 1.4 0 2.7.1 4 .2 2.1.2 4 .4 5.5.8h3.7z" fill="#e07d2b"/><path d="m617 348.1v3.7c-1 .2-2 .4-3.2.5v-4.3z" fill="#ffd066"/><path d="m619.2 347.8v3.3c-.4.2-.8.3-1.3.4v-3.7z" fill="#ffd066"/><path d="m601.4 349.6v2.7c-.2 0-.4-.1-.6-.1-.1 0-.2 0-.4-.1v-2.5z" fill="#f2be3d"/><path d="m599 348.4v3.5c-1.6-.3-2.9-.8-3.6-1.3v-2.2z" fill="#f2be3d"/><path d="m621.1 347.2c0 1.8-5.9 3.2-13.3 3.2-1.7 0-3.3-.1-4.8-.2-.8-.1-1.6-.2-2.3-.3-.6-.1-1.3-.2-1.8-.3-1.6-.4-2.9-.8-3.6-1.3-.5-.3-.8-.7-.8-1.1 0-1.8 5.9-3.2 13.3-3.2 1.4 0 2.7 0 4 .1 2.1.2 4 .5 5.5.8.5.1 1 .3 1.4.4.5.2.9.3 1.2.5 0 0 .1 0 .1.1.8.5 1.1.9 1.1 1.3z" fill="#f4a23c"/><ellipse cx="607.8" cy="347.2" fill="#f2be3d" rx="11.2" ry="2.7"/><path d="m620.1 346-19.7 3.3-1.4.4c-1.6-.4-2.9-.8-3.6-1.3l1.6-.4 13.2-3.3 1.6-.4c2.1.2 4 .5 5.5.8.5.1 1 .3 1.4.4.5.2.9.3 1.2.5z" fill="#fefefd" opacity=".48"/><path d="m622.7 344.5v2.3c0 .6-.7 1.2-1.9 1.7-.4.2-.8.3-1.3.4-.3.1-.6.1-.9.2-1 .2-2 .4-3.2.5-1.8.2-3.8.4-6 .4-1.7 0-3.3-.1-4.8-.2-.6-.1-1.1-.1-1.6-.2-.2 0-.4-.1-.6-.1-.1 0-.2 0-.4-.1-.5-.1-1-.2-1.4-.3-1.6-.4-2.9-.8-3.6-1.3-.5-.3-.8-.7-.8-1.1v-2.3h3.8c2.4-.6 5.8-1 9.5-1 1.4 0 2.7.1 4 .2 2.1.2 4 .4 5.5.8h3.7z" fill="#e07d2b"/><path d="m618.6 345.3v3.7c-1 .2-2 .4-3.2.5v-4.3z" fill="#ffd066"/><path d="m620.8 345.1v3.3c-.4.2-.8.3-1.3.4v-3.7z" fill="#ffd066"/><path d="m603 346.9v2.7c-.2 0-.4-.1-.6-.1-.1 0-.2 0-.4-.1v-2.5z" fill="#f2be3d"/><path d="m600.6 345.6v3.5c-1.6-.3-2.9-.8-3.6-1.3v-2.2z" fill="#f2be3d"/><path d="m622.7 344.5c0 1.8-5.9 3.2-13.3 3.2-1.7 0-3.3-.1-4.8-.2-.8-.1-1.6-.2-2.3-.3-.6-.1-1.3-.2-1.8-.3-1.6-.4-2.9-.8-3.6-1.3-.5-.3-.8-.7-.8-1.1 0-1.8 5.9-3.2 13.3-3.2 1.4 0 2.7 0 4 .1 2.1.2 4 .5 5.5.8.5.1 1 .3 1.4.4.5.2.9.3 1.2.5 0 0 .1 0 .1.1.7.4 1.1.8 1.1 1.3z" fill="#f4a23c"/><ellipse cx="609.4" cy="344.5" fill="#f2be3d" rx="11.2" ry="2.7"/><path d="m621.7 343.3-19.7 3.3-1.4.4c-1.6-.4-2.9-.8-3.6-1.3l1.6-.4 13.2-3.3 1.6-.4c2.1.2 4 .5 5.5.8.5.1 1 .3 1.4.4.5.2.9.3 1.2.5.1-.1.2-.1.2 0z" fill="#fefefd" opacity=".48"/><path d="m621.6 341.9v2.3c0 .6-.7 1.2-1.9 1.7-.4.2-.8.3-1.3.4-.3.1-.6.1-.9.2-1 .2-2 .4-3.2.5-1.8.2-3.8.4-6 .4-1.7 0-3.3-.1-4.8-.2-.6-.1-1.1-.1-1.6-.2-.2 0-.4-.1-.6-.1-.1 0-.2 0-.4-.1-.5-.1-1-.2-1.4-.3-1.6-.4-2.9-.8-3.6-1.3-.5-.3-.8-.7-.8-1.1v-2.3h3.8c2.4-.6 5.8-1 9.5-1 1.4 0 2.7.1 4 .2 2.1.2 4 .4 5.5.8h3.7z" fill="#e07d2b"/><path d="m617.5 342.7v3.7c-1 .2-2 .4-3.2.5v-4.3z" fill="#ffd066"/><path d="m619.6 342.5v3.3c-.4.2-.8.3-1.3.4v-3.7z" fill="#ffd066"/><path d="m601.9 344.3v2.7c-.2 0-.4-.1-.6-.1-.1 0-.2 0-.4-.1v-2.5z" fill="#f2be3d"/><path d="m599.5 343v3.5c-1.6-.3-2.9-.8-3.6-1.3v-2.2z" fill="#f2be3d"/><path d="m621.6 341.9c0 1.8-5.9 3.2-13.3 3.2-1.7 0-3.3-.1-4.8-.2-.8-.1-1.6-.2-2.3-.3-.6-.1-1.3-.2-1.8-.3-1.6-.4-2.9-.8-3.6-1.3-.5-.3-.8-.7-.8-1.1 0-1.8 5.9-3.2 13.3-3.2 1.4 0 2.7 0 4 .1 2.1.2 4 .5 5.5.8.5.1 1 .3 1.4.4.5.2.9.3 1.2.5 0 0 .1 0 .1.1.7.4 1.1.8 1.1 1.3z" fill="#f4a23c"/><ellipse cx="608.3" cy="341.9" fill="#f2be3d" rx="11.2" ry="2.7"/><path d="m620.6 340.7-19.7 3.3-1.4.4c-1.6-.4-2.9-.8-3.6-1.3l1.6-.4 13.2-3.3 1.6-.4c2.1.2 4 .5 5.5.8.5.1 1 .3 1.4.4.5.2.9.3 1.2.5.1-.1.2-.1.2 0z" fill="#fefefd" opacity=".48"/><path d="m605 363.5v2.3c0 .6-.7 1.2-1.9 1.7-.4.2-.8.3-1.3.4-.3.1-.6.1-.9.2-1 .2-2 .4-3.2.5-1.8.2-3.8.4-6 .4-1.7 0-3.3-.1-4.8-.2-.6-.1-1.1-.1-1.6-.2-.2 0-.4-.1-.6-.1-.1 0-.2 0-.4-.1-.5-.1-1-.2-1.4-.3-1.6-.4-2.9-.8-3.6-1.3-.5-.3-.8-.7-.8-1.1v-2.3h3.8c2.4-.6 5.8-1 9.5-1 1.4 0 2.7.1 4 .2 2.1.2 4 .4 5.5.8h3.7z" fill="#e07d2b"/><path d="m600.9 364.3v3.7c-1 .2-2 .4-3.2.5v-4.3z" fill="#ffd066"/><path d="m603 364.1v3.3c-.4.2-.8.3-1.3.4v-3.7z" fill="#ffd066"/><path d="m585.3 365.9v2.7c-.2 0-.4-.1-.6-.1-.1 0-.2 0-.4-.1v-2.5z" fill="#f2be3d"/><path d="m582.9 364.6v3.5c-1.6-.3-2.9-.8-3.6-1.3v-2.2z" fill="#f2be3d"/><path d="m605 363.5c0 1.8-5.9 3.2-13.3 3.2-1.7 0-3.3-.1-4.8-.2-.8-.1-1.6-.2-2.3-.3-.6-.1-1.3-.2-1.8-.3-1.6-.4-2.9-.8-3.6-1.3-.5-.3-.8-.7-.8-1.1 0-1.8 5.9-3.2 13.3-3.2 1.4 0 2.7 0 4 .1 2.1.2 4 .5 5.5.8.5.1 1 .3 1.4.4.5.2.9.3 1.2.5 0 0 .1 0 .1.1.7.4 1.1.8 1.1 1.3z" fill="#f4a23c"/><ellipse cx="591.7" cy="363.5" fill="#f2be3d" rx="11.2" ry="2.7"/><path d="m604 362.3-19.7 3.3-1.4.4c-1.6-.4-2.9-.8-3.6-1.3l1.6-.4 13.2-3.3 1.6-.4c2.1.2 4 .5 5.5.8.5.1 1 .3 1.4.4.5.2.9.3 1.2.5.1-.1.1-.1.2 0z" fill="#fefefd" opacity=".48"/><path d="m607 360.9v2.3c0 .6-.7 1.2-1.9 1.7-.4.2-.8.3-1.3.4-.3.1-.6.1-.9.2-1 .2-2 .4-3.2.5-1.8.2-3.8.4-6 .4-1.7 0-3.3-.1-4.8-.2-.6-.1-1.1-.1-1.6-.2-.2 0-.4-.1-.6-.1-.1 0-.2 0-.4-.1-.5-.1-1-.2-1.4-.3-1.6-.4-2.9-.8-3.6-1.3-.5-.3-.8-.7-.8-1.1v-2.3h3.8c2.4-.6 5.8-1 9.5-1 1.4 0 2.7.1 4 .2 2.1.2 4 .4 5.5.8h3.7z" fill="#e07d2b"/><path d="m603 361.7v3.7c-1 .2-2 .4-3.2.5v-4.3z" fill="#ffd066"/><path d="m605.1 361.5v3.3c-.4.2-.8.3-1.3.4v-3.7z" fill="#ffd066"/><path d="m587.4 363.2v2.7c-.2 0-.4-.1-.6-.1-.1 0-.2 0-.4-.1v-2.5z" fill="#f2be3d"/><path d="m585 362v3.5c-1.6-.3-2.9-.8-3.6-1.3v-2.2z" fill="#f2be3d"/><path d="m607 360.9c0 1.8-5.9 3.2-13.3 3.2-1.7 0-3.3-.1-4.8-.2-.8-.1-1.6-.2-2.3-.3-.6-.1-1.3-.2-1.8-.3-1.6-.4-2.9-.8-3.6-1.3-.5-.3-.8-.7-.8-1.1 0-1.8 5.9-3.2 13.3-3.2 1.4 0 2.7 0 4 .1 2.1.2 4 .5 5.5.8.5.1 1 .3 1.4.4.5.2.9.3 1.2.5 0 0 .1 0 .1.1.8.4 1.1.8 1.1 1.3z" fill="#f4a23c"/><ellipse cx="593.8" cy="360.9" fill="#f2be3d" rx="11.2" ry="2.7"/><path d="m606 359.6-19.7 3.3-1.4.4c-1.6-.4-2.9-.8-3.6-1.3l1.6-.4 13.2-3.3 1.6-.4c2.1.2 4 .5 5.5.8.5.1 1 .3 1.4.4.5.2.9.3 1.2.5z" fill="#fefefd" opacity=".48"/><path d="m608.3 358.4v2.3c0 .6-.7 1.2-1.9 1.7-.4.2-.8.3-1.3.4-.3.1-.6.1-.9.2-1 .2-2 .4-3.2.5-1.8.2-3.8.4-6 .4-1.7 0-3.3-.1-4.8-.2-.6-.1-1.1-.1-1.6-.2-.2 0-.4-.1-.6-.1-.1 0-.2 0-.4-.1-.5-.1-1-.2-1.4-.3-1.6-.4-2.9-.8-3.6-1.3-.5-.3-.8-.7-.8-1.1v-2.3h3.8c2.4-.6 5.8-1 9.5-1 1.4 0 2.7.1 4 .2 2.1.2 4 .4 5.5.8h3.7z" fill="#e07d2b"/><path d="m604.2 359.2v3.7c-1 .2-2 .4-3.2.5v-4.3z" fill="#ffd066"/><path d="m606.4 359v3.3c-.4.2-.8.3-1.3.4v-3.7z" fill="#ffd066"/><path d="m588.6 360.8v2.7c-.2 0-.4-.1-.6-.1-.1 0-.2 0-.4-.1v-2.5z" fill="#f2be3d"/><path d="m586.2 359.5v3.5c-1.6-.3-2.9-.8-3.6-1.3v-2.2z" fill="#f2be3d"/><path d="m608.3 358.4c0 1.8-5.9 3.2-13.3 3.2-1.7 0-3.3-.1-4.8-.2-.8-.1-1.6-.2-2.3-.3-.6-.1-1.3-.2-1.8-.3-1.6-.4-2.9-.8-3.6-1.3-.5-.3-.8-.7-.8-1.1 0-1.8 5.9-3.2 13.3-3.2 1.4 0 2.7 0 4 .1 2.1.2 4 .5 5.5.8.5.1 1 .3 1.4.4.5.2.9.3 1.2.5 0 0 .1 0 .1.1.8.4 1.1.9 1.1 1.3z" fill="#f4a23c"/><ellipse cx="595" cy="358.4" fill="#f2be3d" rx="11.2" ry="2.7"/><path d="m607.3 357.2-19.7 3.3-1.4.4c-1.6-.4-2.9-.8-3.6-1.3l1.6-.4 13.2-3.3 1.6-.4c2.1.2 4 .5 5.5.8.5.1 1 .3 1.4.4.5.2.9.3 1.2.5.1-.1.2-.1.2 0z" fill="#fefefd" opacity=".48"/><path d="m607 355.8v2.3c0 .6-.7 1.2-1.9 1.7-.4.2-.8.3-1.3.4-.3.1-.6.1-.9.2-1 .2-2 .4-3.2.5-1.8.2-3.8.4-6 .4-1.7 0-3.3-.1-4.8-.2-.6-.1-1.1-.1-1.6-.2-.2 0-.4-.1-.6-.1-.1 0-.2 0-.4-.1-.5-.1-1-.2-1.4-.3-1.6-.4-2.9-.8-3.6-1.3-.5-.3-.8-.7-.8-1.1v-2.3h3.8c2.4-.6 5.8-1 9.5-1 1.4 0 2.7.1 4 .2 2.1.2 4 .4 5.5.8h3.7z" fill="#e07d2b"/><path d="m603 356.6v3.7c-1 .2-2 .4-3.2.5v-4.3z" fill="#ffd066"/><path d="m605.1 356.4v3.3c-.4.2-.8.3-1.3.4v-3.7z" fill="#ffd066"/><path d="m587.4 358.2v2.7c-.2 0-.4-.1-.6-.1-.1 0-.2 0-.4-.1v-2.5z" fill="#f2be3d"/><path d="m585 356.9v3.5c-1.6-.3-2.9-.8-3.6-1.3v-2.2z" fill="#f2be3d"/><path d="m607 355.8c0 1.8-5.9 3.2-13.3 3.2-1.7 0-3.3-.1-4.8-.2-.8-.1-1.6-.2-2.3-.3-.6-.1-1.3-.2-1.8-.3-1.6-.4-2.9-.8-3.6-1.3-.5-.3-.8-.7-.8-1.1 0-1.8 5.9-3.2 13.3-3.2 1.4 0 2.7 0 4 .1 2.1.2 4 .5 5.5.8.5.1 1 .3 1.4.4.5.2.9.3 1.2.5 0 0 .1 0 .1.1.8.4 1.1.9 1.1 1.3z" fill="#f4a23c"/><ellipse cx="593.8" cy="355.8" fill="#f2be3d" rx="11.2" ry="2.7"/><path d="m606 354.6-19.7 3.3-1.4.4c-1.6-.4-2.9-.8-3.6-1.3l1.6-.4 13.2-3.3 1.6-.4c2.1.2 4 .5 5.5.8.5.1 1 .3 1.4.4.5.2.9.3 1.2.5.2-.1.2-.1.2 0z" fill="#fefefd" opacity=".48"/><path d="m606.9 353.3v2.3c0 .6-.7 1.2-1.9 1.7-.4.2-.8.3-1.3.4-.3.1-.6.1-.9.2-1 .2-2 .4-3.2.5-1.8.2-3.8.4-6 .4-1.7 0-3.3-.1-4.8-.2-.6-.1-1.1-.1-1.6-.2-.2 0-.4-.1-.6-.1-.1 0-.2 0-.4-.1-.5-.1-1-.2-1.4-.3-1.6-.4-2.9-.8-3.6-1.3-.5-.3-.8-.7-.8-1.1v-2.3h3.8c2.4-.6 5.8-1 9.5-1 1.4 0 2.7.1 4 .2 2.1.2 4 .4 5.5.8h3.7z" fill="#e07d2b"/><path d="m602.9 354.1v3.7c-1 .2-2 .4-3.2.5v-4.3z" fill="#ffd066"/><path d="m605 353.9v3.3c-.4.2-.8.3-1.3.4v-3.7z" fill="#ffd066"/><path d="m587.3 355.6v2.7c-.2 0-.4-.1-.6-.1-.1 0-.2 0-.4-.1v-2.5z" fill="#f2be3d"/><path d="m584.9 354.4v3.5c-1.6-.3-2.9-.8-3.6-1.3v-2.2z" fill="#f2be3d"/><path d="m606.9 353.3c0 1.8-5.9 3.2-13.3 3.2-1.7 0-3.3-.1-4.8-.2-.8-.1-1.6-.2-2.3-.3-.6-.1-1.3-.2-1.8-.3-1.6-.4-2.9-.8-3.6-1.3-.5-.3-.8-.7-.8-1.1 0-1.8 5.9-3.2 13.3-3.2 1.4 0 2.7 0 4 .1 2.1.2 4 .5 5.5.8.5.1 1 .3 1.4.4.5.2.9.3 1.2.5 0 0 .1 0 .1.1.8.4 1.1.8 1.1 1.3z" fill="#f4a23c"/><ellipse cx="593.7" cy="353.3" fill="#f2be3d" rx="11.2" ry="2.7"/><path d="m605.9 352-19.7 3.3-1.4.4c-1.6-.4-2.9-.8-3.6-1.3l1.6-.4 13.2-3.3 1.6-.4c2.1.2 4 .5 5.5.8.5.1 1 .3 1.4.4.5.2.9.3 1.2.5z" fill="#fefefd" opacity=".48"/><path d="m606.2 350.7v2.3c0 .6-.7 1.2-1.9 1.7-.4.2-.8.3-1.3.4-.3.1-.6.1-.9.2-1 .2-2 .4-3.2.5-1.8.2-3.8.4-6 .4-1.7 0-3.3-.1-4.8-.2-.6-.1-1.1-.1-1.6-.2-.2 0-.4-.1-.6-.1-.1 0-.2 0-.4-.1-.5-.1-1-.2-1.4-.3-1.6-.4-2.9-.8-3.6-1.3-.5-.3-.8-.7-.8-1.1v-2.3h3.8c2.4-.6 5.8-1 9.5-1 1.4 0 2.7.1 4 .2 2.1.2 4 .4 5.5.8h3.7z" fill="#e07d2b"/><path d="m602.2 351.6v3.7c-1 .2-2 .4-3.2.5v-4.3z" fill="#ffd066"/><path d="m604.3 351.3v3.3c-.4.2-.8.3-1.3.4v-3.7z" fill="#ffd066"/><path d="m586.6 353.1v2.7c-.2 0-.4-.1-.6-.1-.1 0-.2 0-.4-.1v-2.5z" fill="#f2be3d"/><path d="m584.2 351.8v3.5c-1.6-.3-2.9-.8-3.6-1.3v-2.2z" fill="#f2be3d"/><path d="m606.2 350.7c0 1.8-5.9 3.2-13.3 3.2-1.7 0-3.3-.1-4.8-.2-.8-.1-1.6-.2-2.3-.3-.6-.1-1.3-.2-1.8-.3-1.6-.4-2.9-.8-3.6-1.3-.5-.3-.8-.7-.8-1.1 0-1.8 5.9-3.2 13.3-3.2 1.4 0 2.7 0 4 .1 2.1.2 4 .5 5.5.8.5.1 1 .3 1.4.4.5.2.9.3 1.2.5 0 0 .1 0 .1.1.8.5 1.1.9 1.1 1.3z" fill="#f4a23c"/><ellipse cx="593" cy="350.7" fill="#f2be3d" rx="11.2" ry="2.7"/><path d="m605.2 349.5-19.7 3.3-1.4.4c-1.6-.4-2.9-.8-3.6-1.3l1.6-.4 13.2-3.3 1.6-.4c2.1.2 4 .5 5.5.8.5.1 1 .3 1.4.4.5.2.9.3 1.2.5z" fill="#fefefd" opacity=".48"/><path d="m606.8 347.2v2.3c0 .6-.7 1.2-1.9 1.7-.4.2-.8.3-1.3.4-.3.1-.6.1-.9.2-1 .2-2 .4-3.2.5-1.8.2-3.8.4-6 .4-1.7 0-3.3-.1-4.8-.2-.6-.1-1.1-.1-1.6-.2-.2 0-.4-.1-.6-.1-.1 0-.2 0-.4-.1-.5-.1-1-.2-1.4-.3-1.6-.4-2.9-.8-3.6-1.3-.5-.3-.8-.7-.8-1.1v-2.3h3.8c2.4-.6 5.8-1 9.5-1 1.4 0 2.7.1 4 .2 2.1.2 4 .4 5.5.8h3.7z" fill="#e07d2b"/><path d="m602.8 348.1v3.7c-1 .2-2 .4-3.2.5v-4.3z" fill="#ffd066"/><path d="m604.9 347.8v3.3c-.4.2-.8.3-1.3.4v-3.7z" fill="#ffd066"/><path d="m587.2 349.6v2.7c-.2 0-.4-.1-.6-.1-.1 0-.2 0-.4-.1v-2.5z" fill="#f2be3d"/><path d="m584.8 348.3v3.5c-1.6-.3-2.9-.8-3.6-1.3v-2.2z" fill="#f2be3d"/><path d="m606.8 347.2c0 1.8-5.9 3.2-13.3 3.2-1.7 0-3.3-.1-4.8-.2-.8-.1-1.6-.2-2.3-.3-.6-.1-1.3-.2-1.8-.3-1.6-.4-2.9-.8-3.6-1.3-.5-.3-.8-.7-.8-1.1 0-1.8 5.9-3.2 13.3-3.2 1.4 0 2.7 0 4 .1 2.1.2 4 .5 5.5.8.5.1 1 .3 1.4.4.5.2.9.3 1.2.5 0 0 .1 0 .1.1.8.5 1.1.9 1.1 1.3z" fill="#f4a23c"/><ellipse cx="593.6" cy="347.2" fill="#f2be3d" rx="11.2" ry="2.7"/><path d="m605.8 346-19.7 3.3-1.4.4c-1.6-.4-2.9-.8-3.6-1.3l1.6-.4 13.2-3.3 1.6-.4c2.1.2 4 .5 5.5.8.5.1 1 .3 1.4.4.5.2.9.3 1.2.5z" fill="#fefefd" opacity=".48"/><path d="m606.1 344.8v2.3c0 .6-.7 1.2-1.9 1.7-.4.2-.8.3-1.3.4-.3.1-.6.1-.9.2-1 .2-2 .4-3.2.5-1.8.2-3.8.4-6 .4-1.7 0-3.3-.1-4.8-.2-.6-.1-1.1-.1-1.6-.2-.2 0-.4-.1-.6-.1-.1 0-.2 0-.4-.1-.5-.1-1-.2-1.4-.3-1.6-.4-2.9-.8-3.6-1.3-.5-.3-.8-.7-.8-1.1v-2.3h3.8c2.4-.6 5.8-1 9.5-1 1.4 0 2.7.1 4 .2 2.1.2 4 .4 5.5.8h3.7z" fill="#e07d2b"/><path d="m602.1 345.6v3.7c-1 .2-2 .4-3.2.5v-4.3z" fill="#ffd066"/><path d="m604.2 345.4v3.3c-.4.2-.8.3-1.3.4v-3.7z" fill="#ffd066"/><path d="m586.5 347.2v2.7c-.2 0-.4-.1-.6-.1-.1 0-.2 0-.4-.1v-2.5z" fill="#f2be3d"/><path d="m584.1 345.9v3.5c-1.6-.3-2.9-.8-3.6-1.3v-2.2z" fill="#f2be3d"/><path d="m606.1 344.8c0 1.8-5.9 3.2-13.3 3.2-1.7 0-3.3-.1-4.8-.2-.8-.1-1.6-.2-2.3-.3-.6-.1-1.3-.2-1.8-.3-1.6-.4-2.9-.8-3.6-1.3-.5-.3-.8-.7-.8-1.1 0-1.8 5.9-3.2 13.3-3.2 1.4 0 2.7 0 4 .1 2.1.2 4 .5 5.5.8.5.1 1 .3 1.4.4.5.2.9.3 1.2.5 0 0 .1 0 .1.1.8.4 1.1.8 1.1 1.3z" fill="#f4a23c"/><ellipse cx="592.9" cy="344.8" fill="#f2be3d" rx="11.2" ry="2.7"/><path d="m605.1 343.5-19.7 3.3-1.4.4c-1.6-.4-2.9-.8-3.6-1.3l1.6-.4 13.2-3.3 1.6-.4c2.1.2 4 .5 5.5.8.5.1 1 .3 1.4.4.5.2.9.3 1.2.5z" fill="#fefefd" opacity=".48"/><path d="m606.1 341.9v2.3c0 .6-.7 1.2-1.9 1.7-.4.2-.8.3-1.3.4-.3.1-.6.1-.9.2-1 .2-2 .4-3.2.5-1.8.2-3.8.4-6 .4-1.7 0-3.3-.1-4.8-.2-.6-.1-1.1-.1-1.6-.2-.2 0-.4-.1-.6-.1-.1 0-.2 0-.4-.1-.5-.1-1-.2-1.4-.3-1.6-.4-2.9-.8-3.6-1.3-.5-.3-.8-.7-.8-1.1v-2.3h3.8c2.4-.6 5.8-1 9.5-1 1.4 0 2.7.1 4 .2 2.1.2 4 .4 5.5.8h3.7z" fill="#e07d2b"/><path d="m602.1 342.7v3.7c-1 .2-2 .4-3.2.5v-4.3z" fill="#ffd066"/><path d="m604.2 342.5v3.3c-.4.2-.8.3-1.3.4v-3.7z" fill="#ffd066"/><path d="m586.5 344.3v2.7c-.2 0-.4-.1-.6-.1-.1 0-.2 0-.4-.1v-2.5z" fill="#f2be3d"/><path d="m584.1 343v3.5c-1.6-.3-2.9-.8-3.6-1.3v-2.2z" fill="#f2be3d"/><path d="m606.1 341.9c0 1.8-5.9 3.2-13.3 3.2-1.7 0-3.3-.1-4.8-.2-.8-.1-1.6-.2-2.3-.3-.6-.1-1.3-.2-1.8-.3-1.6-.4-2.9-.8-3.6-1.3-.5-.3-.8-.7-.8-1.1 0-1.8 5.9-3.2 13.3-3.2 1.4 0 2.7 0 4 .1 2.1.2 4 .5 5.5.8.5.1 1 .3 1.4.4.5.2.9.3 1.2.5 0 0 .1 0 .1.1.8.4 1.1.8 1.1 1.3z" fill="#f4a23c"/><ellipse cx="592.9" cy="341.9" fill="#f2be3d" rx="11.2" ry="2.7"/><path d="m605.1 340.7-19.7 3.3-1.4.4c-1.6-.4-2.9-.8-3.6-1.3l1.6-.4 13.2-3.3 1.6-.4c2.1.2 4 .5 5.5.8.5.1 1 .3 1.4.4.5.2.9.3 1.2.5.2-.1.2-.1.2 0z" fill="#fefefd" opacity=".48"/><path d="m634.4 364.1v2.3c0 .6-.7 1.2-1.9 1.7-.4.2-.8.3-1.3.4-.3.1-.6.1-.9.2-1 .2-2 .4-3.2.5-1.8.2-3.8.4-6 .4-1.7 0-3.3-.1-4.8-.2-.6-.1-1.1-.1-1.6-.2-.2 0-.4-.1-.6-.1-.1 0-.2 0-.4-.1-.5-.1-1-.2-1.4-.3-1.6-.4-2.9-.8-3.6-1.3-.5-.3-.8-.7-.8-1.1v-2.3h3.8c2.4-.6 5.8-1 9.5-1 1.4 0 2.7.1 4 .2 2.1.2 4 .4 5.5.8h3.7z" fill="#e07d2b"/><path d="m630.3 364.9v3.7c-1 .2-2 .4-3.2.5v-4.3z" fill="#ffd066"/><path d="m632.4 364.7v3.3c-.4.2-.8.3-1.3.4v-3.7z" fill="#ffd066"/><path d="m614.7 366.4v2.7c-.2 0-.4-.1-.6-.1-.1 0-.2 0-.4-.1v-2.5z" fill="#f2be3d"/><path d="m612.3 365.2v3.5c-1.6-.3-2.9-.8-3.6-1.3v-2.2z" fill="#f2be3d"/><path d="m634.4 364.1c0 1.8-5.9 3.2-13.3 3.2-1.7 0-3.3-.1-4.8-.2-.8-.1-1.6-.2-2.3-.3-.6-.1-1.3-.2-1.8-.3-1.6-.4-2.9-.8-3.6-1.3-.5-.3-.8-.7-.8-1.1 0-1.8 5.9-3.2 13.3-3.2 1.4 0 2.7 0 4 .1 2.1.2 4 .5 5.5.8.5.1 1 .3 1.4.4.5.2.9.3 1.2.5 0 0 .1 0 .1.1.7.4 1.1.8 1.1 1.3z" fill="#f4a23c"/><ellipse cx="621.1" cy="364.1" fill="#f2be3d" rx="11.2" ry="2.7"/><path d="m633.4 362.8-19.7 3.3-1.4.4c-1.6-.4-2.9-.8-3.6-1.3l1.6-.4 13.2-3.3 1.6-.4c2.1.2 4 .5 5.5.8.5.1 1 .3 1.4.4.5.2.9.3 1.2.5z" fill="#fefefd" opacity=".48"/><path d="m634 361.4v2.3c0 .6-.7 1.2-1.9 1.7-.4.2-.8.3-1.3.4-.3.1-.6.1-.9.2-1 .2-2 .4-3.2.5-1.8.2-3.8.4-6 .4-1.7 0-3.3-.1-4.8-.2-.6-.1-1.1-.1-1.6-.2-.2 0-.4-.1-.6-.1-.1 0-.2 0-.4-.1-.5-.1-1-.2-1.4-.3-1.6-.4-2.9-.8-3.6-1.3-.5-.3-.8-.7-.8-1.1v-2.3h3.8c2.4-.6 5.8-1 9.5-1 1.4 0 2.7.1 4 .2 2.1.2 4 .4 5.5.8h3.7z" fill="#e07d2b"/><path d="m630 362.2v3.7c-1 .2-2 .4-3.2.5v-4.3z" fill="#ffd066"/><path d="m632.1 362v3.3c-.4.2-.8.3-1.3.4v-3.7z" fill="#ffd066"/><path d="m614.4 363.8v2.7c-.2 0-.4-.1-.6-.1-.1 0-.2 0-.4-.1v-2.5z" fill="#f2be3d"/><path d="m612 362.5v3.5c-1.6-.3-2.9-.8-3.6-1.3v-2.2z" fill="#f2be3d"/><path d="m634 361.4c0 1.8-5.9 3.2-13.3 3.2-1.7 0-3.3-.1-4.8-.2-.8-.1-1.6-.2-2.3-.3-.6-.1-1.3-.2-1.8-.3-1.6-.4-2.9-.8-3.6-1.3-.5-.3-.8-.7-.8-1.1 0-1.8 5.9-3.2 13.3-3.2 1.4 0 2.7 0 4 .1 2.1.2 4 .5 5.5.8.5.1 1 .3 1.4.4.5.2.9.3 1.2.5 0 0 .1 0 .1.1.8.5 1.1.9 1.1 1.3z" fill="#f4a23c"/><ellipse cx="620.8" cy="361.4" fill="#f2be3d" rx="11.2" ry="2.7"/><path d="m633 360.2-19.7 3.3-1.4.4c-1.6-.4-2.9-.8-3.6-1.3l1.6-.4 13.2-3.3 1.6-.4c2.1.2 4 .5 5.5.8.5.1 1 .3 1.4.4.5.2.9.3 1.2.5.2-.1.2-.1.2 0z" fill="#fefefd" opacity=".48"/><path d="m635.2 358.8v2.3c0 .6-.7 1.2-1.9 1.7-.4.2-.8.3-1.3.4-.3.1-.6.1-.9.2-1 .2-2 .4-3.2.5-1.8.2-3.8.4-6 .4-1.7 0-3.3-.1-4.8-.2-.6-.1-1.1-.1-1.6-.2-.2 0-.4-.1-.6-.1-.1 0-.2 0-.4-.1-.5-.1-1-.2-1.4-.3-1.6-.4-2.9-.8-3.6-1.3-.5-.3-.8-.7-.8-1.1v-2.3h3.8c2.4-.6 5.8-1 9.5-1 1.4 0 2.7.1 4 .2 2.1.2 4 .4 5.5.8h3.7z" fill="#e07d2b"/><path d="m631.1 359.6v3.7c-1 .2-2 .4-3.2.5v-4.3z" fill="#ffd066"/><path d="m633.3 359.4v3.3c-.4.2-.8.3-1.3.4v-3.7z" fill="#ffd066"/><path d="m615.5 361.2v2.7c-.2 0-.4-.1-.6-.1-.1 0-.2 0-.4-.1v-2.5z" fill="#f2be3d"/><path d="m613.1 359.9v3.5c-1.6-.3-2.9-.8-3.6-1.3v-2.2z" fill="#f2be3d"/><path d="m635.2 358.8c0 1.8-5.9 3.2-13.3 3.2-1.7 0-3.3-.1-4.8-.2-.8-.1-1.6-.2-2.3-.3-.6-.1-1.3-.2-1.8-.3-1.6-.4-2.9-.8-3.6-1.3-.5-.3-.8-.7-.8-1.1 0-1.8 5.9-3.2 13.3-3.2 1.4 0 2.7 0 4 .1 2.1.2 4 .5 5.5.8.5.1 1 .3 1.4.4.5.2.9.3 1.2.5 0 0 .1 0 .1.1.7.4 1.1.8 1.1 1.3z" fill="#f4a23c"/><ellipse cx="621.9" cy="358.8" fill="#f2be3d" rx="11.2" ry="2.7"/><path d="m634.2 357.5-19.7 3.3-1.4.4c-1.6-.4-2.9-.8-3.6-1.3l1.6-.4 13.2-3.3 1.6-.4c2.1.2 4 .5 5.5.8.5.1 1 .3 1.4.4.5.2.9.3 1.2.5z" fill="#fefefd" opacity=".48"/><path d="m636 355.3v2.3c0 .6-.7 1.2-1.9 1.7-.4.2-.8.3-1.3.4-.3.1-.6.1-.9.2-1 .2-2 .4-3.2.5-1.8.2-3.8.4-6 .4-1.7 0-3.3-.1-4.8-.2-.6-.1-1.1-.1-1.6-.2-.2 0-.4-.1-.6-.1-.1 0-.2 0-.4-.1-.5-.1-1-.2-1.4-.3-1.6-.4-2.9-.8-3.6-1.3-.5-.3-.8-.7-.8-1.1v-2.3h3.8c2.4-.6 5.8-1 9.5-1 1.4 0 2.7.1 4 .2 2.1.2 4 .4 5.5.8h3.7z" fill="#e07d2b"/><path d="m631.9 356.1v3.7c-1 .2-2 .4-3.2.5v-4.3z" fill="#ffd066"/><path d="m634 355.9v3.3c-.4.2-.8.3-1.3.4v-3.7z" fill="#ffd066"/><path d="m616.3 357.7v2.7c-.2 0-.4-.1-.6-.1-.1 0-.2 0-.4-.1v-2.5z" fill="#f2be3d"/><path d="m613.9 356.4v3.5c-1.6-.3-2.9-.8-3.6-1.3v-2.2z" fill="#f2be3d"/><path d="m636 355.3c0 1.8-5.9 3.2-13.3 3.2-1.7 0-3.3-.1-4.8-.2-.8-.1-1.6-.2-2.3-.3-.6-.1-1.3-.2-1.8-.3-1.6-.4-2.9-.8-3.6-1.3-.5-.3-.8-.7-.8-1.1 0-1.8 5.9-3.2 13.3-3.2 1.4 0 2.7 0 4 .1 2.1.2 4 .5 5.5.8.5.1 1 .3 1.4.4.5.2.9.3 1.2.5 0 0 .1 0 .1.1.7.4 1.1.8 1.1 1.3z" fill="#f4a23c"/><ellipse cx="622.7" cy="355.3" fill="#f2be3d" rx="11.2" ry="2.7"/><path d="m635 354-19.7 3.3-1.4.4c-1.6-.4-2.9-.8-3.6-1.3l1.6-.4 13.2-3.3 1.6-.4c2.1.2 4 .5 5.5.8.5.1 1 .3 1.4.4.5.2.9.3 1.2.5z" fill="#fefefd" opacity=".48"/><path d="m633.9 352.8v2.3c0 .6-.7 1.2-1.9 1.7-.4.2-.8.3-1.3.4-.3.1-.6.1-.9.2-1 .2-2 .4-3.2.5-1.8.2-3.8.4-6 .4-1.7 0-3.3-.1-4.8-.2-.6-.1-1.1-.1-1.6-.2-.2 0-.4-.1-.6-.1-.1 0-.2 0-.4-.1-.5-.1-1-.2-1.4-.3-1.6-.4-2.9-.8-3.6-1.3-.5-.3-.8-.7-.8-1.1v-2.3h3.8c2.4-.6 5.8-1 9.5-1 1.4 0 2.7.1 4 .2 2.1.2 4 .4 5.5.8h3.7z" fill="#e07d2b"/><path d="m629.9 353.6v3.7c-1 .2-2 .4-3.2.5v-4.3z" fill="#ffd066"/><path d="m632 353.4v3.3c-.4.2-.8.3-1.3.4v-3.7z" fill="#ffd066"/><path d="m614.3 355.2v2.7c-.2 0-.4-.1-.6-.1-.1 0-.2 0-.4-.1v-2.5z" fill="#f2be3d"/><path d="m611.9 353.9v3.5c-1.6-.3-2.9-.8-3.6-1.3v-2.2z" fill="#f2be3d"/><path d="m633.9 352.8c0 1.8-5.9 3.2-13.3 3.2-1.7 0-3.3-.1-4.8-.2-.8-.1-1.6-.2-2.3-.3-.6-.1-1.3-.2-1.8-.3-1.6-.4-2.9-.8-3.6-1.3-.5-.3-.8-.7-.8-1.1 0-1.8 5.9-3.2 13.3-3.2 1.4 0 2.7 0 4 .1 2.1.2 4 .5 5.5.8.5.1 1 .3 1.4.4.5.2.9.3 1.2.5 0 0 .1 0 .1.1.8.5 1.1.9 1.1 1.3z" fill="#f4a23c"/><ellipse cx="620.7" cy="352.8" fill="#f2be3d" rx="11.2" ry="2.7"/><path d="m632.9 351.6-19.7 3.3-1.4.4c-1.6-.4-2.9-.8-3.6-1.3l1.6-.4 13.2-3.3 1.6-.4c2.1.2 4 .5 5.5.8.5.1 1 .3 1.4.4.5.2.9.3 1.2.5.2-.1.2 0 .2 0z" fill="#fefefd" opacity=".48"/><path d="m664.4 357.5v2.3c0 .6-.7 1.2-1.9 1.7-.4.2-.8.3-1.3.4-.3.1-.6.1-.9.2-1 .2-2 .4-3.2.5-1.8.2-3.8.4-6 .4-1.7 0-3.3-.1-4.8-.2-.6-.1-1.1-.1-1.6-.2-.2 0-.4-.1-.6-.1-.1 0-.2 0-.4-.1-.5-.1-1-.2-1.4-.3-1.6-.4-2.9-.8-3.6-1.3-.5-.3-.8-.7-.8-1.1v-2.3h3.8c2.4-.6 5.8-1 9.5-1 1.4 0 2.7.1 4 .2 2.1.2 4 .4 5.5.8h3.7z" fill="#e07d2b"/><path d="m660.4 358.4v3.7c-1 .2-2 .4-3.2.5v-4.3z" fill="#ffd066"/><path d="m662.5 358.1v3.3c-.4.2-.8.3-1.3.4v-3.7z" fill="#ffd066"/><path d="m644.8 359.9v2.7c-.2 0-.4-.1-.6-.1-.1 0-.2 0-.4-.1v-2.5z" fill="#f2be3d"/><path d="m642.3 358.6v3.5c-1.6-.3-2.9-.8-3.6-1.3v-2.2z" fill="#f2be3d"/><path d="m664.4 357.5c0 1.8-5.9 3.2-13.3 3.2-1.7 0-3.3-.1-4.8-.2-.8-.1-1.6-.2-2.3-.3-.6-.1-1.3-.2-1.8-.3-1.6-.4-2.9-.8-3.6-1.3-.5-.3-.8-.7-.8-1.1 0-1.8 5.9-3.2 13.3-3.2 1.4 0 2.7 0 4 .1 2.1.2 4 .5 5.5.8.5.1 1 .3 1.4.4.5.2.9.3 1.2.5 0 0 .1 0 .1.1.8.5 1.1.9 1.1 1.3z" fill="#f4a23c"/><ellipse cx="651.1" cy="357.5" fill="#f2be3d" rx="11.2" ry="2.7"/><path d="m663.4 356.3-19.7 3.3-1.4.4c-1.6-.4-2.9-.8-3.6-1.3l1.6-.4 13.2-3.3 1.6-.4c2.1.2 4 .5 5.5.8.5.1 1 .3 1.4.4.5.2.9.3 1.2.5z" fill="#fefefd" opacity=".48"/><path d="m664.4 354.1v2.3c0 .6-.7 1.2-1.9 1.7-.4.2-.8.3-1.3.4-.3.1-.6.1-.9.2-1 .2-2 .4-3.2.5-1.8.2-3.8.4-6 .4-1.7 0-3.3-.1-4.8-.2-.6-.1-1.1-.1-1.6-.2-.2 0-.4-.1-.6-.1-.1 0-.2 0-.4-.1-.5-.1-1-.2-1.4-.3-1.6-.4-2.9-.8-3.6-1.3-.5-.3-.8-.7-.8-1.1v-2.3h3.8c2.4-.6 5.8-1 9.5-1 1.4 0 2.7.1 4 .2 2.1.2 4 .4 5.5.8h3.7z" fill="#e07d2b"/><path d="m660.4 354.9v3.7c-1 .2-2 .4-3.2.5v-4.3z" fill="#ffd066"/><path d="m662.5 354.7v3.3c-.4.2-.8.3-1.3.4v-3.7z" fill="#ffd066"/><path d="m644.8 356.5v2.7c-.2 0-.4-.1-.6-.1-.1 0-.2 0-.4-.1v-2.5z" fill="#f2be3d"/><path d="m642.3 355.2v3.5c-1.6-.3-2.9-.8-3.6-1.3v-2.2z" fill="#f2be3d"/><path d="m664.4 354.1c0 1.8-5.9 3.2-13.3 3.2-1.7 0-3.3-.1-4.8-.2-.8-.1-1.6-.2-2.3-.3-.6-.1-1.3-.2-1.8-.3-1.6-.4-2.9-.8-3.6-1.3-.5-.3-.8-.7-.8-1.1 0-1.8 5.9-3.2 13.3-3.2 1.4 0 2.7 0 4 .1 2.1.2 4 .5 5.5.8.5.1 1 .3 1.4.4.5.2.9.3 1.2.5 0 0 .1 0 .1.1.8.5 1.1.9 1.1 1.3z" fill="#f4a23c"/><ellipse cx="651.1" cy="354.1" fill="#f2be3d" rx="11.2" ry="2.7"/><path d="m663.4 352.9-19.7 3.3-1.4.4c-1.6-.4-2.9-.8-3.6-1.3l1.6-.4 13.2-3.3 1.6-.4c2.1.2 4 .5 5.5.8.5.1 1 .3 1.4.4.5.2.9.3 1.2.5.2-.1.2 0 .2 0z" fill="#fefefd" opacity=".48"/><path d="m663.4 350.4v2.3c0 .6-.7 1.2-1.9 1.7-.4.2-.8.3-1.3.4-.3.1-.6.1-.9.2-1 .2-2 .4-3.2.5-1.8.2-3.8.4-6 .4-1.7 0-3.3-.1-4.8-.2-.6-.1-1.1-.1-1.6-.2-.2 0-.4-.1-.6-.1-.1 0-.2 0-.4-.1-.5-.1-1-.2-1.4-.3-1.6-.4-2.9-.8-3.6-1.3-.5-.3-.8-.7-.8-1.1v-2.3h3.8c2.4-.6 5.8-1 9.5-1 1.4 0 2.7.1 4 .2 2.1.2 4 .4 5.5.8h3.7z" fill="#e07d2b"/><path d="m659.4 351.2v3.7c-1 .2-2 .4-3.2.5v-4.3z" fill="#ffd066"/><path d="m661.5 351v3.3c-.4.2-.8.3-1.3.4v-3.7z" fill="#ffd066"/><path d="m643.8 352.8v2.7c-.2 0-.4-.1-.6-.1-.1 0-.2 0-.4-.1v-2.5z" fill="#f2be3d"/><path d="m641.3 351.5v3.5c-1.6-.3-2.9-.8-3.6-1.3v-2.2z" fill="#f2be3d"/><path d="m663.4 350.4c0 1.8-5.9 3.2-13.3 3.2-1.7 0-3.3-.1-4.8-.2-.8-.1-1.6-.2-2.3-.3-.6-.1-1.3-.2-1.8-.3-1.6-.4-2.9-.8-3.6-1.3-.5-.3-.8-.7-.8-1.1 0-1.8 5.9-3.2 13.3-3.2 1.4 0 2.7 0 4 .1 2.1.2 4 .5 5.5.8.5.1 1 .3 1.4.4.5.2.9.3 1.2.5 0 0 .1 0 .1.1.8.4 1.1.8 1.1 1.3z" fill="#f4a23c"/><ellipse cx="650.1" cy="350.4" fill="#f2be3d" rx="11.2" ry="2.7"/><path d="m662.4 349.2-19.7 3.3-1.4.4c-1.6-.4-2.9-.8-3.6-1.3l1.6-.4 13.2-3.3 1.6-.4c2.1.2 4 .5 5.5.8.5.1 1 .3 1.4.4.5.2.9.3 1.2.5.2-.1.2-.1.2 0z" fill="#fefefd" opacity=".48"/><path d="m681.9 363.4v2.3c0 .6-.7 1.2-1.9 1.7-.4.2-.8.3-1.3.4-.3.1-.6.1-.9.2-1 .2-2 .4-3.2.5-1.8.2-3.8.4-6 .4-1.7 0-3.3-.1-4.8-.2-.6-.1-1.1-.1-1.6-.2-.2 0-.4-.1-.6-.1-.1 0-.2 0-.4-.1-.5-.1-1-.2-1.4-.3-1.6-.4-2.9-.8-3.6-1.3-.5-.3-.8-.7-.8-1.1v-2.3h3.8c2.4-.6 5.8-1 9.5-1 1.4 0 2.7.1 4 .2 2.1.2 4 .4 5.5.8h3.7z" fill="#e07d2b"/><path d="m677.9 364.2v3.7c-1 .2-2 .4-3.2.5v-4.3z" fill="#ffd066"/><path d="m680 364v3.3c-.4.2-.8.3-1.3.4v-3.7z" fill="#ffd066"/><path d="m662.3 365.8v2.7c-.2 0-.4-.1-.6-.1-.1 0-.2 0-.4-.1v-2.5z" fill="#f2be3d"/><path d="m659.8 364.5v3.5c-1.6-.3-2.9-.8-3.6-1.3v-2.2z" fill="#f2be3d"/><path d="m681.9 363.4c0 1.8-5.9 3.2-13.3 3.2-1.7 0-3.3-.1-4.8-.2-.8-.1-1.6-.2-2.3-.3-.6-.1-1.3-.2-1.8-.3-1.6-.4-2.9-.8-3.6-1.3-.5-.3-.8-.7-.8-1.1 0-1.8 5.9-3.2 13.3-3.2 1.4 0 2.7 0 4 .1 2.1.2 4 .5 5.5.8.5.1 1 .3 1.4.4.5.2.9.3 1.2.5 0 0 .1 0 .1.1.8.4 1.1.9 1.1 1.3z" fill="#f4a23c"/><ellipse cx="668.7" cy="363.4" fill="#f2be3d" rx="11.2" ry="2.7"/><path d="m680.9 362.2-19.7 3.3-1.4.4c-1.6-.4-2.9-.8-3.6-1.3l1.6-.4 13.2-3.3 1.6-.4c2.1.2 4 .5 5.5.8.5.1 1 .3 1.4.4.5.2.9.3 1.2.5.2-.1.2-.1.2 0z" fill="#fefefd" opacity=".48"/><path d="m572.9 362.1v2.3c0 .6-.7 1.2-1.9 1.7-.4.2-.8.3-1.3.4-.3.1-.6.1-.9.2-1 .2-2 .4-3.2.5-1.8.2-3.8.4-6 .4-1.7 0-3.3-.1-4.8-.2-.6-.1-1.1-.1-1.6-.2-.2 0-.4-.1-.6-.1-.1 0-.2 0-.4-.1-.5-.1-1-.2-1.4-.3-1.6-.4-2.9-.8-3.6-1.3-.5-.3-.8-.7-.8-1.1v-2.3h3.8c2.4-.6 5.8-1 9.5-1 1.4 0 2.7.1 4 .2 2.1.2 4 .4 5.5.8h3.7z" fill="#e07d2b"/><path d="m568.8 362.9v3.7c-1 .2-2 .4-3.2.5v-4.3z" fill="#ffd066"/><path d="m571 362.7v3.3c-.4.2-.8.3-1.3.4v-3.7z" fill="#ffd066"/><path d="m553.2 364.5v2.7c-.2 0-.4-.1-.6-.1-.1 0-.2 0-.4-.1v-2.5z" fill="#f2be3d"/><path d="m550.8 363.2v3.5c-1.6-.3-2.9-.8-3.6-1.3v-2.2z" fill="#f2be3d"/><path d="m572.9 362.1c0 1.8-5.9 3.2-13.3 3.2-1.7 0-3.3-.1-4.8-.2-.8-.1-1.6-.2-2.3-.3-.6-.1-1.3-.2-1.8-.3-1.6-.4-2.9-.8-3.6-1.3-.5-.3-.8-.7-.8-1.1 0-1.8 5.9-3.2 13.3-3.2 1.4 0 2.7 0 4 .1 2.1.2 4 .5 5.5.8.5.1 1 .3 1.4.4.5.2.9.3 1.2.5 0 0 .1 0 .1.1.7.5 1.1.9 1.1 1.3z" fill="#f4a23c"/><ellipse cx="559.6" cy="362.1" fill="#f2be3d" rx="11.2" ry="2.7"/><path d="m571.9 360.9-19.7 3.3-1.4.4c-1.6-.4-2.9-.8-3.6-1.3l1.6-.4 13.2-3.3 1.6-.4c2.1.2 4 .5 5.5.8.5.1 1 .3 1.4.4.5.2.9.3 1.2.5.1-.1.2 0 .2 0z" fill="#fefefd" opacity=".48"/><path d="m613.6 340.7-.3 2.2c-.1.6-.9 1.1-2.2 1.4-.4.1-.8.2-1.3.2-.3 0-.6.1-.9.1-1 .1-2.1.1-3.3.1-1.8 0-3.8-.2-6-.5-1.7-.3-3.2-.6-4.7-.9-.5-.1-1.1-.3-1.6-.4-.2-.1-.4-.1-.6-.2-.1 0-.2-.1-.3-.1-.5-.1-.9-.3-1.4-.5-1.5-.6-2.7-1.2-3.4-1.8-.5-.4-.7-.8-.6-1.2l.3-2.2 3.8.6c2.5-.2 5.8-.1 9.5.5 1.4.2 2.7.5 3.9.7 2.1.5 3.9 1 5.3 1.6z" fill="#e07d2b"/><path d="m609.5 340.9-.6 3.7c-1 .1-2.1.1-3.3.1l.6-4.2z" fill="#ffd066"/><path d="m611.6 341-.5 3.3c-.4.1-.8.2-1.3.2l.6-3.7z" fill="#ffd066"/><path d="m593.8 340.1-.4 2.6c-.2-.1-.4-.1-.6-.2-.1 0-.2-.1-.3-.1l.4-2.5z" fill="#f2be3d"/><path d="m591.6 338.5-.5 3.5c-1.5-.6-2.7-1.2-3.4-1.8l.3-2.2z" fill="#f2be3d"/><path d="m613.6 340.7c-.3 1.8-6.4 2.3-13.6 1.2-1.7-.3-3.2-.6-4.7-.9-.8-.2-1.5-.4-2.2-.6-.6-.2-1.2-.4-1.7-.6-1.5-.6-2.7-1.2-3.4-1.8-.5-.4-.7-.8-.6-1.2.3-1.8 6.4-2.3 13.6-1.2 1.4.2 2.7.5 3.9.7 2.1.5 3.9 1 5.3 1.6.5.2 1 .4 1.4.6s.8.5 1.1.7l.1.1c.6.5.9.9.8 1.4z" fill="#f4a23c"/><ellipse cx="600.5" cy="338.7" fill="#f2be3d" rx="2.7" ry="11.2" transform="matrix(.1491 -.9888 .9888 .1491 176.0357 882.0544)"/><path d="m612.8 339.3-20 .3-1.5.1c-1.5-.6-2.7-1.2-3.4-1.8l1.7-.2 13.5-1.3 1.7-.2c2.1.5 3.9 1 5.3 1.6.5.2 1 .4 1.4.6.5.4.9.6 1.3.9z" fill="#fefefd" opacity=".48"/><g fill="#2d5b6b"><path d="m339 371.8 2.6 5.7c-2.7-.1-4.9-.1-6.3-.2-8.3-.1-12.4-1.1-12.4-2.8s1.3-2.9 13.2-2.6c.7 0 1.7 0 2.9-.1z"/><path d="m347 377.6-4.1-6.2c11.9-1.2 33.5-3.7 36.5 1.5 2.6 4.9-18 5-32.4 4.7z"/><path d="m418.3 361.6-4.6-4.8c-2.6.1-4.8.1-6.1.1-8.2 0-11 .9-8.9 2.4 2.1 1.4 4.9 2.5 16.5 2.2.7-.1 1.7 0 3.1.1z"/><path d="m416.9 356.5 6 5.1c13.4 1 35.1 2.6 31.4-1.8-3.5-4.2-23.4-3.6-37.4-3.3z"/><path d="m482.6 371.8 2.6 5.7c-2.7-.1-4.9-.1-6.3-.2-8.3-.1-12.4-1.1-12.4-2.8s1.3-2.9 13.2-2.6c.7 0 1.7 0 2.9-.1z"/><path d="m490.6 377.6-4.1-6.2c11.9-1.2 33.5-3.7 36.5 1.5 2.6 4.9-18 5-32.4 4.7z"/></g><path d="m99.3 173.7s-11.3.8-16.3-.1c-4-1.6-18-7.3-18-7.3-7.1 2.1-15.2 1.7-18.1 1.4-.6-.1-1.3.4-1.5 1-.5 1.1.1 2.4 1.1 2.7l4.5 1-7.6.8c-1.2.1-2.3.8-3.1 1.9l-.4.6h-2.1c-.9 0-1.8.8-1.9 1.8-.2 1.3.6 2.6 1.7 2.8l1.2.1v.2c0 2.1 1.5 3.8 3.3 3.8h16.6s8.7 1.7 15.8 2.7c-3.4 1.4-8.1 4.7-9.7 7.1-.7 1.1-.7 2.6.1 3.7s2.3 1.3 3.3.5c1.2-1 3-2.1 5.1-2.3 4-.5 10.2-8 10.2-8l18.2-.6z" fill="#efc8ab"/><path d="m249 154.5-7.3 42.6s10.6 0 20.7-8.1c-6.9-23.2-13.4-34.5-13.4-34.5z" fill="#9b8980"/><path d="m290.5 313.3-52.5-15.8 8.1-52.7 15.2 6.3 5.5-37-18.2.6c-.1-2-.3-4.1-.5-6.3-16.3 0-79 0-109.3 52.5 0 0 29.4-11.5 74.7-5.2l-4.1 46.4c-.7 7.4 3.7 14.4 10.7 17l53.9 20.2s8.3-.5 13.4-9.8c5.1-9.4 3.1-16.2 3.1-16.2z" fill="#9b8980"/><path d="m155.9 245s34.3-2.2 65.3-1.2c11.8.4 22.1-8.1 24-19.8 2.7-16.4 3-19.5 3-19.5s-55.8 1.2-92.3 40.5z" fill="#edf2f7"/><path d="m238 224.2s-36.3 16.1-44 51c-7.2 2.6-13.7 4.7-13.7 4.7l-7.1-11.6s16-32.1 60.8-47c2.3-1.9 4 2.9 4 2.9z" fill="#383838"/><path d="m252.2 212.9c1 4.5-1.8 9.1-6.4 10.1l-4.5 1c-4.5 1-9.1-1.8-10.1-6.4-1-4.5 1.8-9.1 6.4-10.1l4.5-1c4.5-1 9.1 1.9 10.1 6.4z" fill="#ddb597"/><path d="m277.4 172c-20 5.3-34 21-35.6 38-.3 3.9-.1 7.9 1 11.8.4 1.5.9 3 1.5 4.4.5 1.3 1.2 2.6 1.9 3.8 1.1 1.9 2.4 3.7 3.8 5.4 1.1 1.3 2.2 2.5 3.5 3.6 1.6 1.4 3.4 2.8 5.2 4 10.5 6.6 24.5 8.9 38.7 5.2 24.6-6.5 40.1-28.8 34.6-49.9-5.5-21-30-32.8-54.6-26.3z" fill="#efc8ab"/><path d="m314.2 214c-9.7-14.3-35.5-8.4-35.5-8.4l-.5-3s7.6-6.5-1-10.5c-13.2-4.3-13.8-14.3-13.8-14.3 19.2-15.3 35.8-7 35.8-7s26.1 13.6 15 43.2z" fill="#6b5144"/><path d="m273.9 203s10.6-.1 14.4-5c-1-5.3-4.9-8.7-11.2-5.8-6 2.8-3.2 10.8-3.2 10.8z" fill="#e9bf9c"/><path d="m276.3 234s7.1-3.7 11.8.7l.1 3.7c.1 3.2-2.5 5.8-5.7 5.9-3.1.1-5.7-2.3-5.9-5.4z" fill="url(#a)"/><ellipse cx="292.6" cy="240.1" fill="#141414" rx="3.8" ry="3.1" transform="matrix(.9753 -.2209 .2209 .9753 -45.8103 70.5658)"/><ellipse cx="291.2" cy="222.8" fill="#141414" rx="3.8" ry="3.1" transform="matrix(.9753 -.2209 .2209 .9753 -42.0222 69.8298)"/><path d="m302.7 216.5v3.7c0 1.5-1.2 2.7-2.7 2.7-1.5 0-2.7-1.2-2.7-2.7v-3.7c0-1.5 1.2-2.7 2.7-2.7 1.5 0 2.7 1.2 2.7 2.7z" fill="#6b5144"/><path d="m304.6 238.2v3c0 1.5-1.2 2.7-2.7 2.7-1.5 0-2.7-1.2-2.7-2.7v-3c0-1.5 1.2-2.7 2.7-2.7 1.5 0 2.7 1.2 2.7 2.7z" fill="#6b5144"/><path d="m263.7 242.7c-.6 0-1.1-.3-1.4-.9-.2-.4-4.2-10.4 2.4-17.4.6-.6 1.5-.6 2.1-.1.6.6.6 1.5.1 2.1-5.3 5.6-1.8 14.1-1.8 14.2.3.8 0 1.6-.8 2-.2.1-.4.1-.6.1z" fill="#383838"/><path d="m207.1 213.8s0 0-.1-.1z" fill="#b7a295"/><path d="m15.3 329.6 22.4-4 2.8 15.7-15.7 8.5-9.5.8-4-11.3z" fill="#eaeaea"/><path d="m125.2 362.6 4.8-11 22.7 6.8-1.7 4.6-2.3 5.8c.1-.1-13.4 4.2-23.5-6.2z" fill="#eaeaea"/><path d="m105.7 266 8.9 60c.5 3.1-1.5 6-4.5 6.7l-79.6 19s-12.3-4.5-11.8-33.5c34.8-5 63.3-9.8 63.3-9.8l-10.2-53.1c-.1 0 20.4-3 33.9 10.7z" fill="#3c6baf"/><path d="m130 228.1s56.7 60.3 57.7 64.3-26 69.7-26 69.7-31.3-6.7-36-10.3c8.7-13.3 27.7-50.3 27.7-50.3s-48-44-53.7-49.3c-5.7-5.4 30.3-24.1 30.3-24.1z" fill="#3c6baf"/><path d="m124.8 360.8s-5.2 9.9-4.7 16.9h68.5s-.7-9.4-6-10.4-31.7-4.3-31.7-4.3-12.2 6.6-26.1-2.2z" fill="#876755"/><path d="m35.3 377.7h-26.3l-9-44.9s6.8-2.8 15.3-3.2c-3.2 10.3 9.5 20.2 9.5 20.2l1.8 15s2.3.2 2.3 2.5c8 1.8 11 2.7 11.5 10.4-5.1 0-5.1 0-5.1 0z" fill="#876755"/><path d="m331.2 212.4c1.5 25.9-16.3 54.6-23.6 48-.1-.1-.2-.2-.3-.3-7.7-8.5-1.8-63.6-1.8-63.6s8.1 2.1 24.8 8.9c.5 2.2.8 4.6.9 7z" fill="#9b8980"/><path d="m320.7 183.5-4.6 3.9-10.6 9s-22.7-28.2-21.1-34.8c.3-1.1 1.2-1.6 3-1.3 12.6 2.4 33.3 23.2 33.3 23.2z" fill="#9b8980"/><path d="m331.2 212.4c1.5 25.9-16.3 54.6-23.6 48 17.9-15.5 16.5-45.4 16.5-45.4 2.6-1.3 4.9-2.2 7.1-2.6z" fill="#89776f"/><path d="m320.7 183.5-4.6 3.9c-14.3-20.8-29.5-25.2-31.8-25.8.3-1.1 1.2-1.6 3-1.3 12.7 2.4 33.4 23.2 33.4 23.2z" fill="#89776f"/><path d="m331.3 217.9c-8.2 3.5-19.8-3.9-25.8-21.5s4.5-22.6 4.5-22.6 32.9-9 41.2-1.6c.2.2.4.4.6.6 6.6 8.5-12.6 41.7-20.5 45.1z" fill="#9b8980"/><path d="m350 171.8s-5.2-5.8-2.4-7.1c2.8-1.4 2.4 7.1 2.4 7.1z" fill="#9b8980"/><path d="m350 171.8s7.7 4.3 7.9.4c.1-4-4.6-3.2-7.9-.4z" fill="#9b8980"/><path d="m336.5 203c-5.9 5.9-14.6 9.1-22.7 8.5 5.7 6.4 12.3 8.6 17.5 6.4 6.7-2.8 21.2-26.6 21.8-39.2-4.2 9-9.6 17.3-16.6 24.3z" fill="#89776f"/><path d="m273.2 337.6c-2-1.5.6-9.4 4.3-14.8 3.4-5 9.2-10 11.2-8.6s.1 9-3.3 14.4c-3.7 5.8-10.2 10.5-12.2 9z" fill="#51423c"/><path d="m307.5 339.4c.5-1.2 9.3-11-3.6-20.2-3.3 14.5-5.9 17.5-5.9 17.5l-1.6 11.9s6.9-.7 11.1-9.2z" fill="#ddb597"/><ellipse cx="324.8" cy="350.2" fill="#87cdf4" opacity=".5" rx="25.3" ry="12.6" transform="matrix(.8857 -.4643 .4643 .8857 -125.4499 190.834)"/><path d="m346.6 344.4-24.6-5.7-8.4 4.4s11.4-2.7 24.6 10.9c3.9-2.7 8.4-9.6 8.4-9.6z" fill="#fff"/><path d="m325.1 337.4 17 2.2s-11-3.1-12.5-3.8c-1.3.4-4.5 1.6-4.5 1.6z" fill="#fff"/><path d="m299.9 362.4 1.7 3.3c3.4 6.6 17.1 6.2 30.5-.8s21.5-18.1 18.1-24.6l-1.7-3.3-1 .5c-1-.6-2.1-1.1-3.4-1.3.5.5 1 1 1.3 1.6 2.9 5.5-4.4 15-16.1 21.1-11.8 6.2-23.7 6.7-26.6 1.3-.4-.8-.6-1.7-.6-2.7-.7 1.6-1.2 3.1-1.2 4.6z" fill="#113156"/><path d="m286.7 337.2c-1.2-.5-1.8-1.9-1.4-3.2.5-1.3 1.9-1.9 3.2-1.5l24.8 8.9-5 4.9z" fill="#113156"/><path d="m299.9 362.3c3.4 6.6 17.1 6.2 30.5-.8s21.5-18.1 18.1-24.6-17.1-6.2-30.5.8c-2 1-3.9 2.2-5.6 3.4-2.1 1.4-4 3-5.7 4.6-6.3 5.8-9.2 12.2-6.8 16.6zm2.8-2.3c-.4-.8-.6-1.7-.6-2.7 0-5.5 6.8-13.2 16.8-18.4 10.5-5.5 21.1-6.5 25.3-2.8.5.5 1 1 1.3 1.6 2.9 5.5-4.4 15-16.1 21.1-11.9 6.1-23.8 6.7-26.7 1.2z" fill="#25527f"/><path d="m306.6 335.6c-.6.8-2 1.5-3.6 2.1l-5.4-1.9-8.2-3-.9-.3c-1.3-.5-2.7.2-3.2 1.5s.1 2.7 1.4 3.2l3.7 1.6c.7.2 1.3.4 1.3.4l-10 .2s-4.7-3.7-2.4-11.4c2.8-9.6 18.2-16.1 25.1-8.3s4.4 12.7 2.2 15.9z" fill="#ddb597"/><path d="m302 357.2c2.6-5.6 9-11.7 17.6-16.3 9.1-4.8 18.4-6.5 24.5-5-4.2-3.7-14.8-2.7-25.3 2.8-10 5.4-16.7 13-16.8 18.5z" fill="#113156"/><path d="m296.8 316.2-11-1.6s-5.8 2.7-10.6 12.2c4.5 1.5 7.9 2.3 7.9 2.3z" fill="#ddb597"/><path d="m280.1 332.8c-2.6.7-4.1 3.5-3.4 6.1l.6 2.3c.7 2.6 3.5 4.1 6.1 3.4 2.6-.7 4.1-3.5 3.4-6.1l-.6-2.3c-.7-2.6-3.5-4.1-6.1-3.4z" fill="#c1977a"/><path d="m286.6 334.5c-2.6.7-4.1 3.5-3.4 6.1l.6 2.3c.7 2.6 3.5 4.1 6.1 3.4 2.6-.7 4.1-3.5 3.4-6.1l-.6-2.3c-.7-2.6-3.5-4.2-6.1-3.4z" fill="#cea68a"/><path d="m293.1 336.9c-2.6.7-4.1 3.5-3.4 6.1l.6 2.3c.7 2.6 3.5 4.1 6.1 3.4 2.6-.7 4.1-3.5 3.4-6.1l-.6-2.3c-.7-2.6-3.5-4.2-6.1-3.4z" fill="#ddb597"/><path d="m304.3 319.5c6.9 7.8 4.5 12.7 2.2 15.9-1.6 2.2-8.6 3.5-12.7 4.1-1.8.2-3.5-.6-4.5-2.1-1.4-2.3-.5-5.3 1.9-6.5l8.6-4z" fill="#ddb597"/><path d="m299.8 326.9c-1.1 1-2.3 1.8-3.5 2.5s-2.5 1.4-3.8 2c-.3.1-.7.3-.9.4-.3.1-.5.3-.7.4-.5.3-.8.8-1.1 1.3-.6 1-.8 2.4-.4 3.8-1.1-1-1.6-2.8-1.1-4.4.2-.8.7-1.5 1.3-2.1.3-.3.7-.5 1.1-.8.4-.2.7-.3 1-.5 1.3-.6 2.6-1.1 4-1.6 1.3-.4 2.6-.8 4.1-1z" fill="#c19b81"/><path d="m261.3 206.1s-14 5-27 18.3c-72 4.7-100.5 45.6-139.5 92.6-69.2-24-48.3-77.3-48.3-77.3 16.2-10.8 31.1-19.6 45-26.9 2.7-1.4 5.4-2.8 8-4.1 83.2-41.1 122.5-22.3 122.5-22.3s2.7-2 27-32c.7 26.7 12.3 51.7 12.3 51.7z" fill="#b7a295"/><path d="m218.3 188.5-11.3 25.3s0 0-.1-.1l-57.4-24.2s-45.2 7.3-63.2 7.5c-.2-1-.4-1.9-.6-2.8-2.6-14.1 1.8-22.5 1.8-22.5l68.3-8z" fill="#b7a295"/><path d="m149 186.3c11.1 5.5 55.2 26.2 58 27.5l-57.4-24.2s-45.2 7.3-63.2 7.5c-.2-1-.4-1.9-.6-2.8 0 0 54.4-7 63.2-8z" fill="#aa958a"/><path d="m127.6 270.3-25.8-17.8-23 25.8s8.3 16.7 24.4 16.7c12.9-16.4 24.4-24.7 24.4-24.7z" fill="#aa958a"/><path d="m101.7 233.5c-1 6.6-7 7.7-12.5 7.3-3.9-8.2-.5-22.7 2.4-28 2.7-1.4 5.4-2.8 8-4.1-.8 2.6-4.1 14.4 2.1 24.8z" fill="#aa958a"/></svg>