<?xml version="1.0" encoding="utf-8"?>
<!-- Generator: Adobe Illustrator 21.0.2, SVG Export Plug-In . SVG Version: 6.00 Build 0)  -->
<svg version="1.1" id="Слой_1" xmlns="http://www.w3.org/2000/svg" xmlns:xlink="http://www.w3.org/1999/xlink" x="0px" y="0px"
	 viewBox="0 0 325 256" style="enable-background:new 0 0 325 256;" xml:space="preserve">
<style type="text/css">
	.st0{fill:url(#SVGID_1_);}
	.st1{display:none;}
	.st2{display:inline;fill:url(#SVGID_2_);}
	.st3{display:inline;fill:url(#SVGID_3_);}
	.st4{display:inline;fill:url(#SVGID_4_);}
	.st5{display:inline;fill:url(#SVGID_5_);}
	.st6{display:inline;fill:url(#SVGID_6_);}
	.st7{fill:url(#SVGID_7_);}
</style>
<g>
	
		<linearGradient id="SVGID_1_" gradientUnits="userSpaceOnUse" x1="0" y1="130" x2="256" y2="130" gradientTransform="matrix(1 0 0 -1 0 258)">
		<stop  offset="0" style="stop-color:#FF9F48"/>
		<stop  offset="1" style="stop-color:#FF3B6A"/>
	</linearGradient>
	<path class="st0" d="M256,128c0,70.7-57.3,128-128,128c-1.7,0-3.3,0-4.9-0.1l89.5-89.5c25.1-25.1,25.1-65.9,0-90.9
		s-65.9-25.1-90.9,0l-46.3,46.3c-7.4,7.4-7.4,19.5,0,26.9s19.4,7.4,26.9,0l46.3-46.3c10.3-10.3,27-10.3,37.2,0
		c10.3,10.3,10.3,26.9,0,37.2L79,246.3C32.6,227,0,181.3,0,128C0,57.3,57.3,0,128,0c1.7,0,3.3,0,5,0.1L43.4,89.6
		c-25.1,25.1-25.1,65.9,0,90.9c12.1,12.1,28.3,18.8,45.5,18.8s33.4-6.7,45.5-18.8l46.3-46.3c7.4-7.4,7.4-19.5,0-26.9
		s-19.5-7.4-26.9,0l-46.3,46.3c-10.3,10.3-26.9,10.3-37.2,0s-10.3-26.9,0-37.2L177,9.7C223.4,29,256,74.7,256,128z"/>
</g>
<g class="st1">
	<linearGradient id="SVGID_2_" gradientUnits="userSpaceOnUse" x1="0" y1="86.3377" x2="255.5078" y2="86.3377">
		<stop  offset="0" style="stop-color:#FF9F48"/>
		<stop  offset="1" style="stop-color:#FF3B6A"/>
	</linearGradient>
	<path class="st2" d="M92.9,86.4l-5-2.2l-8.6,8.6l2.2,5l-3.7,3.7l-11.3-26l4.1-4.1l26,11.3L92.9,86.4z M71.9,76.6l5.5,12.3l6.7-6.7
		L71.9,76.6z"/>
	<linearGradient id="SVGID_3_" gradientUnits="userSpaceOnUse" x1="0" y1="69.614" x2="255.5078" y2="69.614">
		<stop  offset="0" style="stop-color:#FF9F48"/>
		<stop  offset="1" style="stop-color:#FF3B6A"/>
	</linearGradient>
	<path class="st3" d="M98.6,80.6L80,61.9l3.3-3.3L99,74.4l8.2-8.2l2.9,2.9L98.6,80.6z"/>
	<linearGradient id="SVGID_4_" gradientUnits="userSpaceOnUse" x1="0" y1="51.2885" x2="255.5078" y2="51.2885">
		<stop  offset="0" style="stop-color:#FF9F48"/>
		<stop  offset="1" style="stop-color:#FF3B6A"/>
	</linearGradient>
	<path class="st4" d="M113.1,66.1L94.4,47.4l8.2-8.2c3.9-3.9,8.8-3.4,12-0.3c3.2,3.2,3.6,8.1-0.3,12l-4.9,4.9l7,7L113.1,66.1z
		 M111.2,42.4c-1.8-1.8-4.3-1.6-6.2,0.2l-4.5,4.5l5.9,5.9l4.5-4.5C112.9,46.7,113,44.1,111.2,42.4z"/>
	<linearGradient id="SVGID_5_" gradientUnits="userSpaceOnUse" x1="0" y1="31.6313" x2="255.5078" y2="31.6313">
		<stop  offset="0" style="stop-color:#FF9F48"/>
		<stop  offset="1" style="stop-color:#FF3B6A"/>
	</linearGradient>
	<path class="st5" d="M143.1,36.1L135,28l-9.7,9.7l8.1,8.1l-3.3,3.3l-18.7-18.7l3.3-3.3l7.6,7.6l9.7-9.7l-7.6-7.6l3.3-3.3l18.7,18.7
		L143.1,36.1z"/>
	<linearGradient id="SVGID_6_" gradientUnits="userSpaceOnUse" x1="0" y1="15.7758" x2="255.5078" y2="15.7758">
		<stop  offset="0" style="stop-color:#FF9F48"/>
		<stop  offset="1" style="stop-color:#FF3B6A"/>
	</linearGradient>
	<path class="st6" d="M163.4,15.8l-5-2.2l-8.6,8.6l2.2,5l-3.7,3.7l-11.3-26l4.1-4.1l26,11.3L163.4,15.8z M142.4,6.1l5.5,12.3
		l6.7-6.7L142.4,6.1z"/>
</g>
<linearGradient id="SVGID_7_" gradientUnits="userSpaceOnUse" x1="4.6667" y1="31.508" x2="325.6777" y2="31.508">
	<stop  offset="0" style="stop-color:#FF9F48"/>
	<stop  offset="1" style="stop-color:#FF3B6A"/>
</linearGradient>
<path class="st7" d="M307.7,47.9c-1.4-4-3.4-10.3-5-15.1C311.7,19.2,323.5,0,323.5,0h-16.1l-9.8,15.9c0,0-2.9-15.9-18.7-15.9
	c-14,0-29,7.1-38.1,23.7c-9.1,16.5-6.8,36.2,14.3,39.1C270.8,64.8,287,55,294,45.7c0,0,2.3,17.2,17.1,17.2c7.6,0,11.6-3.8,13.9-6.6
	C319.6,57.3,310.2,55.2,307.7,47.9z M257.4,55.5c-9.5,0-9.3-16.6-4.2-28.1c5.1-11.5,14.1-20.8,23.1-20.8s12.3,23.1,12.3,23.1
	C277.5,48,266.9,55.5,257.4,55.5z"/>
</svg>
