<svg height="30" viewBox="0 0 105 30" width="105" xmlns="http://www.w3.org/2000/svg"><g fill="none" fill-rule="evenodd"><text fill="#2e3033" font-family="Rubik-Medium, Rubik" font-size="17" font-weight="400" letter-spacing="-.34" transform="translate(31 2.5)"><tspan x="0" y="16.5">desearch</tspan></text><path d="m22.049 13.529c-.857-.938-2.039-1.13-3.243-1.235a3.304 3.304 0 0 1 -2.05-.951l-.1-.1a3.297 3.297 0 0 1 -.956-2.07c-.09-1.144-.293-2.367-1.23-3.222a3.682 3.682 0 0 0 -4.94 0c-.833.76-1.084 1.811-1.195 2.84-.097.89-.341 1.803-.99 2.452l-.1.1c-.57.57-1.33.909-2.134.964-1.048.071-2.314.296-3.16 1.221a3.68 3.68 0 0 0 .016 4.956 3.67 3.67 0 0 0 5.29.107c.463-.462.75-1.03.888-1.624a7 7 0 0 0 .115-.964v-.003a3.668 3.668 0 0 1 3.815-3.665 3.681 3.681 0 0 1 3.516 3.467 3.668 3.668 0 0 1 -3.47 3.86l.006.006c-.973.096-2.079.362-2.84 1.195a3.68 3.68 0 0 0 .016 4.956 3.669 3.669 0 0 0 5.29.107c.736-.735 1.004-1.817 1.074-2.667.07-.847.312-1.79.989-2.507l.1-.1c.57-.57 1.328-.917 2.134-.965 1.004-.06 2.31-.291 3.159-1.22a3.68 3.68 0 0 0 0-4.938" fill="#2367c8"/></g></svg>