<svg height="42" viewBox="0 0 42 42" width="42" xmlns="http://www.w3.org/2000/svg"><path d="m40.184 16.282c-1.635-1.79-3.891-2.157-6.19-2.357-1.4782986-.1258939-2.8648946-.7689119-3.916-1.816l-.19-.19c-1.0590779-1.0590024-1.7058088-2.46096181-1.824-3.954-.172-2.182-.56-4.516-2.35-6.149-2.653-2.421-6.776-2.421-9.429 0-1.59 1.452-2.07 3.458-2.283 5.42-.184 1.701-.65 3.443-1.89 4.683l-.19.19c-1.0908236 1.0857939-2.53818058 1.7394849-4.074 1.84-2 .137-4.418.566-6.031 2.333-2.434 2.665-2.42 6.81.029 9.46 1.29264093 1.4010676 3.10045167 2.2148157 5.0063411 2.2534996 1.90588942.0386839 3.745231-.7010379 5.0936589-2.0484996.882-.883 1.43-1.966 1.694-3.101.088-.38.184-1.18.22-1.84v-.006c.000381-1.9056427.7773415-3.728836 2.1516407-5.0489784s3.2272404-2.0232147 5.1313593-1.9470216c3.588.14 6.525 3.033 6.713 6.618.1002507 1.8562153-.541732 3.6761112-1.784455 5.0585818-1.242723 1.3824707-2.984177 2.2140359-4.840545 2.3114182l.012.01c-1.858.184-3.969.692-5.42 2.282-2.434 2.665-2.421 6.81.029 9.461 1.2926314 1.4011909 3.1005678 2.2149397 5.0065452 2.2534367s3.7452982-.7015845 5.0934548-2.0494367c1.403-1.402 1.915-3.468 2.048-5.09.133-1.617.596-3.418 1.888-4.786l.19-.19c1.0874848-1.0923836 2.5375635-1.7484054 4.076-1.844 1.916-.115 4.41-.556 6.03-2.33 2.421-2.652 2.421-6.774 0-9.427" fill="#2367c8"/></svg>